<svg xmlns="http://www.w3.org/2000/svg" width="11.964" height="16.789" viewBox="0 0 11.964 16.789">
  <g id="Group_42" data-name="Group 42" transform="matrix(-0.017, -1, 1, -0.017, -228.222, 161.354)">
    <path id="Path_9" data-name="Path 9" d="M19.951,5.38,14.761.19a.649.649,0,0,0-.918.918l4.084,4.081L4.2,5.328a.649.649,0,0,0,0,1.3l13.723-.14L13.846,10.57a.65.65,0,0,0,0,.918.657.657,0,0,0,.457.188.647.647,0,0,0,.457-.191l5.19-5.19a.64.64,0,0,0,0-.915" transform="translate(137 231)" fill="#fff"/>
  </g>
</svg>
