<svg xmlns="http://www.w3.org/2000/svg" width="24.661" height="24.65" viewBox="0 0 24.661 24.65">
  <path id="Icon_awesome-instagram" data-name="Icon awesome-instagram" d="M12.325,8.242a6.309,6.309,0,1,0,4.469,1.85,6.32,6.32,0,0,0-4.469-1.85Zm0,10.433a4.1,4.1,0,1,1,4.1-4.1,4.1,4.1,0,0,1-4.1,4.1ZM20.378,7.989a1.873,1.873,0,1,1,0-.006Zm4.185,1.5A7.3,7.3,0,0,0,22.57,4.32,7.343,7.343,0,0,0,17.4,2.327c-2.035-.117-8.134-.117-10.169,0A7.332,7.332,0,0,0,2.073,4.309,7.318,7.318,0,0,0,.08,9.474c-.117,2.035-.117,8.134,0,10.169a7.3,7.3,0,0,0,1.993,5.165A7.351,7.351,0,0,0,7.238,26.8c2.035.117,8.134.117,10.169,0a7.3,7.3,0,0,0,5.165-1.993,7.343,7.343,0,0,0,1.993-5.165c.117-2.035.117-8.13,0-10.165ZM21.933,21.827a4.159,4.159,0,0,1-2.345,2.345c-1.622.644-5.472.495-7.268.495s-5.649.143-7.268-.495a4.159,4.159,0,0,1-2.345-2.345c-.644-1.622-.495-5.472-.495-7.268S2.07,8.91,2.708,7.291A4.159,4.159,0,0,1,5.053,4.947c1.622-.644,5.472-.495,7.268-.495s5.649-.143,7.268.495a4.159,4.159,0,0,1,2.345,2.345c.644,1.622.495,5.472.495,7.268S22.577,20.21,21.933,21.827Z" transform="translate(0.008 -2.239)" fill="#fff"/>
</svg>
