<svg xmlns="http://www.w3.org/2000/svg" width="29.466" height="20.72" viewBox="0 0 29.466 20.72">
  <path id="Icon_awesome-youtube" data-name="Icon awesome-youtube" d="M29.9,7.742A3.7,3.7,0,0,0,27.293,5.12C25,4.5,15.78,4.5,15.78,4.5s-9.213,0-11.511.62a3.7,3.7,0,0,0-2.6,2.622A38.837,38.837,0,0,0,1.05,14.88a38.837,38.837,0,0,0,.616,7.138A3.646,3.646,0,0,0,4.271,24.6c2.3.62,11.511.62,11.511.62s9.213,0,11.511-.62A3.646,3.646,0,0,0,29.9,22.02a38.838,38.838,0,0,0,.616-7.138A38.836,38.836,0,0,0,29.9,7.744ZM12.769,19.261V10.5l7.7,4.381-7.7,4.381Z" transform="translate(-1.049 -4.5)" fill="#fff"/>
</svg>
