<svg xmlns="http://www.w3.org/2000/svg" width="276pt" height="104pt" viewBox="0 0 276 104"><g id="#093658ff"><path fill="#093658" opacity="1.00" d=" M 0.00 0.00 L 276.00 0.00 L 276.00 43.32 C 191.01 43.29 106.02 43.32 21.02 43.31 C 14.22 43.19 7.40 43.56 0.61 43.17 L 0.00 40.92 L 0.00 0.00 M 86.05 3.82 C 80.60 15.58 75.19 27.36 69.97 39.23 C 71.96 39.13 74.00 39.38 75.96 38.94 C 77.33 36.52 78.26 33.88 79.36 31.33 C 83.83 31.40 88.31 31.11 92.77 31.45 C 94.14 33.98 95.16 36.69 96.47 39.26 C 98.51 39.21 100.55 39.19 102.59 39.17 C 96.86 27.49 92.18 15.28 86.05 3.82 M 106.83 5.37 C 106.66 16.48 106.91 27.60 106.73 38.72 C 113.35 39.37 120.32 39.81 126.76 37.81 C 139.15 33.28 140.04 13.51 128.90 7.10 C 123.09 3.95 116.24 4.82 109.90 4.67 C 108.89 4.85 107.50 4.33 106.83 5.37 M 183.41 3.72 C 183.15 15.59 183.30 27.47 183.34 39.35 C 185.31 39.16 187.29 39.01 189.27 38.90 C 189.06 31.68 189.56 24.44 188.88 17.23 C 196.61 24.61 203.49 32.84 211.19 40.26 C 211.40 28.55 211.16 16.85 211.29 5.14 C 209.27 5.13 207.25 5.12 205.23 5.10 C 205.29 12.16 205.26 19.22 205.27 26.28 C 197.85 18.89 191.14 10.79 183.41 3.72 M 250.51 6.52 C 246.73 9.20 245.41 14.95 248.21 18.79 C 250.99 23.08 256.71 23.42 260.25 26.76 C 262.25 28.84 261.56 32.77 258.71 33.67 C 254.70 35.38 250.67 32.76 247.10 31.13 C 246.46 32.87 245.80 34.61 245.14 36.34 C 250.15 39.36 256.76 41.15 262.21 38.20 C 267.32 35.58 269.28 28.00 265.44 23.54 C 262.24 19.71 256.53 19.40 253.32 15.67 C 251.19 13.08 254.08 9.59 256.93 9.54 C 259.80 9.18 262.41 10.70 264.94 11.81 C 265.55 10.07 266.18 8.34 266.81 6.60 C 261.87 4.01 255.25 2.98 250.51 6.52 M 9.75 4.77 C 9.74 16.14 9.78 27.51 9.73 38.88 C 11.71 38.99 13.69 39.14 15.67 39.33 C 15.74 34.35 15.72 29.37 15.67 24.39 C 20.91 24.40 26.14 24.42 31.38 24.40 C 31.35 29.34 31.32 34.28 31.42 39.22 C 33.37 39.19 35.31 39.18 37.25 39.17 C 37.28 27.70 37.29 16.23 37.26 4.76 C 35.30 4.76 33.35 4.76 31.40 4.76 C 31.32 9.58 31.39 14.40 31.33 19.22 C 26.12 19.17 20.92 19.15 15.71 19.19 C 15.70 14.38 15.72 9.57 15.70 4.75 C 13.72 4.76 11.74 4.77 9.75 4.77 M 45.45 39.21 C 52.42 39.18 59.38 39.16 66.35 39.20 C 66.38 37.34 66.41 35.47 66.44 33.61 C 61.40 33.62 56.36 33.58 51.31 33.66 C 51.32 30.56 51.31 27.45 51.26 24.34 C 55.78 24.30 60.31 24.31 64.83 24.34 C 64.81 22.60 64.79 20.87 64.77 19.14 C 60.31 19.18 55.85 19.16 51.40 19.20 C 51.31 16.21 51.31 13.23 51.30 10.24 C 56.34 10.24 61.37 10.24 66.40 10.26 C 66.40 8.43 66.39 6.59 66.39 4.76 C 59.40 4.78 52.41 4.79 45.42 4.75 C 45.37 16.24 45.34 27.72 45.45 39.21 M 142.53 4.78 C 142.56 16.25 142.49 27.72 142.58 39.19 C 149.56 39.21 156.54 39.19 163.52 39.18 C 163.54 37.32 163.56 35.47 163.58 33.61 C 158.53 33.61 153.47 33.62 148.41 33.59 C 148.51 23.97 148.50 14.35 148.43 4.73 C 146.46 4.75 144.50 4.76 142.53 4.78 M 168.86 19.04 C 169.04 25.78 168.46 32.56 169.27 39.27 C 171.08 39.24 172.89 39.21 174.71 39.18 C 174.76 27.72 174.84 16.25 174.68 4.78 C 172.87 4.76 171.06 4.73 169.25 4.70 C 168.58 9.45 168.93 14.26 168.86 19.04 M 219.32 4.76 C 219.43 16.24 219.28 27.72 219.41 39.19 C 226.40 39.16 233.38 39.15 240.37 39.21 C 240.39 37.35 240.41 35.49 240.43 33.63 C 235.38 33.60 230.33 33.62 225.28 33.64 C 225.30 30.52 225.32 27.41 225.30 24.29 C 229.81 24.32 234.31 24.31 238.82 24.33 C 238.81 22.61 238.82 20.89 238.82 19.17 C 234.34 19.18 229.85 19.15 225.37 19.21 C 225.29 16.22 225.30 13.23 225.29 10.24 C 230.33 10.24 235.36 10.22 240.39 10.26 C 240.40 8.42 240.42 6.58 240.43 4.74 C 233.39 4.80 226.36 4.76 219.32 4.76 Z"></path><path fill="#093658" opacity="1.00" d=" M 113.17 9.51 C 118.69 9.34 126.14 9.12 128.81 15.10 C 130.26 19.79 130.60 25.56 127.93 29.90 C 124.60 34.65 118.23 33.76 113.19 33.89 C 113.13 25.76 113.18 17.63 113.17 9.51 Z"></path><path fill="#093658" opacity="1.00" d=" M 85.79 16.16 C 85.96 16.15 86.29 16.12 86.46 16.11 C 88.11 19.54 89.44 23.12 90.91 26.63 C 87.70 26.62 84.49 26.61 81.29 26.62 C 82.85 23.16 84.16 19.59 85.79 16.16 Z"></path></g><g id="#ffffffff"><path fill="#ffffff" opacity="1.00" d=" M 86.05 3.82 C 92.18 15.28 96.86 27.49 102.59 39.17 C 100.55 39.19 98.51 39.21 96.47 39.26 C 95.16 36.69 94.14 33.98 92.77 31.45 C 88.31 31.11 83.83 31.40 79.36 31.33 C 78.26 33.88 77.33 36.52 75.96 38.94 C 74.00 39.38 71.96 39.13 69.97 39.23 C 75.19 27.36 80.60 15.58 86.05 3.82 M 85.79 16.16 C 84.16 19.59 82.85 23.16 81.29 26.62 C 84.49 26.61 87.70 26.62 90.91 26.63 C 89.44 23.12 88.11 19.54 86.46 16.11 C 86.29 16.12 85.96 16.15 85.79 16.16 Z"></path><path fill="#ffffff" opacity="1.00" d=" M 106.83 5.37 C 107.50 4.33 108.89 4.85 109.90 4.67 C 116.24 4.82 123.09 3.95 128.90 7.10 C 140.04 13.51 139.15 33.28 126.76 37.81 C 120.32 39.81 113.35 39.37 106.73 38.72 C 106.91 27.60 106.66 16.48 106.83 5.37 M 113.17 9.51 C 113.18 17.63 113.13 25.76 113.19 33.89 C 118.23 33.76 124.60 34.65 127.93 29.90 C 130.60 25.56 130.26 19.79 128.81 15.10 C 126.14 9.12 118.69 9.34 113.17 9.51 Z"></path><path fill="#ffffff" opacity="1.00" d=" M 183.41 3.72 C 191.14 10.79 197.85 18.89 205.27 26.28 C 205.26 19.22 205.29 12.16 205.23 5.10 C 207.25 5.12 209.27 5.13 211.29 5.14 C 211.16 16.85 211.40 28.55 211.19 40.26 C 203.49 32.84 196.61 24.61 188.88 17.23 C 189.56 24.44 189.06 31.68 189.27 38.90 C 187.29 39.01 185.31 39.16 183.34 39.35 C 183.30 27.47 183.15 15.59 183.41 3.72 Z"></path><path fill="#ffffff" opacity="1.00" d=" M 250.51 6.52 C 255.25 2.98 261.87 4.01 266.81 6.60 C 266.18 8.34 265.55 10.07 264.94 11.81 C 262.41 10.70 259.80 9.18 256.93 9.54 C 254.08 9.59 251.19 13.08 253.32 15.67 C 256.53 19.40 262.24 19.71 265.44 23.54 C 269.28 28.00 267.32 35.58 262.21 38.20 C 256.76 41.15 250.15 39.36 245.14 36.34 C 245.80 34.61 246.46 32.87 247.10 31.13 C 250.67 32.76 254.70 35.38 258.71 33.67 C 261.56 32.77 262.25 28.84 260.25 26.76 C 256.71 23.42 250.99 23.08 248.21 18.79 C 245.41 14.95 246.73 9.20 250.51 6.52 Z"></path><path fill="#ffffff" opacity="1.00" d=" M 9.75 4.77 C 11.74 4.77 13.72 4.76 15.70 4.75 C 15.72 9.57 15.70 14.38 15.71 19.19 C 20.92 19.15 26.12 19.17 31.33 19.22 C 31.39 14.40 31.32 9.58 31.40 4.76 C 33.35 4.76 35.30 4.76 37.26 4.76 C 37.29 16.23 37.28 27.70 37.25 39.17 C 35.31 39.18 33.37 39.19 31.42 39.22 C 31.32 34.28 31.35 29.34 31.38 24.40 C 26.14 24.42 20.91 24.40 15.67 24.39 C 15.72 29.37 15.74 34.35 15.67 39.33 C 13.69 39.14 11.71 38.99 9.73 38.88 C 9.78 27.51 9.74 16.14 9.75 4.77 Z"></path><path fill="#ffffff" opacity="1.00" d=" M 45.45 39.21 C 45.34 27.72 45.37 16.24 45.42 4.75 C 52.41 4.79 59.40 4.78 66.39 4.76 C 66.39 6.59 66.40 8.43 66.40 10.26 C 61.37 10.24 56.34 10.24 51.30 10.24 C 51.31 13.23 51.31 16.21 51.40 19.20 C 55.85 19.16 60.31 19.18 64.77 19.14 C 64.79 20.87 64.81 22.60 64.83 24.34 C 60.31 24.31 55.78 24.30 51.26 24.34 C 51.31 27.45 51.32 30.56 51.31 33.66 C 56.36 33.58 61.40 33.62 66.44 33.61 C 66.41 35.47 66.38 37.34 66.35 39.20 C 59.38 39.16 52.42 39.18 45.45 39.21 Z"></path><path fill="#ffffff" opacity="1.00" d=" M 142.53 4.78 C 144.50 4.76 146.46 4.75 148.43 4.73 C 148.50 14.35 148.51 23.97 148.41 33.59 C 153.47 33.62 158.53 33.61 163.58 33.61 C 163.56 35.47 163.54 37.32 163.52 39.18 C 156.54 39.19 149.56 39.21 142.58 39.19 C 142.49 27.72 142.56 16.25 142.53 4.78 Z"></path><path fill="#ffffff" opacity="1.00" d=" M 168.86 19.04 C 168.93 14.26 168.58 9.45 169.25 4.70 C 171.06 4.73 172.87 4.76 174.68 4.78 C 174.84 16.25 174.76 27.72 174.71 39.18 C 172.89 39.21 171.08 39.24 169.27 39.27 C 168.46 32.56 169.04 25.78 168.86 19.04 Z"></path><path fill="#ffffff" opacity="1.00" d=" M 219.32 4.76 C 226.36 4.76 233.39 4.80 240.43 4.74 C 240.42 6.58 240.40 8.42 240.39 10.26 C 235.36 10.22 230.33 10.24 225.29 10.24 C 225.30 13.23 225.29 16.22 225.37 19.21 C 229.85 19.15 234.34 19.18 238.82 19.17 C 238.82 20.89 238.81 22.61 238.82 24.33 C 234.31 24.31 229.81 24.32 225.30 24.29 C 225.32 27.41 225.30 30.52 225.28 33.64 C 230.33 33.62 235.38 33.60 240.43 33.63 C 240.41 35.49 240.39 37.35 240.37 39.21 C 233.38 39.15 226.40 39.16 219.41 39.19 C 219.28 27.72 219.43 16.24 219.32 4.76 Z"></path><path fill="#ffffff" opacity="1.00" d=" M 0.00 40.92 L 0.61 43.17 C 7.40 43.56 14.22 43.19 21.02 43.31 C 106.02 43.32 191.01 43.29 276.00 43.32 L 276.00 48.70 C 184.00 48.71 92.00 48.68 0.00 48.71 L 0.00 40.92 Z"></path><path fill="#ffffff" opacity="1.00" d=" M 123.73 53.11 C 130.18 53.20 136.63 53.01 143.08 53.16 C 155.06 53.67 165.54 64.94 164.64 77.03 C 164.75 88.98 153.80 99.45 141.98 99.46 C 135.90 99.50 129.81 99.41 123.73 99.48 C 123.74 84.03 123.73 68.57 123.73 53.11 M 135.35 61.30 C 135.34 70.95 135.40 80.60 135.32 90.25 C 139.27 90.40 143.39 90.09 146.88 88.05 C 153.96 84.29 154.83 74.17 151.23 67.70 C 148.01 62.25 141.20 60.93 135.35 61.30 Z"></path><path fill="#ffffff" opacity="1.00" d=" M 11.76 54.30 C 24.34 54.29 36.92 54.35 49.50 54.26 C 49.49 57.46 49.50 60.66 49.53 63.86 C 44.92 63.89 40.28 63.58 35.70 64.32 C 35.91 76.04 35.71 87.77 35.81 99.50 C 32.34 99.46 28.86 99.45 25.38 99.52 C 25.37 87.63 25.40 75.73 25.35 63.84 C 20.80 63.93 16.25 63.80 11.70 63.86 C 11.73 60.67 11.74 57.48 11.76 54.30 Z"></path><path fill="#ffffff" opacity="1.00" d=" M 78.26 54.26 C 85.48 52.57 93.63 53.72 99.46 58.52 C 109.99 67.13 110.37 85.20 100.31 94.31 C 92.57 101.41 80.08 102.14 71.23 96.72 C 61.50 90.72 58.92 77.28 63.01 67.13 C 65.65 60.71 71.51 55.82 78.26 54.26 M 79.16 64.12 C 72.84 67.46 71.23 75.68 73.09 82.09 C 74.67 88.37 81.67 92.54 87.92 90.36 C 96.21 87.59 98.20 76.58 94.67 69.44 C 92.07 63.73 84.70 61.44 79.16 64.12 Z"></path><path fill="#ffffff" opacity="1.00" d=" M 192.05 62.17 C 193.55 59.11 194.59 55.73 196.98 53.20 C 204.42 68.55 211.29 84.17 218.84 99.47 C 215.14 99.47 211.44 99.46 207.75 99.51 C 206.57 96.76 205.41 94.00 204.23 91.25 C 199.08 91.36 193.92 91.33 188.77 91.27 C 187.60 94.02 186.47 96.79 185.30 99.54 C 181.71 99.44 178.13 99.45 174.54 99.51 C 180.45 87.10 186.23 74.63 192.05 62.17 M 192.11 83.29 C 195.05 83.31 198.00 83.31 200.94 83.28 C 199.52 79.78 198.12 76.28 196.78 72.74 C 194.96 76.14 193.49 79.70 192.11 83.29 Z"></path><path fill="#ffffff" opacity="1.00" d=" M 223.16 54.32 C 227.21 54.29 231.27 54.32 235.33 54.25 C 238.53 59.93 241.26 65.87 244.74 71.39 C 247.70 65.65 250.79 59.96 253.86 54.28 C 257.83 54.32 261.80 54.31 265.77 54.27 C 260.45 63.41 254.86 72.42 249.89 81.75 C 249.51 87.63 249.78 93.53 249.82 99.42 C 246.28 99.47 242.75 99.46 239.21 99.52 C 239.19 93.99 239.30 88.46 239.20 82.94 C 239.29 81.52 238.39 80.35 237.79 79.16 C 232.89 70.90 228.17 62.52 223.16 54.32 Z"></path></g><g id="#991e21ff"><path fill="#991e21" opacity="1.00" d=" M 0.00 48.71 C 92.00 48.68 184.00 48.71 276.00 48.70 L 276.00 104.00 L 0.00 104.00 L 0.00 48.71 M 123.73 53.11 C 123.73 68.57 123.74 84.03 123.73 99.48 C 129.81 99.41 135.90 99.50 141.98 99.46 C 153.80 99.45 164.75 88.98 164.64 77.03 C 165.54 64.94 155.06 53.67 143.08 53.16 C 136.63 53.01 130.18 53.20 123.73 53.11 M 11.76 54.30 C 11.74 57.48 11.73 60.67 11.70 63.86 C 16.25 63.80 20.80 63.93 25.35 63.84 C 25.40 75.73 25.37 87.63 25.38 99.52 C 28.86 99.45 32.34 99.46 35.81 99.50 C 35.71 87.77 35.91 76.04 35.70 64.32 C 40.28 63.58 44.92 63.89 49.53 63.86 C 49.50 60.66 49.49 57.46 49.50 54.26 C 36.92 54.35 24.34 54.29 11.76 54.30 M 78.26 54.26 C 71.51 55.82 65.65 60.71 63.01 67.13 C 58.92 77.28 61.50 90.72 71.23 96.72 C 80.08 102.14 92.57 101.41 100.31 94.31 C 110.37 85.20 109.99 67.13 99.46 58.52 C 93.63 53.72 85.48 52.57 78.26 54.26 M 192.05 62.17 C 186.23 74.63 180.45 87.10 174.54 99.51 C 178.13 99.45 181.71 99.44 185.30 99.54 C 186.47 96.79 187.60 94.02 188.77 91.27 C 193.92 91.33 199.08 91.36 204.23 91.25 C 205.41 94.00 206.57 96.76 207.75 99.51 C 211.44 99.46 215.14 99.47 218.84 99.47 C 211.29 84.17 204.42 68.55 196.98 53.20 C 194.59 55.73 193.55 59.11 192.05 62.17 M 223.16 54.32 C 228.17 62.52 232.89 70.90 237.79 79.16 C 238.39 80.35 239.29 81.52 239.20 82.94 C 239.30 88.46 239.19 93.99 239.21 99.52 C 242.75 99.46 246.28 99.47 249.82 99.42 C 249.78 93.53 249.51 87.63 249.89 81.75 C 254.86 72.42 260.45 63.41 265.77 54.27 C 261.80 54.31 257.83 54.32 253.86 54.28 C 250.79 59.96 247.70 65.65 244.74 71.39 C 241.26 65.87 238.53 59.93 235.33 54.25 C 231.27 54.32 227.21 54.29 223.16 54.32 Z"></path><path fill="#991e21" opacity="1.00" d=" M 135.35 61.30 C 141.20 60.93 148.01 62.25 151.23 67.70 C 154.83 74.17 153.96 84.29 146.88 88.05 C 143.39 90.09 139.27 90.40 135.32 90.25 C 135.40 80.60 135.34 70.95 135.35 61.30 Z"></path><path fill="#991e21" opacity="1.00" d=" M 79.16 64.12 C 84.70 61.44 92.07 63.73 94.67 69.44 C 98.20 76.58 96.21 87.59 87.92 90.36 C 81.67 92.54 74.67 88.37 73.09 82.09 C 71.23 75.68 72.84 67.46 79.16 64.12 Z"></path><path fill="#991e21" opacity="1.00" d=" M 192.11 83.29 C 193.49 79.70 194.96 76.14 196.78 72.74 C 198.12 76.28 199.52 79.78 200.94 83.28 C 198.00 83.31 195.05 83.31 192.11 83.29 Z"></path></g></svg>