<svg id="Group_149606" data-name="Group 149606" xmlns="http://www.w3.org/2000/svg" xmlns:xlink="http://www.w3.org/1999/xlink" width="72" height="72.001" viewBox="0 0 72 72.001">
  <defs>
    <clipPath id="clip-path">
      <rect id="Rectangle_65911" data-name="Rectangle 65911" width="72" height="72.001" fill="none"/>
    </clipPath>
  </defs>
  <g id="Group_149605" data-name="Group 149605" transform="translate(0 0)" clip-path="url(#clip-path)">
    <path id="Path_5495" data-name="Path 5495" d="M6.87,42.469a.947.947,0,0,1-.75-.366,35.663,35.663,0,0,1-2.495-3.625A.95.95,0,1,1,5.253,37.5a34.353,34.353,0,0,0,2.364,3.434.951.951,0,0,1-.747,1.537" transform="translate(1.513 16.067)" fill="#8c725d"/>
    <path id="Path_5496" data-name="Path 5496" d="M10.651,45.9a.948.948,0,0,1-.6-.209c-.671-.541-1.328-1.11-1.954-1.692A.951.951,0,0,1,9.4,42.6c.592.552,1.214,1.09,1.85,1.6a.951.951,0,0,1-.6,1.692" transform="translate(3.383 18.371)" fill="#8c725d"/>
    <path id="Path_5497" data-name="Path 5497" d="M36,72a36.073,36.073,0,0,1-16.975-4.245.952.952,0,0,1,.9-1.678A34.04,34.04,0,1,0,3.276,45.619a.951.951,0,0,1-1.825.535A36.006,36.006,0,1,1,36,72" transform="translate(0 0)" fill="#8c725d"/>
    <path id="Path_5498" data-name="Path 5498" d="M39.016,19.567c0,.27,0,.541,0,.81,0,.178-.05.4.2.453a.475.475,0,0,0,.575-.268,3.642,3.642,0,0,0,.01-1.926.465.465,0,0,0-.568-.277c-.287.049-.212.294-.219.482-.01.241,0,.483,0,.726M24.432,19.6h0v-.939c0-.274-.165-.35-.4-.3a.543.543,0,0,0-.479.566c-.006.3,0,.6,0,.9a3.581,3.581,0,0,0,.011.512.541.541,0,0,0,.588.5c.36,0,.271-.3.28-.508.011-.241,0-.483,0-.726m7.284,10.752c1.068,0,2.136,0,3.2,0,.149,0,.457.086.311-.257a8.2,8.2,0,0,1-.393-1.916c-.087-.528-.1-.542-.575-.3a4.99,4.99,0,0,1-4.752.145c-.115-.057-.232-.108-.348-.162-.453-.217-.465-.214-.549.3a7.17,7.17,0,0,1-.354,1.794c-.163.364-.02.407.294.4,1.054-.01,2.108,0,3.162,0M27.562,10.012a.232.232,0,0,0-.265.024,7.022,7.022,0,0,0-3.745,6.64c.006.118.017.229.138.29a1.175,1.175,0,0,0,.955-.28,2.06,2.06,0,0,1,1.789-1.051A1.587,1.587,0,0,0,27.9,13.587a6.685,6.685,0,0,1-.336-3.574M23.55,26.248c0,1.209.009,2.419,0,3.628,0,.348.125.466.472.486a6.966,6.966,0,0,0,2.382-.42.968.968,0,0,0,.675-.856,10.639,10.639,0,0,1,.176-1.093,1.552,1.552,0,0,0-.652-1.967.2.2,0,0,1-.03-.03,7.409,7.409,0,0,1-1.947-3.4A.7.7,0,0,0,23.8,22.2c-.32.054-.241.308-.242.506-.006,1.18,0,2.361,0,3.543m8.224,20.035H19.264c-.128,0-.255,0-.384,0-.346-.009-.407.168-.33.469a.693.693,0,0,0,.786.591q10.311-.022,20.621-.01,2.155,0,4.311,0a.7.7,0,0,0,.657-.774c-.037-.414-.379-.267-.6-.267q-6.276-.013-12.552-.007m17.274-2.562a2.765,2.765,0,0,0-.122-.991c-.779-2.409-1.549-4.82-2.354-7.221a3.562,3.562,0,0,0-2.214-2.227c-.611-.237-.652-.208-.652.444q0,5.252,0,10.505c0,.628,0,.629.608.634,1.715.009,2.125.457,1.959,2.151-.014.151-.044.3.171.311.424.017.852.077,1.137-.379.181-.287.436-.525.645-.794a3.688,3.688,0,0,0,.823-2.435m-17.326,5H12.629a5.815,5.815,0,0,0-.724.032.7.7,0,0,0-.645.641.738.738,0,0,0,.467.826,1.448,1.448,0,0,0,.627.1q19.371,0,38.743,0a1.5,1.5,0,0,0,.586-.09.737.737,0,0,0,.509-.8.7.7,0,0,0-.651-.68,5.53,5.53,0,0,0-.724-.032H31.723m4.839-31.782c1.087,0,1.97-.007,2.852,0,.334,0,.482-.1.492-.465a7,7,0,0,0-5.342-7.04,13.57,13.57,0,0,0-4.078-.2,1.668,1.668,0,0,0-1.64,1.863,5.934,5.934,0,0,0,4.767,5.735,20.014,20.014,0,0,0,2.949.1M25.838,19.6h.013c0,.513,0,1.025,0,1.538a4.86,4.86,0,0,0,.7,2.561,7.527,7.527,0,0,0,4.534,3.4,2.455,2.455,0,0,0,1.265.01,6.936,6.936,0,0,0,2.489-1.189,6.1,6.1,0,0,0,2.7-4.088,21.334,21.334,0,0,0,.054-2.858c.01-.624,0-.618-.609-.631a29.3,29.3,0,0,1-3.114-.057,7.214,7.214,0,0,1-4.637-2.478c-.185-.209-.29-.254-.473,0a3.027,3.027,0,0,1-2.288,1.243c-.513.053-.632.179-.638.707-.007.612,0,1.224,0,1.837m5.883,25.268H41.67c.618,0,.619,0,.619-.619q0-5.443,0-10.89a1.4,1.4,0,0,0-1.594-1.6q-8.968,0-17.935,0a1.4,1.4,0,0,0-1.6,1.589c0,1.154,0,2.307-.007,3.46a.683.683,0,0,1-.645.758c-.417.024-.693-.228-.75-.7a3.512,3.512,0,0,1-.013-.426c0-.953,0-1.907,0-2.86,0-.455-.077-.5-.512-.35a3.892,3.892,0,0,0-2.5,2.658c-.664,2.088-1.3,4.187-2.035,6.249s-.02,3.632,1.4,5.05A1.429,1.429,0,0,0,17.1,47.3c.192-.182.037-.4.006-.6a1.473,1.473,0,0,1,1.533-1.837c.156,0,.314,0,.47,0,.622,0,.629-.007.629-.614q0-1.985,0-3.972a1.6,1.6,0,0,1,.08-.631.682.682,0,0,1,1.262-.013,1.218,1.218,0,0,1,.072.545q0,2.028,0,4.056c0,.625,0,.627.612.627h9.951M29.417,7.89h4.614c.069.017.136.04.206.053a8.313,8.313,0,0,1,6.145,4.488,7.944,7.944,0,0,1,.921,3.693c.029,2.776.011,5.553.009,8.329,0,.588-.277.942-.7.948s-.7-.341-.708-.931,0-1.2,0-1.794c0-.189.057-.472-.229-.463s-.71-.125-.823.325a7.761,7.761,0,0,1-2.61,4.065.437.437,0,0,0-.156.45c.112.688.195,1.379.3,2.068a.937.937,0,0,0,.664.819,7.345,7.345,0,0,0,2.339.423c.384-.016.533-.135.52-.526-.022-.7-.014-1.4,0-2.093a.705.705,0,0,1,.648-.724.727.727,0,0,1,.733.642,2.343,2.343,0,0,1,.024.426c0,.627.013,1.253,0,1.88a.444.444,0,0,0,.38.518,1.982,1.982,0,0,1,1.07.591,2.1,2.1,0,0,0,1.216.635,5.311,5.311,0,0,1,4.1,3.82c.667,2.1,1.339,4.2,2.042,6.292a5.324,5.324,0,0,1-.793,5.206c-.05.065-.122.155-.108.217.027.126.161.086.254.086.7,0,1.4-.01,2.093.009a2.153,2.153,0,0,1,2,2.542,2.127,2.127,0,0,1-2.255,1.788q-19.5,0-39,0A2.2,2.2,0,0,1,9.85,49.843v-.682a2.209,2.209,0,0,1,2.46-1.827c.542,0,1.083,0,1.623,0,.106,0,.251.054.3-.08.042-.1-.072-.173-.129-.252a5.236,5.236,0,0,1-.81-5.041c.681-2.066,1.372-4.129,2-6.211a5.454,5.454,0,0,1,4.362-4.079,1.611,1.611,0,0,0,.948-.519,1.85,1.85,0,0,1,1.007-.615c.449-.095.529-.343.528-.756-.014-4.284-.01-8.567-.01-12.85a14.837,14.837,0,0,1,.063-1.491,8.264,8.264,0,0,1,3.12-5.767,8.623,8.623,0,0,1,4.1-1.779" transform="translate(4.273 3.423)" fill="#8c725d"/>
    <path id="Path_5499" data-name="Path 5499" d="M27.605,30.108a1.592,1.592,0,1,0-1.647,1.556,1.609,1.609,0,0,0,1.647-1.556m1.408-.036a3,3,0,1,1-3-3,3.05,3.05,0,0,1,3,3" transform="translate(9.984 11.745)" fill="#8c725d"/>
  </g>
</svg>
