<svg xmlns="http://www.w3.org/2000/svg" xmlns:xlink="http://www.w3.org/1999/xlink" width="57.98" height="57.959" viewBox="0 0 57.98 57.959">
  <defs>
    <clipPath id="clip-path">
      <rect id="Rectangle_65913" data-name="Rectangle 65913" width="57.98" height="57.959" fill="none"/>
    </clipPath>
  </defs>
  <g id="Group_149614" data-name="Group 149614" transform="translate(0 0)">
    <g id="Group_149613" data-name="Group 149613" transform="translate(0 0)" clip-path="url(#clip-path)">
      <path id="Path_5506" data-name="Path 5506" d="M28.981,15.414c.932.008.944,0,.74-.931a10.4,10.4,0,0,0-.376-1.253c-.072-.2-.088-.524-.367-.518-.227,0-.245.3-.326.484a6.089,6.089,0,0,0-.4,1.321c-.168.891-.174.891.726.9M31.8,42.772c0-.416-.01-.831,0-1.247.013-.372-.151-.435-.47-.325a6.948,6.948,0,0,1-4.681-.006c-.339-.117-.464,0-.458.346.014.784-.024,1.57.022,2.353a2.317,2.317,0,0,0,.877,1.67,2.87,2.87,0,0,0,3.183.361A2.344,2.344,0,0,0,31.8,43.395c-.014-.207,0-.414,0-.622M17.477,10.778c-1.364,0-2.726,0-4.09,0-.355,0-.665.051-.658.505a29.792,29.792,0,0,0,.14,4.773c.362,2.028,2.181,4.264,4.686,4.119a1.682,1.682,0,0,0,1.234-.512,6.936,6.936,0,0,1,1.838-1.569,2.84,2.84,0,0,0,1.478-2.761c.053-1.292,0-2.587.025-3.881.009-.516-.2-.688-.7-.681-1.316.021-2.633.007-3.951.008m23.088,0c-1.086,0-2.174-.006-3.26,0-1.594.01-1.458-.181-1.433,1.455a18.756,18.756,0,0,0,.174,4.216,1.667,1.667,0,0,0,.7,1.222,11.058,11.058,0,0,1,2.53,2.038,1.49,1.49,0,0,0,1.114.459,4.756,4.756,0,0,0,4.754-4.188,38.775,38.775,0,0,0,.13-4.432c.031-.63-.245-.793-.824-.78-1.294.029-2.589.009-3.884.009M49.7,32.668c1.8,0,3.6,0,5.406,0,.413,0,.733-.057.727-.588-.015-1.316.045-2.637-.027-3.95A2.953,2.953,0,0,0,52.794,25.3c-.693-.012-1.387,0-2.08,0-2.057,0-4.112-.007-6.169,0-.74,0-1.535.722-1.387,1.311a20.237,20.237,0,0,1,.366,5.307c-.009.582.21.766.771.758,1.8-.022,3.6-.008,5.406-.009m-41.387,0c1.757,0,3.514-.022,5.27.011.651.013.9-.178.885-.861a18.617,18.617,0,0,1,.285-4.763A1.318,1.318,0,0,0,13.363,25.3q-4.023-.008-8.046,0a3.009,3.009,0,0,0-3.156,3.131c-.019,1.11.03,2.221-.018,3.329-.029.688.188.943.9.926,1.756-.043,3.514-.014,5.271-.014M29,28.117c-1.642,0-3.284.011-4.926-.007-.493-.006-.719.149-.713.672.021,1.665-.034,3.332.027,5a5.864,5.864,0,0,0,5.495,5.666,5.827,5.827,0,0,0,5.725-5.793c.042-1.595-.006-3.192.023-4.786.01-.578-.207-.767-.774-.757-1.619.028-3.238.01-4.857.01m20.08-5.053a7.334,7.334,0,0,1-1.863-2.327,1.078,1.078,0,0,1,.4-1.506,1.026,1.026,0,0,1,1.422.453,5.574,5.574,0,0,0,.787,1.051,1.045,1.045,0,0,0,1.64.013,3.628,3.628,0,0,0,.887-1.312,8.519,8.519,0,0,0,.111-6.226,4.223,4.223,0,0,0-1.01-1.64,1.042,1.042,0,0,0-1.134-.3c-1.213.4-1.585.191-1.863-1.037A12.465,12.465,0,0,0,45.91,4.825,6.631,6.631,0,0,0,35.6,4.407a11.394,11.394,0,0,0-2.879,5.6c-.312,1.328-.434,1.454-1.783,1.48a8.669,8.669,0,0,1,.938,3.041c.117,1.168.12,1.146,1.233,1.465.518.148.652.007.645-.506-.023-1.826-.018-3.654-.014-5.48,0-.959.378-1.359,1.341-1.363q5.445-.018,10.892,0c1.02,0,1.427.432,1.433,1.448.009,1.41-.015,2.821.007,4.231a8.108,8.108,0,0,1-2.625,6.4,3.387,3.387,0,0,0-.208,2.181.431.431,0,0,0,.368.16q2.067,0,4.134,0m-22.007-11.6c-1.251.055-1.479-.107-1.738-1.271a12.8,12.8,0,0,0-1.415-3.75c-1.394-2.361-3.263-4.139-6.16-4.273-3.1-.145-5.163,1.58-6.686,4.072a13.087,13.087,0,0,0-1.591,4.2c-.179.856-.707,1.189-1.436.991-1.111-.3-1.451-.215-2.02.8A7.845,7.845,0,0,0,5.8,19.745c.869,1.847,1.937,1.842,3.041.116.481-.75,1.023-.953,1.591-.595.55.347.624.96.211,1.716a6.159,6.159,0,0,1-1.789,2.009c1.427.071,2.825.073,4.223.069a.383.383,0,0,0,.378-.25,2.713,2.713,0,0,0-.5-2.292,7.389,7.389,0,0,1-2.242-4.36,45.365,45.365,0,0,1-.124-5.955c-.022-1.158.379-1.559,1.526-1.562q5.341-.012,10.682,0c1.1,0,1.453.371,1.455,1.462,0,2,0,4.006,0,6.053.4-.109.791-.238,1.194-.322a.7.7,0,0,0,.622-.716,9.273,9.273,0,0,1,1-3.655m1.88,14.526c2.082,0,4.163,0,6.244,0,1.254,0,1.619.354,1.629,1.607.015,1.757.031,3.515,0,5.273a8.689,8.689,0,0,1-2.08,5.887,2.9,2.9,0,0,0-.826,2.432,1.934,1.934,0,0,1,0,.416c-.059.578.2.766.769.759,1.942-.023,3.886-.038,5.827.007.715.017.9-.229.9-.917q-.043-5.687-.01-11.377a12.4,12.4,0,0,0-24.794-.5c-.043,4,0,8-.021,12,0,.621.219.8.811.787,1.872-.029,3.746-.01,5.62-.011,1.054,0,1.011,0,1.07-1.083a3.218,3.218,0,0,0-.87-2.562,7.99,7.99,0,0,1-1.977-4.929c-.166-2.079-.059-4.161-.069-6.241-.006-1.2.385-1.547,1.61-1.55,2.058-.006,4.117,0,6.174,0m.042,29.832c2.589,0,5.179-.011,7.768.01.568,0,.782-.188.769-.763-.029-1.294-.011-2.589-.007-3.883a6.965,6.965,0,0,1,.041-1.107,1.01,1.01,0,0,1,1.031-.937.993.993,0,0,1,1.076.877,4.559,4.559,0,0,1,.069.9c.007,1.41.011,2.82,0,4.23,0,.452.143.684.637.682,2.081-.013,4.162-.01,6.242,0,.41,0,.59-.162.581-.577-.049-2.311.118-4.625-.093-6.93A4.277,4.277,0,0,0,42.956,44.5c-2.82-.028-5.642,0-8.462-.015a.7.7,0,0,0-.793.572,4.782,4.782,0,0,1-4.639,3.3A4.75,4.75,0,0,1,24.316,45.1a.753.753,0,0,0-.828-.627c-2.82.019-5.642-.01-8.462.018a4.229,4.229,0,0,0-4.139,3.753c-.24,2.349-.054,4.712-.1,7.068-.009.525.357.506.715.506,1.642,0,3.283.012,4.924,0,2.084-.019,1.788.3,1.811-1.785.013-1.226-.023-2.452.023-3.676.036-.963.775-1.479,1.528-1.133a1.232,1.232,0,0,1,.67,1.266c0,1.5.025,3.006-.01,4.508-.014.64.212.84.842.833,2.566-.028,5.132-.011,7.7-.012M5.9,23.042C3.13,20.884,2.778,18,2.995,14.948A7.661,7.661,0,0,1,4.424,10.8a3.6,3.6,0,0,1,2.6-1.662c.475-.04.642-.319.776-.737A13.465,13.465,0,0,1,10.993,2.87a8.765,8.765,0,0,1,13.5.643A13.607,13.607,0,0,1,27.04,8.327a1.031,1.031,0,0,0,.971.856,4.772,4.772,0,0,0,1.882.013,1.256,1.256,0,0,0,1.084-.96A12.738,12.738,0,0,1,35.2,1.86,8.671,8.671,0,0,1,46.42,2.3,13.514,13.514,0,0,1,50.15,8.3a1.034,1.034,0,0,0,.977.872,3.428,3.428,0,0,1,2.449,1.658,9.567,9.567,0,0,1,1.408,6.7,7.532,7.532,0,0,1-1.737,4.449,14.377,14.377,0,0,1-1.175,1.05,6.668,6.668,0,0,1,3.094.723,5.151,5.151,0,0,1,2.8,4.629c.03,1.641.009,3.284.006,4.927,0,1.219-.345,1.576-1.565,1.578-3.955.008-7.91,0-11.866,0-1,0-1.006,0-1.006.985,0,1.92.012,3.839-.009,5.759a.751.751,0,0,0,.7.89,6.444,6.444,0,0,1,5.107,6.351c.04,2.544.018,5.088,0,7.633-.006,1.084-.393,1.45-1.481,1.45q-18.839,0-37.679,0c-1.145,0-1.515-.356-1.518-1.478-.008-2.5-.02-5,0-7.495a6.478,6.478,0,0,1,5.138-6.469c.517-.122.676-.338.671-.839-.019-1.989-.03-3.98.006-5.968.012-.648-.211-.833-.839-.83-3.909.022-7.818.011-11.726.01a6.12,6.12,0,0,1-.831-.031A1.065,1.065,0,0,1,.029,33.7c-.017-1.92-.062-3.842.013-5.759a5.371,5.371,0,0,1,5.12-4.863c.2-.013.407-.02.742-.036" transform="translate(0 0)" fill="#fff"/>
    </g>
  </g>
</svg>
