<svg xmlns="http://www.w3.org/2000/svg" xmlns:xlink="http://www.w3.org/1999/xlink" width="41.68" height="56.502" viewBox="0 0 41.68 56.502">
  <defs>
    <clipPath id="clip-path">
      <rect id="Rectangle_65912" data-name="Rectangle 65912" width="41.68" height="56.502" fill="none"/>
    </clipPath>
  </defs>
  <g id="Group_149612" data-name="Group 149612" transform="translate(0 0)">
    <g id="Group_149611" data-name="Group 149611" transform="translate(0 0)" clip-path="url(#clip-path)">
      <path id="Path_5500" data-name="Path 5500" d="M31.919,19.425h0c0,.381,0,.762,0,1.143,0,.18.013.353.211.452A1.423,1.423,0,0,0,34.146,19.8c.01-.224.008-.449,0-.673-.025-.967-.378-1.271-1.458-1.261-.769.007-.77.009-.771,1.153Zm-22.146.081h0c0-.381,0-.762,0-1.143a.429.429,0,0,0-.29-.468,1.338,1.338,0,0,0-1.934,1.353c0,.224-.008.449.008.673.06.849.515,1.135,1.6,1.145.913.009.548-.652.613-1.089a3.181,3.181,0,0,0,0-.471M23.416,36.44c0-.829-.012-1.657,0-2.486.009-.434-.141-.547-.555-.429a7.21,7.21,0,0,1-4.041,0c-.425-.123-.55.013-.548.436q.017,2.452,0,4.9a.841.841,0,0,0,.464.818,4.09,4.09,0,0,0,4.218,0,.845.845,0,0,0,.459-.822c-.013-.806,0-1.613,0-2.419m-9.046,2.02c-.573,0-1.145-.008-1.718,0-.235,0-.557-.111-.681.11-.149.269.163.474.3.69.256.418.556.807.814,1.223,1.357,2.186,1.307,1.578-.1,3.547a4.976,4.976,0,0,0-.279,5.834c.35.6.685,1.2,1.034,1.8.575.982,1.17,1.952,1.727,2.943.233.415.551.615.973.45s.168-.544.116-.821c-.252-1.364-.526-2.724-.791-4.086a12.783,12.783,0,0,1-.064-4.937q.573-2.932,1.13-5.867c.156-.822.1-.883-.735-.888-.573,0-1.144,0-1.717,0m13.009,0c-.616,0-1.234,0-1.85,0-.74.008-.809.086-.668.831.344,1.8.707,3.6,1.049,5.406a12.766,12.766,0,0,1,.235,3.935c-.238,1.96-.705,3.873-1.049,5.811-.038.212-.151.484.114.6a.666.666,0,0,0,.8-.117,2.637,2.637,0,0,0,.294-.445c.935-1.6,1.9-3.18,2.8-4.8a4.857,4.857,0,0,0-.233-5.439c-.3-.442-.621-.871-.951-1.291a.981.981,0,0,1-.045-1.287c.6-.887,1.164-1.795,1.754-2.686.24-.362.172-.522-.264-.518-.66,0-1.321,0-1.982,0M12.455,35.9a5.12,5.12,0,0,0,4.051-1.631,1.114,1.114,0,0,0-.2-1.889,14.824,14.824,0,0,1-5.638-7.1c-.279-.729-.349-.749-1.048-.368a5.928,5.928,0,0,0-2.75,6.556A5.622,5.622,0,0,0,12.455,35.9M20.829,55.1c.7,0,1.411-.021,2.115.007.464.019.671-.167.755-.627.292-1.608.624-3.208.918-4.814a10.635,10.635,0,0,0,.216-2.538,55.376,55.376,0,0,0-.958-5.828c-.059-.351-.19-.424-.533-.253a5.276,5.276,0,0,1-4.959.012c-.454-.229-.519-.01-.585.34-.262,1.386-.557,2.767-.78,4.159a9.712,9.712,0,0,0-.154,2.475c.216,2.212.745,4.367,1.156,6.543.08.425.312.536.7.528.7-.016,1.41,0,2.115,0m13.046,0c1.83,0,3.659-.024,5.487.014.645.014.894-.155.887-.859-.032-3.339,0-6.679-.021-10.018a5.769,5.769,0,0,0-5.635-5.768c-.815-.017-1.631.006-2.446-.013a.915.915,0,0,0-.873.477c-.489.771-1.026,1.513-1.51,2.288-.769,1.234-.748.881.058,2.005a6.369,6.369,0,0,1,.321,7.414c-.767,1.283-1.506,2.583-2.276,3.863-.267.443-.241.612.325.606,1.895-.02,3.79-.008,5.685-.008m-26.092,0c1.9,0,3.791-.016,5.686.01.6.008.632-.17.35-.639C13,53.114,12.2,51.747,11.4,50.377a6.351,6.351,0,0,1-.828-4.066,6.217,6.217,0,0,1,1.487-3.316,1.067,1.067,0,0,0,.045-1.531c-.606-.826-1.152-1.7-1.707-2.559a.872.872,0,0,0-.821-.448c-.836.016-1.675-.007-2.512.013a5.766,5.766,0,0,0-5.6,5.731c-.024,3.362.007,6.725-.021,10.086-.006.667.235.836.85.825,1.829-.033,3.658-.012,5.487-.012M8.876,12.868c0,.994-.01,1.824,0,2.652,0,.3-.124.7.265.817a1.129,1.129,0,0,0,1.186-.172c.315-.312.6-.653.9-.983a28.692,28.692,0,0,1,7.7-6.266,11.952,11.952,0,0,1,5.555-1.544,1.287,1.287,0,0,1,1.405.921,23.432,23.432,0,0,0,2.489,4.732,15.075,15.075,0,0,0,2.6,3.027,1.543,1.543,0,0,0,1.555.277c.484-.162.263-.7.269-1.073.023-1.367.02-2.735,0-4.1a9.612,9.612,0,0,0-7.63-9.386,22.4,22.4,0,0,0-9.054.257c-3.852.845-6.067,3.4-7.038,7.192a16.067,16.067,0,0,0-.214,3.649m2.276,6.189c-.178,5.749,2.27,9.789,5.956,12.189a6.191,6.191,0,0,0,6.3.6A12.258,12.258,0,0,0,30.122,23.5a20.419,20.419,0,0,0,.427-5.544,1.055,1.055,0,0,0-.438-.855,11.9,11.9,0,0,1-1.472-1.444,24.162,24.162,0,0,1-3.754-6.22.886.886,0,0,0-1.05-.636,10.762,10.762,0,0,0-3.9,1.171,26.878,26.878,0,0,0-7.15,5.571c-1.023,1.05-2.126,2.039-1.629,3.514M10.065,37.068a15.332,15.332,0,0,1-2.1-1.386,7.347,7.347,0,0,1,.8-11.859,8.551,8.551,0,0,1,1.012-.491.383.383,0,0,0,.274-.462c-.043-.266-.168-.4-.432-.407-.353,0-.706,0-1.058-.016a2.475,2.475,0,0,1-2.376-2.28c-.142-1.27-.093-2.48,1.08-3.312.276-.2.241-.508.241-.8,0-1.57-.015-3.14,0-4.709.059-4.68,2.558-9.276,7.918-10.581a22.216,22.216,0,0,1,10.35-.28A10.982,10.982,0,0,1,34.19,11.34c.011,1.547.015,3.094,0,4.641a1.24,1.24,0,0,0,.492,1.091,3.653,3.653,0,0,1,.695,3.74,2.511,2.511,0,0,1-2.557,1.642c-1.282.012-1.033-.072-1.295,1.076a14.256,14.256,0,0,1-6.083,8.8,1.293,1.293,0,0,0-.659,1.261c.043.85.009,1.7.011,2.555,0,.912,0,.914.934.915,2.712,0,5.426.095,8.133-.022a7.458,7.458,0,0,1,7.823,7.835c-.024,3.431,0,6.861-.007,10.291,0,1.131-.214,1.335-1.317,1.335q-19.509,0-39.017,0c-1.07,0-1.315-.2-1.309-1.2.023-3.833-.12-7.667.074-11.5a7.235,7.235,0,0,1,6.878-6.73c1.028-.018,2.056,0,3.085,0" transform="translate(0 0)" fill="#fff"/>
      <path id="Path_5501" data-name="Path 5501" d="M21.411,29.634a5.265,5.265,0,0,1-2.321-.7c-.39-.243-.662-.578-.386-1.052.259-.445.665-.378,1.039-.162a3.159,3.159,0,0,0,3.378-.011c.38-.22.784-.257,1.029.195s0,.776-.367,1.01a5.185,5.185,0,0,1-2.372.718" transform="translate(-0.575 -0.852)" fill="#fff"/>
      <path id="Path_5502" data-name="Path 5502" d="M17.056,19.391c-.484,0-.966.013-1.447,0-.427-.015-.724-.221-.724-.691a.631.631,0,0,1,.687-.659c1.007-.022,2.016-.023,3.023,0a.671.671,0,1,1-.027,1.342c-.5.021-1.009,0-1.512,0Z" transform="translate(-0.46 -0.557)" fill="#fff"/>
      <path id="Path_5503" data-name="Path 5503" d="M25.778,19.394c-.46,0-.922.009-1.381,0-.415-.01-.753-.17-.768-.645a.653.653,0,0,1,.709-.711q1.478-.035,2.959,0a.637.637,0,0,1,.7.711c-.027.471-.355.637-.772.645-.482.01-.964,0-1.447,0" transform="translate(-0.73 -0.557)" fill="#fff"/>
      <path id="Path_5504" data-name="Path 5504" d="M16.48,21.48c-.007-.49,0-1.027.647-1.025.6,0,.709.5.715,1.008.008.66-.289,1.093-.733,1.082-.428-.01-.631-.353-.63-1.065" transform="translate(-0.509 -0.633)" fill="#fff"/>
      <path id="Path_5505" data-name="Path 5505" d="M26.5,21.484a1.3,1.3,0,0,1-.138.777.561.561,0,0,1-.69.246c-.476-.182-.537-.607-.536-1.049,0-.423.075-.818.525-.984a.574.574,0,0,1,.7.233,1.281,1.281,0,0,1,.141.776" transform="translate(-0.777 -0.632)" fill="#fff"/>
    </g>
  </g>
</svg>
