<svg id="Group_149578" data-name="Group 149578" xmlns="http://www.w3.org/2000/svg" xmlns:xlink="http://www.w3.org/1999/xlink" width="31.7" height="34.909" viewBox="0 0 31.7 34.909">
  <defs>
    <clipPath id="clip-path">
      <rect id="Rectangle_65902" data-name="Rectangle 65902" width="31.7" height="34.909" fill="#9f2063"/>
    </clipPath>
  </defs>
  <g id="Group_149577" data-name="Group 149577" transform="translate(0 0)" clip-path="url(#clip-path)">
    <path id="Path_10106" data-name="Path 10106" d="M20.732,22.269c0-.1,0-.2,0-.306,0-.192-.069-.25-.25-.15a4.413,4.413,0,0,1-.434.207,3.572,3.572,0,0,1-1.628.308,3.731,3.731,0,0,1-1.86-.52c-.121-.081-.192-.027-.2.108a2.444,2.444,0,0,0,.07.936,2.2,2.2,0,0,0,4.3-.583m-6.693-3.32a9.233,9.233,0,0,1-.589-5.78,8.064,8.064,0,0,1,.649-1.887,4.445,4.445,0,0,1,.564-.961.582.582,0,0,1,.725-.186,7.16,7.16,0,0,0,2.819.55c.322-.014.645,0,.968-.007a6.2,6.2,0,0,0,2.171-.45c.622-.244.829-.235,1.21.364a8.4,8.4,0,0,1,1.125,3.05,13.566,13.566,0,0,1,.061,2.033,7.59,7.59,0,0,1-.717,3.219c-.022.051-.09.1-.039.156a.149.149,0,0,0,.168.025,6.859,6.859,0,0,1,.871-.173c.583-.134,1.159-.292,1.739-.435.134-.034.223-.1.18-.248-.112-.4-.231-.8-.345-1.194-.126-.437-.275-.869-.373-1.312-.1-.469-.274-.918-.387-1.384-.124-.507-.3-1-.439-1.508-.12-.42-.225-.845-.345-1.266-.141-.494-.3-.983-.434-1.478a7.3,7.3,0,0,0-.708-1.816,5.184,5.184,0,0,0-6.324-2.078,5.116,5.116,0,0,0-2.282,1.808,8.962,8.962,0,0,0-1.112,2.895c-.128.443-.239.891-.362,1.337-.137.487-.283.972-.421,1.458s-.259.945-.395,1.415c-.13.452-.274.9-.4,1.352-.138.486-.25.981-.4,1.462-.123.386-.064.491.34.562.355.063.7.181,1.056.24a8.272,8.272,0,0,0,1.434.236M22.5,15.167a7.25,7.25,0,0,0-.658-3.3c-.138-.33-.253-.384-.592-.261A9.355,9.355,0,0,1,19.063,12a8.869,8.869,0,0,1-2.25-.134,5.97,5.97,0,0,1-1.157-.28c-.179-.063-.323-.059-.421.177a10.25,10.25,0,0,0-.658,2.307,7.756,7.756,0,0,0,.089,2.723,7.019,7.019,0,0,0,.891,2.333,3.456,3.456,0,0,0,2.9,1.93,2.793,2.793,0,0,0,1.831-.554,5.518,5.518,0,0,0,1.868-2.871,6.255,6.255,0,0,0,.351-2.459m-13.6,13.8q0,1.451,0,2.9c0,.4,0,.4.414.4H21.033c.856,0,1.713.02,2.569-.005.761-.023,1.525-.008,2.285-.01.633,0,1.269-.026,1.905.01.373.022.422-.046.422-.424,0-1.792.008-3.583,0-5.375a4.124,4.124,0,0,0-.334-1.6,4.3,4.3,0,0,0-1.87-2.108,3.5,3.5,0,0,0-1.473-.5c-.77-.048-1.544-.013-2.317-.021-.186,0-.257.073-.258.257a2.982,2.982,0,0,1-.924,2.106A3.281,3.281,0,0,1,17.95,25.62a3.407,3.407,0,0,1-2.183-1.362,3.241,3.241,0,0,1-.649-1.757c-.016-.228-.138-.318-.37-.313-.6.012-1.206,0-1.809.005a3.6,3.6,0,0,0-1.314.248A4.311,4.311,0,0,0,9.978,23.6a4.039,4.039,0,0,0-1.066,2.646c-.02.907,0,1.817,0,2.725m9.567,4.538H8.412c-.606,0-.828-.219-.828-.828,0-2.1-.043-4.2.012-6.291a5.372,5.372,0,0,1,2.377-4.433,6.016,6.016,0,0,1,2.076-.9,4.815,4.815,0,0,1,1.037-.08c.553-.012,1.1,0,1.657,0,.117,0,.253.016.271-.155.016-.155.025-.314-.166-.382a1.2,1.2,0,0,0-.219-.065c-.476-.074-.959-.113-1.427-.224-.36-.086-.729-.126-1.083-.244-.27-.089-.559-.117-.838-.188-.4-.1-.8-.206-1.2-.336a.611.611,0,0,1-.395-.824c.143-.485.259-.979.4-1.466.182-.64.377-1.277.56-1.916.125-.43.24-.864.364-1.294.15-.519.31-1.034.455-1.554.13-.469.223-.951.373-1.414.212-.652.356-1.32.593-1.965a7.262,7.262,0,0,1,1.014-1.89A5.925,5.925,0,0,1,15.239,5.5a6.369,6.369,0,0,1,4.053-.833A6.228,6.228,0,0,1,24.36,8.444a14.731,14.731,0,0,1,.659,2.128c.116.439.268.868.392,1.3.133.471.246.946.378,1.415s.271.907.4,1.362c.138.486.266.975.4,1.461.132.461.272.92.4,1.382.12.414.244.828.345,1.247a.552.552,0,0,1-.31.589,7.845,7.845,0,0,1-1.109.355c-.33.1-.665.185-1,.263s-.675.146-1.014.21c-.441.082-.884.152-1.323.239a2.764,2.764,0,0,1-.4.07c-.149.008-.24.076-.229.24s.123.163.237.163c.348,0,.7.018,1.044,0a6.668,6.668,0,0,1,1.844.179A5.258,5.258,0,0,1,27.4,22.2a5.632,5.632,0,0,1,1.525,2.035A4.446,4.446,0,0,1,29.3,25.46c.2,1.616.053,3.239.091,4.858.02.789.005,1.578,0,2.368,0,.614-.214.824-.829.824H18.474" transform="translate(2.296 1.4)" fill="#9f2063"/>
    <path id="Path_10107" data-name="Path 10107" d="M6.6,16.056c-.457,0-.916,0-1.374,0-.142,0-.265.034-.268.2-.01.542-.03,1.084.01,1.627a.259.259,0,0,0,.3.265c.254-.007.508,0,.762,0H7.936c.162,0,.288-.033.284-.235-.008-.533-.018-1.067-.018-1.6,0-.185-.074-.259-.258-.257-.45.007-.9,0-1.348,0m.631-4.666c0,.884-.007,1.767,0,2.65s-.155.73.785.746a.242.242,0,0,0,.275-.2,3.147,3.147,0,0,0,.064-.323,5.941,5.941,0,0,1,.567-1.83,9.593,9.593,0,0,1,1.646-2.244,5.274,5.274,0,0,0,1.277-2.362,6.975,6.975,0,0,0,.047-2,4.03,4.03,0,0,0-.384-1.331A5.576,5.576,0,0,0,10.114,2.6,5.2,5.2,0,0,0,7.7,1.371a5.364,5.364,0,0,0-4.856,1.44,5.1,5.1,0,0,0-1.547,3.2A5.028,5.028,0,0,0,2.1,9.466c.474.684,1.04,1.294,1.53,1.965A6.241,6.241,0,0,1,4.842,14.24c.078.538.085.537.637.537.052,0,.1,0,.154,0,.315,0,.328-.013.328-.332,0-2.029,0-4.059,0-6.088a.658.658,0,0,0-.222-.515C5.322,7.437,4.906,7.024,4.5,6.6a.541.541,0,0,1-.179-.594.627.627,0,0,1,1.082-.239c.331.315.644.652.967.975.235.235.233.228.472-.008A12.428,12.428,0,0,1,7.962,5.662a.557.557,0,0,1,.742.057.545.545,0,0,1,.1.755,2.735,2.735,0,0,1-.327.387c-.348.347-.7.691-1.057,1.027a.592.592,0,0,0-.2.472c.007,1.01,0,2.02,0,3.03m-.575,8.074c-.4,0-.8,0-1.2,0a1.686,1.686,0,0,1-1.65-1.13.65.65,0,0,1-.039-.274c.02-.239-.069-.355-.318-.322a.512.512,0,0,1-.493-.252.5.5,0,0,1-.1-.566.625.625,0,0,1,.56-.411c.344-.005.334-.016.348-.365a6.46,6.46,0,0,0-.171-1.939,5.794,5.794,0,0,0-.695-1.6c-.425-.676-.951-1.276-1.435-1.908A6.706,6.706,0,0,1,.446,9.009,6.465,6.465,0,0,1,.052,5.853,6.568,6.568,0,0,1,3.258.932,6.868,6.868,0,0,1,5.6.091,6.128,6.128,0,0,1,9.237.582,6.7,6.7,0,0,1,12.56,3.8,6.5,6.5,0,0,1,13.221,7.6a5.788,5.788,0,0,1-1.336,3.046,16.558,16.558,0,0,0-1.543,1.951,5.493,5.493,0,0,0-.757,2.526c-.026.373,0,.748-.01,1.121,0,.192.063.272.265.276a.591.591,0,0,1,.646.626.611.611,0,0,1-.656.6c-.162-.02-.241.046-.258.225a1.648,1.648,0,0,1-1.646,1.5c-.425.01-.848,0-1.273,0" transform="translate(0 0)" fill="#9f2063"/>
  </g>
</svg>
