<svg id="Group_149582" data-name="Group 149582" xmlns="http://www.w3.org/2000/svg" xmlns:xlink="http://www.w3.org/1999/xlink" width="38.27" height="38.253" viewBox="0 0 38.27 38.253">
  <defs>
    <clipPath id="clip-path">
      <rect id="Rectangle_65904" data-name="Rectangle 65904" width="38.27" height="38.253" fill="#9f2063"/>
    </clipPath>
  </defs>
  <g id="Group_149581" data-name="Group 149581" transform="translate(0 0)" clip-path="url(#clip-path)">
    <path id="Path_10114" data-name="Path 10114" d="M16.1,30.8q-2.871,0-5.742,0c-.927,0-1.239-.307-1.237-1.226a12.025,12.025,0,0,1,.187-2.8,5.609,5.609,0,0,1,3.42-4,.972.972,0,0,1,.841.065,5.629,5.629,0,0,0,5.173-.029,1.014,1.014,0,0,1,.936.008,5.694,5.694,0,0,1,3.333,4.136,13.384,13.384,0,0,1,.145,2.854c0,.653-.4.99-1.11.991-1.982.007-3.965,0-5.946,0" transform="translate(2.994 7.45)" fill="#9f2063"/>
    <path id="Path_10115" data-name="Path 10115" d="M6.976,15.986q-2.945,0-5.891,0c-.818,0-1.079-.252-1.069-1.079a11.4,11.4,0,0,1,.191-3.157A5.648,5.648,0,0,1,3.7,7.927.73.73,0,0,1,4.331,8,5.676,5.676,0,0,0,9.64,8a.819.819,0,0,1,.684-.06A5.638,5.638,0,0,1,13.969,13.1c.005.631.007,1.263,0,1.9-.008.72-.274.99-1,.992-2,.007-4,0-5.993,0" transform="translate(0 2.588)" fill="#9f2063"/>
    <path id="Path_10116" data-name="Path 10116" d="M25.3,15.986q-2.945,0-5.891,0c-.867,0-1.118-.236-1.1-1.09a10.292,10.292,0,0,1,.316-3.6A5.75,5.75,0,0,1,21.99,7.927.67.67,0,0,1,22.579,8a5.74,5.74,0,0,0,5.4-.021.763.763,0,0,1,.639-.032,5.7,5.7,0,0,1,3.638,5.116c.008.615.005,1.23,0,1.844-.007.827-.254,1.081-1.068,1.083q-2.945.006-5.891,0" transform="translate(6.006 2.588)" fill="#9f2063"/>
    <path id="Path_10117" data-name="Path 10117" d="M19.992,20.131a4.782,4.782,0,0,1-.7,2.775,4.459,4.459,0,0,1-6.836.858,4.223,4.223,0,0,1-1.408-3.33,9.3,9.3,0,0,1,.151-2.339,4.473,4.473,0,0,1,8.606-.05,7.636,7.636,0,0,1,.19,2.087" transform="translate(3.624 4.864)" fill="#9f2063"/>
    <path id="Path_10118" data-name="Path 10118" d="M29.1,5.173a4.49,4.49,0,1,1-8.952.45,6.539,6.539,0,0,1,.393-2.911A4.465,4.465,0,0,1,27.134.778a4.5,4.5,0,0,1,1.971,4.4" transform="translate(6.614 0)" fill="#9f2063"/>
    <path id="Path_10119" data-name="Path 10119" d="M1.93,5.226a5.1,5.1,0,0,1,.49-2.861A4.4,4.4,0,0,1,6.4.01a4.14,4.14,0,0,1,3.91,2.447A5.65,5.65,0,0,1,9.857,8.47,4.453,4.453,0,0,1,1.93,5.226" transform="translate(0.626 0.003)" fill="#9f2063"/>
    <path id="Path_10120" data-name="Path 10120" d="M3.625,14.906C4.874,14.9,4.85,14.9,5,16.153a12.557,12.557,0,0,0,3.178,7.014,13.841,13.841,0,0,0,3.112,2.63c.328.2.442.416.159.784a5.675,5.675,0,0,0-.652,1.156c-.166.376-.385.458-.719.252a16.116,16.116,0,0,1-5.12-4.929,16.577,16.577,0,0,1-1.9-3.951,17.5,17.5,0,0,1-.712-3.661.441.441,0,0,1,.468-.539c.272-.012.546,0,.82,0" transform="translate(0.766 4.892)" fill="#9f2063"/>
    <path id="Path_10121" data-name="Path 10121" d="M28.769,15.339a16.47,16.47,0,0,1-.971,4.5,16.171,16.171,0,0,1-6.685,8.109c-.352.222-.608.235-.8-.22a5.474,5.474,0,0,0-.656-1.154c-.26-.344-.171-.555.139-.75a14.919,14.919,0,0,0,2.157-1.64,13.692,13.692,0,0,0,3.006-4.043,12.753,12.753,0,0,0,1.253-4.616.58.58,0,0,1,.65-.618c.478,0,.958-.013,1.433.019.357.024.469.167.476.418" transform="translate(6.401 4.89)" fill="#9f2063"/>
    <path id="Path_10122" data-name="Path 10122" d="M15.725,2.451A16.14,16.14,0,0,1,21.971,3.6a.658.658,0,0,1,.479.693,6.356,6.356,0,0,0,.157,1.778.339.339,0,0,1-.068.381c-.15.12-.291.012-.425-.056a13.3,13.3,0,0,0-8.649-1.214,11.154,11.154,0,0,0-3.422,1.171c-.143.08-.3.22-.47.113-.2-.122-.13-.331-.1-.511a10.234,10.234,0,0,0,.058-1.482.867.867,0,0,1,.578-.863,14.61,14.61,0,0,1,3.435-.954,10.85,10.85,0,0,1,2.177-.21" transform="translate(3.098 0.802)" fill="#9f2063"/>
  </g>
</svg>
