<svg id="Group_149584" data-name="Group 149584" xmlns="http://www.w3.org/2000/svg" xmlns:xlink="http://www.w3.org/1999/xlink" width="39.474" height="39.373" viewBox="0 0 39.474 39.373">
  <defs>
    <clipPath id="clip-path">
      <rect id="Rectangle_65905" data-name="Rectangle 65905" width="39.474" height="39.373" fill="#9f2063"/>
    </clipPath>
  </defs>
  <g id="Group_149583" data-name="Group 149583" transform="translate(0 0)" clip-path="url(#clip-path)">
    <path id="Path_10123" data-name="Path 10123" d="M12.085,34.262c1.371,0,2.74-.006,4.11,0,.29,0,.438-.07.431-.394-.017-.719-.011-1.44,0-2.161,0-.261-.113-.351-.366-.351q-4.178,0-8.36,0c-.26,0-.357.1-.354.36.008.709.015,1.418,0,2.125-.009.333.121.426.437.423,1.369-.012,2.74,0,4.11,0m.091-4.531c.91,0,1.82-.011,2.73,0,.32.006.437-.1.432-.429-.015-1.109-.02-2.222,0-3.331a4.188,4.188,0,0,0-.916-2.589,5.13,5.13,0,0,0-3.91-2.066,1.942,1.942,0,0,1-1.179-.512c-.79-.725-1.557-1.478-2.331-2.222A3.364,3.364,0,0,0,6.15,17.9a.851.851,0,0,0-1.016.115c-.251.308-.106.627.018.936a.61.61,0,0,0,.122.172q.732.841,1.468,1.679c.7.8,1.415,1.585,2.1,2.394a.744.744,0,0,1-.092,1.1c-.393.331-.862.2-1.309-.31-.883-1.016-1.785-2.013-2.672-3.026a7,7,0,0,1-1.056-1.371,2.344,2.344,0,0,1,.541-2.914c.2-.138.19-.271.115-.476a10.838,10.838,0,0,1-.526-1.389,3.86,3.86,0,0,1,.159-1.817A3.9,3.9,0,0,0,2.5,8.829c-.213-.153-.307-.144-.363.148a31.985,31.985,0,0,0-.521,4.781A41.931,41.931,0,0,0,1.8,20.233a3.2,3.2,0,0,0,.943,2.322c.307.257.585.549.871.83q2.1,2.054,4.194,4.113a3.339,3.339,0,0,1,1.209,1.862c.044.314.184.379.464.376.9-.012,1.8,0,2.695,0m-.113,6.114q-2.553,0-5.1,0c-.745,0-1-.254-1-1q0-2.038,0-4.076c0-.7.274-.988.97-1.031.083-.006.166,0,.249-.006.293-.009.313-.168.184-.373a2.1,2.1,0,0,0-.3-.346c-1.833-1.809-3.659-3.624-5.5-5.42A4.361,4.361,0,0,1,.287,20.9a44.592,44.592,0,0,1-.271-6.646,33.9,33.9,0,0,1,.6-5.727,2.056,2.056,0,0,1,.394-1.185A1.3,1.3,0,0,1,2.6,7.049a5.443,5.443,0,0,1,3.114,4.908,5.736,5.736,0,0,1-.293,1.88,1.149,1.149,0,0,0,.014.763c.184.473.379.942.574,1.409a.357.357,0,0,0,.24.243,5.018,5.018,0,0,1,2.189,1.507c.627.573,1.233,1.171,1.842,1.764a.878.878,0,0,0,.564.265A6.379,6.379,0,0,1,15.1,21.766a6.48,6.48,0,0,1,1.646,2.848,5.771,5.771,0,0,1,.151,1.511c.012,1.063.009,2.127,0,3.191,0,.268.063.4.367.428.689.06.928.346.928,1.032q0,2.072,0,4.147c0,.667-.251.919-.922.92-1.737,0-3.475,0-5.211,0" transform="translate(0 3.527)" fill="#9f2063"/>
    <path id="Path_10124" data-name="Path 10124" d="M20.183,34.261c1.381,0,2.763-.008,4.144,0,.31,0,.417-.107.41-.413-.015-.709-.012-1.418,0-2.127,0-.278-.112-.37-.381-.37q-4.163.009-8.325,0c-.275,0-.379.107-.375.379.009.7.017,1.394,0,2.089-.011.349.125.446.456.441,1.359-.012,2.716,0,4.075,0m-.092-4.533c.922,0,1.844,0,2.766,0,.239,0,.367-.062.393-.328a2.237,2.237,0,0,1,.585-1.23c.482-.564,1.04-1.056,1.572-1.573,1.327-1.292,2.639-2.6,3.969-3.889a2.8,2.8,0,0,0,1-1.66c.112-.949.248-1.9.28-2.854a41.674,41.674,0,0,0-.521-9.209c-.051-.274-.119-.336-.349-.166a3.935,3.935,0,0,0-1.452,4.433,3.071,3.071,0,0,1-.082,2.116c-.113.284-.224.571-.355.848a.315.315,0,0,0,.109.45,1.878,1.878,0,0,1,.756,1.082,2.694,2.694,0,0,1-.567,2.393c-.391.456-.789.908-1.188,1.36-.8.9-1.587,1.809-2.4,2.7a.779.779,0,1,1-1.141-1.058c.828-.954,1.667-1.9,2.5-2.848.358-.408.724-.809,1.07-1.227a.911.911,0,0,0,.127-1.025.839.839,0,0,0-1.1-.118,2.239,2.239,0,0,0-.432.307c-.747.7-1.5,1.407-2.223,2.133a2.976,2.976,0,0,1-1.923,1,4.785,4.785,0,0,0-3.268,1.579,4.238,4.238,0,0,0-1.277,2.84c-.014,1.17.008,2.34-.011,3.51,0,.351.128.446.458.44.9-.015,1.8,0,2.695-.006m.1,6.115q-2.553,0-5.1,0c-.784,0-1.007-.227-1.007-1.016q0-2.038,0-4.076c0-.647.24-.951.88-1,.358-.029.416-.184.419-.493.012-1.3-.057-2.6.041-3.9a5.794,5.794,0,0,1,1.644-3.488,6.244,6.244,0,0,1,2.269-1.6,5.8,5.8,0,0,1,1.912-.475,1.242,1.242,0,0,0,.848-.364c.865-.839,1.743-1.663,2.621-2.486a2.71,2.71,0,0,1,1.167-.644.6.6,0,0,0,.434-.378c.162-.405.331-.807.5-1.211a1.47,1.47,0,0,0,0-1.073,5.03,5.03,0,0,1-.153-2.657A5.46,5.46,0,0,1,29.63,7.067a1.3,1.3,0,0,1,1.941.914c.195,1,.3,2.006.443,3.009a43.9,43.9,0,0,1,.237,6.786,26.011,26.011,0,0,1-.367,3.765,3.413,3.413,0,0,1-1.031,1.9Q28.127,26.13,25.4,28.818a4.1,4.1,0,0,0-.479.52c-.169.237-.1.366.19.388.047,0,.1,0,.142,0,.789.029,1.061.305,1.061,1.088q0,2.02,0,4.042c0,.719-.263.982-.982.984q-2.571,0-5.14,0" transform="translate(7.201 3.528)" fill="#9f2063"/>
    <path id="Path_10125" data-name="Path 10125" d="M16.938.012A10.5,10.5,0,0,1,21.644,1a11.318,11.318,0,0,1,5.541,5.4,11.318,11.318,0,0,1-1.038,11.736,11.337,11.337,0,0,1-6.031,4.231,10.945,10.945,0,0,1-5.842.153,11.2,11.2,0,0,1-6.532-4.335,11.357,11.357,0,0,1-2.071-4.837A11.534,11.534,0,0,1,6.5,6.7a.833.833,0,0,1,1.123-.5.788.788,0,0,1,.34,1.09,11.816,11.816,0,0,0-.784,2.678,9.972,9.972,0,0,0,.664,5.272A9.828,9.828,0,0,0,15.92,21.21a9.792,9.792,0,0,0,5.044-.8,9.692,9.692,0,0,0,4.312-3.763,9.4,9.4,0,0,0,1.38-3.685,9.889,9.889,0,0,0-.611-5.273,9.58,9.58,0,0,0-3.03-4.025,9.53,9.53,0,0,0-5.264-2.05,10.166,10.166,0,0,0-3.6.357,9.762,9.762,0,0,0-3.455,1.814c-.1.083-.2.165-.308.24A.8.8,0,0,1,9.32,3.962a.841.841,0,0,1,.092-1.155,11.754,11.754,0,0,1,2.373-1.595A11.921,11.921,0,0,1,15.946.018a8.674,8.674,0,0,1,.992-.006" transform="translate(2.812 0)" fill="#9f2063"/>
    <path id="Path_10126" data-name="Path 10126" d="M10.762,11.1c.068-.08.1-.112.124-.145a11.837,11.837,0,0,1,4-3.417.748.748,0,0,1,1.076.255.793.793,0,0,1-.3,1.1c-.252.154-.518.286-.762.45a11.556,11.556,0,0,0-3.014,2.907c-.086.124-.26.252-.193.393.085.172.3.083.453.07a9.541,9.541,0,0,0,2.832-.721A9.236,9.236,0,0,0,18.641,9.4,8.521,8.521,0,0,0,20.41,5.626c.039-.181.07-.367-.219-.257a11.684,11.684,0,0,1-3.859.614,6.859,6.859,0,0,0-2.97.837,4.886,4.886,0,0,0-1.336.919A5.224,5.224,0,0,0,10.762,11.1M22.169,4.405A11.346,11.346,0,0,1,20.7,9.21a9.37,9.37,0,0,1-2.817,3,11.517,11.517,0,0,1-5.225,2.046,15.006,15.006,0,0,1-1.762.107.418.418,0,0,0-.419.263c-.145.31-.278.627-.45.922a.767.767,0,0,1-1.04.308.736.736,0,0,1-.333-1A4.55,4.55,0,0,0,9.134,12.2a8.5,8.5,0,0,1,.592-3.747A5.682,5.682,0,0,1,12.4,5.543a9.058,9.058,0,0,1,4.291-1.158,9.091,9.091,0,0,0,3.845-.852,1.073,1.073,0,0,1,1.635.872" transform="translate(4.382 1.735)" fill="#9f2063"/>
    <path id="Path_10127" data-name="Path 10127" d="M7.837,8.715a.731.731,0,0,1-.747-.9,7.469,7.469,0,0,1,.715-1.994A9.317,9.317,0,0,1,9.811,3.146a.872.872,0,0,1,.987-.289.768.768,0,0,1,.337,1.2,1.3,1.3,0,0,1-.187.21A7.83,7.83,0,0,0,8.614,8.121a.755.755,0,0,1-.777.594" transform="translate(3.618 1.428)" fill="#9f2063"/>
    <path id="Path_10128" data-name="Path 10128" d="M11.656,1.766a.733.733,0,0,1,.786.574.793.793,0,0,1-.45.907c-.311.142-.62.295-.942.407a.759.759,0,0,1-1.026-.429.772.772,0,0,1,.416-1,3,3,0,0,1,1.217-.455" transform="translate(5.095 0.903)" fill="#9f2063"/>
    <path id="Path_10129" data-name="Path 10129" d="M8.47,3.6a.778.778,0,1,1-.75-.789.791.791,0,0,1,.75.789" transform="translate(3.537 1.438)" fill="#9f2063"/>
  </g>
</svg>
