<svg id="Group_148748" data-name="Group 148748" xmlns="http://www.w3.org/2000/svg" xmlns:xlink="http://www.w3.org/1999/xlink" width="32.363" height="31.834" viewBox="0 0 32.363 31.834">
  <defs>
    <clipPath id="clip-path">
      <rect id="Rectangle_65641" data-name="Rectangle 65641" width="32.363" height="31.834" fill="#fff"/>
    </clipPath>
  </defs>
  <g id="Group_148747" data-name="Group 148747" transform="translate(0 0)" clip-path="url(#clip-path)">
    <path id="Path_253" data-name="Path 253" d="M16.165,15.817c-4.657,0-9.315.007-13.972-.01a.737.737,0,0,0-.838.6,6.981,6.981,0,0,0,.031,3.93,18.9,18.9,0,0,0,5.126,8.377A5.554,5.554,0,0,0,10.6,30.4q5.58.011,11.159,0a5.19,5.19,0,0,0,3.634-1.275,18.424,18.424,0,0,0,5.635-8.958,6.821,6.821,0,0,0-.011-3.75.761.761,0,0,0-.877-.613c-4.657.019-9.315.011-13.972.011m.066-1.158c4.8,0,9.6.009,14.393-.011a1.126,1.126,0,0,1,1.187.759,7.669,7.669,0,0,1,.388,4.507,16.65,16.65,0,0,1-3.49,7.33A26.215,26.215,0,0,1,26.8,29.372a6.973,6.973,0,0,1-5.207,2.186q-5.415.014-10.83,0a7.071,7.071,0,0,1-5.207-2.188A19.675,19.675,0,0,1,.619,21.724,9.683,9.683,0,0,1,.2,16.466a7.059,7.059,0,0,1,.422-1.189.975.975,0,0,1,1.033-.624c3.532.014,7.063.007,10.6.007Z" transform="translate(0 0.269)" fill="#fff"/>
    <path id="Path_254" data-name="Path 254" d="M3.191,8.566a2.574,2.574,0,0,0,1.088,2.259c.571.437.6.549.238,1.153a2.145,2.145,0,0,0-.276,1.214c.013.492-.189.769-.542.783s-.574-.272-.617-.744a2.6,2.6,0,0,1,.193-1.24.6.6,0,0,0-.155-.734A3.9,3.9,0,0,1,3.106,5.9a3.854,3.854,0,0,1,5.475-.179.734.734,0,0,0,.866.177,2.893,2.893,0,0,1,3.037.688.953.953,0,0,0,.813.294,3.017,3.017,0,0,1,3.339,3.846c-.07.309.041.415.276.535a2.959,2.959,0,0,1,1.55,1.849c.111.368.044.676-.335.806s-.631-.092-.751-.444A1.914,1.914,0,0,0,15.7,12.105c-.721-.1-.867-.444-.484-1.064a1.927,1.927,0,0,0-1.376-3.047,1.718,1.718,0,0,0-.913.144A.686.686,0,0,1,12,7.847a1.957,1.957,0,0,0-2.779-.625c-.484.281-.659.239-1.061-.253a2.776,2.776,0,0,0-4.579.168,2.345,2.345,0,0,0-.392,1.429" transform="translate(0.038 0.086)" fill="#fff"/>
    <path id="Path_255" data-name="Path 255" d="M14.552,1.972a6.083,6.083,0,0,0,1.3,3.463,5.835,5.835,0,0,0,4.411,1.71c.281.013.347-.147.324-.388-.031-.311-.039-.625-.091-.932a5.212,5.212,0,0,0-1.736-3.476,6.157,6.157,0,0,0-3.585-1.194c-.662-.037-.661-.054-.622.816M14.758,0a8.058,8.058,0,0,1,4.317,1.2,6.025,6.025,0,0,1,2.5,4.28,8.743,8.743,0,0,1,.17,1.955c-.036.665-.239.86-.894.875A8.469,8.469,0,0,1,16.3,7.258,5.919,5.919,0,0,1,13.56,2.98,9.531,9.531,0,0,1,13.384.931c.012-.758.185-.924.952-.931.141,0,.281,0,.422,0" transform="translate(0.246 0)" fill="#fff"/>
    <path id="Path_256" data-name="Path 256" d="M29.664,12.981a3.2,3.2,0,0,1,.014.327.529.529,0,0,1-.515.562.522.522,0,0,1-.585-.539,5.011,5.011,0,0,0-.241-1.376,4.226,4.226,0,0,0-8.157.585c-.044.245-.073.494-.1.741-.033.35-.22.571-.566.558a.525.525,0,0,1-.525-.6A5.123,5.123,0,0,1,21.428,8.8a5.32,5.32,0,0,1,8.237,4.18" transform="translate(0.349 0.145)" fill="#fff"/>
    <path id="Path_257" data-name="Path 257" d="M10.323,12.157a4.254,4.254,0,0,1,.107-1.639,2.628,2.628,0,0,1,.642-1.074.525.525,0,0,1,.792-.044.5.5,0,0,1,.055.756,2.212,2.212,0,0,0-.246,2.419c.07.19.164.372.227.564a.529.529,0,0,1-.282.669,1.893,1.893,0,0,1-1.447-.181q-1.909-1.9-3.806-3.81c-.331-.334-.347-.66-.071-.9.338-.291.628-.146.9.126q1.338,1.344,2.68,2.683c.116.117.238.228.45.429" transform="translate(0.112 0.161)" fill="#fff"/>
  </g>
</svg>
