<svg id="Group_148750" data-name="Group 148750" xmlns="http://www.w3.org/2000/svg" xmlns:xlink="http://www.w3.org/1999/xlink" width="30.76" height="31.216" viewBox="0 0 30.76 31.216">
  <defs>
    <clipPath id="clip-path">
      <rect id="Rectangle_65642" data-name="Rectangle 65642" width="30.76" height="31.216" transform="translate(0 0)" fill="#fff"/>
    </clipPath>
  </defs>
  <g id="Group_148749" data-name="Group 148749" clip-path="url(#clip-path)">
    <path id="Path_258" data-name="Path 258" d="M25.037,20.166c-.663,0-.837.207-.755.862a1.6,1.6,0,0,0,.275.824c.549.684,1.118,1.353,1.68,2.028.132.159.244.154.392,0a2.288,2.288,0,0,0,.4-2.416,2.249,2.249,0,0,0-1.992-1.294m-1.613.868a1.092,1.092,0,0,0-.389.552,2.152,2.152,0,0,0,.39,2.22q2.391,2.864,4.783,5.725c.541.645.537.627,1.173.107.3-.246.339-.423.068-.736-1.263-1.46-2.526-2.921-3.743-4.42-.856-1.055-1.984-1.935-2.282-3.448M15.222.81a14.512,14.512,0,0,0-6.794,27.3,14.063,14.063,0,0,0,7.515,1.736,13.478,13.478,0,0,0,8.172-3.366.347.347,0,0,0,.044-.582c-.467-.545-.93-1.093-1.374-1.656A2.916,2.916,0,0,1,23.1,20.13a3.009,3.009,0,0,1,4.008.028,2.961,2.961,0,0,1,.28,4.122.62.62,0,0,0,.016.98c1.08,1.234,2.109,2.511,3.175,3.757.241.283.261.451-.051.7-.528.416-1.026.873-1.517,1.333-.252.235-.407.227-.632-.05-1.034-1.272-2.1-2.521-3.13-3.793-.239-.293-.387-.321-.689-.061a14.035,14.035,0,0,1-8.32,3.474A15.333,15.333,0,0,1,1.715,22.332,14.693,14.693,0,0,1,.032,14.619,15.04,15.04,0,0,1,8.3,1.706,13.924,13.924,0,0,1,15.393,0,15.052,15.052,0,0,1,28.467,7.571a14.443,14.443,0,0,1,2.146,8.08A15.42,15.42,0,0,1,29.524,21a2.147,2.147,0,0,1-.112.238.392.392,0,0,1-.516.21.362.362,0,0,1-.211-.506c.077-.252.181-.494.27-.742A14.448,14.448,0,0,0,24.284,3.97,14.255,14.255,0,0,0,15.222.81" fill="#fff"/>
    <path id="Path_259" data-name="Path 259" d="M16.286,18.612c.422,0,.845-.009,1.268,0,.358.011.5-.164.5-.5,0-.423,0-.846,0-1.269,0-.289-.09-.385-.4-.3-.872.238-1.747.466-2.63.656-.377.081-.528.25-.481.623a3.138,3.138,0,0,1,.005.35c0,.307.154.449.464.443.423-.007.846,0,1.269,0M24.372,13.4h0c0-.644,0-1.288,0-1.932,0-.2-.072-.355-.3-.357s-.289.164-.3.357c-.011.292,0,.586-.032.876a.376.376,0,0,1-.41.373c-.245-.011-.349-.176-.382-.4-.088-.616-.09-.616-.7-.507a3.284,3.284,0,0,1-.389.064c-.278.016-.373.157-.368.428.012.644,0,1.289,0,1.933,0,.556-.1.67.618.725.76.058.761.09.829-.674.022-.245.11-.445.375-.459.289-.015.418.187.433.45.018.306.007.614.017.921.006.2-.009.46.269.474.3.015.331-.235.332-.466,0-.6,0-1.2,0-1.8m-8.925,9.151c0,.921.008,1.843,0,2.764,0,.3.088.434.4.415a6.936,6.936,0,0,1,.877,0c.327.022.431-.109.429-.432q-.017-2.7,0-5.4c0-.332-.091-.492-.445-.467a6.432,6.432,0,0,1-.833,0c-.327-.019-.434.12-.428.44.015.891,0,1.783,0,2.675M6.748,13.4c0,1.581-.006,3.161,0,4.742a.986.986,0,0,0,1.157,1.1c.5-.074.8-.456.8-1.089.008-1.346,0-2.692,0-4.038,0-.22-.005-.44.008-.659a.387.387,0,0,1,.374-.411c.27-.017.395.158.425.4a3.773,3.773,0,0,1,.015.439c0,1.126,0,2.253,0,3.38,0,.484.04.5.507.384,1.53-.39,3.062-.772,4.592-1.163,1.842-.47,3.681-.951,5.524-1.413.385-.1.566-.268.542-.694a17.769,17.769,0,0,1,0-1.931c.024-.441-.156-.619-.564-.721-3.22-.807-6.435-1.631-9.652-2.449-.889-.226-.891-.224-.953.7-.019.285-.093.56-.427.556s-.392-.293-.393-.574c0-.469.016-.938-.009-1.405a.958.958,0,0,0-1.318-.906,1.025,1.025,0,0,0-.636,1.054q0,2.349,0,4.7m-.766,0q0-2.35,0-4.7a1.757,1.757,0,0,1,3.407-.753.6.6,0,0,0,.457.357q4.193,1.055,8.383,2.116a21.112,21.112,0,0,0,2.6.624,3.1,3.1,0,0,0,2.551-.53,1.1,1.1,0,0,1,1.817.626,6.285,6.285,0,0,1,.059,1.357c0,.908.021,1.816-.009,2.723-.032.963-.717,1.492-1.53,1.225a.879.879,0,0,1-.275-.134,3.237,3.237,0,0,0-2.89-.49c-.4.089-.79.233-1.193.294s-.524.264-.5.653c.031.452,0,.907.008,1.361a1.163,1.163,0,0,1-.667,1.185c-.265.122-.237.34-.237.557q0,2.856,0,5.711a4.317,4.317,0,0,1-.02.482.434.434,0,0,1-.469.424c-.776,0-1.552,0-2.328,0-.394,0-.467-.265-.466-.6,0-1.947-.006-3.894.008-5.842a.784.784,0,0,0-.427-.845,1.164,1.164,0,0,1-.532-1.218c.028-.345-.079-.436-.424-.343-1.159.31-2.324.6-3.489.885a.566.566,0,0,0-.433.374A1.735,1.735,0,0,1,7.4,20.047a1.789,1.789,0,0,1-1.418-1.815c0-1.611,0-3.221,0-4.832" fill="#fff"/>
  </g>
</svg>
