<svg id="Group_148752" data-name="Group 148752" xmlns="http://www.w3.org/2000/svg" xmlns:xlink="http://www.w3.org/1999/xlink" width="23.282" height="33.156" viewBox="0 0 23.282 33.156">
  <defs>
    <clipPath id="clip-path">
      <rect id="Rectangle_65643" data-name="Rectangle 65643" width="23.282" height="33.156" transform="translate(0 0)" fill="#fff"/>
    </clipPath>
  </defs>
  <g id="Group_148751" data-name="Group 148751" clip-path="url(#clip-path)">
    <path id="Path_260" data-name="Path 260" d="M19.023,15.065c.046-.581.143-1.14.182-1.707.008-.126-.065-.314.129-.35.148-.028.247.106.337.214a.658.658,0,0,1,.138.387,1.6,1.6,0,0,1-.786,1.456M3.468,13.857a1.349,1.349,0,0,1,.132-.693.3.3,0,0,1,.305-.186c.175.025.165.167.172.294a9.492,9.492,0,0,0,.253,1.775c.021.084.082.192-.005.249s-.194-.026-.273-.083a1.525,1.525,0,0,1-.584-1.356m12.46,10.072c0,.041-.005.082-.008.123a16.2,16.2,0,0,1-8.562-.065A8.6,8.6,0,0,1,8.8,23.639a.6.6,0,0,0,.577-.671c0-.448,0-.9,0-1.343,0-.215.087-.272.286-.2a5.784,5.784,0,0,0,3.943.088c.27-.088.309.026.305.25-.006.4,0,.793,0,1.189a.6.6,0,0,0,.566.681c.488.076.969.193,1.453.292M14.591,9.495c-.122.077-.2.005-.277-.023a5.579,5.579,0,0,1-2.49-1.783c-.158-.191-.33-.394-.611-.243s-.217.412-.143.646c.108.34.243.671.361,1.008.039.112.182.222.067.345-.086.091-.22.038-.33.013A2.873,2.873,0,0,1,9.4,8.4c-.322-.431-.588-.405-.885.053A6.967,6.967,0,0,1,7.5,9.7a6.2,6.2,0,0,1-2.38,1.423c-.132.044-.33.153-.328-.126a5.527,5.527,0,0,1,.153-1.9A4.888,4.888,0,0,1,6.7,6.78a8.454,8.454,0,0,1,9.859-.017,4.3,4.3,0,0,1,1.926,3.174c.034.43-.017.48-.394.3a11.276,11.276,0,0,1-2.722-1.769c-.265-.239-.525-.484-.789-.725a.388.388,0,0,0-.422-.1.38.38,0,0,0-.25.314.709.709,0,0,0,.111.4,12.756,12.756,0,0,1,.575,1.145m1.06.232a14.722,14.722,0,0,0,2.27,1.3.484.484,0,0,1,.289.416,7.732,7.732,0,0,1,.146,2.321,8.532,8.532,0,0,1-3.91,6.46,4.831,4.831,0,0,1-5.27.1,8.678,8.678,0,0,1-3.7-4.309,6.841,6.841,0,0,1-.53-3.633.457.457,0,0,1,.327-.457,6.942,6.942,0,0,0,3.538-2.5c.141-.188.241-.2.425-.042a4.657,4.657,0,0,0,3.372.98.4.4,0,0,0,.421-.273c.065-.251.185-.21.362-.127a6.758,6.758,0,0,0,1.6.528c.659.129.864-.091.668-.762M2.068,25.278a1.936,1.936,0,0,1,.012-.729,5.6,5.6,0,0,1,.44-1.224,5.155,5.155,0,0,0-.4-5.217,7.042,7.042,0,0,1-.474-.875,7.167,7.167,0,0,1,.36-6.147,2.7,2.7,0,0,0,.267-1.1A16.042,16.042,0,0,1,2.888,5.6,6.2,6.2,0,0,1,7.5.978a9.986,9.986,0,0,1,3.015-.1,8.276,8.276,0,0,0,2.075.274,6.64,6.64,0,0,1,2.25.014,6.418,6.418,0,0,1,4.715,3.142A11.475,11.475,0,0,1,20.944,9.4a4.973,4.973,0,0,0,.432,1.918,7.877,7.877,0,0,1,.782,3.181,6.341,6.341,0,0,1-1.043,3.7,5.037,5.037,0,0,0-.4,5.008,6.517,6.517,0,0,1,.486,1.33,1.756,1.756,0,0,1,.015.712l-.272-.239a6.3,6.3,0,0,0-3.39-1.671c-.811-.1-1.613-.246-2.419-.373-.266-.042-.407-.157-.393-.454.02-.408.009-.818,0-1.227a.486.486,0,0,1,.225-.452,9.738,9.738,0,0,0,3.492-4.325.708.708,0,0,1,.426-.4,2.843,2.843,0,0,0,1.631-1.735,1.609,1.609,0,0,0-1.025-2.181c-.33-.084-.653-.675-.446-.94a1.873,1.873,0,0,0,.2-1.5c-.058-.609-.195-1.211-.238-1.82a4.5,4.5,0,0,0-.413-1.662,6.394,6.394,0,0,0-3.738-3.221,8.765,8.765,0,0,0-7.143.32A5.84,5.84,0,0,0,4.29,7.525,10.479,10.479,0,0,0,4.018,9.3,9.678,9.678,0,0,0,4.1,11.934c.056.238-.1.224-.237.224a1.116,1.116,0,0,0-1.023.742,2.036,2.036,0,0,0-.187.817,2.206,2.206,0,0,0,1.841,2.477c.213.02.267.161.339.312a10.272,10.272,0,0,0,3.448,4.179.5.5,0,0,1,.257.438c0,.486,0,.972,0,1.457,0,.169-.039.306-.231.342a18.1,18.1,0,0,1-2.034.361,5.812,5.812,0,0,0-1.89.443,6.923,6.923,0,0,0-2.313,1.552m9.612,7.084H1.479l-.384,0c-.208,0-.3-.1-.3-.308a14.681,14.681,0,0,1,.175-2.979,6.105,6.105,0,0,1,4.573-4.91.566.566,0,0,1,.538.075,4.746,4.746,0,0,0,1.863.774,17.544,17.544,0,0,0,6.134.221,6.679,6.679,0,0,0,3.207-1.054c.145-.108.291-.054.439-.013A6.1,6.1,0,0,1,22.223,28.7a11.786,11.786,0,0,1,.257,3.085c.007.578.008.58-.561.58H11.68m-.011.794H22.29c.8,0,1-.2.991-.994a20.465,20.465,0,0,0-.149-3.021,7.62,7.62,0,0,0-.983-2.642.846.846,0,0,1-.159-.61,4.348,4.348,0,0,0-.4-2.647,5.322,5.322,0,0,1-.557-1.9,4.579,4.579,0,0,1,.787-2.793C23.45,16,23.207,13.4,22.014,10.8a4.235,4.235,0,0,1-.263-1.451A13.267,13.267,0,0,0,20.52,4.434,7.312,7.312,0,0,0,13.815.286a6.506,6.506,0,0,0-1.3.061A2.09,2.09,0,0,1,11.68.289,9.692,9.692,0,0,0,7.495.177,6.733,6.733,0,0,0,2.416,4.565a13.635,13.635,0,0,0-.878,4.144c-.04.5-.052.994-.07,1.492a1.062,1.062,0,0,1-.124.437,9.234,9.234,0,0,0-1.029,4.28,6.744,6.744,0,0,0,.9,3.215,14.021,14.021,0,0,1,.694,1.279,4.286,4.286,0,0,1-.143,3.672,4.021,4.021,0,0,0-.514,2.25,2.463,2.463,0,0,1-.357,1.62,7.554,7.554,0,0,0-.873,3.615Q0,31.431,0,32.294c0,.621.234.86.856.861q5.406,0,10.813,0" fill="#fff"/>
    <path id="Path_261" data-name="Path 261" d="M11.747,18.951a2.107,2.107,0,0,0,1.627-.739c.17-.2.272-.432.041-.643s-.435-.072-.623.118a1.61,1.61,0,0,1-2.3,0c-.188-.19-.385-.34-.623-.124s-.121.463.06.671a2.226,2.226,0,0,0,1.817.714" fill="#fff"/>
    <path id="Path_262" data-name="Path 262" d="M14.89,11.065a2.146,2.146,0,0,0-1.348.593c-.19.171-.29.379-.115.606s.394.157.6.009a1.489,1.489,0,0,1,2-.046c.219.141.444.27.637,0,.208-.29.04-.506-.2-.672a2.616,2.616,0,0,0-1.576-.492" fill="#fff"/>
    <path id="Path_263" data-name="Path 263" d="M8.326,11.063a2.6,2.6,0,0,0-1.56.532c-.22.158-.34.368-.158.622s.39.187.6.034a1.529,1.529,0,0,1,2.067.036.367.367,0,0,0,.574-.015.4.4,0,0,0-.075-.58,2.114,2.114,0,0,0-1.449-.629" fill="#fff"/>
    <path id="Path_264" data-name="Path 264" d="M11.467,16.341a1,1,0,0,0,.722-.18.643.643,0,0,0,.234-.716c-.113-.351-.233-.7-.363-1.046a.357.357,0,0,0-.478-.26.391.391,0,0,0-.251.525c.055.2.124.388.195.579s.031.291-.184.313a.817.817,0,0,0-.291.082.368.368,0,0,0,.111.7,2.067,2.067,0,0,0,.305,0" fill="#fff"/>
    <path id="Path_265" data-name="Path 265" d="M7.589,12.85a.716.716,0,0,0,.726.762.732.732,0,0,0,.775-.722.771.771,0,0,0-.752-.8.756.756,0,0,0-.749.756" fill="#fff"/>
    <path id="Path_266" data-name="Path 266" d="M15.693,12.866a.755.755,0,0,0-.731-.772.769.769,0,0,0-.77.778.741.741,0,0,0,.759.74.714.714,0,0,0,.742-.746" fill="#fff"/>
  </g>
</svg>
