<svg id="Group_148746" data-name="Group 148746" xmlns="http://www.w3.org/2000/svg" xmlns:xlink="http://www.w3.org/1999/xlink" width="33.613" height="36.43" viewBox="0 0 33.613 36.43">
  <defs>
    <clipPath id="clip-path">
      <rect id="Rectangle_65640" data-name="Rectangle 65640" width="33.613" height="36.43" fill="#fff"/>
    </clipPath>
  </defs>
  <g id="Group_148745" data-name="Group 148745" transform="translate(0 0)" clip-path="url(#clip-path)">
    <path id="Path_252" data-name="Path 252" d="M16.79,2.516c.565,0,1.13,0,1.7,0,.375,0,.39-.138.2-.418a2.6,2.6,0,0,0-3.77.017c-.215.327-.086.4.236.4.545,0,1.091,0,1.637,0m-4.274,23.02c-.391.115-.188.344-.074.531,1.353,2.226,2.715,4.446,4.063,6.674.224.372.389.376.612.008q2.039-3.367,4.087-6.727c.086-.142.239-.317,0-.449-.192-.109-.335.025-.451.168-.1.121-.185.253-.276.38-.988,1.388-1.971,2.78-2.966,4.162-.511.71-.894.711-1.4,0-1.041-1.448-2.067-2.9-3.1-4.353-.123-.174-.23-.373-.493-.4m7.54-1.474c0-.788,0-.8-.7-.579a8.392,8.392,0,0,1-5.195-.031c-.2-.065-.5-.238-.524.178a2.028,2.028,0,0,0,.288,1.454c.875,1.179,1.717,2.382,2.553,3.588.254.367.406.372.663,0q1.285-1.861,2.616-3.686a1.247,1.247,0,0,0,.3-.923M24.246,12.1a2.916,2.916,0,0,0,.169-.972,8.082,8.082,0,0,0-.858-3.8A5.81,5.81,0,0,0,18.015,3.76c-.94.019-1.881,0-2.822,0A4.6,4.6,0,0,0,12.1,4.872a7.941,7.941,0,0,0-2.71,7.277c.046.425.214.47.576.33a6.271,6.271,0,0,0,2.681-2.036,11,11,0,0,0,1.376-2.388c.161-.358.388-.6.8-.534a18.473,18.473,0,0,1,6.441,2.1A12.361,12.361,0,0,1,24.246,12.1m-.3,2.7a1.9,1.9,0,0,0-.5-1.674c-.258-.236-.459-.535-.706-.786A13.236,13.236,0,0,0,15.371,8.88c-.36-.066-.436.178-.544.4a8.049,8.049,0,0,1-4.784,4.485.491.491,0,0,0-.373.523,10.508,10.508,0,0,0,.439,3.532,7.121,7.121,0,0,0,8.905,4.454c3.047-1.037,4.926-3.8,4.932-7.479M16.82,35.136q4.612,0,9.226,0c.722,0,.755-.037.758-.772,0-.822,0-1.645,0-2.468,0-.468.041-.946.646-1.012.429-.048.643.294.647.985.007.88.017,1.763,0,2.644-.01.449.154.638.615.63q1.5-.029,3,0c.459.008.627-.175.612-.629a8.343,8.343,0,0,0-3.686-6.866c-1.543-1.1-3.363-1.316-5.143-1.692a.9.9,0,0,0-1.122.525c-1.611,2.688-3.251,5.358-4.886,8.032-.441.722-.91.715-1.361-.011-.341-.55-.673-1.1-1.01-1.656l-3.975-6.521c-.154-.253-.3-.507-.68-.42-1.182.27-2.394.394-3.554.775a8.456,8.456,0,0,0-5.617,7.791c0,.521.189.689.689.675.842-.026,1.684-.007,2.526-.007,1.01,0,1.007,0,1.011-.991,0-.862,0-1.724.023-2.585a.627.627,0,0,1,.415-.647.568.568,0,0,1,.6.13.946.946,0,0,1,.252.757c.007.764,0,1.528.006,2.291,0,1.044,0,1.045,1.017,1.045H16.82m-.033,1.293H1.267c-1.068,0-1.278-.2-1.267-1.272.043-4.208,1.809-7.38,5.63-9.3a11.042,11.042,0,0,1,2.978-.871c1.058-.2,2.113-.414,3.172-.6.4-.072.529-.27.553-.676a1.831,1.831,0,0,0-.788-1.787,7.764,7.764,0,0,1-2.867-4.656,1.45,1.45,0,0,0-.722-1.045A2.711,2.711,0,0,1,7.6,12.2a1.451,1.451,0,0,0,.472-1.174,9.276,9.276,0,0,1,2.6-6.547A6.017,6.017,0,0,1,12.8,3.028a.935.935,0,0,0,.6-.643A3.334,3.334,0,0,1,16.758,0a3.384,3.384,0,0,1,3.435,2.28,1,1,0,0,0,.547.7,7.91,7.91,0,0,1,4.539,5.3,8.4,8.4,0,0,1,.38,3.016.9.9,0,0,0,.316.831c1.1.909,1.082,3.546-.548,4.227a.708.708,0,0,0-.41.6,8.67,8.67,0,0,1-3.41,5.382c-.58.438-.277,1.092-.278,1.647,0,.424.453.361.735.421,1.341.279,2.692.512,4.029.806a9.6,9.6,0,0,1,7.456,8.76c.027.469.07.939.062,1.408-.014.819-.248,1.042-1.069,1.043q-4.88.007-9.759,0h-6" transform="translate(0 0)" fill="#fff"/>
  </g>
</svg>
