<svg xmlns="http://www.w3.org/2000/svg" xmlns:xlink="http://www.w3.org/1999/xlink" width="57.364" height="54.672" viewBox="0 0 57.364 54.672">
  <defs>
    <clipPath id="clip-path">
      <rect id="Rectangle_65850" data-name="Rectangle 65850" width="57.364" height="54.673" fill="#4d576e"/>
    </clipPath>
  </defs>
  <g id="Group_149398" data-name="Group 149398" transform="translate(0 0)">
    <g id="Group_149397" data-name="Group 149397" transform="translate(0 0)" clip-path="url(#clip-path)">
      <path id="Path_394" data-name="Path 394" d="M28.251,39.531c-8.709-.038-17.419.074-26.13-.153-1.575-.043-2.273-.491-2.094-2.1.074-.662.006-1.339.015-2.009a5.147,5.147,0,0,1,4.181-5.441,18.7,18.7,0,0,1,9.4-.059,5.327,5.327,0,0,1,4.211,3.886c.156.565.194,1.308,1.022,1.3s.828-.737,1-1.312a5.367,5.367,0,0,1,4.062-3.812,18.558,18.558,0,0,1,9.575.008,5.316,5.316,0,0,1,4.088,4c.14.544.254,1.125.975,1.119s.825-.632.958-1.15c.671-2.585,2.536-3.736,4.984-4.205a20.421,20.421,0,0,1,7.806,0c3.438.665,5.033,2.547,5.053,6.044.021,3.859.021,3.871-3.888,3.876q-12.611.014-25.222,0" transform="translate(0 15.142)" fill="#4d576e"/>
      <path id="Path_395" data-name="Path 395" d="M21.783,16.447c1.948,0,3.9.015,5.844,0,1.529-.015,2.267.7,2.167,2.237q-.551,8.374-1.112,16.746c-.061.91-.494,1.186-1.332.834a2.066,2.066,0,0,0-.343-.125c-1-.229-2.53-.14-2.893-.747-.592-.993,1.087-1.367,1.528-2.267a4.55,4.55,0,0,0-7.382-5.241,4.58,4.58,0,0,0,.135,6.154c.369.419,1.312.574,1.01,1.314-.21.515-.989.3-1.513.4-3.039.6-3.069.6-3.317-2.55-.361-4.608-.712-9.215-1-13.827-.156-2.524.257-2.908,2.726-2.926,1.825-.014,3.652,0,5.478,0Z" transform="translate(7.027 8.525)" fill="#4d576e"/>
      <path id="Path_396" data-name="Path 396" d="M24.077,13.132c3.78,0,7.561-.009,11.341.012a7.636,7.636,0,0,1,2.167.228c1.248.381,1.866,1.248,1.175,2.518-1.194,2.194-2.457,4.352-3.743,6.494a1.53,1.53,0,0,1-1.831.872c-.738-.263-.506-1.028-.527-1.6-.141-3.768-.361-3.991-4.158-3.993-3.355,0-6.708-.018-10.061.008-2.406.02-2.978.658-3.112,3.033-.05.887.569,2.234-.664,2.55-1.282.328-1.792-.981-2.343-1.923-.831-1.421-1.675-2.835-2.48-4.27-1.532-2.727-.853-3.874,2.346-3.909,3.292-.036,6.585-.014,9.877-.017q1.007,0,2.012,0" transform="translate(4.698 6.808)" fill="#4d576e"/>
      <path id="Path_397" data-name="Path 397" d="M22.452,12.812c.331-1.393.607-2.67.94-3.932.539-2.055.981-2.3,2.949-1.7.582.179,1.157.386,1.721.615,3.493,1.426,4.568,3.6,3.674,7.274-.208.853-.752,1.022-1.475,1.022q-8.046,0-16.091,0a1.243,1.243,0,0,1-1.335-.73,5.716,5.716,0,0,1,2.847-7.2c4.764-2.175,4.949-2.077,5.977,3.03a2.152,2.152,0,0,0,.793,1.626" transform="translate(6.448 3.532)" fill="#4d576e"/>
      <path id="Path_398" data-name="Path 398" d="M25.1,4.633a4.6,4.6,0,0,1-4.535,4.524,4.672,4.672,0,0,1-4.729-4.542A4.654,4.654,0,0,1,20.491,0,4.578,4.578,0,0,1,25.1,4.633" transform="translate(8.213 0)" fill="#4d576e"/>
      <path id="Path_399" data-name="Path 399" d="M3.119,27.358a4.236,4.236,0,0,1,4.325-4.231,4.362,4.362,0,0,1,4.278,4.325,4.506,4.506,0,0,1-4.38,4.283,4.351,4.351,0,0,1-4.223-4.377" transform="translate(1.618 11.994)" fill="#4d576e"/>
      <path id="Path_400" data-name="Path 400" d="M33.291,23.128a4.135,4.135,0,0,1,4.278,4.226,4.273,4.273,0,0,1-4.184,4.378,4.513,4.513,0,0,1-4.374-4.286,4.337,4.337,0,0,1,4.28-4.319" transform="translate(15.046 11.995)" fill="#4d576e"/>
      <path id="Path_401" data-name="Path 401" d="M24.416,27.368a4.113,4.113,0,0,1-8.225-.071,4.113,4.113,0,1,1,8.225.071" transform="translate(8.397 12.036)" fill="#4d576e"/>
    </g>
  </g>
</svg>
