<svg id="Group_148730" data-name="Group 148730" xmlns="http://www.w3.org/2000/svg" xmlns:xlink="http://www.w3.org/1999/xlink" width="34.443" height="14.408" viewBox="0 0 34.443 14.408">
  <defs>
    <clipPath id="clip-path">
      <rect id="Rectangle_65620" data-name="Rectangle 65620" width="34.443" height="14.408" fill="#fff"/>
    </clipPath>
  </defs>
  <g id="Group_148729" data-name="Group 148729" transform="translate(0 0)" clip-path="url(#clip-path)">
    <path id="Path_228" data-name="Path 228" d="M0,13.08v-.106c.022-.026.023-.065.055-.085a.877.877,0,0,0,.1-.1.59.59,0,0,1,.461-.146.554.554,0,0,1,.137.009,6.371,6.371,0,0,1,.782.2,4.713,4.713,0,0,0,.7.115,2.244,2.244,0,0,0,.655-.034,2.4,2.4,0,0,0,.686-.272,3.123,3.123,0,0,0,.555-.407c.049-.031.085-.077.129-.111a1.028,1.028,0,0,0,.162-.183.175.175,0,0,1,.035-.047.68.68,0,0,0,.143-.175,2.5,2.5,0,0,0,.2-.322,1.575,1.575,0,0,0,.218-.66,2.23,2.23,0,0,0-.058-.895,2.086,2.086,0,0,0-.062-.2c-.016-.038.022-.087-.025-.118a.051.051,0,0,1-.014-.024c0-.045,0-.093-.063-.1A.063.063,0,0,1,4.76,9.37a.113.113,0,0,0-.089-.121A3.369,3.369,0,0,1,4.446,9a.063.063,0,0,0-.061-.048.331.331,0,0,1-.151-.131c-.008-.058-.016-.117-.1-.077a1.55,1.55,0,0,1-.266-.162.713.713,0,0,0-.081-.047.115.115,0,0,1-.026-.014c-.254-.173-.521-.321-.78-.482-.042-.026-.08-.058-.125-.082S2.752,7.877,2.7,7.84a3.129,3.129,0,0,0-.558-.382A1.812,1.812,0,0,0,1.756,7.3a.911.911,0,0,1-.463-.323A1.6,1.6,0,0,1,1.1,6.556c.048-.079-.017-.13-.055-.181C.9,6.188.723,6.031.562,5.859a1.173,1.173,0,0,1-.208-.318,1.538,1.538,0,0,0-.078-.135A2.257,2.257,0,0,1,.3,4.589c.007-.053.007-.106.017-.158a8.329,8.329,0,0,1,.272-.95.976.976,0,0,0,.069-.154A.133.133,0,0,1,.67,3.3c.107-.19.21-.382.334-.563a.125.125,0,0,1,.016-.024c.1-.12.193-.246.3-.36a5.058,5.058,0,0,1,.662-.6c.125-.112.273-.193.406-.295.075-.038.142-.09.215-.133a.335.335,0,0,0,.15-.089c.131-.08.275-.138.409-.215q.427-.2.87-.36C4.054.652,4.079.645,4.1.635A2.538,2.538,0,0,1,4.447.527c.254-.072.51-.135.768-.193A8.831,8.831,0,0,1,6.392.2,2.3,2.3,0,0,1,6.96.231a1.052,1.052,0,0,1,.488.219A.385.385,0,0,1,7.529,1a.51.51,0,0,1-.247.231.711.711,0,0,0-.126.043,1.274,1.274,0,0,1-.575.054,1.354,1.354,0,0,0-.711-.04c-.112.016-.222.041-.333.062-.056-.013-.1.022-.152.035-.2.055-.406.105-.607.166h0a1.513,1.513,0,0,0-.375.245A1.39,1.39,0,0,0,4.234,2a1.178,1.178,0,0,1-.456.359,1.881,1.881,0,0,1-.283.163.38.38,0,0,0-.1.064.622.622,0,0,0-.325.454,1.681,1.681,0,0,0-.03.671,1.372,1.372,0,0,0,.027.167h0c.05.1.08.214.134.314a2.5,2.5,0,0,0,.751.8c.063.047.125.094.184.143a1.126,1.126,0,0,1,.25.147,1.653,1.653,0,0,0,.186.091c.216.121.439.226.658.341a5.351,5.351,0,0,1,.755.429c.107.08.226.145.333.23a1.148,1.148,0,0,0,.087.079,1.021,1.021,0,0,1,.267.227.14.14,0,0,0,.065.086.055.055,0,0,1,.016.023c.048.119.174.162.248.258.032.042.066.095.129.1a.065.065,0,0,1,.032.031c.015.051.032.1.09.119a.08.08,0,0,1,.03.032.045.045,0,0,0,.041.043.1.1,0,0,1,.027.049.346.346,0,0,0,.069.143,2.348,2.348,0,0,1,.295.483c0,.009.015.015.024.019a.063.063,0,0,1,.019.019c.023.027,0,.071.033.1a.047.047,0,0,1,.014.023c.009.024-.013.071.043.062a.836.836,0,0,1,.1.3.055.055,0,0,1-.008.033,1.593,1.593,0,0,0,.033.368,3.628,3.628,0,0,1-.037.911c-.024.2-.063.4-.072.6a1.223,1.223,0,0,1-.114.434.325.325,0,0,0-.1.2.06.06,0,0,1-.013.024c-.032.021-.016.058-.03.086a.04.04,0,0,1-.018.021c-.015,0-.026-.018-.027-.015a1.31,1.31,0,0,1-.387.413c-.039.034-.09.062-.086.126a.06.06,0,0,1-.025.035C7,11.84,7,11.911,7,11.975A.042.042,0,0,1,6.977,12a.413.413,0,0,0-.091.275.641.641,0,0,1-.111.21,1.017,1.017,0,0,1-.215.249,1.061,1.061,0,0,0-.4.328.052.052,0,0,1-.033.027c-.021,0-.045-.01-.063.006-.106.095-.253.126-.362.218a.813.813,0,0,1-.234.1.452.452,0,0,0-.2.135c-.041.031-.1.034-.138.067-.062.031-.136.027-.2.067-.162.04-.318.1-.48.138a7.041,7.041,0,0,1-.8.17,3.533,3.533,0,0,1-.6.067,2.9,2.9,0,0,1-.744-.016c-.113-.021-.226.013-.338-.014-.093-.071-.2-.031-.307-.049a.875.875,0,0,0-.095,0,.075.075,0,0,1-.031-.014c-.015-.054.043-.024.055-.046a.448.448,0,0,1-.269-.01,4.454,4.454,0,0,1-.576-.152,1.729,1.729,0,0,1-.527-.307.117.117,0,0,0-.075-.035c-.053-.017-.058-.067-.077-.109a.421.421,0,0,0-.04-.11C.011,13.156.019,13.115,0,13.08" transform="translate(0 0.028)" fill="#fff"/>
    <path id="Path_229" data-name="Path 229" d="M29.768,4.326a.051.051,0,0,1-.032,0,1.425,1.425,0,0,1-.031.53.059.059,0,0,1,.043-.009.9.9,0,0,1-.058.4.625.625,0,0,0-.04.176c-.051.181-.142.346-.2.524-.089.2-.238.368-.33.567-.025.055-.094.078-.1.143l0,0a.663.663,0,0,1-.1.12c-.125.126-.234.263-.351.393h0a5.637,5.637,0,0,1-.794.61,3.018,3.018,0,0,1-.71.325,1.568,1.568,0,0,1-.512.142c-.144.008-.287.037-.432.032a.193.193,0,0,1-.161-.083.474.474,0,0,1-.057-.425c.029-.11.038-.222.07-.331a.538.538,0,0,0-.1-.4c-.035-.065-.078-.127-.114-.192a.453.453,0,0,1,.038-.338,1.728,1.728,0,0,0,.12-.362.779.779,0,0,0-.1-.343.854.854,0,0,1-.075-.327.211.211,0,0,1,.049-.137.644.644,0,0,0,.139-.583,3.553,3.553,0,0,0-.045-.378,1.125,1.125,0,0,1,.073-.466,1.39,1.39,0,0,1,.2-.43A2.2,2.2,0,0,1,26.594,3a1.3,1.3,0,0,0,.117-.107c.038-.054.118-.058.145-.125a1.766,1.766,0,0,1,1.41-.312,1.825,1.825,0,0,1,1.113.633c.049.118.141.211.186.331a3.108,3.108,0,0,1,.2.684.45.45,0,0,1,0,.217m-4.1,8.924a.079.079,0,0,1,0,.037c0-.011,0-.024,0-.037M23.1.305a.169.169,0,0,1,.056.006A.321.321,0,0,1,23.1.305m8.085,2.77a3.292,3.292,0,0,0-.153-.424c-.014-.017-.034.007-.037,0-.035-.088-.113-.155-.119-.258-.008-.143-.034-.287-.056-.427a1.344,1.344,0,0,0-.376-.688c-.1-.107-.209-.206-.317-.3C30.053.907,30,.8,29.876.793c-.021,0-.017-.016-.019-.03a.183.183,0,0,0-.081-.107c-.008-.031-.1,0-.053-.071-.007-.048-.047-.067-.08-.091a3.2,3.2,0,0,0-.529-.3,2.17,2.17,0,0,0-.66-.168c-.077.007-.152-.011-.227-.01A.583.583,0,0,1,28.054,0h-.342a.458.458,0,0,1-.153.011,1.331,1.331,0,0,1-.224.01A2.547,2.547,0,0,0,26,.53a.4.4,0,0,1-.094.077,3.278,3.278,0,0,0-.355.335c-.081.088-.162.177-.238.271-.03.035-.058.056-.087,0a.431.431,0,0,1-.043-.11A.288.288,0,0,0,25.022.88,4.72,4.72,0,0,0,24.34.534c-.086-.04-.182-.05-.267-.088a2.078,2.078,0,0,0-.443-.1A1.093,1.093,0,0,1,23.4.3a.762.762,0,0,0-.4-.045.084.084,0,0,0,.026.037L22.965.279a.723.723,0,0,0-.378.026.208.208,0,0,0-.123.322.6.6,0,0,1,.067.381,2.09,2.09,0,0,0,.034.85.47.47,0,0,1,.01.242.215.215,0,0,0,.014.1c.066.225.145.448.2.675.015.009.034.011.037.033a.906.906,0,0,1,.015.379,1.5,1.5,0,0,0,.04.838c.043.147.1.294.151.441a.735.735,0,0,1,.051.333,1.84,1.84,0,0,1,0,.56,2.1,2.1,0,0,0-.105.848A1.09,1.09,0,0,1,23,6.46c.059.3.143.6.207.9a1.4,1.4,0,0,1,.029.559c-.049.264-.089.529-.133.794a.535.535,0,0,1-.019.17c-.029.024-.021.058-.025.089a.926.926,0,0,0,.03.3c.035.2.058.4.112.594a1.508,1.508,0,0,1-.009.724l-.072.394a1.81,1.81,0,0,0-.034.608c.045.058.026.138.066.2a1.742,1.742,0,0,1,.168.453.252.252,0,0,1,.009.125,3.381,3.381,0,0,1-.121.446.691.691,0,0,0-.056.342.741.741,0,0,0,.149.347,1.775,1.775,0,0,0,.483.467,3.653,3.653,0,0,0,.51.277c.034.018.077.015.112.034a1.593,1.593,0,0,1,.2.075c.095.006.181.079.282.042.019-.006,0-.037.013-.033a.5.5,0,0,0,.544-.217,1.414,1.414,0,0,0,.249-.816.053.053,0,0,1-.015-.021q.005.009.024.01c.063-.075.013-.157.013-.235-.007-.7-.008-1.4.008-2.1a4.437,4.437,0,0,1,.12-.956c.03-.123.049-.25.086-.373A.754.754,0,0,1,26.4,9.2c.051-.023.094-.069.154-.069a2.361,2.361,0,0,0,.695-.181c.093-.027.165-.107.25-.129a.918.918,0,0,0,.247-.087,1.631,1.631,0,0,0,.227-.135c-.008.016-.031.019-.03.041A.063.063,0,0,0,28,8.666a.591.591,0,0,0,.118-.048,4.825,4.825,0,0,0,.745-.505.536.536,0,0,1,.106-.09l.022-.017a.469.469,0,0,1,.083-.067l.022-.016a.461.461,0,0,1,.082-.067c.007-.006.015-.01.021-.016a.358.358,0,0,1,.062-.048l.023-.013a.171.171,0,0,0,.065-.069.182.182,0,0,1,.074-.075.239.239,0,0,0,.048-.048.175.175,0,0,1,.065-.064.331.331,0,0,0,.067-.071.461.461,0,0,1,.136-.138A1.564,1.564,0,0,0,30.022,7a5.2,5.2,0,0,0,.6-.968,4.507,4.507,0,0,0,.211-.474,1.5,1.5,0,0,0,.13-.4c.007-.053.045-.093.056-.146.038-.175.075-.351.114-.526a3.7,3.7,0,0,0,.088-.662,1.924,1.924,0,0,0-.041-.748" transform="translate(3.2 0)" fill="#fff"/>
    <path id="Path_230" data-name="Path 230" d="M8.916,2.241l-.4.176a3.81,3.81,0,0,1-.788.083.822.822,0,0,1-.615-.362,1.368,1.368,0,0,1-.2-.692A.835.835,0,0,1,7.34.683C7.37.666,7.4.645,7.428.626A3.039,3.039,0,0,1,7.892.478,3.153,3.153,0,0,1,8.579.412c0,.009-.011.025.016.024.365-.008.731-.011,1.1,0,.439.011.878.031,1.316.05.119.006.239,0,.359.008.427.022.856.04,1.283.066a.338.338,0,0,0,.135-.018c.418.009.834.042,1.251.07l.37.023c.062.063.136.039.211.043.216.015.432.01.647.035a4.326,4.326,0,0,0,.666.037A6.39,6.39,0,0,1,16.623.8L16.632.8c.413.117.5.446.2.758a1.608,1.608,0,0,1-.684.133c-.684.016-1.37.019-2.056.027-.014,0-.029,0-.042,0a5.493,5.493,0,0,0-.582.017.77.77,0,0,1-.126.015.064.064,0,0,1-.033-.007c.008.013.034.008.027.033l-.056.006a.689.689,0,0,0-.317.066c-.047.022-.087.047-.1.1-.091.151-.089.2.017.3.035.082.121.121.169.193.016.025.047.041.049.077.018.1.088.175.107.275a1.814,1.814,0,0,1-.022.528c-.021.222-.016.447-.048.666a2.378,2.378,0,0,0,.091.838,2.383,2.383,0,0,1,.04.644,5.4,5.4,0,0,0-.043.849c.013.149-.018.3-.009.447.042.691.033,1.384.059,2.076.01.272.027.545.023.818,0,.065.045.131-.007.2,0,.013.018.008,0,0l0-.01c.01-.019.018-.039.042-.046q.029.343.057.686c.027.349.054.7.081,1.046.007.283.011.568.022.852a1.082,1.082,0,0,1-.064.439,2.161,2.161,0,0,1-.858.847c-.027.016-.054.034-.08.051a3.94,3.94,0,0,1-.808.32,1.414,1.414,0,0,1-.6.042.733.733,0,0,1-.4-.614c.021,0,.031-.006.024-.032a3.888,3.888,0,0,1-.034-1c0-.325.072-.646.062-.974-.008-.266-.051-.528-.062-.793a.587.587,0,0,1,0-.149.121.121,0,0,0-.035-.131c0-.014-.021.006-.008,0s.007,0,.008.006c.01.034.025.067-.01.1-.037-.1,0-.21-.037-.311-.013-.682.018-1.363.023-2.045a2.259,2.259,0,0,0,.008-.249c0-.032-.017-.071.021-.095.039.043.021.091.017.138,0-.051.019-.1-.019-.152a3.632,3.632,0,0,1,.017-.668c.013-.131-.011-.261-.009-.392a.3.3,0,0,1,0-.105c0-.025,0-.05,0-.077.047-.057.022-.128.024-.19.01-.271.057-.539.059-.811,0-.024-.013-.048,0-.073.031-.35.054-.7.093-1.048.041-.37.067-.742.1-1.112a8.3,8.3,0,0,0,.021-.892.278.278,0,0,0-.017-.126c-.016-.227-.153-.237-.338-.239a1.234,1.234,0,0,0-.443.095,1.748,1.748,0,0,1-.808.077,3.145,3.145,0,0,0-.329-.011.151.151,0,0,0-.119.033" transform="translate(0.986 0.059)" fill="#fff"/>
    <path id="Path_231" data-name="Path 231" d="M17.229,7.206a.51.51,0,0,0-.093-.006.178.178,0,0,0,.093.006" transform="translate(2.445 1.027)" fill="#fff"/>
    <path id="Path_232" data-name="Path 232" d="M17.294,7.665c.075-.191.123-.391.216-.577a1.086,1.086,0,0,1,.35-.429,1.945,1.945,0,0,1,.365-.184c.032-.025.074,0,.106-.021l.15-.043a1.02,1.02,0,0,1,.6.065c.014.014.029.027.042.042.161.055.187.215.263.336.046.074,0,.153-.01.226a.771.771,0,0,1-.418.527.162.162,0,0,0-.069.064.551.551,0,0,1-.192.042.1.1,0,0,1-.086.022h-.042c-.211,0-.423-.009-.632-.023q-.041,0-.082-.01a.108.108,0,0,1,.035.048.4.4,0,0,1-.307.023.16.16,0,0,0-.167.048c-.131.007-.169-.029-.119-.157m6.1.617a1.748,1.748,0,0,1-.04-.265,2.29,2.29,0,0,0-.064-.362,1.512,1.512,0,0,0-.095-.373.245.245,0,0,0-.031-.121c-.059-.122-.087-.258-.153-.378a4.045,4.045,0,0,0-.352-.654,3.616,3.616,0,0,0-.394-.527,3.43,3.43,0,0,0-.293-.3h0a.608.608,0,0,0-.19-.173l-.018-.006a2.016,2.016,0,0,0-.454-.357l-.362-.234c-.131-.08-.266-.157-.406-.225-.095-.047-.2-.073-.291-.12a.189.189,0,0,0-.094-.045c-.24-.072-.475-.153-.722-.2a6.933,6.933,0,0,0-.881-.1,2.826,2.826,0,0,0-.687.04,4.218,4.218,0,0,0-.491.075,3.1,3.1,0,0,0-.712.208c-.238.1-.472.209-.7.33-.038.019-.069.049-.1.072a4.41,4.41,0,0,0-.505.343.073.073,0,0,0-.011.027c.014.046-.011.072-.045.1a3.89,3.89,0,0,0-.719.731.175.175,0,0,1-.109.078,2.138,2.138,0,0,0-.3.422,5.5,5.5,0,0,0-.406.858c-.013.037-.029.072-.04.107a.541.541,0,0,0-.046.255.045.045,0,0,0,.045-.023l0-.01c-.011-.009.014-.009.006,0a.679.679,0,0,0-.088.238,4.781,4.781,0,0,0-.128,1.287,2.86,2.86,0,0,0,.12.882c.01.033-.022-.016-.031,0s-.014.037-.009.058a3.993,3.993,0,0,0,.133.491c.019.042.027.088.049.13a.653.653,0,0,1,.051.1l.008.027c.018.049.039.1.054.147.051.1.09.206.145.3a5.815,5.815,0,0,0,.477.731c.054.034.072.1.111.143.129.155.278.291.419.435a1.964,1.964,0,0,0,.422.335l.022.017a1.728,1.728,0,0,0,.381.261c.061.035.105.11.192.094a.086.086,0,0,1,.071,0c.078.025.141.079.215.11a5.8,5.8,0,0,0,.89.315,4.848,4.848,0,0,0,1.145.149,7.919,7.919,0,0,0,.872-.024,6.726,6.726,0,0,0,.794-.143,1.478,1.478,0,0,1,.391-.087.7.7,0,0,0,.11-.014c.048-.029.1-.051.149-.077a1.622,1.622,0,0,0,.453-.273.223.223,0,0,1,.085-.119c.147-.107.27-.245.418-.352A2.268,2.268,0,0,0,22,12.274a.1.1,0,0,1,.081-.037.1.1,0,0,0,.032-.061c0-.141-.037-.175-.175-.179a2.758,2.758,0,0,0-.614.047.865.865,0,0,0-.281.115c-.083.053-.154.121-.241.169a2.057,2.057,0,0,1-.191.12,3.628,3.628,0,0,1-.843.371,4.011,4.011,0,0,1-.961.176,4.7,4.7,0,0,1-.841-.015,5.213,5.213,0,0,1-.942-.218,2,2,0,0,1-.43-.179,3.24,3.24,0,0,1-.74-.471l-.022-.022a3.278,3.278,0,0,1-.44-.385c-.181-.209-.353-.425-.512-.65a.24.24,0,0,1-.062-.105,4.762,4.762,0,0,1-.438-1.058,4.521,4.521,0,0,1-.128-.74,3.591,3.591,0,0,1,.018-.836,3.229,3.229,0,0,1,.1-.552,5.66,5.66,0,0,1,.28-.776.95.95,0,0,1,.1-.2,1.047,1.047,0,0,1,.085-.147l.016-.024c.088-.123.159-.258.257-.375l.016-.024a.277.277,0,0,1,.07-.088.381.381,0,0,0,.032-.029.821.821,0,0,0,.091-.109c.026-.029.055-.055.082-.083a3.315,3.315,0,0,1,.652-.552,2.765,2.765,0,0,1,.442-.269l.027-.015A3.844,3.844,0,0,1,17.561,4.7a4.532,4.532,0,0,1,.852-.1,5.026,5.026,0,0,1,.916.094,3.984,3.984,0,0,1,1.135.422A3.921,3.921,0,0,1,21.87,6.424c.006.008.011.017.018.025A1.052,1.052,0,0,1,22,6.64a4.366,4.366,0,0,1,.317.684.261.261,0,0,1,.024.058,4.929,4.929,0,0,1,.2.978,2.233,2.233,0,0,1-.317,1.52c-.043.043-.066.1-.113.145a.185.185,0,0,0-.021.022,1.821,1.821,0,0,1-.177.2,3.168,3.168,0,0,1-1.3.7,2.7,2.7,0,0,1-.967.1,1.332,1.332,0,0,1-1.136-.695.539.539,0,0,0-.325-.271.4.4,0,0,1-.317-.256.448.448,0,0,0-.071-.118,1.533,1.533,0,0,1-.185-.218,1.446,1.446,0,0,1-.375-.8c-.011-.107,0-.119.11-.126.146-.008.289.035.434.022a3.315,3.315,0,0,1,.413-.022.922.922,0,0,0,.2-.007.29.29,0,0,1,.083-.014,4.8,4.8,0,0,0,1.153-.175,2.25,2.25,0,0,0,.968-.493,1.13,1.13,0,0,0,.362-1.059,1.368,1.368,0,0,0-.067-.224,1.634,1.634,0,0,0-.663-.658,2.779,2.779,0,0,0-.625-.239,2.142,2.142,0,0,0-.495-.069,3.336,3.336,0,0,0-1,.163,9.372,9.372,0,0,0-1.129.5,1.568,1.568,0,0,0-.294.177.709.709,0,0,1-.177.125,3.314,3.314,0,0,0-.543.493.182.182,0,0,0-.017.024,1.76,1.76,0,0,1-.131.173c-.029.041-.056.082-.085.122a3.424,3.424,0,0,0-.347.727,3.1,3.1,0,0,0-.123,1.193,2.549,2.549,0,0,0,.219.389,2.606,2.606,0,0,1,.105.323.88.88,0,0,0,.246.441c.11.107.251.174.362.279l.023.021a.349.349,0,0,1,.083.1.44.44,0,0,1,.031.056.693.693,0,0,0,.415.37,1.161,1.161,0,0,1,.311.131,3.792,3.792,0,0,0,.592.329,1.556,1.556,0,0,0,.411.105A7.679,7.679,0,0,1,19.137,12a2.074,2.074,0,0,0,.583.017,6.9,6.9,0,0,0,.835-.159c.207-.065.415-.122.616-.2a2.618,2.618,0,0,0,.769-.446,5.48,5.48,0,0,0,.584-.579l.03-.034c.082-.089.145-.193.227-.282a3.887,3.887,0,0,0,.425-.711,2.026,2.026,0,0,0,.168-.58,5.773,5.773,0,0,0,.024-.744" transform="translate(1.93 0.547)" fill="#fff"/>
  </g>
</svg>
