<svg id="Group_148736" data-name="Group 148736" xmlns="http://www.w3.org/2000/svg" xmlns:xlink="http://www.w3.org/1999/xlink" width="31.542" height="31.528" viewBox="0 0 31.542 31.528">
  <defs>
    <clipPath id="clip-path">
      <rect id="Rectangle_65623" data-name="Rectangle 65623" width="31.542" height="31.528" fill="#fff"/>
    </clipPath>
  </defs>
  <g id="Group_148735" data-name="Group 148735" transform="translate(0 0)" clip-path="url(#clip-path)">
    <path id="Path_249" data-name="Path 249" d="M17.561,6.321a2.036,2.036,0,0,0-4.071.035,2.036,2.036,0,0,0,4.071-.035m-6.553,6.385a.374.374,0,0,0,.133.306,6.147,6.147,0,0,0,1.876,1.147c.234.093.321-.026.323-.243,0-.377,0-.754.006-1.131a2.179,2.179,0,1,1,4.35-.024c.006.345.014.691,0,1.036-.019.407.156.459.484.3a8.188,8.188,0,0,0,1.642-1,.537.537,0,0,0,.186-.661,4.687,4.687,0,0,0-2.769-3.076.806.806,0,0,0-.636-.019,2.963,2.963,0,0,1-2.119.013.925.925,0,0,0-.725.023A4.615,4.615,0,0,0,11.2,12a1.874,1.874,0,0,0-.188.711m10-1.033c.153-.043.193-.153.249-.245a6.511,6.511,0,0,0,.721-5.476A6.737,6.737,0,1,0,9.751,11.371c.066.1.105.274.231.276.175,0,.169-.2.223-.316A5.885,5.885,0,0,1,12.3,8.841c.665-.457.65-.448.319-1.2a3.008,3.008,0,0,1,.408-3.276,2.974,2.974,0,0,1,3.089-1.161,3.169,3.169,0,0,1,2.1,4.832c-.177.3-.136.418.145.573a5.822,5.822,0,0,1,1.685,1.416,8.776,8.776,0,0,1,.963,1.645m-6.433,6.79h0q0,2.711,0,5.422a4.9,4.9,0,0,1-.055.8.569.569,0,0,1-.982.363c-.1-.078-.182-.172-.272-.261-.767-.766-1.52-1.547-2.306-2.294a1.263,1.263,0,0,0-2.148.619,1.322,1.322,0,0,0,.494,1.3q2.4,2.4,4.8,4.8a1.155,1.155,0,0,1,.444.751c.015.336.217.395.509.394q4.927-.008,9.854,0c.357,0,.533-.1.5-.479a3.173,3.173,0,0,1,.447-2.077,1.115,1.115,0,0,0,.1-.642V20.507c0-.5.013-1.006-.007-1.508a1,1,0,0,0-.88-1.052.97.97,0,0,0-1.111,1.045q-.034,1.272,0,2.546c.011.423-.126.584-.565.58-.423,0-.639-.094-.624-.573.027-.864.015-1.729,0-2.593a.907.907,0,0,0-.707-.983.967.967,0,0,0-1.222.853,4.329,4.329,0,0,0-.014.518c-.005,2.764-.005,2.764-.578,2.766-.6,0-.6,0-.6-2.789a3.927,3.927,0,0,0-.014-.517.956.956,0,0,0-1.149-.843.891.891,0,0,0-.775.969c-.017.9,0,1.792-.011,2.688,0,.182.026.384-.212.472-.616.226-1.009-.031-1.01-.677q0-4.2,0-8.393c0-.188,0-.377-.017-.565a.8.8,0,0,0-.534-.714.933.933,0,0,0-1.344.925c-.013,1.933,0,3.867,0,5.8m-1.38,4.7a.617.617,0,0,0,.15-.539c0-2.169-.008-4.338.011-6.507a.709.709,0,0,0-.531-.8,7.749,7.749,0,0,1-5.1-6.156A7.9,7.9,0,0,1,23,5.362a7.7,7.7,0,0,1-1.494,7.684,7.376,7.376,0,0,1-3.287,2.285c-.42.151-.587.365-.528.788a1.769,1.769,0,0,1,0,.377c-.026.328.063.463.429.348a1.918,1.918,0,0,1,1.82.357c.206.159.333.194.56.015a2.029,2.029,0,0,1,2.532-.049.484.484,0,0,0,.689-.008,2.124,2.124,0,0,1,3.322,1.3,3.633,3.633,0,0,1,.066.749q.006,4.056,0,8.11a1.269,1.269,0,0,1-.1.738,3.8,3.8,0,0,0-.443,2.359c.008.986-.12,1.107-1.113,1.107q-5.539,0-11.079,0c-.858,0-1.035-.157-1.027-1.012a1.063,1.063,0,0,0-.4-.808c-1.528-1.516-3.064-3.025-4.567-4.566a2.412,2.412,0,0,1,.956-4.094,2.274,2.274,0,0,1,2.424.618c.493.474.944.993,1.423,1.5" transform="translate(0.249 0)" fill="#fff"/>
    <path id="Path_250" data-name="Path 250" d="M27.039,8.722a1.489,1.489,0,0,0,1.515-1.471,1.51,1.51,0,0,0-1.479-1.517,1.566,1.566,0,0,0-1.556,1.511,1.5,1.5,0,0,0,1.52,1.477m.038,4.711c.5,0,1,.008,1.507,0,1.1-.021,1.058.215,1-1.09a2.525,2.525,0,0,0-3.574-2.2,2.609,2.609,0,0,0-1.489,2.828c.013.349.153.469.486.463.691-.012,1.382,0,2.073,0m-.34,1.22c-.679-.024-1.731.054-2.781-.038-.345-.03-.6-.192-.624-.527a6.284,6.284,0,0,1,.36-3.236A3.213,3.213,0,0,1,24.8,9.53c.35-.231.364-.4.111-.733a2.638,2.638,0,0,1,.885-3.916,2.691,2.691,0,0,1,3.232.562,2.56,2.56,0,0,1,.193,3.294c-.286.381-.268.531.117.825A3.59,3.59,0,0,1,30.773,12.5q.008.635,0,1.271c-.006.637-.2.861-.837.877-.942.023-1.884.006-3.2.006" transform="translate(0.764 0.15)" fill="#fff"/>
    <path id="Path_251" data-name="Path 251" d="M3.761,6.256a1.5,1.5,0,0,0-1.538,1.45,1.517,1.517,0,0,0,3.034.049,1.506,1.506,0,0,0-1.5-1.5m-.04,7.707H5.131c1.235,0,1.235,0,1.113-1.259A2.518,2.518,0,0,0,2.7,10.643,2.79,2.79,0,0,0,1.184,13.7c.053.268.23.257.419.257.706,0,1.412,0,2.117,0M3.7,15.142c-.927,0-1.854,0-2.781,0-.724,0-.922-.2-.912-.933A7.757,7.757,0,0,1,.17,11.915,3.62,3.62,0,0,1,1.5,10.022c.316-.229.351-.378.109-.7a2.609,2.609,0,0,1,.349-3.574A2.68,2.68,0,0,1,5.5,5.738a2.606,2.606,0,0,1,.316,3.643c-.208.257-.219.376.061.574a3.76,3.76,0,0,1,1.6,3.2c.007.377.007.755,0,1.132-.011.635-.223.852-.855.857-.974.007-1.949,0-2.923,0" transform="translate(0 0.167)" fill="#fff"/>
  </g>
</svg>
