<svg id="Group_148734" data-name="Group 148734" xmlns="http://www.w3.org/2000/svg" xmlns:xlink="http://www.w3.org/1999/xlink" width="31.541" height="25.792" viewBox="0 0 31.541 25.792">
  <defs>
    <clipPath id="clip-path">
      <rect id="Rectangle_65622" data-name="Rectangle 65622" width="31.541" height="25.792" fill="#fff"/>
    </clipPath>
  </defs>
  <g id="Group_148733" data-name="Group 148733" transform="translate(0 0)" clip-path="url(#clip-path)">
    <path id="Path_245" data-name="Path 245" d="M4.743,16.136c.71,0,1.419-.008,2.129,0,.273,0,.413-.067.471-.365A6.219,6.219,0,0,1,7.93,13.98c.155-.285.034-.418-.194-.551a3.8,3.8,0,0,0-1.4-.444,3.611,3.611,0,0,0-4.08,2.687c-.071.333-.028.485.36.471.709-.025,1.419-.007,2.128-.007m8.341,1.3c1.079,0,2.157,0,3.236,0,.161,0,.341.04.424-.182a.732.732,0,0,0-.394-1.055c-.147-.083-.3-.164-.44-.255a1.073,1.073,0,0,1-.4-1.652c.289-.509.571-1.023.875-1.523.193-.316.1-.44-.232-.555A5.69,5.69,0,0,0,14.008,12a5,5,0,0,0-4.65,4.958c.006.362.133.483.491.478,1.078-.017,2.157-.006,3.236-.006m15.906-3c-.154-.236-.232-.586-.5-.766-.2-.135-.392.109-.573.209a1.076,1.076,0,0,1-1.508-.141,3.974,3.974,0,0,0-1.386-.818,1.294,1.294,0,0,1-1.036-1.474c.009-.148.027-.313-.139-.412a.668.668,0,0,0-1.03.572,1.115,1.115,0,0,1-.907,1.268,4.811,4.811,0,0,0-1.366.764c-.791.629-.915.634-1.812.124-.118-.067-.258-.206-.375-.111a1.6,1.6,0,0,0-.5.816c-.077.271.237.316.412.416a1.152,1.152,0,0,1,.68,1.444,5.81,5.81,0,0,0-.01,1.615c.112.873.033,1.119-.751,1.529-.515.268-.277.524-.116.843.179.354.35.464.737.211.723-.472,1.015-.423,1.7.132a3.567,3.567,0,0,0,1.272.741,1.277,1.277,0,0,1,1.041,1.506c-.011.145-.055.354.124.409a1.4,1.4,0,0,0,.908,0c.224-.088.129-.354.134-.545a1.2,1.2,0,0,1,.932-1.313,3.545,3.545,0,0,0,1.285-.716,1.337,1.337,0,0,1,1.941-.154c.106.078.257.2.373.074a1.643,1.643,0,0,0,.458-.84c.036-.246-.273-.3-.452-.4a1.15,1.15,0,0,1-.669-1.332,4.323,4.323,0,0,0,.055-1.471c-.184-1.111-.12-1.23.849-1.835.114-.071.26-.12.233-.345M0,16.69a5.683,5.683,0,0,1,4.331-5.644,5.673,5.673,0,0,1,4.542.667.625.625,0,0,0,.9-.084A7.3,7.3,0,0,1,19.15,11.5a.661.661,0,0,0,.839.07,1.192,1.192,0,0,0,.751-1.341c-.054-.994.319-1.318,1.324-1.313.957,0,1.913,0,2.87,0a1.047,1.047,0,0,1,1.183,1.12.476.476,0,0,1,0,.138c-.215.854.334,1.214.97,1.532a.44.44,0,0,0,.473-.031,8.667,8.667,0,0,1,.887-.5.973.973,0,0,1,1.288.4c.57.953,1.127,1.914,1.657,2.889a1.016,1.016,0,0,1-.415,1.433.539.539,0,0,1-.119.071c-.869.251-.879.932-.841,1.65a.542.542,0,0,0,.382.474c1.284.6,1.441,1.194.638,2.445-.416.648-.769,1.336-1.16,2a1.1,1.1,0,0,1-1.74.458l-.08-.048a1.251,1.251,0,0,0-1.784.164.5.5,0,0,0-.15.417c-.005.293.01.587-.017.879a1.051,1.051,0,0,1-1.09,1.036q-1.6.03-3.194,0a1.053,1.053,0,0,1-1.1-1.122.473.473,0,0,1,0-.138c.237-.9-.386-1.243-1.025-1.578a.359.359,0,0,0-.389.027c-.239.143-.477.284-.721.416a1.053,1.053,0,0,1-1.574-.419c-.536-.9-1.074-1.8-1.567-2.729a.622.622,0,0,0-.644-.381c-2.038.009-4.074.005-6.111,0-.994,0-1.15-.1-1.454-1.045-.1-.3-.31-.253-.517-.254q-2.684,0-5.369,0a1.333,1.333,0,0,1-1.1-.39A1.582,1.582,0,0,1,0,16.69" transform="translate(0 0.333)" fill="#fff"/>
    <path id="Path_246" data-name="Path 246" d="M14.157,7.226A2.532,2.532,0,0,0,16.75,4.712a2.568,2.568,0,1,0-5.134-.04,2.516,2.516,0,0,0,2.542,2.554m.005,2.086A4.665,4.665,0,0,1,9.5,4.667a4.671,4.671,0,1,1,9.342.029,4.653,4.653,0,0,1-4.68,4.617" transform="translate(0.356 0)" fill="#fff"/>
    <path id="Path_247" data-name="Path 247" d="M7.158,6.545A1.573,1.573,0,0,0,5.587,4.953,1.532,1.532,0,0,0,4.024,6.534,1.524,1.524,0,0,0,5.578,8.123a1.563,1.563,0,0,0,1.58-1.578m-1.55,3.669a3.678,3.678,0,1,1-.024-7.357,3.746,3.746,0,0,1,3.693,3.69,3.742,3.742,0,0,1-3.67,3.666" transform="translate(0.071 0.107)" fill="#fff"/>
    <path id="Path_248" data-name="Path 248" d="M23.918,17.008a1.193,1.193,0,0,0-1.181-1.272,1.233,1.233,0,0,0-1.295,1.22,1.2,1.2,0,0,0,1.24,1.262,1.173,1.173,0,0,0,1.236-1.21m-4.567-.034a3.341,3.341,0,0,1,3.374-3.329A3.374,3.374,0,0,1,26.041,17,3.429,3.429,0,0,1,22.7,20.35a3.388,3.388,0,0,1-3.347-3.376" transform="translate(0.725 0.511)" fill="#fff"/>
  </g>
</svg>
