<svg id="Group_148732" data-name="Group 148732" xmlns="http://www.w3.org/2000/svg" xmlns:xlink="http://www.w3.org/1999/xlink" width="33.811" height="33.86" viewBox="0 0 33.811 33.86">
  <defs>
    <clipPath id="clip-path">
      <rect id="Rectangle_65621" data-name="Rectangle 65621" width="33.811" height="33.861" fill="#fff"/>
    </clipPath>
  </defs>
  <g id="Group_148731" data-name="Group 148731" transform="translate(0 0)" clip-path="url(#clip-path)">
    <path id="Path_233" data-name="Path 233" d="M4.068,32.689c.519,0,1.039-.018,1.556.006.349.016.458-.105.454-.455-.016-1.607-.013-3.214,0-4.821a2.012,2.012,0,0,1,1.65-2.037,2.873,2.873,0,0,1,.678-.07c.166,0,.267-.071.267-.246q0-1.555,0-3.112c0-.215-.116-.246-.3-.2-.269.07-.545.116-.814.18a10.27,10.27,0,0,0-4.812,2.369,4.683,4.683,0,0,0-1.464,2.56,11.474,11.474,0,0,0-.006,2.873,19.159,19.159,0,0,0,.206,2.036.975.975,0,0,0,1.111.911c.493.006.987,0,1.48,0m10.566-7.374c1.493,0,2.984-.005,4.477,0,.284,0,.407-.071.4-.382-.013-1.3-.006-2.6-.005-3.908a.524.524,0,0,0-.124-.422,4.787,4.787,0,0,1-.933-1.374c-.1-.193-.177-.241-.364-.091a3.853,3.853,0,0,1-.956.534,6.379,6.379,0,0,1-5.495-.3c-.289-.145-.445-.164-.62.16A4.212,4.212,0,0,1,10,20.84a.5.5,0,0,0-.153.445c0,1.2.011,2.4-.006,3.6-.005.336.105.435.435.432,1.454-.014,2.909-.006,4.363-.006m.475-6.345a4.313,4.313,0,0,0,3.412-1.822,12.433,12.433,0,0,0,2.3-4.5c.408-1.328.5-1.046-.786-1.317-.807-.17-.674-.248-.98.513-.048.118-.1.232-.159.345a.86.86,0,0,1-1.1.574,21.193,21.193,0,0,0-6.349-.065,1.037,1.037,0,0,1-.9-.3,2.243,2.243,0,0,1-.53-.91c-.061-.171-.139-.293-.357-.238-.343.088-.69.162-1.036.238-.186.04-.238.136-.2.329a11.874,11.874,0,0,0,1.955,4.931A5.337,5.337,0,0,0,15.11,18.97M21.583,8.243A10.362,10.362,0,0,0,21,4.593,3.965,3.965,0,0,0,19.278,2.4a9.063,9.063,0,0,0-8.451-.349A3.781,3.781,0,0,0,8.6,4.58a15.614,15.614,0,0,0-.516,5.441c.016.29.154.359.429.295.64-.151,1.287-.271,1.928-.418.251-.058.378.013.435.266.068.3.176.582.238.879.082.393.3.484.684.441a20.161,20.161,0,0,1,5.779.063.329.329,0,0,0,.43-.251c.113-.349.258-.689.34-1.046.073-.324.229-.4.536-.337.742.157,1.491.282,2.23.449.293.066.365-.007.4-.3.055-.53.065-1.059.07-1.821M11.23,33.856q-4.29,0-8.581,0A2.184,2.184,0,0,1,.311,31.841,35.056,35.056,0,0,1,0,28.252a6.131,6.131,0,0,1,2.607-5.367A11.3,11.3,0,0,1,7.3,20.828a3.658,3.658,0,0,0,2.832-2.1.4.4,0,0,0-.038-.512,11.645,11.645,0,0,1-2.713-5.763,18.611,18.611,0,0,1-.5-2.736,18.56,18.56,0,0,1,.379-4.558c.064-.322.148-.642.242-.956A4.679,4.679,0,0,1,9.98,1.178a10.157,10.157,0,0,1,9.689.1,5.7,5.7,0,0,1,2.764,4.035,11.707,11.707,0,0,1,.086,5.829,16.39,16.39,0,0,1-3.07,6.7.485.485,0,0,0-.09.582,3.844,3.844,0,0,0,1.217,1.664.477.477,0,0,1,.16.677,9.637,9.637,0,0,0-.753,2.021,2.6,2.6,0,0,0,1.6,2.928c.158.064.365.094.307.349s-.153.432-.45.412c-.126-.008-.253,0-.379,0H8.6a4.767,4.767,0,0,0-.53.016.885.885,0,0,0-.833.879c-.014,1.658-.006,3.316-.011,4.974,0,.24.1.352.34.34.114-.006.228,0,.342,0,3.822,0,7.644.005,11.467-.008a.7.7,0,0,1,.8.494c.271.7.306.682-.441.682H11.23" transform="translate(0 0)" fill="#fff"/>
    <path id="Path_234" data-name="Path 234" d="M21.306,31.418a.745.745,0,0,0,.411.774.753.753,0,0,0,.841-.159A1.171,1.171,0,0,0,22.9,31.5c.652-1.659,1.315-3.314,1.959-4.976a1.72,1.72,0,0,1,1.384-1.2,2.738,2.738,0,0,1,1.417.348c.5.187.707.14.937-.352.219-.468.369-.967.564-1.447.1-.254.05-.386-.217-.484-.842-.312-1.675-.645-2.512-.972l-3.921-1.531c-.152-.059-.314-.152-.414.076-.227.521-.486,1.032-.675,1.566-.172.482-.041.691.426.881.176.071.351.142.526.215a1.661,1.661,0,0,1,.99,2.372c-.619,1.577-1.25,3.15-1.873,4.725a1.709,1.709,0,0,0-.188.7M26,16.286a.566.566,0,0,1-.539-.791c.147-.417.322-.824.5-1.231.1-.238.133-.421-.178-.535-.271-.1-.447-.136-.592.2-.788,1.822-1.595,3.635-2.4,5.447-.1.233-.052.335.177.424q3.2,1.239,6.395,2.493c.239.094.34.026.414-.2.153-.469.331-.929.493-1.4.5-1.433.987-2.868,1.493-4.3.13-.368-.149-.382-.355-.481-.227-.11-.342-.025-.425.2-.164.438-.343.87-.528,1.3a.55.55,0,0,1-.717.379.571.571,0,0,1-.334-.775c.122-.372.263-.739.4-1.1.2-.533.2-.52-.335-.739-.25-.1-.355-.045-.448.2-.273.721-.571,1.433-.856,2.15-.164.413-.44.585-.771.472s-.456-.455-.293-.886q.361-.958.735-1.911c.226-.579.224-.562-.351-.791-.264-.1-.365-.016-.445.216-.147.418-.3.831-.463,1.243a.586.586,0,0,1-.572.42m2.072,10.693a3.242,3.242,0,0,1-1.119-.336c-.7-.269-.817-.208-1.09.5q-.946,2.442-1.911,4.875a2.2,2.2,0,0,1-.994,1.155,1.766,1.766,0,0,1-2-.081,1.866,1.866,0,0,1-.782-1.863,10.18,10.18,0,0,1,.812-2.361c.438-1.133.892-2.259,1.334-3.39.158-.4.068-.6-.346-.769-.234-.1-.471-.185-.706-.279a1.61,1.61,0,0,1-1.027-1.786,6.682,6.682,0,0,1,.669-1.887q1.642-3.755,3.3-7.5c.379-.858.391-1.239,1.657-.725,2.227.9,4.483,1.734,6.726,2.6a.687.687,0,0,1,.471,1.013q-1.588,4.591-3.173,9.182a2.578,2.578,0,0,1-1.162,1.49,1.268,1.268,0,0,1-.656.161" transform="translate(0.677 0.413)" fill="#fff"/>
    <path id="Path_235" data-name="Path 235" d="M25.5,32.941H24.434c-.239,0-.356-.066-.171-.3a.466.466,0,0,0,.087-.124c.228-.724.768-.8,1.425-.747,1.4.105,1.883-.291,1.962-1.82.037-.731.107-1.46.147-2.191.012-.228.093-.356.327-.375a1.844,1.844,0,0,0,.3-.047c.548-.134.567-.134.535.422-.061,1.046-.125,2.092-.227,3.135a2.442,2.442,0,0,1-2.263,2.047c-.352.014-.707,0-1.06,0Z" transform="translate(0.812 0.916)" fill="#fff"/>
    <path id="Path_236" data-name="Path 236" d="M14.562,28.22c-.886,0-1.771,0-2.656,0a2.573,2.573,0,0,1-.489-.039.565.565,0,0,1,.011-1.12,2.907,2.907,0,0,1,.528-.043q2.58,0,5.16,0a3.692,3.692,0,0,1,.641.056.563.563,0,0,1,.025,1.095,2.181,2.181,0,0,1-.526.053c-.9.005-1.8,0-2.694,0" transform="translate(0.367 0.907)" fill="#fff"/>
    <path id="Path_237" data-name="Path 237" d="M14.572,30.227q-1.423,0-2.845,0a1.372,1.372,0,0,1-.375-.032.547.547,0,0,1,.083-1.078.83.83,0,0,1,.114-.005q3.016,0,6.032,0c.39,0,.607.192.621.515a.563.563,0,0,1-.594.6c-.1.006-.2,0-.3,0Z" transform="translate(0.367 0.978)" fill="#fff"/>
    <path id="Path_238" data-name="Path 238" d="M32.485,23.447c0,.531.006,1.063,0,1.594-.006.407-.206.635-.542.643-.351.009-.567-.222-.573-.651-.008-.772-.017-1.543,0-2.314a4.3,4.3,0,0,1,.395-1.34c.073-.2.233-.213.406-.125a.567.567,0,0,1,.312.561c0,.545,0,1.088,0,1.632" transform="translate(1.054 0.712)" fill="#fff"/>
    <path id="Path_239" data-name="Path 239" d="M32.483,30.205c0,.341.009.682,0,1.022a.556.556,0,0,1-.548.6.544.544,0,0,1-.561-.585c-.014-.694-.014-1.389,0-2.083a.563.563,0,0,1,.567-.586.571.571,0,0,1,.543.608c.01.341,0,.682,0,1.023" transform="translate(1.054 0.96)" fill="#fff"/>
    <path id="Path_240" data-name="Path 240" d="M30.715,29.7c0,.176.011.353,0,.528a.568.568,0,0,1-1.125.089,3.346,3.346,0,0,1,0-1.274.567.567,0,0,1,1.122.092c.011.188,0,.377,0,.565" transform="translate(0.992 0.96)" fill="#fff"/>
    <path id="Path_241" data-name="Path 241" d="M30.706,26.634a4.93,4.93,0,0,1-.005.606.535.535,0,0,1-.474.475.511.511,0,0,1-.585-.32.787.787,0,0,1,.079-.889c.175-.215.321-.453.48-.681.056-.081.083-.2.208-.191a.335.335,0,0,1,.262.248,2.115,2.115,0,0,1,.037.752" transform="translate(0.992 0.861)" fill="#fff"/>
    <path id="Path_242" data-name="Path 242" d="M32.49,26.648a2.172,2.172,0,0,1-.022.339.517.517,0,0,1-.527.451.5.5,0,0,1-.546-.424,2.434,2.434,0,0,1-.025-.6.545.545,0,0,1,.56-.584.553.553,0,0,1,.552.592c.005.075,0,.152,0,.227Z" transform="translate(1.054 0.868)" fill="#fff"/>
    <path id="Path_243" data-name="Path 243" d="M30.711,31.962a.545.545,0,0,1-.6.541.576.576,0,0,1-.549-.563.582.582,0,0,1,.573-.543.545.545,0,0,1,.574.565" transform="translate(0.993 1.055)" fill="#fff"/>
    <path id="Path_244" data-name="Path 244" d="M18.445,8.264a.6.6,0,0,1-.835.542,13.241,13.241,0,0,0-2.227-.427,9.986,9.986,0,0,0-3.822.339c-.109.032-.215.074-.326.1a.587.587,0,0,1-.739-.359.566.566,0,0,1,.361-.735,7.091,7.091,0,0,1,1.721-.44,12.645,12.645,0,0,1,5.288.372c.39.113.576.317.58.608" transform="translate(0.351 0.241)" fill="#fff"/>
  </g>
</svg>
