<svg id="Group_149580" data-name="Group 149580" xmlns="http://www.w3.org/2000/svg" xmlns:xlink="http://www.w3.org/1999/xlink" width="23.103" height="34.966" viewBox="0 0 23.103 34.966">
  <defs>
    <clipPath id="clip-path">
      <rect id="Rectangle_65903" data-name="Rectangle 65903" width="23.103" height="34.965" fill="#9f2063"/>
    </clipPath>
  </defs>
  <g id="Group_149579" data-name="Group 149579" transform="translate(0 0)" clip-path="url(#clip-path)">
    <path id="Path_10108" data-name="Path 10108" d="M0,17.483Q0,10.024,0,2.566A2.493,2.493,0,0,1,2.1.034,2.789,2.789,0,0,1,2.594,0q6.74,0,13.481,0a2.5,2.5,0,0,1,2.658,2.655q0,1.123,0,2.247c0,.469-.224.721-.627.721s-.625-.249-.626-.72c0-.77,0-1.54,0-2.31a1.26,1.26,0,0,0-1.324-1.336q-6.787,0-13.574,0a1.27,1.27,0,0,0-1.324,1.4v27.4c0,.769,0,1.54,0,2.309a1.26,1.26,0,0,0,1.321,1.341q6.787,0,13.574,0a1.266,1.266,0,0,0,1.328-1.337c0-.208-.011-.416.008-.623a.578.578,0,0,1,.587-.534.571.571,0,0,1,.641.47,2.8,2.8,0,0,1-1,2.79,2.4,2.4,0,0,1-1.452.49q-6.881,0-13.762,0A2.486,2.486,0,0,1,0,32.43q0-7.474,0-14.948" transform="translate(0 0)" fill="#9f2063"/>
    <path id="Path_10109" data-name="Path 10109" d="M12.7,11.179A6.864,6.864,0,1,0,19.552,18.1,6.857,6.857,0,0,0,12.7,11.179m5.605-1.165c0,.635,0,1.269,0,1.9a.536.536,0,0,0,.161.414,8.114,8.114,0,0,1,.005,11.415.539.539,0,0,0-.167.412c.007,1.05,0,2.1,0,3.151,0,.471-.22.721-.624.721s-.628-.25-.629-.718c0-.728-.007-1.455,0-2.184,0-.235-.062-.237-.243-.132a7.8,7.8,0,0,1-7.213.545,7.726,7.726,0,0,1-4.789-5.569,7.949,7.949,0,0,1,3.752-8.917,7.828,7.828,0,0,1,8.166-.025c.089.049.178.168.271.12.115-.059.049-.207.049-.313.005-.895,0-1.789,0-2.684,0-.474.216-.722.621-.726s.63.244.633.712c0,.625,0,1.249,0,1.873" transform="translate(0.424 0.689)" fill="#9f2063"/>
    <path id="Path_10110" data-name="Path 10110" d="M14.239,5.872h.775q3.134,0,6.268,0c.439,0,.684.205.708.575a.6.6,0,0,1-.669.677c-1.09,0-2.182,0-3.274,0h-3.8c-.042.12.056.156.106.21.193.2.4.393.588.6a.594.594,0,0,1,0,.865.583.583,0,0,1-.864.012Q13.118,7.9,12.2,6.946a.616.616,0,0,1,.038-.941q.865-.877,1.742-1.743a.632.632,0,1,1,.88.886c-.217.22-.456.418-.684.627l.064.1" transform="translate(1.112 0.371)" fill="#9f2063"/>
    <path id="Path_10111" data-name="Path 10111" d="M19.837,28.331a.717.717,0,0,0-.411-.064q-3.352,0-6.706,0c-.42,0-.658-.172-.715-.5-.078-.451.2-.753.711-.753q3.352,0,6.706,0h.424l-.746-.752a.632.632,0,0,1-.205-.676.6.6,0,0,1,.98-.3c.665.626,1.309,1.277,1.941,1.938a.6.6,0,0,1-.05.893q-.875.89-1.764,1.765A.629.629,0,1,1,19.122,29c.219-.222.453-.426.716-.67" transform="translate(1.111 2.329)" fill="#9f2063"/>
    <path id="Path_10112" data-name="Path 10112" d="M8.818,3.54q-1.187,0-2.372,0c-.476,0-.726-.214-.731-.615-.005-.418.245-.638.74-.638q2.4,0,4.806,0c.447,0,.695.222.7.615s-.245.636-.708.637c-.812,0-1.623,0-2.434,0" transform="translate(0.53 0.212)" fill="#9f2063"/>
    <path id="Path_10113" data-name="Path 10113" d="M14.214,14.394a5.861,5.861,0,0,1,.5,1.1.178.178,0,0,0,.2.141c.188-.007.376-.009.562,0a.588.588,0,0,1,.583.636c0,.349-.234.645-.574.6-.566-.074-.768.173-.982.67a2.951,2.951,0,0,1-2.8,1.842,3.3,3.3,0,0,0-.729.066q.731.62,1.463,1.238c.5.423,1,.842,1.5,1.269.361.308.434.672.214.95a.826.826,0,0,1-1.07.03c-1.375-1.208-2.773-2.39-4.163-3.582a.744.744,0,0,1-.281-.828c.092-.27.322-.394.736-.4.78,0,1.56.014,2.34,0a1.785,1.785,0,0,0,1.6-.976c.107-.19.082-.268-.163-.267-1.3.01-2.6.007-3.9,0a.6.6,0,0,1-.681-.539.607.607,0,0,1,.661-.714c1.289,0,2.58,0,3.87,0,.328,0,.349-.032.175-.325a1.78,1.78,0,0,0-1.6-.915c-.822-.011-1.643,0-2.465-.007a.618.618,0,0,1-.585-.909.564.564,0,0,1,.55-.34q3.137,0,6.273,0a.578.578,0,0,1,.612.608.587.587,0,0,1-.611.64c-.393.011-.789,0-1.24,0" transform="translate(0.793 1.218)" fill="#9f2063"/>
  </g>
</svg>
