<svg id="Group_149574" data-name="Group 149574" xmlns="http://www.w3.org/2000/svg" xmlns:xlink="http://www.w3.org/1999/xlink" width="52.145" height="33.354" viewBox="0 0 52.145 33.354">
  <defs>
    <clipPath id="clip-path">
      <rect id="Rectangle_65900" data-name="Rectangle 65900" width="52.145" height="33.355" fill="#9f2063"/>
    </clipPath>
  </defs>
  <g id="Group_149573" data-name="Group 149573" transform="translate(0 0)" clip-path="url(#clip-path)">
    <path id="Path_10091" data-name="Path 10091" d="M0,12.522a5.192,5.192,0,0,1,1.143-.052,19.821,19.821,0,0,0,3.079-.289,1.834,1.834,0,0,0,1.1-.7A30.76,30.76,0,0,0,7.753,8.1q1.179-1.826,2.315-3.678a10.226,10.226,0,0,1,2.156-2.65A7.224,7.224,0,0,1,15.4.135,5.294,5.294,0,0,1,16.46.01c3.188,0,6.378-.024,9.566,0a14.92,14.92,0,0,1,2.631.313c.748.142,1.488.316,2.233.466.73.147,1.45.338,2.179.484.425.084.844.2,1.269.275a1.764,1.764,0,0,1,1.346,1.714A1.741,1.741,0,0,1,34.12,4.918a5.032,5.032,0,0,1-.726-.051c-.689-.084-1.381-.111-2.071-.2-.764-.1-1.536-.14-2.3-.218-.848-.086-1.7-.105-2.548-.107-.715,0-1.416.122-2.125.175a.605.605,0,0,1-.453-.126,2.637,2.637,0,0,0-1.824-.569,4.339,4.339,0,0,0-1.373.458c-1.282.555-2.561,1.115-3.841,1.671-.253.111-.514.206-.764.324a2.164,2.164,0,0,0-.873.795c-.35.518-.719,1.023-1.075,1.536-.034.046-.086.09-.072.163.084.045.131-.029.178-.066a16.206,16.206,0,0,1,3.145-1.819c1.426-.654,2.833-1.353,4.263-2a1.517,1.517,0,0,1,1.721.291,1.614,1.614,0,0,1,.5,1.748,1.9,1.9,0,0,1-.9,1.07A31.022,31.022,0,0,0,17.6,12.431c-.955.985-1.839,2.034-2.7,3.1a29.631,29.631,0,0,1-2.775,3.14,5.973,5.973,0,0,1-3.845,1.69,17.917,17.917,0,0,0-1.808.18c-.693.108-1.4.139-2.1.213-.82.086-1.641.15-2.461.232A9.634,9.634,0,0,1,0,21.126Z" transform="translate(0 0)" fill="#9f2063"/>
    <path id="Path_10092" data-name="Path 10092" d="M47.359,17.725c-.664.079-1.334.1-2,.133a13.463,13.463,0,0,0-2.291.295,1.745,1.745,0,0,0-.894.685,34.333,34.333,0,0,0-2.809,3.974c-.921,1.45-1.805,2.926-2.77,4.346a7.5,7.5,0,0,1-2.029,1.892c-.121.084-.247.16-.366.247a2.371,2.371,0,0,1-1.5.394q-7.235-.021-14.468,0a11.185,11.185,0,0,1-2.076-.327,15.249,15.249,0,0,1-1.547-.336,7.566,7.566,0,0,1-1.918-.521,1.7,1.7,0,0,1,.22-3.049,2.9,2.9,0,0,1,1.461-.052c.684.042,1.359.163,2.044.2.71.038,1.416.138,2.123.222.173.021.345.022.519.029,1.058.045,2.117.039,3.174-.006.337-.014.672-.076,1.008-.121a.388.388,0,0,1,.32.063,2.684,2.684,0,0,0,3.065.284c1.265-.587,2.555-1.119,3.834-1.673.343-.147.692-.278,1.026-.442a1.925,1.925,0,0,0,.744-.67c.424-.623.869-1.233,1.277-1.885-.114.079-.232.15-.34.234a19.621,19.621,0,0,1-3.795,2.1c-1.113.526-2.233,1.036-3.338,1.579a1.685,1.685,0,0,1-2.454-1.408,1.6,1.6,0,0,1,.795-1.516,31.739,31.739,0,0,0,6.025-5.066c1.029-1.108,1.97-2.29,2.927-3.459A16.459,16.459,0,0,1,36.1,11.019a5.911,5.911,0,0,1,3.163-1.124c.917-.074,1.829-.185,2.744-.272,1.08-.1,2.163-.17,3.237-.307a15.5,15.5,0,0,0,2.116-.246Z" transform="translate(4.786 3.663)" fill="#9f2063"/>
    <path id="Path_10093" data-name="Path 10093" d="M10.513,17.681a1.837,1.837,0,0,1,.427-1.306,9.989,9.989,0,0,1,2.044-2.548,3.51,3.51,0,0,1,2.175-.955,2.729,2.729,0,0,1,2.28,1.047c.4.477.605,1.073.956,1.578a3.8,3.8,0,0,0,1.717,1.539,2.628,2.628,0,0,0,1.756.022,3.14,3.14,0,0,0,.458-.182c.215-.1.215-.153.018-.3-.161-.118-.327-.227-.487-.347a7.711,7.711,0,0,1-2.041-2.2,6.921,6.921,0,0,1-1.032-2.864,1.9,1.9,0,0,1,1.881-2.043,1.918,1.918,0,0,1,1.818,1.2,8.225,8.225,0,0,1,.274.973,4.173,4.173,0,0,0,1.692,2.082,5.8,5.8,0,0,0,1.727.765,1.921,1.921,0,0,1,1.369,2.092A4.462,4.462,0,0,1,26.53,18.34a7.082,7.082,0,0,1-3.255,2.3,6.544,6.544,0,0,1-3.121.34,6.807,6.807,0,0,1-4.433-2.657,9.38,9.38,0,0,1-.616-.838c-.112-.173-.19-.133-.286,0-.261.369-.518.738-.745,1.13a1.852,1.852,0,0,1-2,.963,1.879,1.879,0,0,1-1.522-1.3,1.753,1.753,0,0,1-.039-.592" transform="translate(4.237 3.685)" fill="#9f2063"/>
    <path id="Path_10094" data-name="Path 10094" d="M24.645,15.13a5.105,5.105,0,1,1,5.106-5.094,5.1,5.1,0,0,1-5.106,5.094" transform="translate(7.878 1.987)" fill="#9f2063"/>
  </g>
</svg>
