<svg id="Group_149576" data-name="Group 149576" xmlns="http://www.w3.org/2000/svg" xmlns:xlink="http://www.w3.org/1999/xlink" width="40.415" height="38.481" viewBox="0 0 40.415 38.481">
  <defs>
    <clipPath id="clip-path">
      <rect id="Rectangle_65901" data-name="Rectangle 65901" width="40.415" height="38.481" fill="#9f2063"/>
    </clipPath>
  </defs>
  <g id="Group_149575" data-name="Group 149575" transform="translate(0 0)" clip-path="url(#clip-path)">
    <path id="Path_10095" data-name="Path 10095" d="M12.57,2.608a17.056,17.056,0,0,0,7.7,3.431C18.106,4,15.384,3.2,12.57,2.608M37.079,19.5A24.168,24.168,0,0,1,31.942,30.52a14.634,14.634,0,0,1-2.676,2.647,5.961,5.961,0,0,1-5.808.949,3.12,3.12,0,0,0-2.346.041c-2.412.925-4.527.23-6.416-1.387-.318-.273-.576-.54.008-.832,3.314-1.666,3.859-4.514,3.3-7.814-.132-.778-.3-1.553-.5-2.314a1.78,1.78,0,0,0-1.895-1.5c-.619.02-.689-.271-.7-.723a14.092,14.092,0,0,0-.321-2.166,3.062,3.062,0,0,0-1.38-2.3c-.963-.612-1.145-1.792-1.478-2.818A2.91,2.91,0,0,0,10.9,10.7c-.44-.342-.087-.537.168-.728a7.853,7.853,0,0,1,6.137-1.5,29.39,29.39,0,0,1,3.079.685c.722.191.993-.037.923-.758a2.315,2.315,0,0,1,.016-.526c.077-.589-.1-.736-.677-.49a7.4,7.4,0,0,1-3.074.6,6.52,6.52,0,0,1-4.383-1.741,13.951,13.951,0,0,1-3.036-4.372c-.15-.3-.285-.628.259-.692a19.086,19.086,0,0,1,5.85-.188A7.975,7.975,0,0,1,21.2,4.086c.142.186.277.378.422.56.032.04.1.052.224.114A11.053,11.053,0,0,1,25.13,0h1.056c.623.636.421,1.181-.156,1.725a9.047,9.047,0,0,0-2.77,5.534c-.285,2.062-.641,2.234,1.828,1.63a9.281,9.281,0,0,1,11.992,7.275Z" transform="translate(3.336 0)" fill="#9f2063"/>
    <path id="Path_10096" data-name="Path 10096" d="M0,9.322a10.42,10.42,0,0,1,3.8-.414,3.4,3.4,0,0,1,2.736,2.626.594.594,0,0,1-.359.7A3.38,3.38,0,0,1,1.7,11.715,15.808,15.808,0,0,1,0,9.5Z" transform="translate(0 2.978)" fill="#9f2063"/>
    <path id="Path_10097" data-name="Path 10097" d="M13.195,30.278A33.593,33.593,0,0,1,11,25.436c-.278-.651.4-.651.735-.84s.718-.375.947.152q.94,2.165,1.865,4.337c.227.537-.083.886-.469,1.193Z" transform="translate(3.674 8.204)" fill="#9f2063"/>
    <path id="Path_10098" data-name="Path 10098" d="M7.778,20.619c2.71.045,3.964,1.454,4.731,3.747.128.383-.033.579-.355.77a4.732,4.732,0,0,1-6.42-.862,16.355,16.355,0,0,1-1.848-2.442c-.266-.413-.176-.627.322-.712a35.021,35.021,0,0,1,3.57-.5" transform="translate(1.257 6.931)" fill="#9f2063"/>
    <path id="Path_10099" data-name="Path 10099" d="M16.135,20.421c.132,3.251-1.774,4.1-3.748,4.914a.63.63,0,0,1-.874-.314,4.663,4.663,0,0,1,.623-5.939,26.916,26.916,0,0,1,2.7-2.226c.457-.361.7-.309.83.281a13.385,13.385,0,0,1,.468,3.284" transform="translate(3.605 5.59)" fill="#9f2063"/>
    <path id="Path_10100" data-name="Path 10100" d="M6.313,6.993C6.266,8.01,6.155,9.249,5.265,9.632s-1.879-.4-2.614-1.1A5.654,5.654,0,0,1,1.9,2.449c.131-.2.271-.323.5-.2,1.7.91,3.318,1.915,3.844,3.962a4.759,4.759,0,0,1,.076.786" transform="translate(0.446 0.739)" fill="#9f2063"/>
    <path id="Path_10101" data-name="Path 10101" d="M5.623,16.27c2.527-.015,4,1.124,4.608,3.189a.633.633,0,0,1-.347.854,4.159,4.159,0,0,1-5.8-.953c-.53-.62-.981-1.307-1.468-1.963-.311-.42-.142-.64.311-.712,1.037-.167,2.075-.321,2.7-.416" transform="translate(0.824 5.469)" fill="#9f2063"/>
    <path id="Path_10102" data-name="Path 10102" d="M13.63,16.15c.043,2.678-1.541,3.582-3.418,4.289-.353.134-.532-.021-.714-.3a4.075,4.075,0,0,1,.3-5.041,17.932,17.932,0,0,1,2.679-2.254c.41-.323.629-.178.724.274a13.257,13.257,0,0,1,.433,3.029" transform="translate(2.946 4.26)" fill="#9f2063"/>
    <path id="Path_10103" data-name="Path 10103" d="M11.387,12.186A3.718,3.718,0,0,1,8.411,16.02a.579.579,0,0,1-.726-.287,3.617,3.617,0,0,1,.245-4.4A15.186,15.186,0,0,1,10.343,9.3c.412-.315.584-.095.66.282a12.943,12.943,0,0,1,.383,2.6" transform="translate(2.372 3.077)" fill="#9f2063"/>
    <path id="Path_10104" data-name="Path 10104" d="M4.218,12.436a3.571,3.571,0,0,1,3.92,2.6c.188.529.047.791-.436,1.033a3.645,3.645,0,0,1-4.89-.86c-.453-.493-.819-1.062-1.235-1.59-.39-.494-.393-.8.338-.893a17.731,17.731,0,0,1,2.3-.287" transform="translate(0.443 4.179)" fill="#9f2063"/>
    <path id="Path_10105" data-name="Path 10105" d="M9.538,8.764a3.572,3.572,0,0,1-2.819,3.454c-.379.086-.529-.091-.689-.355A3.328,3.328,0,0,1,6.5,7.611,16.171,16.171,0,0,1,8.455,6c.4-.3.613-.208.736.261a13.544,13.544,0,0,1,.347,2.505" transform="translate(1.84 1.958)" fill="#9f2063"/>
  </g>
</svg>
