<svg id="Group_149502" data-name="Group 149502" xmlns="http://www.w3.org/2000/svg" xmlns:xlink="http://www.w3.org/1999/xlink" width="46.221" height="57.331" viewBox="0 0 46.221 57.331">
  <defs>
    <clipPath id="clip-path">
      <rect id="Rectangle_65883" data-name="Rectangle 65883" width="46.221" height="57.331" fill="none"/>
    </clipPath>
  </defs>
  <g id="Group_149501" data-name="Group 149501" transform="translate(0 0)" clip-path="url(#clip-path)">
    <path id="Path_5385" data-name="Path 5385" d="M43.972,26.383v1.431a1.1,1.1,0,0,1-1.012,1.148A1.075,1.075,0,0,1,41.85,27.91c-.034-1.017-.034-2.036,0-3.053a1.06,1.06,0,1,1,2.118.1c.006.477,0,.954,0,1.431m-15.221-.571h0c0-.963-.007-1.927,0-2.89a1.047,1.047,0,0,1,.747-1.015,1.07,1.07,0,0,1,1.179.422,1.249,1.249,0,0,1,.177.757c0,1.789-.007,3.579.009,5.368a1.077,1.077,0,1,1-2.124.058c.033-.9.007-1.8.007-2.7m8.735.006V23.055a1.324,1.324,0,0,1,.067-.5,1.057,1.057,0,0,1,1.2-.668,1.116,1.116,0,0,1,.865,1.16q.007,2.748,0,5.5a1.1,1.1,0,0,1-1.07,1.19,1.082,1.082,0,0,1-1.063-1.182c0-.911,0-1.822,0-2.732m-2.251-.024h0c0,1.219,0,2.439,0,3.658a1.069,1.069,0,1,1-2.13.024c-.007-2.449,0-4.9,0-7.347a1.216,1.216,0,0,1,.171-.635,1.054,1.054,0,0,1,1.959.549c.009,1.251,0,2.5,0,3.752M27.276,9.9c0-.635,0-1.27,0-1.905a1.8,1.8,0,1,1,3.607-.063c.021,1.324.024,2.647,0,3.971a1.8,1.8,0,1,1-3.607-.066c0-.645,0-1.291,0-1.938m-2.249-.775h0q0,1.86,0,3.722a1.9,1.9,0,0,1-.221.978,1.781,1.781,0,0,1-2.038.888,1.808,1.808,0,0,1-1.325-1.781c-.007-2.534,0-5.07,0-7.6a1.929,1.929,0,0,1,.055-.471,1.785,1.785,0,0,1,3.522.419c.012,1.283,0,2.565,0,3.849m-15.272.01q0-1.86,0-3.719a2.176,2.176,0,0,1,.033-.441A1.8,1.8,0,0,1,11.766,3.5a1.843,1.843,0,0,1,1.6,1.878c.01,2.512,0,5.022,0,7.534a1.891,1.891,0,0,1-.216.885,1.775,1.775,0,0,1-2.015.929,1.818,1.818,0,0,1-1.379-1.772c-.007-1.272,0-2.542,0-3.813m5.826-.012c0-1.632-.007-3.263,0-4.9a1.811,1.811,0,1,1,3.612.022q0,4.944,0,9.886a1.775,1.775,0,0,1-1.115,1.681,1.718,1.718,0,0,1-1.945-.394,1.96,1.96,0,0,1-.552-1.468q0-2.417,0-4.833M35.444,55.059H29.253c-.5,0-.5,0-.5-.52q0-5.823,0-11.644a1.66,1.66,0,0,0-.453-1.2c-1.233-1.342-2.451-2.7-3.669-4.052a5.676,5.676,0,0,1-1.5-3.9c0-1.145,0-2.29,0-3.434,0-1.781-.007-3.564,0-5.346a1.764,1.764,0,0,1,1.605-1.811A1.683,1.683,0,0,1,26.5,24.906c.006,2.853,0,5.7,0,8.558a1.155,1.155,0,0,0,1.035,1.279,4.968,4.968,0,0,1,1.746.705A3.579,3.579,0,0,1,30.9,38.3a1.091,1.091,0,0,0,1.152,1.009A1.134,1.134,0,0,0,33.1,38.155a4.978,4.978,0,0,0-.282-1.62,5.878,5.878,0,0,0-3.673-3.7.543.543,0,0,1-.4-.629c.01-.247.057-.341.322-.276a3.065,3.065,0,0,0,2.224-.271c.191-.1.288-.039.419.1a3.205,3.205,0,0,0,4.962-.034.262.262,0,0,1,.367-.086A3.171,3.171,0,0,0,40.99,30.9a.259.259,0,0,1,.373-.055,3.082,3.082,0,0,0,2.278.316c.292-.069.337.031.334.291-.007,1.081-.016,2.163,0,3.245a9.614,9.614,0,0,1-.487,3.186A25.9,25.9,0,0,0,42.1,46.176c.015,2.831,0,5.663.009,8.494,0,.306-.085.4-.385.4-2.094-.012-4.189-.006-6.285-.006m-12.3,2.272H45a1.093,1.093,0,0,0,1.173-.866,1.133,1.133,0,0,0-.988-1.4c-.042,0-.083,0-.124,0-.708-.012-.708-.012-.708-.756,0-2.969-.01-5.939.009-8.908a20.226,20.226,0,0,1,.9-5.657,19.174,19.174,0,0,0,.866-3.475,12.769,12.769,0,0,0,.089-1.331q0-4.93,0-9.862A3.319,3.319,0,0,0,41.886,21.7c-.192.057-.27,0-.355-.168a3.232,3.232,0,0,0-4.5-1.58.237.237,0,0,1-.34-.066,3.2,3.2,0,0,0-5.021-.006.25.25,0,0,1-.367.061A3.22,3.22,0,0,0,27,21.188c-.113.185-.2.212-.392.115A3.919,3.919,0,0,0,20.92,24.59c-.022.233-.039.465-.039.7,0,2.694.013,5.387-.007,8.081a8.454,8.454,0,0,0,2.37,6.121c1.021,1.079,2,2.2,3.005,3.3a.93.93,0,0,1,.259.678Q26.5,49.048,26.5,54.633c0,.425,0,.426-.4.426H10.154c-.4,0-.4,0-.4-.429q0-11.278.01-22.557a2.126,2.126,0,0,0-.6-1.559Q6.7,27.846,4.287,25.137a7.72,7.72,0,0,1-2.029-5.256c-.018-3.934-.012-7.869,0-11.8A2.793,2.793,0,0,1,4.423,5.243,2.633,2.633,0,0,1,7.5,7.7c.012.243.01.487.01.732q0,5.36,0,10.721v.1c0,.961.3,1.312,1.207,1.5a6.467,6.467,0,0,1,2.773,1.273,5,5,0,0,1,1.88,3.686,1.116,1.116,0,0,0,1.158,1.106,1.094,1.094,0,0,0,1.048-1.21,7.069,7.069,0,0,0-2.864-5.5,8.123,8.123,0,0,0-2.668-1.377.348.348,0,0,1-.292-.4c.015-.444.012-.891,0-1.336-.006-.243.033-.32.294-.218a3.838,3.838,0,0,0,3.7-.364c.161-.106.241-.083.347.073a3.961,3.961,0,0,0,6.616.006c.109-.157.189-.177.347-.073a3.952,3.952,0,0,0,5.435-1.035c.1-.143.18-.158.326-.061a3.869,3.869,0,0,0,3.92.353c.16-.07.231-.03.325.107a1.083,1.083,0,0,0,1.292.481A1.137,1.137,0,0,0,33.1,15.1c0-2.428,0-4.858,0-7.286A4.106,4.106,0,0,0,29.55,3.834a3.916,3.916,0,0,0-2.141.352c-.213.1-.274.037-.349-.165a3.989,3.989,0,0,0-3.648-2.829,3.61,3.61,0,0,0-2.322.638c-.191.125-.276.118-.411-.079a3.953,3.953,0,0,0-6.541-.034c-.142.2-.225.255-.455.107A3.954,3.954,0,0,0,7.951,3.482c-.228.468-.2.365-.544.152C4.257,1.713.586,3.776.061,7.349A7.441,7.441,0,0,0,0,8.427c0,3.67.012,7.34,0,11.009A10.735,10.735,0,0,0,3,27.1c1.462,1.556,2.873,3.162,4.312,4.74a.811.811,0,0,1,.2.608q0,4.485,0,8.972V54.53c0,.529,0,.529-.528.529q-2.909,0-5.82,0a1.1,1.1,0,0,0-1.078.751,1.134,1.134,0,0,0,.31,1.243.971.971,0,0,0,.674.276c.113,0,.228,0,.341,0H23.143" transform="translate(0 0)" fill="#39455b"/>
  </g>
</svg>
