<svg id="Group_149456" data-name="Group 149456" xmlns="http://www.w3.org/2000/svg" xmlns:xlink="http://www.w3.org/1999/xlink" width="56.556" height="51.503" viewBox="0 0 56.556 51.503">
  <defs>
    <clipPath id="clip-path">
      <rect id="Rectangle_65867" data-name="Rectangle 65867" width="56.556" height="51.503" fill="#4d576e"/>
    </clipPath>
  </defs>
  <g id="Group_149455" data-name="Group 149455" transform="translate(0 0)" clip-path="url(#clip-path)">
    <path id="Path_5306" data-name="Path 5306" d="M31.446,4.33a6.439,6.439,0,0,1,.005-.715c.077-.7-.249-.876-.914-.9a18.706,18.706,0,0,0-2.819.4,9.757,9.757,0,0,0-1.629.49c-.315.1-.335.285-.221.551.3.7.6,1.4.885,2.1.154.376.364.468.782.358a11.283,11.283,0,0,1,2.292-.473c1.5-.081,1.621-.249,1.621-1.739,0-.024,0-.048,0-.072M16.3,15.679c.343.038.5-.184.631-.415A16.443,16.443,0,0,1,18.917,12.4c.175-.189.207-.351.007-.547-.612-.6-1.212-1.208-1.823-1.807-.262-.257-.5-.2-.729.068a19.708,19.708,0,0,0-2.627,3.975c-.081.167-.238.374.015.489.84.384,1.692.738,2.539,1.1M23.118,4.844a1.513,1.513,0,0,0-.29.1A25.508,25.508,0,0,0,18.91,7.554c-.3.234-.253.48-.013.722.554.559,1.111,1.113,1.665,1.672a.466.466,0,0,0,.7.036,24.736,24.736,0,0,1,2.892-1.966.622.622,0,0,0,.338-.84c-.286-.68-.6-1.348-.9-2.023-.082-.184-.179-.342-.469-.311m21.364,5.287a.758.758,0,0,0,.219-.1,17.925,17.925,0,0,0,1.873-1.866c.2-.228.025-.4-.138-.547a18.415,18.415,0,0,0-3.945-2.686c-.323-.16-.578-.14-.73.269-.264.714-.57,1.412-.857,2.117a.527.527,0,0,0,.293.756,21.188,21.188,0,0,1,2.745,1.8.865.865,0,0,0,.54.261m7.827,12.38c.31,0,.62-.012.929,0,.571.028.964-.029.642-.779a3.4,3.4,0,0,1-.078-.99,20.956,20.956,0,0,0-.853-3.443c-.076-.294-.246-.489-.635-.3-.7.34-1.435.629-2.153.939-.3.128-.389.278-.306.656a19.391,19.391,0,0,1,.442,2.154c.183,1.766.228,1.762,2.011,1.76m-3.394,9.4a.57.57,0,0,0-.473.367,13.922,13.922,0,0,1-1.964,2.888c-.254.307-.152.5.077.729.56.552,1.125,1.1,1.669,1.666.3.311.535.237.764-.054A24.946,24.946,0,0,0,51.58,33.58c.118-.225.2-.485-.074-.628a14.527,14.527,0,0,0-2.59-1.04m.02-16.162c.891-.392,1.792-.77,2.671-1.191.223-.106.061-.346-.021-.509a18.356,18.356,0,0,0-2.656-3.969c-.282-.318-.5-.289-.772-.02-.522.525-1.039,1.054-1.574,1.563-.282.269-.269.485-.045.8A23.175,23.175,0,0,1,48.5,15.4c.077.151.14.387.433.35M33.91,4.223c0,.215.017.432,0,.645-.06.627.061.991.836,1.074a17.388,17.388,0,0,1,3.048.665c.539.159.759-.02.922-.46a17.935,17.935,0,0,1,.7-1.869c.286-.57-.028-.775-.442-.876a16.758,16.758,0,0,0-3.554-.674C33.91,2.7,33.91,2.681,33.91,4.223M13.078,22.5c.407,0,.812,0,1.217,0a.454.454,0,0,0,.513-.469,15.61,15.61,0,0,1,.737-3.481c.115-.376,0-.534-.3-.658-.7-.293-1.423-.554-2.11-.882-.533-.254-.76-.056-.858.442a32.724,32.724,0,0,0-.65,3.42c-.146,1.643-.221,1.636,1.453,1.628M53.989,25.35c.057-.33-.183-.368-.433-.371-.809-.005-1.62,0-2.431,0-.38,0-.544.164-.588.551a24.1,24.1,0,0,1-.69,3.549c-.1.368-.037.5.317.623.693.244,1.376.525,2.045.829.454.207.693.011.825-.376a18.734,18.734,0,0,0,.955-4.8m-40.883-.378v0c-.382,0-.763,0-1.146,0-.25,0-.538.048-.534.351a9.378,9.378,0,0,0,.548,3.118c.089.242.368.287.576.4.558.3,1.158.627,1.284,1.272.225,1.152.937,1.447,1.97,1.362.183-.016.408.122.538-.057.146-.2-.005-.4-.094-.6a20.805,20.805,0,0,1-1.4-4.7c-.219-1.135-.159-1.147-1.313-1.147h-.431M11.673,39.436q0-3.8,0-7.6c0-.44,0-.942-.607-.942-.567,0-.666.47-.666.922q-.01,7.6-.005,15.19c0,.486.134.857.706.872.631.016.572-.448.574-.852q.006-3.8,0-7.594m29.176,3.7a1.887,1.887,0,0,0,1.289-.264A24.51,24.51,0,0,0,46.3,40.107c.366-.334.453-.552.054-.9s-.779-.772-1.168-1.159c-.786-.783-.835-.782-1.67-.013a2.565,2.565,0,0,1-.4.3,18.693,18.693,0,0,1-3.839,2.043c-.442.144-.548.371-.193.758a1.905,1.905,0,0,1,.526,1.078c.078.771.5,1.033,1.236.921M7.926,39.463q0-3.654,0-7.311a2.14,2.14,0,0,0-.1-.772c-.241-.595-.77-.644-1.158-.139a1.571,1.571,0,0,0-.3,1.008q.006,7.239.007,14.478a2.081,2.081,0,0,0,.1.7.672.672,0,0,0,.8.448.666.666,0,0,0,.616-.6,5.144,5.144,0,0,0,.025-.715q0-3.547,0-7.1m30.45,9.58q3.8,0,7.6,0c1.028,0,2.055.02,3.081-.008a1.722,1.722,0,0,0,1.9-1.833c-.026-1.092-.62-1.586-1.915-1.587q-4.622,0-9.245,0a1.258,1.258,0,0,0-1,.266c-1.4,1.421-3.056,1.378-4.82.881-1.138-.321-2.3-.584-3.453-.831-1.9-.405-3.81-.76-5.709-1.166-.829-.176-1.052-.729-.751-1.689.285-.909.583-1.061,1.481-.759,1.2.4,2.456.525,3.677.82,1.244.3,2.5.543,3.759.767a12.635,12.635,0,0,0,3.007.562c.811-.048,1.264-.309,1.4-.943a1.413,1.413,0,0,0-.966-1.412c-.858-.265-1.753-.413-2.62-.65-2.106-.575-4.243-1.012-6.377-1.457a4.531,4.531,0,0,1-2.994-1.616,10.113,10.113,0,0,0-9.245-4.406c-.881.057-.933.057-.934.943,0,3.249.025,6.5-.02,9.745a1.134,1.134,0,0,0,.962,1.27c1.239.327,2.486.62,3.729.935,1.817.461,3.636.918,5.45,1.4a17.281,17.281,0,0,0,4.765.787c3.08-.06,6.162-.017,9.243-.017M25.506,35.837c.518.566.891.988,1.281,1.395a1.273,1.273,0,0,0,.7.322c1.645.348,3.276.768,4.929,1.07a5.917,5.917,0,0,0,2.811.322c.64-.191,1.3-.28,1.942-.47a14.86,14.86,0,0,0,8.291-6.095,15.163,15.163,0,0,0,2.421-6.194,16.419,16.419,0,0,0-.171-5.949,13.806,13.806,0,0,0-2.988-6.03,14.288,14.288,0,0,0-5.058-4.128,19.613,19.613,0,0,0-4.793-1.547,14.569,14.569,0,0,0-6.821.525,15.58,15.58,0,0,0-10.687,12.4,12.4,12.4,0,0,0,.291,5.956,17.653,17.653,0,0,0,1.506,3.851,1.757,1.757,0,0,0,.819.861,10.072,10.072,0,0,1,1.64.7c.642.383,1.134.431,1.563-.276a2.452,2.452,0,0,1,.525-.483.687.687,0,0,1,1.025.015A11.026,11.026,0,0,0,26.9,33.716a.633.633,0,0,1,.265.964,6.982,6.982,0,0,0-.354.7c-.212.542-.535.829-1.309.453M46.77,43.149c.853,0,1.707,0,2.561,0A3.748,3.748,0,0,1,53.2,45.755c.755,2.339.015,4.745-2.778,5.507a7.9,7.9,0,0,1-2.121.229c-6.688,0-13.376-.013-20.065.012a17.625,17.625,0,0,1-4-.672c-1.458-.332-2.889-.775-4.338-1.148-1.7-.437-3.412-.824-5.1-1.3-.432-.121-.649-.1-.853.3a2.962,2.962,0,0,1-3.724,1.607,4.319,4.319,0,0,0-2.272.012c-2.207.5-3.64-.552-4.01-2.986-.085-.562-.3-.731-.819-.717-.787.023-1.576,0-2.365,0-.469,0-.678-.213-.717-.689C-.1,44.134-.013,44.032,1.767,44.03c2.154,0,2.154,0,2.154-2.153V34.854c0-1.123,0-1.123-1.159-1.125-.645,0-1.292-.017-1.935,0-.535.016-.77-.188-.787-.751-.048-1.624.019-1.714,1.621-1.715.6,0,1.194,0,1.791-.008a.7.7,0,0,0,.74-.623,3.1,3.1,0,0,1,4.284-1.943c.249.125.47.515.816.236.307-.249,0-.527-.041-.789a25.677,25.677,0,0,1-.281-6.693A23.7,23.7,0,0,1,23.662,1.861,20.547,20.547,0,0,1,30.768.238a21.354,21.354,0,0,1,2.339-.23A25.617,25.617,0,0,1,45.391,3.725a23.254,23.254,0,0,1,9.967,12.9,23.089,23.089,0,0,1,1.17,8.275A21.28,21.28,0,0,1,55.408,30.9a31.3,31.3,0,0,1-1.861,4.4,24.3,24.3,0,0,1-4.459,5.74c-.731.723-1.584,1.285-2.374,1.929l.056.185" transform="translate(0 0)" fill="#4d576e"/>
    <path id="Path_5307" data-name="Path 5307" d="M25.143,22.325c.8.582,1.517,1.122,2.255,1.631,1.217.84,2.457,1.648,3.672,2.493.853.593.889.8.395,1.542-.68,1.021-.946,1.133-1.816.536q-3.277-2.243-6.5-4.554c-.832-.593-1.714-1.11-2.506-1.766-.9-.742-.836-1.621.207-2.135a2.885,2.885,0,0,1,1.319-.274c1.027.005,2.055.019,3.081-.008a2.72,2.72,0,0,0,2.293-1.48c.291-.469.188-.68-.392-.674-1.84.015-3.679.005-5.517,0-.264,0-.527,0-.788-.02a.822.822,0,0,1-.877-.911c0-.192-.007-.383,0-.574.012-.866.18-1.056,1.053-1.064,1.743-.015,3.486-.005,5.23-.007.192,0,.383,0,.574-.012.118-.007.253-.015.3-.151s-.046-.223-.136-.3a3.605,3.605,0,0,0-2.419-1.084c-1.217,0-2.436.005-3.655-.005-.828-.007-.931-.123-.944-.97,0-.191.007-.383,0-.574-.023-.624.268-.922.9-.921,3.51.005,7.021-.005,10.532.008.861,0,1.054.313,1.035,1.492-.015.857-.119.958-1.025.967-.478.005-.956.008-1.433,0-.393,0-.419.15-.291.49a1.376,1.376,0,0,0,1.615,1.089c.967-.1,1.134.16,1.135,1.175,0,1.107-.2,1.4-1.162,1.351a1,1,0,0,0-1.154.861,5.361,5.361,0,0,1-3.62,3.651c-.411.143-.84.077-1.35.193" transform="translate(6.479 3.586)" fill="#4d576e"/>
    <path id="Path_5308" data-name="Path 5308" d="M22.037,10.267a.612.612,0,0,1-.354.595,12.535,12.535,0,0,0-2.341,1.619.729.729,0,0,1-1.126-.052c-.18-.188-.343-.4-.53-.58a.759.759,0,0,1,.061-1.278,26.21,26.21,0,0,1,2.731-1.927.532.532,0,0,1,.872.237c.245.486.483.975.686,1.387" transform="translate(5.638 2.762)" fill="#4d576e"/>
    <path id="Path_5309" data-name="Path 5309" d="M14.316,16.687A14.272,14.272,0,0,1,15.548,13.3a.356.356,0,0,1,.085-.114c.721-.478,1.174.242,1.742.42a.577.577,0,0,1,.342.868,19.465,19.465,0,0,0-.958,2.828c-.026.09-.048.217-.113.254-.657.375-1.311-.049-1.974-.038-.392.007-.338-.441-.356-.831" transform="translate(4.648 4.228)" fill="#4d576e"/>
    <path id="Path_5310" data-name="Path 5310" d="M25.14,29.112a5.429,5.429,0,0,1-1.933-.191c-.346-.162-.55-.339-.454-.758.058-.253.036-.523.078-.78.128-.8.343-.878,1.138-.795a17.293,17.293,0,0,0,2.567.028c.444-.02.623.086.726.539.433,1.9.409,1.946-1.51,1.957-.166,0-.332,0-.612,0" transform="translate(7.379 8.624)" fill="#4d576e"/>
    <path id="Path_5311" data-name="Path 5311" d="M15.8,19.062c.607-.037.935.236,1.012.978A6.967,6.967,0,0,0,17.5,22.27a.6.6,0,0,1-.307.929c-.1.052-.192.14-.294.2-1.064.631-1.375.518-1.872-.587a13.693,13.693,0,0,1-.653-2.172c-.287-1.078.176-1.58,1.431-1.578" transform="translate(4.64 6.187)" fill="#4d576e"/>
    <path id="Path_5312" data-name="Path 5312" d="M28.508,26.774a.855.855,0,0,1,.483-.858,13.682,13.682,0,0,0,2.072-1.392.768.768,0,0,1,1.187.091c.176.193.367.372.551.559a.69.69,0,0,1-.02,1.113A11.785,11.785,0,0,1,29.91,28.26a.579.579,0,0,1-.889-.286,5.845,5.845,0,0,1-.513-1.2" transform="translate(9.255 7.885)" fill="#4d576e"/>
    <path id="Path_5313" data-name="Path 5313" d="M35.941,16.975a1.648,1.648,0,0,1,0,.283c-.314,1-1.288.375-1.89.74-.338.205-.51-.249-.571-.611a10.048,10.048,0,0,0-.821-2.493c-.249-.55-.037-.856.427-1.1,1.47-.767,1.477-.77,2.147.719a15.039,15.039,0,0,1,.71,2.459" transform="translate(10.568 4.314)" fill="#4d576e"/>
    <path id="Path_5314" data-name="Path 5314" d="M33.9,24.028c-.392-.22-.9-.483-1.379-.783-.224-.14-.14-.364-.061-.579a14.2,14.2,0,0,0,.954-2.6c.094-.568.477-.744,1.044-.7a4.374,4.374,0,0,1,1.227.354.409.409,0,0,1,.256.525,17.029,17.029,0,0,1-1.248,3.476c-.13.28-.379.338-.792.31" transform="translate(10.51 6.285)" fill="#4d576e"/>
    <path id="Path_5315" data-name="Path 5315" d="M33.273,11.5a3.314,3.314,0,0,1-1.2,1.333c-.358.26-.6-.128-.86-.311-.678-.485-1.334-1-2.021-1.474a.809.809,0,0,1-.3-1.217c.072-.125.121-.26.191-.384.521-.911.67-.947,1.543-.4a10.5,10.5,0,0,1,2.255,1.742,1.144,1.144,0,0,1,.389.71" transform="translate(9.329 2.82)" fill="#4d576e"/>
    <path id="Path_5316" data-name="Path 5316" d="M25.413,7.478c.5,0,1,.012,1.5,0,.591-.017.82.276.786.839a3.789,3.789,0,0,1-.131.915.9.9,0,0,1-1.05.719c-.808-.049-1.623-.034-2.433-.011a.86.86,0,0,1-.983-.886,5.481,5.481,0,0,1-.021-.572c-.009-.889.085-.99.97-1.005.453-.008.907,0,1.36,0Z" transform="translate(7.494 2.425)" fill="#4d576e"/>
  </g>
</svg>
