<svg xmlns="http://www.w3.org/2000/svg" xmlns:xlink="http://www.w3.org/1999/xlink" width="45.443" height="45.072" viewBox="0 0 45.443 45.072">
  <defs>
    <clipPath id="clip-path">
      <rect id="Rectangle_65873" data-name="Rectangle 65873" width="45.443" height="45.072" fill="#4d576e"/>
    </clipPath>
  </defs>
  <g id="Group_149487" data-name="Group 149487" transform="translate(0 0)">
    <g id="Group_149486" data-name="Group 149486" transform="translate(0 0)" clip-path="url(#clip-path)">
      <path id="Path_5338" data-name="Path 5338" d="M5.237,18.7l.064.013c.855-1.115,1.722-2.226,2.562-3.352a1,1,0,0,1,.895-.443c4.5.012,9.006,0,13.51.018a1.308,1.308,0,0,0,1.385-1.357c-.01-.857.012-1.715.012-2.572q.007-3.805,0-7.609c0-.353-.021-.707-.026-1.061a1.217,1.217,0,0,0-1.328-1.318H6.677A1.255,1.255,0,0,0,5.237,2.46V18.7ZM4.211,11.214q0-4.418,0-8.838A2.251,2.251,0,0,1,5.989.071,3.316,3.316,0,0,1,6.71,0q7.722,0,15.441,0a2.357,2.357,0,0,1,2.188,1.1,2.051,2.051,0,0,1,.32,1.086q0,5.8,0,11.609a2.234,2.234,0,0,1-2.263,2.161c-1.4.008-2.8,0-4.2,0-3.039,0-6.079,0-9.118-.007a.7.7,0,0,0-.629.306c-1.061,1.407-2.137,2.8-3.209,4.2-.242.315-.432.405-.675.315-.308-.117-.354-.376-.354-.662V11.214" transform="translate(2.726 0)" fill="#4d576e"/>
      <path id="Path_5339" data-name="Path 5339" d="M17.519,25.19a3.942,3.942,0,0,0,4.029-3.944,4.011,4.011,0,0,0-8.021-.061,3.911,3.911,0,0,0,3.992,4M14.9,25.52a5.017,5.017,0,0,1-2.38-4.31,4.8,4.8,0,0,1,1.525-3.58,5.027,5.027,0,1,1,6.094,7.917c.077.1.2.094.3.127A9.67,9.67,0,0,1,26.309,30.7a7.5,7.5,0,0,1,.754,3.214c.008.478-.161.649-.628.649q-7.512,0-15.024.008c-.474,0-.712-.331-.585-.684a.464.464,0,0,1,.428-.311c.11-.008.224,0,.334,0H25.663c.389,0,.39,0,.331-.4A7.9,7.9,0,0,0,21.868,27.4a8.411,8.411,0,0,0-3.761-1.163,8.514,8.514,0,0,0-6.334,2.086,7.6,7.6,0,0,0-2.7,4.88c-.035.249-.031.5-.048.753-.026.413-.214.621-.542.6S8,34.331,8.01,33.931A8.365,8.365,0,0,1,10.2,28.467a9.511,9.511,0,0,1,4.464-2.857c.061-.02.119-.044.244-.091" transform="translate(5.185 10.5)" fill="#4d576e"/>
      <path id="Path_5340" data-name="Path 5340" d="M32.454,22.5a.526.526,0,0,0,.044-.308q0-8.014,0-16.029a1.249,1.249,0,0,0-1.367-1.379q-4.908,0-9.818.007c-.364,0-.613-.2-.61-.507a.529.529,0,0,1,.595-.493q5.021,0,10.042,0a2.241,2.241,0,0,1,2.181,2.25c.008.336,0,.672,0,1.007V23.668c0,.11,0,.222,0,.334a.533.533,0,0,1-.361.544.512.512,0,0,1-.6-.236q-.605-.788-1.208-1.577c-.7-.918-1.41-1.832-2.1-2.758a.6.6,0,0,0-.539-.264q-6.672.01-13.342,0a2.185,2.185,0,0,1-2.244-1.832,11.223,11.223,0,0,1-.026-2.232.463.463,0,0,1,.517-.407.478.478,0,0,1,.451.481c.01.55,0,1.1.007,1.651a1.253,1.253,0,0,0,.812,1.25,1.7,1.7,0,0,0,.636.068q6.687,0,13.372-.007a1.131,1.131,0,0,1,1.031.507c.776,1.061,1.591,2.092,2.39,3.137.04.049.082.1.142.17" transform="translate(8.45 2.454)" fill="#4d576e"/>
      <path id="Path_5341" data-name="Path 5341" d="M9.493,25.191A3.892,3.892,0,0,0,13.531,21.3a3.995,3.995,0,1,0-7.988-.077,3.89,3.89,0,0,0,3.95,3.972m-2.6.338a5.028,5.028,0,1,1,5.235.021c.054.077.143.071.219.094a9.523,9.523,0,0,1,1.275.5.5.5,0,1,1-.4.916,10.285,10.285,0,0,0-1.147-.441,10.1,10.1,0,0,0-2.557-.377A8.271,8.271,0,0,0,4.182,28a7.587,7.587,0,0,0-3.064,4.937c-.127.779-.2.636.535.638q4.5.01,9.006,0c.1,0,.189,0,.28,0a.511.511,0,0,1,.486.488.492.492,0,0,1-.5.5c-.066,0-.13,0-.2,0q-5.066,0-10.128,0c-.428,0-.619-.194-.6-.649a8.425,8.425,0,0,1,1.967-5.184,9.568,9.568,0,0,1,4.651-3.11c.079-.025.158-.053.277-.094" transform="translate(0 10.499)" fill="#4d576e"/>
      <path id="Path_5342" data-name="Path 5342" d="M23.764,25.193a3.9,3.9,0,0,0,4-3.9,4,4,0,1,0-8-.091,3.911,3.911,0,0,0,4,3.993m2.6.369c.32.117.628.216.924.338a9.388,9.388,0,0,1,5.67,5.879A7.629,7.629,0,0,1,33.3,33.9c.02.478-.171.669-.644.67H22.528a1.7,1.7,0,0,1-.224-.008.488.488,0,0,1-.428-.476.51.51,0,0,1,.412-.5,2.269,2.269,0,0,1,.334-.01q4.66,0,9.318,0c.245,0,.336-.033.3-.323a7.485,7.485,0,0,0-2.557-4.715,8.84,8.84,0,0,0-5.379-2.3,8.387,8.387,0,0,0-4.039.669c-.086.038-.17.077-.259.109a.5.5,0,1,1-.407-.911,8.191,8.191,0,0,1,1.224-.478l.313-.1a5.019,5.019,0,0,1-2.372-4.621,4.815,4.815,0,0,1,1.825-3.552,5.029,5.029,0,1,1,5.771,8.207" transform="translate(12.141 10.498)" fill="#4d576e"/>
      <path id="Path_5343" data-name="Path 5343" d="M21.63,11.342q-2.617,0-5.232,0a1.836,1.836,0,0,1-.415-.035.484.484,0,0,1-.387-.512.493.493,0,0,1,.418-.461,1.31,1.31,0,0,1,.278-.015q5.345,0,10.688,0a1.444,1.444,0,0,1,.3.018.488.488,0,0,1,.41.494.462.462,0,0,1-.39.476,1.694,1.694,0,0,1-.387.035q-2.644,0-5.288,0" transform="translate(10.095 6.679)" fill="#4d576e"/>
      <path id="Path_5344" data-name="Path 5344" d="M22.066,6.1h3.3a.872.872,0,0,1,.384.051.479.479,0,0,1,.308.484.474.474,0,0,1-.331.441,1.01,1.01,0,0,1-.385.048H18.8c-.056,0-.112,0-.166,0a.508.508,0,0,1-.506-.524.488.488,0,0,1,.529-.493c.662-.008,1.323,0,1.983,0Z" transform="translate(11.736 3.951)" fill="#4d576e"/>
      <path id="Path_5345" data-name="Path 5345" d="M22.123,8.209h3.245a.905.905,0,0,1,.385.053.5.5,0,0,1-.007.916.926.926,0,0,1-.385.056q-3.287,0-6.575,0c-.4,0-.629-.165-.656-.461-.03-.343.2-.56.606-.562.951,0,1.9,0,2.853,0Z" transform="translate(11.736 5.314)" fill="#4d576e"/>
      <path id="Path_5346" data-name="Path 5346" d="M12.812,3.331H7.468a1.586,1.586,0,0,1-.306-.015.485.485,0,0,1-.409-.493.464.464,0,0,1,.384-.483,1.409,1.409,0,0,1,.333-.033q5.33,0,10.659,0a1.471,1.471,0,0,1,.306.025.518.518,0,0,1,.42.519.521.521,0,0,1-.476.473,2.245,2.245,0,0,1-.278.007Z" transform="translate(4.372 1.493)" fill="#4d576e"/>
      <path id="Path_5347" data-name="Path 5347" d="M12.76,5.437H7.5a2.372,2.372,0,0,1-.306-.008.491.491,0,0,1-.44-.468.475.475,0,0,1,.381-.512,1.4,1.4,0,0,1,.333-.033q5.342,0,10.687,0a1.26,1.26,0,0,1,.3.031.514.514,0,0,1,.4.509.522.522,0,0,1-.445.473,2.109,2.109,0,0,1-.306.01Z" transform="translate(4.371 2.858)" fill="#4d576e"/>
      <path id="Path_5348" data-name="Path 5348" d="M12.8,7.543H7.432a.858.858,0,0,1-.359-.04.473.473,0,0,1-.32-.476.465.465,0,0,1,.367-.47,1.453,1.453,0,0,1,.359-.036q5.33,0,10.658,0c.046,0,.094,0,.14,0a.544.544,0,0,1,.577.524.532.532,0,0,1-.6.494q-2.728,0-5.454,0" transform="translate(4.372 4.221)" fill="#4d576e"/>
    </g>
  </g>
</svg>
