<svg xmlns="http://www.w3.org/2000/svg" xmlns:xlink="http://www.w3.org/1999/xlink" width="51.668" height="37.617" viewBox="0 0 51.668 37.617">
  <defs>
    <clipPath id="clip-path">
      <rect id="Rectangle_65871" data-name="Rectangle 65871" width="51.668" height="37.617" fill="#4d576e"/>
    </clipPath>
  </defs>
  <g id="Group_149483" data-name="Group 149483" transform="translate(0 0)">
    <g id="Group_149482" data-name="Group 149482" transform="translate(0 0)" clip-path="url(#clip-path)">
      <path id="Path_5325" data-name="Path 5325" d="M46.233,10.794a3.383,3.383,0,0,0-3.464-3.427A3.335,3.335,0,0,0,39.324,10.8,3.369,3.369,0,0,0,42.8,14.258a3.412,3.412,0,0,0,3.434-3.464m-33.84.03A3.382,3.382,0,0,0,8.959,7.367a3.332,3.332,0,0,0-3.473,3.4,3.366,3.366,0,0,0,3.443,3.488,3.41,3.41,0,0,0,3.464-3.434M8.52,22.3c1.707,0,2.863,0,4.019,0a.55.55,0,0,0,.589-.291A16.358,16.358,0,0,1,14.6,19.735a.417.417,0,0,0,0-.582,6.59,6.59,0,0,0-4.044-2.7,6.793,6.793,0,0,0-4.39.378,6.923,6.923,0,0,0-4.082,4.892c-.1.4.038.5.411.491,2.193-.04,4.383.146,6.027.082m35.642,0c1.691,0,3.382-.005,5.071.005.345,0,.479-.082.4-.465a6.683,6.683,0,0,0-1.684-3.281A6.8,6.8,0,0,0,42.2,16.322a6.722,6.722,0,0,0-5.1,2.84.41.41,0,0,0,.007.582A15.269,15.269,0,0,1,38.5,21.862a.7.7,0,0,0,.726.442c1.647-.014,3.293-.007,4.939-.007M22.011,34.681a.525.525,0,0,0,.366-.1c.972-.507,1.947-1.008,2.912-1.527a1.045,1.045,0,0,1,1.057-.038c.627.334,1.247.684,1.886,1a7.6,7.6,0,0,0,1.468.695,3.7,3.7,0,0,0-.023-.374c-.169-1.024-.336-2.046-.515-3.067a1.342,1.342,0,0,1,.427-1.367,15.91,15.91,0,0,0,1.183-1.142,16.615,16.615,0,0,0,1.322-1.341,2.185,2.185,0,0,0-.669-.193c-.824-.1-1.647-.2-2.47-.315A1.648,1.648,0,0,1,27.44,26c-.15-.355-.326-.7-.5-1.045-.35-.709-.705-1.416-1.1-2.2-.54,1.106-1.047,2.123-1.534,3.15a1.385,1.385,0,0,1-1.062.9c-.716.127-1.432.228-2.151.331a4.208,4.208,0,0,0-1.353.242,18.923,18.923,0,0,0,1.809,1.938,2.4,2.4,0,0,1,.869,2.779,12.274,12.274,0,0,0-.413,2.584M25.914,2a6.05,6.05,0,0,0-6.174,6.055,5.976,5.976,0,0,0,6.144,6.2,5.969,5.969,0,0,0,6.083-6.078A6.06,6.06,0,0,0,25.914,2m7.194,27.351c.028.021.051.052.073.052q2.359.008,4.716.012c.286,0,.322-.192.334-.421a11.059,11.059,0,0,0-.124-1.907,12.307,12.307,0,0,0-13.168-10.77,11.979,11.979,0,0,0-7.767,3.5,12.33,12.33,0,0,0-3.7,9.091c0,.39.141.519.522.514,1.425-.014,2.849,0,4.274-.007.111,0,.239.038.333-.071,0-.157-.131-.225-.219-.313-.507-.5-1.026-.986-1.527-1.489a1.2,1.2,0,0,1-.477-1.092c.1-.455.5-.641.914-.752.214-.056.435-.085.653-.132,1.205-.265,2.442-.284,3.655-.463.465-.068.968-.085,1.23-.644.636-1.369,1.317-2.717,1.977-4.075A1.081,1.081,0,0,1,26.9,20.38c.026.054.049.108.075.162q.982,2.017,1.964,4.035a.638.638,0,0,0,.5.388c1.583.23,3.163.477,4.747.7a1.1,1.1,0,0,1,1.052.74,1.124,1.124,0,0,1-.421,1.183c-.573.575-1.13,1.167-1.71,1.768M21.39,14.916a8.122,8.122,0,1,1,8.927.019c.608.333,1.263.521,1.867.824a13.248,13.248,0,0,1,2.982,2c.183.165.315.249.5.007a8.645,8.645,0,0,1,3.184-2.577c.352-.164.3-.286.071-.533a5.324,5.324,0,0,1-1.207-5.843,5.105,5.105,0,0,1,3.81-3.286A5.281,5.281,0,0,1,46.82,7.165a5.419,5.419,0,0,1,.434,6.7,8.569,8.569,0,0,1-.542.7c-.381.423-.4.435.131.693a8.97,8.97,0,0,1,4.789,6.571A1.908,1.908,0,0,1,50.3,24.194a2.31,2.31,0,0,1-.707.064q-4.762,0-9.526,0c-.543,0-.552.035-.4.556a13.9,13.9,0,0,1,.5,4.929,1.817,1.817,0,0,1-1.858,1.635c-2.153.009-4.3,0-6.456,0-.667,0-.657,0-.545.641.237,1.372.474,2.745.684,4.122a1.19,1.19,0,0,1-.247,1.207.943.943,0,0,1-1.118.143c-1.339-.7-2.691-1.378-4.013-2.109a1.332,1.332,0,0,0-1.477-.021c-1.317.744-2.665,1.428-4.019,2.1a.925.925,0,0,1-1.435-.953,18.593,18.593,0,0,1,.355-2.417c.145-.787.258-1.58.39-2.368.07-.406-.223-.34-.448-.341-2.182,0-4.364,0-6.545,0a1.884,1.884,0,0,1-1.924-1.9,13.9,13.9,0,0,1,.58-4.829c.138-.416-.138-.39-.4-.39q-4.809,0-9.617,0A1.868,1.868,0,0,1,.011,22.487a4.955,4.955,0,0,1,.355-2A9.064,9.064,0,0,1,4.088,15.7c.322-.211.667-.385,1.007-.564.219-.115.23-.226.059-.4A5.6,5.6,0,0,1,3.591,11.8a5.339,5.339,0,0,1,.782-3.952,5.244,5.244,0,0,1,3.638-2.4,5.179,5.179,0,0,1,3.833.77,5.3,5.3,0,0,1,2.513,4.9,5.3,5.3,0,0,1-1.543,3.506c-.282.3-.256.434.1.6a8.67,8.67,0,0,1,3.14,2.562c.12.152.237.211.4.056A14.381,14.381,0,0,1,21.3,15c.024-.009.042-.038.091-.084" transform="translate(0 0)" fill="#4d576e"/>
    </g>
  </g>
</svg>
