<svg xmlns="http://www.w3.org/2000/svg" xmlns:xlink="http://www.w3.org/1999/xlink" width="32.856" height="43.748" viewBox="0 0 32.856 43.748">
  <defs>
    <clipPath id="clip-path">
      <rect id="Rectangle_65596" data-name="Rectangle 65596" width="32.856" height="43.748"/>
    </clipPath>
  </defs>
  <g id="Group_148649" data-name="Group 148649" transform="translate(0 0)">
    <g id="Group_148648" data-name="Group 148648" transform="translate(0 0)" clip-path="url(#clip-path)">
      <path id="Path_176" data-name="Path 176" d="M10.292,20.022c0-.585.006-1.051,0-1.516-.006-.356.038-.668.5-.668.234,0,.965.645.932.826a.363.363,0,0,1-.157.2,10.377,10.377,0,0,0-1.271,1.156m6.934.123a6.845,6.845,0,0,0-1.341-1.28c-.133-.084-.242-.194-.1-.346a2.315,2.315,0,0,1,.734-.63.487.487,0,0,1,.708.453c.015.556,0,1.113,0,1.8M9.389,21.881c-.291-.132-.6-.211-.608-.531-.023-.867-.015-1.734,0-2.6a.374.374,0,0,1,.4-.362c.305-.01.2.251.2.4.011,1.011.006,2.022.006,3.092m8.9,4.773a.9.9,0,1,1,1.793-.058.944.944,0,0,1-.89.979.979.979,0,0,1-.9-.921m-6.843-9.778c.207-.079.337.093.488.165a3.992,3.992,0,0,0,3.661-.035c.128-.064.286-.271.413-.091.111.16-.087.288-.208.391a7.794,7.794,0,0,0-1.852,2.109c-.13.235-.237.3-.4.018a9.832,9.832,0,0,0-1.849-2.12c-.121-.116-.322-.2-.251-.437M1.569,32.005h.022c0-.345-.006-.689,0-1.034A.57.57,0,0,1,2,30.4a1.546,1.546,0,0,1,2.031.933,1.781,1.781,0,0,1-.92,2.326c-.947.321-1.519-.068-1.542-1.051,0-.2,0-.4,0-.6M1.26,27.6c0-.2,0-.4,0-.6a1.129,1.129,0,0,1,1.834-.97,1.979,1.979,0,0,1-.013,3.1,1.12,1.12,0,0,1-1.821-.984c0-.182,0-.364,0-.546m.111-9.78h.011c0-.4-.012-.8,0-1.2a.6.6,0,0,1,.412-.584,1.521,1.521,0,0,1,1.99.844,2.378,2.378,0,0,1-.007,1.807,1.435,1.435,0,0,1-1.657.931c-.479-.07-.764-.3-.753-.822.007-.326,0-.653,0-.979M.927,22.74H.935c0-.327-.011-.654,0-.981.031-.815.282-1.058,1.1-1.092a1.655,1.655,0,0,1,1.758,1.579c.192,1.041-.3,2.177-1.116,2.351-1.068.228-1.859.113-1.75-1.2.018-.217,0-.436,0-.654M20.092,11.3a10.34,10.34,0,0,1,.178,3.157A3.584,3.584,0,0,1,19.225,16.9a1.259,1.259,0,0,1-1.551.344c-.826-.374-1-.87-.407-1.568a7.881,7.881,0,0,0,1.6-2.76.74.74,0,0,1,.257-.468,2.656,2.656,0,0,0,.972-1.15M7.357,10.936a2.032,2.032,0,0,0,.883,1.444.758.758,0,0,1,.278.393,9.594,9.594,0,0,0,1.809,3.079.889.889,0,0,1-.07,1.171,1.414,1.414,0,0,1-2.162-.257,2.563,2.563,0,0,1-.683-1.1,11.711,11.711,0,0,1-.054-4.732m6.358,23.782c-.307.017-.452-.117-.448-.418q.005-.708,0-1.416c-.047-4.354.109-8.726-1.157-12.97-.044-.149-.053-.3.11-.379a.3.3,0,0,1,.418.139c.223.4.43.8.636,1.2.1.2.214.393.476.383.232-.01.328-.19.424-.373.2-.386.408-.77.626-1.148.092-.161.229-.31.442-.2s.149.3.09.478a12.631,12.631,0,0,0-.489,1.784,53.677,53.677,0,0,0-.634,8.953c-.016,1.144-.015,2.288-.01,3.433,0,.347-.091.574-.479.529M19.873,9.4a1.385,1.385,0,0,1-.638-1.188c-.015-.421-.047-.933-.654-.967A3.067,3.067,0,0,1,16.026,5.63c-.107-.173-.24-.334-.477-.3-.253.039-.355.23-.409.454a2.856,2.856,0,0,1-2.51,2.181,6.457,6.457,0,0,1-3.585-.356c-.481-.182-.793-.068-.8.375A3.315,3.315,0,0,1,7.49,9.76,10.423,10.423,0,0,1,8.9,5.681a5.467,5.467,0,0,1,7.739-1.943A7.979,7.979,0,0,1,19.873,9.4m-8.878,26.23c2.088,0,4.177.008,6.265-.006.418,0,.536.114.464.537a16.745,16.745,0,0,0-.231,2.054c-.022.465-.168.628-.646.619-1.416-.028-2.833-.01-4.249-.01-2.27,0-4.54.006-6.81,0a1.449,1.449,0,0,1-1.571-1.557c0-.345.027-.694-.007-1.035-.05-.5.171-.611.631-.607,2.052.021,4.1.008,6.156.008m2.783-19.079a3.52,3.52,0,0,1-2.1-.7,7.144,7.144,0,0,1-2.367-3.513,1.091,1.091,0,0,0-.407-.68,1.258,1.258,0,0,1-.2-2.057.838.838,0,0,0,.317-.656c-.016-.327.146-.338.414-.278a8.865,8.865,0,0,0,1.5.261c1.824.086,3.534-.165,4.645-1.866.173-.265.3-.177.464-.011a3.441,3.441,0,0,0,1.845.987.613.613,0,0,1,.544.689,1.107,1.107,0,0,0,.42.942c.494.422.525,1.573.031,1.8-.531.247-.649.674-.829,1.128a8.979,8.979,0,0,1-.686,1.479,4.386,4.386,0,0,1-3.583,2.47m1.316,14.908q-.007-3.98.368-7.944A14.215,14.215,0,0,1,16,20.742c.1-.32.223-.415.447-.1s.464.651.686.982c.144.213.269.471.582.392.338-.084.347-.379.349-.659,0-.855,0-1.708.006-2.563,0-.155-.031-.372.209-.366a.424.424,0,0,1,.461.307,2.425,2.425,0,0,1,.022.488c0,1.637-.008,3.272.008,4.908a.91.91,0,0,1-.5.962,1.794,1.794,0,0,0,1.1,3.322,1.807,1.807,0,0,0,1.559-1.33,1.775,1.775,0,0,0-.8-1.983.8.8,0,0,1-.468-.72c.017-1.617.013-3.235,0-4.852,0-.453.171-.533.569-.379,1.07.412,2.093.926,3.118,1.435a.642.642,0,0,1,.345.674c0,1.218-.011,2.436,0,3.654a.883.883,0,0,1-.4.774,13.128,13.128,0,0,0-2.869,3.183,18.445,18.445,0,0,0-2.286,5.279c-.122.431-.315.6-.755.579-.525-.028-1.054,0-1.581-.006-.689,0-.715-.028-.718-.7,0-.855,0-1.709,0-2.563M9.731,22.171a1.409,1.409,0,0,0,.583-.475,10.686,10.686,0,0,1,.585-.918c.087-.126.183-.307.38-.248.159.047.163.224.2.362a17.234,17.234,0,0,1,.525,2.836c.391,3.436.366,6.889.431,10.34.01.5-.138.671-.645.666-2.309-.021-4.616-.006-6.925-.012-.223,0-.514.091-.62-.2a.743.743,0,0,1,.149-.712,2.807,2.807,0,0,0-.278-3.887c-.176-.18-.194-.286-.048-.5a2.826,2.826,0,0,0-.311-4.011c-.134-.148-.184-.245-.03-.406a3.231,3.231,0,0,0,.49-4.1c-.128-.243-.029-.358.176-.475a22.811,22.811,0,0,1,2.916-1.35c.379-.148.489-.012.481.358-.015.581-.01,1.163,0,1.744a.663.663,0,0,1-.346.629,5.176,5.176,0,0,0-2.526,4.767C4.9,27.96,4.893,27.956,6.126,28.5c.257.114.536.189.668-.093a1.145,1.145,0,0,0-.027-1.085c-.163-.261-.447-.189-.669-.008-.268.217-.362.091-.344-.182a5.6,5.6,0,0,1,.876-3.422c1.389-1.692,2-1.689,3.393,0a5.5,5.5,0,0,1,.862,3.479c.018.4-.212.209-.379.09a.439.439,0,0,0-.556-.034c-.35.26-.111.646-.176.97-.036.183.133.327.332.373a.317.317,0,0,0,.161,0c.375-.128.755-.249,1.121-.4a.555.555,0,0,0,.34-.521c.073-2.076-.12-4.059-2-5.5m12.954-2.89c-1.067-.528-2.018-.915-2.976-1.288-.276-.107-.1-.246.024-.355a4.368,4.368,0,0,0,1.385-2.821,16.333,16.333,0,0,0-.247-4.879A10.268,10.268,0,0,0,18.7,4.388,6.636,6.636,0,0,0,14.209,1.97,6.791,6.791,0,0,0,7.739,5.951a18.469,18.469,0,0,0-1.464,8.405,4.873,4.873,0,0,0,.8,2.575c.226.351.867.582.694.96-.131.287-.757.341-1.157.513-.659.283-1.312.579-1.979.874-.077-.247.045-.4.092-.57a3.06,3.06,0,0,0-.28-2.473A1.746,1.746,0,0,1,4.21,15.3q.009-6.325,0-12.651c0-1.244.475-1.732,1.7-1.734q8.1-.005,16.2,0c1.206,0,1.683.484,1.684,1.689q.005,4.552,0,9.106c0,.155.052.324-.08.49a1.759,1.759,0,0,1-.174-.107c-.614-.491-.761-.47-1.2.161a5.215,5.215,0,0,0-.881,2.093,6.1,6.1,0,0,0,.553,3.342c.186.482.4.952.677,1.586M13.994.024C11.45.024,8.9.1,6.362,0c-2.442-.091-3.1,1.321-3.07,3.049.058,3.8.01,7.6.028,11.4,0,.51-.088.746-.661.627a2.206,2.206,0,0,0-1.077.09A1.309,1.309,0,0,0,.567,16.259a6.95,6.95,0,0,0,.155,3.5c.063.173.1.3-.08.42a1.369,1.369,0,0,0-.523.984,9.634,9.634,0,0,0,.012,3.092,1.078,1.078,0,0,0,.281.7c.376.292.258.544.161.944a4.61,4.61,0,0,0,.306,3.88.39.39,0,0,1,.034.407,6.072,6.072,0,0,0-.222,2.8,1.628,1.628,0,0,0,1.993,1.633c.547-.044.64.125.636.607a14.679,14.679,0,0,0,.058,2.558A2.248,2.248,0,0,0,5.294,39.67a5.625,5.625,0,0,0,.868.062c2.581,0,5.162.017,7.743-.008a.914.914,0,0,1,.989.637c.395.937.84,1.853,1.265,2.778a2.476,2.476,0,0,0,.167.341.441.441,0,0,0,.605.2.409.409,0,0,0,.178-.567q-.383-.9-.792-1.794c-.173-.38-.35-.76-.551-1.126s-.07-.488.307-.465a2.763,2.763,0,0,0,.49,0c.533-.057.892.053.846.709-.019.264.108.523.439.511.366-.015.41-.3.42-.587a26.476,26.476,0,0,1,.679-5.725,16.568,16.568,0,0,1,3.373-6.773,10.442,10.442,0,0,1,1.83-1.7.955.955,0,0,0,.454-.86c-.015-1.49-.01-2.98,0-4.471a1.276,1.276,0,0,0-.305-.847,9.867,9.867,0,0,1-1.927-4.109A3.727,3.727,0,0,1,22.7,13.33c.263-.519.349-.531.763-.1a28.518,28.518,0,0,1,4.489,6.408,13.21,13.21,0,0,1,1.634,4.7A21.175,21.175,0,0,1,29.112,31a24.606,24.606,0,0,1-1.138,3.864.935.935,0,0,0,.04.829c1.211,2.341,2.408,4.689,3.614,7.031.149.291.31.576.487.851a.361.361,0,0,0,.481.136.4.4,0,0,0,.247-.488,1.526,1.526,0,0,0-.143-.352c-1.177-2.3-2.344-4.6-3.545-6.881a1.63,1.63,0,0,1-.122-1.476,24.142,24.142,0,0,0,1.557-8.641,12.464,12.464,0,0,0-1.35-5.672,33.526,33.526,0,0,0-4.3-6.67,1.2,1.2,0,0,1-.238-.863q0-5.017,0-10.033A2.319,2.319,0,0,0,22.119.026q-4.062-.005-8.124,0" transform="translate(0 0)"/>
    </g>
  </g>
</svg>
