<svg id="Group_148645" data-name="Group 148645" xmlns="http://www.w3.org/2000/svg" xmlns:xlink="http://www.w3.org/1999/xlink" width="40.786" height="41.128" viewBox="0 0 40.786 41.128">
  <defs>
    <clipPath id="clip-path">
      <rect id="Rectangle_65594" data-name="Rectangle 65594" width="40.786" height="41.128"/>
    </clipPath>
  </defs>
  <g id="Group_148644" data-name="Group 148644" transform="translate(0 0)" clip-path="url(#clip-path)">
    <path id="Path_168" data-name="Path 168" d="M30.819,18.719V18.5c0-.874,0-.861-.832-.768a4.187,4.187,0,0,1-1.545-.072c-.2-.053-.421-.107-.594.085a3.123,3.123,0,0,0,.086,2.055A2.724,2.724,0,0,0,30.246,20c.706-.178.567-.768.573-1.279M13.1,18.661v-.283c0-.884,0-.888-.837-.7a4.2,4.2,0,0,1-1.746.011c-.184-.037-.371-.1-.511.1a3.863,3.863,0,0,0,.125,1.993A2.745,2.745,0,0,0,12.5,20c.724-.186.594-.8.6-1.338m12-8.319a7.149,7.149,0,0,0,1.629,4.218,3.31,3.31,0,0,0,4.447.772,6.138,6.138,0,0,0,2.486-4.756c.035-.349-.082-.523-.485-.475a5.165,5.165,0,0,1-4.508-1.753c-.306-.32-.522-.387-.887-.125a4.011,4.011,0,0,1-1.7.659c-.991.173-.992.166-.98,1.46m-9.439.056c.026-1.337.026-1.337-1.02-1.519a3.23,3.23,0,0,1-1.381-.52c-.586-.437-.94-.259-1.41.213A4.935,4.935,0,0,1,7.61,10.1c-.455-.054-.544.144-.507.52A6.658,6.658,0,0,0,8.81,14.68a3.355,3.355,0,0,0,5.3-.21A7.287,7.287,0,0,0,15.659,10.4M24.2,26.024a5.105,5.105,0,0,0-.344-1.9A3.855,3.855,0,0,0,20.476,21.5,3.646,3.646,0,0,0,17.1,23.69a6.225,6.225,0,0,0,.659,6.353,3.111,3.111,0,0,0,5.261-.014,6.4,6.4,0,0,0,1.172-4m1.453-9.839c-.138-.176-.208-.269-.282-.359a9.348,9.348,0,0,1-2.007-7.685c.126-.855.453-1.218,1.16-1.144A3.856,3.856,0,0,0,27.81,5.859a.892.892,0,0,1,1.418.163c.222.277.4.589.634.858a3.292,3.292,0,0,0,4.125,1.013c.89-.359,1.5,0,1.564.975a9.13,9.13,0,0,1-2.139,6.963c-.357.407-.176.467.216.557a16.683,16.683,0,0,1,2.793.775c.522.219.618.03.685-.467a21.649,21.649,0,0,0-.077-4.988,14.8,14.8,0,0,0-2.012-6.7,6.592,6.592,0,0,0-10.891-.451,11.671,11.671,0,0,0-1.943,4.1,21.692,21.692,0,0,0-.768,7.979c.034.306-.034.775.525.57,1.177-.431,2.4-.68,3.71-1.02m-10.5-.045a1.776,1.776,0,0,0,2.281-.309,6.026,6.026,0,0,0,1.913-3.573,11.03,11.03,0,0,0-1.292-6.75,6.515,6.515,0,0,0-4.72-3.424,10.408,10.408,0,0,0-4.011.034A6.3,6.3,0,0,0,4.479,5.98a12.337,12.337,0,0,0-.864,5.875,5.772,5.772,0,0,0,2.313,4.253,1.36,1.36,0,0,0,1.247.272c.368-.082.519-.16.2-.525A9.156,9.156,0,0,1,5.191,9.113c.053-1.25.618-1.623,1.748-1.144a3.076,3.076,0,0,0,2.795-.123,5.472,5.472,0,0,0,1.753-1.732c.464-.635.981-.724,1.554-.186A3.722,3.722,0,0,0,16.14,7c.767-.08,1.135.259,1.255,1.039a9.952,9.952,0,0,1-.738,5.855A9.978,9.978,0,0,1,15.15,16.14M20.737,6.9a27.316,27.316,0,0,1,1.281-2.572,8.139,8.139,0,0,1,7.624-4.3,8.242,8.242,0,0,1,7.653,5.314,22.971,22.971,0,0,1,1.538,12.586.982.982,0,0,0,.269.951,5.908,5.908,0,0,1,1.671,4.754c-.158,2.947-.282,5.9-.415,8.844-.054,1.212-.085,2.425-.15,3.638-.051.975-.423,1.479-1.02,1.455-.618-.024-.9-.479-.858-1.524.173-4.232.347-8.466.559-12.7a4.266,4.266,0,0,0-3.028-4.4c-.82-.295-1.682-.466-2.524-.7-.429-.12-.632.034-.627.48,0,.214-.008.429,0,.643A2.278,2.278,0,0,1,31.2,21.659a4.841,4.841,0,0,1-3.991-.054,2.1,2.1,0,0,1-1.351-2.143c.011-.309,0-.619,0-.928,0-.266-.075-.415-.375-.343a13.688,13.688,0,0,0-3.632,1.154c-.117.066-.283.173-.293.274-.019.239.226.179.367.226a5.685,5.685,0,0,1,3.877,4.28A8.211,8.211,0,0,1,25,30.4c-.251.451-.229.637.311.762A12.2,12.2,0,0,1,28.4,32.177a6.013,6.013,0,0,1,3.494,5.743c-.013.667.008,1.333-.006,2-.016.754-.371,1.188-.943,1.186s-.917-.442-.943-1.2c-.019-.619,0-1.239-.006-1.858a4.34,4.34,0,0,0-3.438-4.6c-1-.288-2.014-.511-3.017-.775a1.249,1.249,0,0,0-.948.146,4.5,4.5,0,0,1-4.411,0,1.319,1.319,0,0,0-1.015-.133c-.935.25-1.881.461-2.814.712a4.4,4.4,0,0,0-3.582,4.712c0,.618.016,1.239-.011,1.857-.03.708-.394,1.127-.933,1.133-.584.008-.952-.408-.943-1.173a12.7,12.7,0,0,1,.283-4.183c.884-2.491,2.84-3.694,5.242-4.331.365-.1.728-.21,1.1-.275.458-.08.541-.258.295-.667a8.259,8.259,0,0,1-1.061-3.3c-.322-2.59.642-5.843,3.5-7.1.264-.117.555-.274.562-.586.008-.365-.376-.4-.616-.491a21.183,21.183,0,0,0-2.86-.807c-.319-.074-.434.053-.423.367.011.285-.01.571,0,.856a2.154,2.154,0,0,1-1.373,2.206,4.85,4.85,0,0,1-3.992.034,2.43,2.43,0,0,1-1.484-2.592c.026-.919-.029-.941-.928-.728a10.269,10.269,0,0,0-3.262,1.138A4.049,4.049,0,0,0,1.9,23.591a12.323,12.323,0,0,1,.059,1.85.868.868,0,0,1-.874.868.8.8,0,0,1-.92-.714A11.445,11.445,0,0,1,.3,21.067a6.264,6.264,0,0,1,3.389-3.653c.383-.189.538-.315.17-.69a7.829,7.829,0,0,1-2.166-6A13.374,13.374,0,0,1,3.252,4.279,8.259,8.259,0,0,1,9.622.141,11.014,11.014,0,0,1,15.206.65a8.894,8.894,0,0,1,5.117,5.233c.125.3.247.607.413,1.018" transform="translate(0 0)"/>
    <path id="Path_169" data-name="Path 169" d="M23.466,21.79c0,1.857.006,3.714,0,5.569,0,.767-.4,1.269-.956,1.261s-.935-.517-.935-1.285q-.01-5.57,0-11.139a1.238,1.238,0,0,1,.362-1.037.83.83,0,0,1,.917-.179,1,1,0,0,1,.616,1.028q0,2.893,0,5.783Z" transform="translate(12.956 8.956)"/>
    <path id="Path_170" data-name="Path 170" d="M4.438,21.413q0,2.425,0,4.852a3.736,3.736,0,0,1-.04.709.877.877,0,0,1-.879.781.852.852,0,0,1-.874-.693,3.167,3.167,0,0,1-.094-.844q-.01-4.886,0-9.774c0-.048,0-.094,0-.142.019-.895.378-1.4.986-1.391.586.008.9.475.9,1.365,0,1.713,0,3.424,0,5.137" transform="translate(1.528 8.957)"/>
    <path id="Path_171" data-name="Path 171" d="M2.207,23.8a.881.881,0,0,1-.727,1.149c-.5.1-.935-.279-1.032-.922A24.289,24.289,0,0,1,.315,20.4a.8.8,0,0,1,.738-.824.831.831,0,0,1,.988.613,4.186,4.186,0,0,1,.16,1.122c.022.829.006,1.658.006,2.489" transform="translate(0.186 11.749)"/>
    <path id="Path_172" data-name="Path 172" d="M17.9,25.4c0,.826-.325,1.263-.922,1.255-.578-.008-.967-.511-.972-1.257,0-.818.363-1.316.975-1.319.632,0,.924.415.919,1.321" transform="translate(9.615 14.465)"/>
    <path id="Path_173" data-name="Path 173" d="M10,25.35c-.01.461-.042.924-.5,1.177a.822.822,0,0,1-1.138-.2,1.808,1.808,0,0,1,.029-1.94.867.867,0,0,1,1.156-.16c.33.19.455.527.455,1.128" transform="translate(4.861 14.46)"/>
    <path id="Path_174" data-name="Path 174" d="M2.011,18.336a.887.887,0,0,1-.895.917A.85.85,0,0,1,.2,18.379a.9.9,0,0,1,.919-.951c.571.018.823.378.895.908" transform="translate(0.116 10.469)"/>
  </g>
</svg>
