<svg id="Group_149600" data-name="Group 149600" xmlns="http://www.w3.org/2000/svg" xmlns:xlink="http://www.w3.org/1999/xlink" width="28.685" height="43.771" viewBox="0 0 28.685 43.771">
  <defs>
    <clipPath id="clip-path">
      <rect id="Rectangle_65595" data-name="Rectangle 65595" width="28.685" height="43.771"/>
    </clipPath>
  </defs>
  <g id="Group_148646" data-name="Group 148646" transform="translate(0 0)" clip-path="url(#clip-path)">
    <path id="Path_175" data-name="Path 175" d="M6.771,12.157a5.571,5.571,0,0,0,.044.582A7.16,7.16,0,0,0,7,13.588a43.437,43.437,0,0,0,3.312,7.519c.209.405.368.269.564-.013.784-1.136,1.565-2.275,2.378-3.391a.749.749,0,0,0,.013-1.006A44.9,44.9,0,0,1,8.893,8.861c-.124-.31-.26-.275-.479-.1a3.949,3.949,0,0,0-1.643,3.4M14.305,6.99a11.281,11.281,0,0,0-3.634.607c-.809.254-.829.283-.493,1.058a48.937,48.937,0,0,0,3.949,7.027c.186.287.3.228.456-.02.469-.758.956-1.5,1.421-2.263a37.362,37.362,0,0,0,2.612-4.965c.172-.405.1-.627-.347-.767a12.477,12.477,0,0,0-3.964-.677m.046-5.659c-.4,0-.8-.02-1.2,0a4.128,4.128,0,0,0-3.491,2.1A10.315,10.315,0,0,0,8.414,6.619c-.032.152-.158.343-.012.461s.3-.053.442-.118a12.741,12.741,0,0,1,5.8-1.291A12.869,12.869,0,0,1,19.9,6.985c.125.061.263.2.4.1s.03-.272,0-.408a10.35,10.35,0,0,0-1.315-3.333A4.072,4.072,0,0,0,16.2,1.414a8.662,8.662,0,0,0-1.849-.083M23.589,41.8c.227-.026.269-.209.346-.341,1-1.73,1.986-3.473,3.012-5.188a.894.894,0,0,0-.1-1.2c-2.834-3.531-5.629-7.093-8.267-10.775-.3-.423-.413-.2-.588.087-.875,1.467-1.75,2.937-2.651,4.388a.635.635,0,0,0,.026.829c.271.364.51.753.751,1.137,2.3,3.667,4.776,7.219,7.241,10.775.071.1.154.2.226.284M21.931,12.02a3.9,3.9,0,0,0-1.611-3.24c-.276-.221-.415-.206-.536.147a15.452,15.452,0,0,1-1,2.177,102.373,102.373,0,0,1-7.718,11.949C8.1,27.172,5,31.183,1.812,35.131A.805.805,0,0,0,1.718,36.2Q3.255,38.8,4.74,41.44c.24.423.379.416.65.017,1.826-2.694,3.691-5.361,5.478-8.081,2.3-3.5,4.526-7.031,6.606-10.661a54.484,54.484,0,0,0,3.782-7.734,8.257,8.257,0,0,0,.675-2.962M14.374,0a6.156,6.156,0,0,1,5.143,1.892A9.174,9.174,0,0,1,21.289,5.37c.139.47.25.951.346,1.431a7.663,7.663,0,0,0,.994,2.787,4.881,4.881,0,0,1,.467,3.549A20.978,20.978,0,0,1,21.136,18.5c-.589,1.27-1.256,2.5-1.925,3.734a.7.7,0,0,0,.069.879q4.292,5.857,8.846,11.508c.714.89.718.885.165,1.851q-1.87,3.268-3.737,6.537c-.063.111-.128.221-.2.325-.38.548-.829.577-1.228.036-.7-.952-1.376-1.924-2.051-2.894-2.169-3.123-4.29-6.277-6.331-9.485-.376-.593-.4-.593-.78,0-2.535,3.994-5.205,7.9-7.927,11.766-.053.075-.106.148-.16.222-.8,1.084-1.153,1.052-1.81-.11C2.822,40.672,1.558,38.481.3,36.291c-.411-.713-.417-.792.108-1.45,3.04-3.811,6.028-7.661,8.918-11.588a.922.922,0,0,0,.091-1.161,49.569,49.569,0,0,1-3.325-7.051,8.943,8.943,0,0,1-.581-3.312,4.753,4.753,0,0,1,.848-2.662,2.99,2.99,0,0,0,.483-1.194A17.668,17.668,0,0,1,8.163,3.445,5.809,5.809,0,0,1,13.61,0c.255-.008.51,0,.765,0" transform="translate(0 0)"/>
  </g>
</svg>
