<svg id="Group_149601" data-name="Group 149601" xmlns="http://www.w3.org/2000/svg" xmlns:xlink="http://www.w3.org/1999/xlink" width="29.779" height="25.272" viewBox="0 0 29.779 25.272">
  <defs>
    <clipPath id="clip-path">
      <rect id="Rectangle_65597" data-name="Rectangle 65597" width="29.779" height="25.272"/>
    </clipPath>
  </defs>
  <g id="Group_148650" data-name="Group 148650" transform="translate(0 0)" clip-path="url(#clip-path)">
    <path id="Path_177" data-name="Path 177" d="M15.289,4.85c.993,0,1.986-.013,2.979.006.5.008.553-.174.374-.6a3.484,3.484,0,0,0-4.1-1.874,2.99,2.99,0,0,0-2.57,1.865c-.159.457-.138.628.4.61.971-.032,1.945-.008,2.917-.009m-.381,20.422q-5.689,0-11.378,0a7.258,7.258,0,0,1-1.116-.053A2.478,2.478,0,0,1,0,22.4Q0,15.175,0,7.949A2.779,2.779,0,0,1,3.062,4.86c1.886-.025,3.773-.012,5.658,0,.345,0,.556-.051.667-.455A5.531,5.531,0,0,1,14.715.033a6.5,6.5,0,0,1,4.647,1.184A5.2,5.2,0,0,1,21.414,5.1a1.451,1.451,0,0,1-1.351,1.633,8.345,8.345,0,0,1-1.055.036q-7.677,0-15.357,0c-1.1,0-1.252.157-1.253,1.265q0,7.134,0,14.267c0,.909.122,1.039,1.041,1.04q11.41.005,22.818,0c.87,0,1.119-.245,1.12-1.1q.007-7.195,0-14.39c0-.826-.249-1.066-1.08-1.078-.7-.009-1.41,0-2.114-.007a2.864,2.864,0,0,1-.735-.086.859.859,0,0,1-.683-.915.768.768,0,0,1,.694-.826,12.192,12.192,0,0,1,4.562.165,2.573,2.573,0,0,1,1.746,2.723c.02,1.3.006,2.605.006,3.907,0,3.536.009,7.071,0,10.607a2.62,2.62,0,0,1-2.862,2.925c-.27.011-.539.008-.809.008H14.908Z" transform="translate(0 0)"/>
    <path id="Path_178" data-name="Path 178" d="M10.357,14.666c-.435,0-.871.013-1.306,0a1.206,1.206,0,0,1-1.258-1.117,1.191,1.191,0,0,1,1.184-1.263c.743-.048,1.491-.02,2.237-.022,1.3,0,1.145.083,1.155-1.184,0-.7-.012-1.406.008-2.108a1.112,1.112,0,0,1,1.133-1.21,1.129,1.129,0,0,1,1.24,1.115c.058.8.029,1.611.033,2.417,0,.969,0,.967,1.007.97.787,0,1.576-.016,2.361.027a1.185,1.185,0,0,1,1.141.9,1.121,1.121,0,0,1-.407,1.22,1.261,1.261,0,0,1-.873.262c-.87,0-1.74.016-2.61-.006-.452-.012-.635.147-.624.609.021.888.026,1.779-.006,2.666a1.2,1.2,0,1,1-2.395.042q-.03-1.364,0-2.729c.007-.425-.161-.6-.588-.584-.476.019-.953,0-1.429,0Z" transform="translate(1.315 1.309)"/>
  </g>
</svg>
