<svg xmlns="http://www.w3.org/2000/svg" xmlns:xlink="http://www.w3.org/1999/xlink" width="72" height="72" viewBox="0 0 72 72">
  <defs>
    <clipPath id="clip-path">
      <rect id="Rectangle_65894" data-name="Rectangle 65894" width="72" height="72" transform="translate(0 -0.021)" fill="none"/>
    </clipPath>
  </defs>
  <g id="Group_149566" data-name="Group 149566" transform="translate(0 0.021)">
    <g id="Group_149565" data-name="Group 149565" transform="translate(0 0)" clip-path="url(#clip-path)">
      <path id="Path_5421" data-name="Path 5421" d="M6.869,42.467a.947.947,0,0,1-.75-.366,35.653,35.653,0,0,1-2.494-3.624.95.95,0,1,1,1.627-.98A34.343,34.343,0,0,0,7.616,40.93a.95.95,0,0,1-.747,1.537" transform="translate(1.512 16.051)" fill="#2f9060"/>
      <path id="Path_5422" data-name="Path 5422" d="M10.65,45.894a.948.948,0,0,1-.595-.209c-.671-.54-1.327-1.109-1.954-1.691A.951.951,0,0,1,9.4,42.6c.592.552,1.214,1.089,1.849,1.6a.95.95,0,0,1-.6,1.691" transform="translate(3.38 18.353)" fill="#2f9060"/>
      <path id="Path_5423" data-name="Path 5423" d="M35.989,71.98a36.062,36.062,0,0,1-16.97-4.244.951.951,0,0,1,.9-1.677A34.03,34.03,0,1,0,3.275,45.606a.951.951,0,0,1-1.825.535A36,36,0,1,1,35.989,71.98" transform="translate(0 0)" fill="#2f9060"/>
      <path id="Path_5424" data-name="Path 5424" d="M51.34,18.106c0-.337.009-.674,0-1.011a.675.675,0,1,0-1.349.016c-.011.506-.009,1.011,0,1.517.01.945-.171.9,1,.893a.311.311,0,0,0,.354-.361c0-.353,0-.7,0-1.054M29.554,16.4c-4.127,0-8.252.009-12.379-.006a2.429,2.429,0,0,0-2.454,1.567,1.711,1.711,0,0,0-.135.7q0,9.57-.01,19.138c0,.377.148.484.5.48,1.1-.014,2.2-.007,3.294,0,.568,0,.576.019.532.563a3.707,3.707,0,0,1-.106.708c-.172.616-.166.619-.8.619H13.273c-.6,0-.638-.037-.638-.654q0-5.281,0-10.563c0-.631,0-.632-.634-.632-1.929,0-3.859,0-5.788,0a1.131,1.131,0,0,1-.914-.344.863.863,0,0,1-.185-.979.946.946,0,0,1,.912-.631q2.81.006,5.619,0c.183,0,.367-.011.549,0,.331.024.447-.126.444-.449-.01-1.217.083-1.039-1.032-1.051-.718-.006-1.436,0-2.154,0a.944.944,0,0,1-1.031-.937.962.962,0,0,1,1.023-.95c.887-.01,1.775-.019,2.66,0,.411.01.542-.151.536-.546-.017-1.127-.013-2.253,0-3.38a4.521,4.521,0,0,1,.6-2.465,4.118,4.118,0,0,1,3.282-2.08c1-.073,2-.05,3-.052q11.047-.006,22.1,0a5.2,5.2,0,0,1,2.468.419,4.083,4.083,0,0,1,2.375,3.259,6.78,6.78,0,0,1,.162,1.125.226.226,0,0,0,.235.248c.281.01.563.014.844,0,.254-.01.265-.208.265-.4,0-.549-.022-1.1.009-1.647a3.518,3.518,0,0,1,.34-1.548,2.624,2.624,0,0,1,4.852.407,6.185,6.185,0,0,1,.119,1.256c.019.492.013.986,0,1.478-.007.307.082.495.427.467a.731.731,0,0,1,.588.278q2.989,3.017,5.98,6.027c.655.658,1.3,1.322,1.962,1.977a1.061,1.061,0,0,1,.344.785q0,5.534,0,11.07c0,.357-.14.51-.5.5-.761-.013-1.521-.01-2.282,0-.294,0-.427-.113-.464-.413a4.433,4.433,0,0,0-.169-1.081c-.092-.235.044-.38.292-.391s.507-.014.76-.009c.282.006.42-.119.411-.4,0-.085,0-.169,0-.254,0-2.718-.006-5.435.006-8.154a1.155,1.155,0,0,0-.367-.893q-3.337-3.352-6.649-6.73a1.132,1.132,0,0,0-.892-.367c-1.859.014-3.718.006-5.577.007-.53,0-.546.016-.546.548q0,7.856-.007,15.716c0,.4.116.565.529.543.272-.014.592-.112.816.1.255.238-.073.495-.053.75,0,.014,0,.029,0,.043-.083.995-.083.995-1.081.995H31.094c-.705,0-.7,0-.813-.7a3.969,3.969,0,0,1-.156-.824c.01-.242.1-.37.354-.37.14,0,.281,0,.421,0H43.956c.629,0,.631,0,.631-.636q0-9.338,0-18.674a2.335,2.335,0,0,0-1.613-2.447,2.365,2.365,0,0,0-.956-.112q-6.231-.006-12.463,0" transform="translate(2.181 6.263)" fill="#2f9060"/>
      <path id="Path_5425" data-name="Path 5425" d="M24.225,29.366a4.967,4.967,0,0,0,4.987-5,4.955,4.955,0,1,0-9.91-.01,4.978,4.978,0,0,0,4.924,5.011m.026,1.951a6.912,6.912,0,0,1-6.882-6.93,6.871,6.871,0,1,1,13.742-.014,6.9,6.9,0,0,1-6.86,6.945" transform="translate(7.527 7.567)" fill="#2f9060"/>
      <path id="Path_5426" data-name="Path 5426" d="M39.628,25.792c.731,0,1.463,0,2.2,0,.106,0,.252.046.305-.077s-.085-.194-.158-.269c-.629-.645-1.29-1.26-1.882-1.938a2.264,2.264,0,0,0-2.236-.92,1.657,1.657,0,0,1-.421,0c-.3-.02-.436.108-.431.419q.015,1.183,0,2.365c0,.31.129.427.43.423.732-.009,1.465,0,2.2,0m.36,1.951c-1.449,0-2.9,0-4.346,0-.572,0-.656-.087-.656-.668q0-2.847,0-5.7c0-.654.086-.737.722-.737,1.267,0,2.533,0,3.8,0a.915.915,0,0,1,.71.292q2.473,2.507,4.959,5a1.032,1.032,0,0,1,.324,1.147,1.059,1.059,0,0,1-1.081.661c-1.476.009-2.954,0-4.431,0" transform="translate(15.161 8.944)" fill="#2f9060"/>
      <path id="Path_5427" data-name="Path 5427" d="M19.941,36.13a2.414,2.414,0,0,0,2.4-2.362,2.349,2.349,0,0,0-2.359-2.44,2.322,2.322,0,0,0-2.437,2.377,2.4,2.4,0,0,0,2.4,2.425m4.339-2.407a4.353,4.353,0,0,1-4.329,4.359,4.282,4.282,0,0,1-4.336-4.356,4.223,4.223,0,0,1,4.4-4.385,4.279,4.279,0,0,1,4.264,4.382" transform="translate(6.767 12.716)" fill="#2f9060"/>
      <path id="Path_5428" data-name="Path 5428" d="M40.208,36.133A2.406,2.406,0,1,0,37.854,33.7a2.349,2.349,0,0,0,2.354,2.431m-.039,1.948a4.373,4.373,0,1,1,4.362-4.356,4.325,4.325,0,0,1-4.362,4.356" transform="translate(15.564 12.714)" fill="#2f9060"/>
      <path id="Path_5429" data-name="Path 5429" d="M24.2,21.121c0,.239,0,.479,0,.718,0,.549.033.581.566.583.507,0,1.013.009,1.521,0,.321-.006.463.128.45.454s-.01.648,0,.97a.453.453,0,0,1-.512.523c-.507.007-1.015.024-1.521,0-.394-.019-.523.143-.507.52.022.493,0,.986.006,1.478.006.367-.149.543-.527.545-1.634.006-1.413.075-1.422-1.347-.007-1.19,0-1.188-1.183-1.19-.281,0-.562,0-.844-.006a.455.455,0,0,1-.512-.523q.015-.486,0-.972c-.01-.327.151-.454.463-.452.549.006,1.1-.01,1.647,0,.305.007.436-.109.429-.419-.013-.506-.006-1.013,0-1.521,0-.595.082-.671.692-.674.267,0,.535.006.8,0,.321-.007.462.149.454.464-.007.281,0,.563,0,.844Z" transform="translate(8.542 8.586)" fill="#2f9060"/>
    </g>
  </g>
</svg>
