<svg xmlns="http://www.w3.org/2000/svg" xmlns:xlink="http://www.w3.org/1999/xlink" width="72.11" height="55.854" viewBox="0 0 72.11 55.854">
  <defs>
    <clipPath id="clip-path">
      <rect id="Rectangle_65895" data-name="Rectangle 65895" width="72.11" height="55.854" fill="none"/>
    </clipPath>
  </defs>
  <g id="Group_149568" data-name="Group 149568" transform="translate(0 0)">
    <g id="Group_149567" data-name="Group 149567" transform="translate(0 0)" clip-path="url(#clip-path)">
      <path id="Path_5430" data-name="Path 5430" d="M13.525,42.556q-6.238,0-12.477,0c-1,0-1.033-.038-1.033-1.047,0-4.98-.048-9.961.026-14.941.053-3.606,1.906-6.178,4.969-7.957a1.135,1.135,0,0,1,1.4.095,12.081,12.081,0,0,0,11.282,1.565,10.068,10.068,0,0,0,2.829-1.543,1.232,1.232,0,0,1,1.536-.065A9.374,9.374,0,0,1,27.006,27c.107,4.851.031,9.7.026,14.555,0,.914-.095,1-1.03,1q-6.24.005-12.477,0" transform="translate(0 13.292)" fill="#fff"/>
      <path id="Path_5431" data-name="Path 5431" d="M39.672,42.563q-6.2,0-12.4,0c-1.018,0-1.087-.069-1.088-1.1,0-4.775-.067-9.551.021-14.325a9.415,9.415,0,0,1,5.043-8.51,1.146,1.146,0,0,1,1.4.079,12.125,12.125,0,0,0,11.43,1.524,10.416,10.416,0,0,0,2.812-1.574.994.994,0,0,1,1.2-.1c3.072,1.71,4.99,4.248,5.074,7.811.121,5.105.024,10.216.055,15.323.005.777-.362.882-.994.88-4.184-.014-8.369-.007-12.551-.007" transform="translate(18.885 13.284)" fill="#fff"/>
      <path id="Path_5432" data-name="Path 5432" d="M20.416,35.892c0-2.313.021-4.623-.005-6.934a12.584,12.584,0,0,0-5.958-10.781c-.79-.536-.8-.549-.057-1.181a10.073,10.073,0,0,1,2.2-1.409,1.127,1.127,0,0,1,1.338.153,12.663,12.663,0,0,0,9.035,2.848,12.206,12.206,0,0,0,7-2.7,1.468,1.468,0,0,1,1.873-.152,13.75,13.75,0,0,1,2.09,1.436c.415.336.413.582-.057.871A13,13,0,0,0,32.8,23.784,11.241,11.241,0,0,0,31.7,28.547c-.022,5.009-.012,10.018-.016,15.025,0,1.109-.021,1.13-1.114,1.13q-4.507,0-9.016,0c-1.131,0-1.138-.009-1.138-1.181q0-3.812,0-7.628Z" transform="translate(9.998 11.144)" fill="#fff"/>
      <path id="Path_5433" data-name="Path 5433" d="M34.456,13.8a9.526,9.526,0,1,1-19.051-.138,9.526,9.526,0,1,1,19.051.138" transform="translate(11.121 2.995)" fill="#fff"/>
      <path id="Path_5434" data-name="Path 5434" d="M29.1,16.541A8.516,8.516,0,1,1,37.618,25.1,8.534,8.534,0,0,1,29.1,16.541" transform="translate(21.01 5.774)" fill="#fff"/>
      <path id="Path_5435" data-name="Path 5435" d="M19.911,16.524A8.578,8.578,0,0,1,11.417,25.1a8.55,8.55,0,1,1,8.494-8.573" transform="translate(2.079 5.774)" fill="#fff"/>
      <path id="Path_5436" data-name="Path 5436" d="M40.74,8.518c0,.1,0,.2,0,.308-.052,1.393-.048,1.429-1.431,1.613a11.886,11.886,0,0,0-7.4,3.879c-.158.172-.288.5-.591.393-.267-.1-.255-.424-.306-.668A12.628,12.628,0,0,0,25.186,5.7c-.658-.42-.728-.773-.353-1.412a8.495,8.495,0,0,1,14.109-.983,8.253,8.253,0,0,1,1.8,5.209" transform="translate(17.763 0.001)" fill="#fff"/>
      <path id="Path_5437" data-name="Path 5437" d="M16.39.2a8.8,8.8,0,0,1,7.353,4.236c.3.5.236.794-.276,1.118a12.642,12.642,0,0,0-5.827,8.331c-.053.245-.04.577-.3.672-.336.121-.472-.246-.646-.436a11.662,11.662,0,0,0-7.8-3.867c-.759-.069-.94-.424-.985-1.062a8.518,8.518,0,0,1,5.056-8.186A12.118,12.118,0,0,1,16.39.2" transform="translate(5.694 0.147)" fill="#fff"/>
    </g>
  </g>
</svg>
