<svg xmlns="http://www.w3.org/2000/svg" xmlns:xlink="http://www.w3.org/1999/xlink" width="55.979" height="43.359" viewBox="0 0 55.979 43.359">
  <defs>
    <clipPath id="clip-path">
      <rect id="Rectangle_65925" data-name="Rectangle 65925" width="55.979" height="43.359" fill="none"/>
    </clipPath>
  </defs>
  <g id="Group_149646" data-name="Group 149646" transform="translate(0 0)">
    <g id="Group_149645" data-name="Group 149645" transform="translate(0 0)" clip-path="url(#clip-path)">
      <path id="Path_5607" data-name="Path 5607" d="M10.5,37.155q-4.842,0-9.686,0c-.774,0-.8-.029-.8-.813,0-3.866-.037-7.733.02-11.6A6.981,6.981,0,0,1,3.89,18.565a.881.881,0,0,1,1.087.074,9.378,9.378,0,0,0,8.758,1.215,7.816,7.816,0,0,0,2.2-1.2.957.957,0,0,1,1.192-.051,7.277,7.277,0,0,1,3.842,6.471c.083,3.766.024,7.534.02,11.3,0,.71-.074.778-.8.778q-4.844,0-9.686,0" transform="translate(0 6.2)" fill="#1a1818"/>
      <path id="Path_5608" data-name="Path 5608" d="M36.649,37.158q-4.814,0-9.626,0c-.79,0-.843-.053-.845-.854,0-3.707-.052-7.415.016-11.12a7.309,7.309,0,0,1,3.915-6.606.889.889,0,0,1,1.085.061,9.412,9.412,0,0,0,8.873,1.183A8.086,8.086,0,0,0,42.252,18.6a.772.772,0,0,1,.93-.078,6.9,6.9,0,0,1,3.939,6.063c.094,3.963.019,7.931.043,11.9,0,.6-.281.684-.771.683-3.248-.011-6.5-.005-9.743-.005" transform="translate(8.809 6.197)" fill="#1a1818"/>
      <path id="Path_5609" data-name="Path 5609" d="M18.947,31.316c0-1.8.016-3.589,0-5.383a9.769,9.769,0,0,0-4.625-8.369c-.614-.416-.62-.426-.044-.917a7.819,7.819,0,0,1,1.706-1.093.875.875,0,0,1,1.039.119,9.83,9.83,0,0,0,7.014,2.211,9.476,9.476,0,0,0,5.435-2.1,1.139,1.139,0,0,1,1.454-.118,10.674,10.674,0,0,1,1.623,1.115c.322.261.321.452-.044.676a10.092,10.092,0,0,0-3.942,4.455,8.726,8.726,0,0,0-.849,3.7c-.017,3.889-.009,7.777-.012,11.664,0,.861-.016.877-.865.877q-3.5,0-7,0c-.878,0-.884-.007-.884-.917q0-2.96,0-5.922Z" transform="translate(4.664 5.198)" fill="#1a1818"/>
      <path id="Path_5610" data-name="Path 5610" d="M30.195,11.643a7.395,7.395,0,1,1-14.79-.107,7.4,7.4,0,1,1,14.79.107" transform="translate(5.187 1.397)" fill="#1a1818"/>
      <path id="Path_5611" data-name="Path 5611" d="M29.1,14.629a6.611,6.611,0,1,1,6.61,6.642,6.625,6.625,0,0,1-6.61-6.642" transform="translate(9.8 2.693)" fill="#1a1818"/>
      <path id="Path_5612" data-name="Path 5612" d="M16.1,14.615a6.659,6.659,0,0,1-6.594,6.656A6.638,6.638,0,1,1,16.1,14.615" transform="translate(0.97 2.693)" fill="#1a1818"/>
      <path id="Path_5613" data-name="Path 5613" d="M37.131,6.613c0,.079,0,.159,0,.239-.04,1.081-.037,1.109-1.111,1.253a9.227,9.227,0,0,0-5.748,3.012c-.123.134-.223.39-.458.3-.207-.076-.2-.329-.238-.519a9.8,9.8,0,0,0-4.519-6.474c-.511-.326-.565-.6-.274-1.1a6.594,6.594,0,0,1,10.953-.763,6.407,6.407,0,0,1,1.4,4.044" transform="translate(8.286 0.001)" fill="#1a1818"/>
      <path id="Path_5614" data-name="Path 5614" d="M14.488.2A6.832,6.832,0,0,1,20.2,3.491c.235.389.183.616-.214.868a9.814,9.814,0,0,0-4.523,6.467c-.041.19-.031.448-.233.521-.261.094-.366-.191-.5-.338a9.054,9.054,0,0,0-6.058-3c-.589-.053-.73-.329-.765-.825A6.613,6.613,0,0,1,11.826.827,9.407,9.407,0,0,1,14.488.2" transform="translate(2.656 0.069)" fill="#1a1818"/>
    </g>
  </g>
</svg>
