<svg xmlns="http://www.w3.org/2000/svg" width="22.675" height="22.65" viewBox="0 0 22.675 22.65">
  <path id="Icon_awesome-linkedin-in" data-name="Icon awesome-linkedin-in" d="M5.072,22.65H.376V7.529h4.7ZM2.722,5.466A2.733,2.733,0,1,1,5.441,2.72,2.733,2.733,0,0,1,2.722,5.466ZM22.65,22.65H17.964V15.289c0-1.755-.036-4-2.441-4-2.441,0-2.816,1.906-2.816,3.878V22.65H8.013V7.529h4.5V9.587h.066a4.935,4.935,0,0,1,4.439-2.438c4.753,0,5.626,3.129,5.626,7.195V22.65Z" transform="translate(0.025)" fill="#fff"/>
</svg>
