<svg xmlns="http://www.w3.org/2000/svg" xmlns:xlink="http://www.w3.org/1999/xlink" width="190.865" height="140.124" viewBox="0 0 190.865 140.124">
  <defs>
    <clipPath id="clip-path">
      <rect id="Rectangle_2" data-name="Rectangle 2" width="188.259" height="73.856" fill="none"/>
    </clipPath>
  </defs>
  <g id="Group_148773" data-name="Group 148773" transform="translate(-14.142 -10.383)">
    <g id="Group_5" data-name="Group 5" transform="translate(14.142 10.383)">
      <rect id="Rectangle_1" data-name="Rectangle 1" width="189.854" height="73.856" transform="translate(0.376 43.535)" fill="#74bf44"/>
      <g id="Group_2" data-name="Group 2" transform="translate(1.97 43.537)">
        <g id="Group_1" data-name="Group 1" clip-path="url(#clip-path)">
          <path id="Path_1" data-name="Path 1" d="M48.268,242.671c-1.67,4.833-5.023,9.408-10.114,13.714q-7.6,6.475-20.271,12.11l-1.123-2.7a74.847,74.847,0,0,0,14.2-10.412q5.107-5.042,6.389-9.816a84.593,84.593,0,0,1-14.221-12.152,46.623,46.623,0,0,1-8.395-12.683,68.077,68.077,0,0,1,11.7-8.128,82.717,82.717,0,0,1,14.107-6.1l2.681,2.237a71.15,71.15,0,0,0-11.092,5.308,46.4,46.4,0,0,0-8.554,6.485A81.048,81.048,0,0,0,34.723,232.8a83.563,83.563,0,0,0,13.546,9.874" transform="translate(-16.535 -193.33)" fill="#091c24"/>
        </g>
      </g>
      <path id="Path_2" data-name="Path 2" d="M210.622,308.586l-6.265,3.141-20.617-23.4-17.684,19.05-14.5-23.892-21.32,28.025-8.866-3.784,31.621-32.666,14.405,21.724,16.315-14.414Z" transform="translate(-90.359 -198.517)" fill="#091c24"/>
      <g id="Group_4" data-name="Group 4" transform="translate(1.97 43.537)">
        <g id="Group_3" data-name="Group 3" clip-path="url(#clip-path)">
          <path id="Path_3" data-name="Path 3" d="M439.833,274.31l-.569-.471a64.386,64.386,0,0,1-6.333-13.716,43,43,0,0,1-2.2-12.992,32.4,32.4,0,0,1,1.784-10.525,34.579,34.579,0,0,1,5.08-9.648,71.886,71.886,0,0,1,3.255,11.6,62.633,62.633,0,0,1,1.058,11.6v3.905a97.024,97.024,0,0,1-.516,9.993,100.177,100.177,0,0,1-1.56,10.247m-3.91-53.885a5.276,5.276,0,0,1,1.724-1.793,4.131,4.131,0,0,1,2.186-.608,6.753,6.753,0,0,1,3.622.747,2.63,2.63,0,0,1,1.139,2.378,3.28,3.28,0,0,1-1.24,2.916,7.772,7.772,0,0,1-4.257.863,10.769,10.769,0,0,1-5.44-1.246c-1.462-.834-2.185-1.847-2.185-3.033a3.442,3.442,0,0,1,1.39-2.679,12.334,12.334,0,0,1,4.244-2.071l.639.969a11.263,11.263,0,0,0-2.518,1.251,2.191,2.191,0,0,0-.892,1.249l-.248,1.056a3.347,3.347,0,0,0,.961,2.616,4.2,4.2,0,0,0,2.863.854,5.76,5.76,0,0,0,2.574-.45,1.434,1.434,0,0,0,.854-1.334,1.383,1.383,0,0,0-.045-.3,1.16,1.16,0,0,1-.042-.233,1.254,1.254,0,0,0-.012-.2c-.014-.065-.042-.148-.069-.233a3.38,3.38,0,0,0-.923-.462,3.622,3.622,0,0,0-.9-.191,1.955,1.955,0,0,0-.946.237,2.183,2.183,0,0,0-.724.608Z" transform="translate(-312.228 -200.003)" fill="#091c24"/>
          <path id="Path_4" data-name="Path 4" d="M528.822,237.155c-.234,1.822-.413,3.641-.568,5.465s-.229,3.589-.258,5.306q-1.589-.106-10.231-1.787c-2.685-.525-4.808-.928-6.371-1.244q-1.164-14.315-3.193-35.553t-5.288-52.994l12.578-1.594-1.174,83.939Z" transform="translate(-363.534 -156.54)" fill="#091c24"/>
          <path id="Path_5" data-name="Path 5" d="M602.917,245.914a102.9,102.9,0,0,1-9.325,5.14q-5.257,2.589-12.555,5.622a26.983,26.983,0,0,1-6.51-10.17,37,37,0,0,1-2.409-13.3,33.058,33.058,0,0,1,2.409-12.47,43.193,43.193,0,0,1,7.391-11.793l15.322,5.48c-.41.02-.843.038-1.305.049s-1.136.011-2.013.011c-1.28,0-2.717-.022-4.3-.069s-3.4-.117-5.429-.213a58.376,58.376,0,0,0-2.37,6.662,18.189,18.189,0,0,0-.71,4.732v.282c1.488-.1,2.764-.164,3.822-.213s1.986-.069,2.815-.069c.331,0,.713.009,1.136.031s1.052.049,1.87.077c-1.357.415-2.834.941-4.414,1.562s-3.224,1.327-4.925,2.1v.883a28.739,28.739,0,0,0,1.462,10.047,29.873,29.873,0,0,0,4.716,7.888c2.49-.475,5.015-.9,7.559-1.282s5.14-.71,7.76-.99" transform="translate(-412.728 -195.06)" fill="#091c24"/>
        </g>
      </g>
      <path id="Path_6" data-name="Path 6" d="M204.982,10.6c22.143-2.356,42.056,14.439,44.331,37.389s-13.93,43.591-36.072,45.95S171.185,79.5,168.911,56.552s13.93-43.591,36.071-45.949" transform="translate(-124.002 -10.383)" fill="#fbed1d"/>
      <path id="Path_7" data-name="Path 7" d="M252.54,177.371a31.554,31.554,0,0,1-20.98-8.531l1.477-1.628c8.036,7.292,18.588,9.81,27.532,6.579,8.761-3.168,14.669-11.231,16.207-22.123l2.176.305c-1.656,11.726-8.086,20.432-17.635,23.883a25.774,25.774,0,0,1-8.776,1.515" transform="translate(-168.685 -110.81)" fill="#221f20"/>
      <path id="Path_8" data-name="Path 8" d="M222.649,188.406a3.149,3.149,0,1,1-3.067,3.118,3.1,3.1,0,0,1,3.067-3.118" transform="translate(-160.171 -136.923)" fill="#221f20"/>
      <path id="Path_9" data-name="Path 9" d="M222.338,188.243a3.036,3.036,0,0,0-.029,6.066h.032a3.036,3.036,0,0,0,.023-6.066Zm0,6.294h-.036a3.263,3.263,0,0,1,.033-6.521h.031a3.263,3.263,0,0,1-.027,6.521" transform="translate(-159.891 -136.646)" fill="#221f20"/>
      <path id="Path_10" data-name="Path 10" d="M382.916,136.061a3.149,3.149,0,1,1-3.064,3.116,3.1,3.1,0,0,1,3.064-3.116" transform="translate(-274.093 -99.716)" fill="#221f20"/>
      <path id="Path_11" data-name="Path 11" d="M382.613,135.9a3.035,3.035,0,0,0-.027,6.064h.027a3.035,3.035,0,0,0,.027-6.064Zm0,6.292h-.031a3.262,3.262,0,0,1,.031-6.519h.031a3.262,3.262,0,0,1-.031,6.519" transform="translate(-273.817 -99.438)" fill="#221f20"/>
      <path id="Path_12" data-name="Path 12" d="M14.142,461.114V447.9h8.74v2.237H16.72v3.125h5.322V455.5H16.72v5.615Zm18.809-6.523a8.674,8.674,0,0,1,.581-3.39,6.324,6.324,0,0,1,1.184-1.813,5.063,5.063,0,0,1,1.652-1.19,6.788,6.788,0,0,1,2.748-.52,5.87,5.87,0,0,1,4.51,1.811,8.331,8.331,0,0,1,.011,10.045,5.849,5.849,0,0,1-4.486,1.807,5.891,5.891,0,0,1-4.523-1.8,6.979,6.979,0,0,1-1.677-4.952m2.65-.09a5.1,5.1,0,0,0,1,3.4,3.217,3.217,0,0,0,2.544,1.157,3.172,3.172,0,0,0,2.524-1.15,6.486,6.486,0,0,0,.027-6.837,3.478,3.478,0,0,0-5.122.018,5.131,5.131,0,0,0-.971,3.41m20.175-6.6h2.573v7.155a15.154,15.154,0,0,0,.1,2.208,2.126,2.126,0,0,0,.785,1.3,2.662,2.662,0,0,0,1.7.493,2.527,2.527,0,0,0,1.656-.464,1.826,1.826,0,0,0,.664-1.137,14.85,14.85,0,0,0,.114-2.248V447.9h2.574v6.94a18.3,18.3,0,0,1-.209,3.364,3.758,3.758,0,0,1-.769,1.656,3.925,3.925,0,0,1-1.5,1.08,6.367,6.367,0,0,1-2.453.4,6.814,6.814,0,0,1-2.771-.439,4.029,4.029,0,0,1-1.491-1.134,3.659,3.659,0,0,1-.72-1.468,16.6,16.6,0,0,1-.251-3.353Zm21.368,13.212V447.9h2.5l5.219,8.823V447.9H87.26v13.212H84.675l-5.14-8.615v8.615ZM98.44,447.9h4.7a8.929,8.929,0,0,1,2.427.251,4.223,4.223,0,0,1,1.921,1.219,5.838,5.838,0,0,1,1.219,2.137,10.225,10.225,0,0,1,.417,3.127,8.952,8.952,0,0,1-.394,2.811,5.754,5.754,0,0,1-1.367,2.331,4.412,4.412,0,0,1-1.807,1.056,7.467,7.467,0,0,1-2.278.28H98.44Zm2.575,2.237v8.747h1.919a6.793,6.793,0,0,0,1.56-.123,2.371,2.371,0,0,0,1.036-.547,2.9,2.9,0,0,0,.675-1.28,9.008,9.008,0,0,0,.26-2.417,8.273,8.273,0,0,0-.26-2.354,3.052,3.052,0,0,0-.733-1.28,2.384,2.384,0,0,0-1.191-.621,11.022,11.022,0,0,0-2.11-.125Zm30.256,10.975h-2.8l-1.116-3h-5.095l-1.052,3h-2.73l4.967-13.212h2.721Zm-4.735-5.225-1.762-4.9-1.719,4.9Zm16.117,5.225V450.14h-3.781V447.9H149v2.237h-3.771v10.975Zm16.4-13.212h2.574v13.212h-2.574Zm12.972,6.689a8.638,8.638,0,0,1,.585-3.39,6.223,6.223,0,0,1,1.188-1.813,5.016,5.016,0,0,1,1.645-1.19,6.8,6.8,0,0,1,2.751-.52,5.86,5.86,0,0,1,4.506,1.811,8.319,8.319,0,0,1,.012,10.045,6.529,6.529,0,0,1-9.009.009,6.971,6.971,0,0,1-1.679-4.952m2.654-.09a5.081,5.081,0,0,0,1,3.4,3.213,3.213,0,0,0,2.544,1.157,3.168,3.168,0,0,0,2.522-1.15,6.5,6.5,0,0,0,.029-6.837,3.478,3.478,0,0,0-5.122.018,5.131,5.131,0,0,0-.971,3.41m20.213,6.613V447.9H197.4l5.219,8.823V447.9h2.392v13.212h-2.585l-5.14-8.615v8.615Z" transform="translate(-14.142 -321.218)"/>
    </g>
  </g>
</svg>
