<svg xmlns="http://www.w3.org/2000/svg" width="14.345" height="10.097" viewBox="0 0 14.345 10.097">
  <g id="Group_42" data-name="Group 42" transform="translate(-140.555 -231)">
    <path id="Path_9" data-name="Path 9" d="M17.734,4.652,13.246.164a.561.561,0,0,0-.794.794l3.532,3.529L4.116,4.608a.561.561,0,0,0,0,1.122l11.867-.121L12.455,9.141a.562.562,0,0,0,0,.794.568.568,0,0,0,.4.163.559.559,0,0,0,.4-.166l4.488-4.488a.554.554,0,0,0,0-.791" transform="translate(137 231)" fill="#75c044"/>
  </g>
</svg>
