<svg xmlns="http://www.w3.org/2000/svg" xmlns:xlink="http://www.w3.org/1999/xlink" width="25" height="56" viewBox="0 0 25 56">
  <defs>
    <clipPath id="clip-path">
      <rect id="Rectangle_65645" data-name="Rectangle 65645" width="25" height="56" transform="translate(0 0)" fill="#236a59"/>
    </clipPath>
  </defs>
  <g id="Group_148767" data-name="Group 148767" transform="translate(0 0.505)">
    <g id="Group_148766" data-name="Group 148766" transform="translate(0 -0.505)" clip-path="url(#clip-path)">
      <path id="Path_267" data-name="Path 267" d="M2.238,12.31h0V26.85a10.07,10.07,0,1,0,20.14,0V12.31a10.07,10.07,0,1,0-20.14,0M0,12.31a12.308,12.308,0,1,1,24.615,0V26.85A12.308,12.308,0,1,1,0,26.85Z" transform="translate(0 0.345)" fill="#236a59" fill-rule="evenodd"/>
      <path id="Path_268" data-name="Path 268" d="M20,15.123a1.119,1.119,0,1,1,2.238,0V19.59a1.119,1.119,0,1,1-2.238,0Z" transform="translate(-8.811 -5.823)" fill="#236a59" fill-rule="evenodd"/>
      <path id="Path_269" data-name="Path 269" d="M16.713,90.131l4.8-4.8A1.119,1.119,0,1,1,23.1,86.911L17.5,92.5a1.12,1.12,0,0,1-1.582,0l-5.594-5.594a1.119,1.119,0,0,1,1.582-1.583Z" transform="translate(-4.406 -37.103)" fill="#236a59" fill-rule="evenodd"/>
      <path id="Path_270" data-name="Path 270" d="M16.713,77.131l4.8-4.8A1.119,1.119,0,1,1,23.1,73.911L17.5,79.5a1.12,1.12,0,0,1-1.582,0l-5.594-5.594a1.119,1.119,0,0,1,1.582-1.583Z" transform="translate(-4.406 -31.376)" fill="#236a59" fill-rule="evenodd"/>
    </g>
  </g>
</svg>
