<svg xmlns="http://www.w3.org/2000/svg" xmlns:xlink="http://www.w3.org/1999/xlink" width="34.149" height="34.097" viewBox="0 0 34.149 34.097">
  <defs>
    <clipPath id="clip-path">
      <rect id="Rectangle_65957" data-name="Rectangle 65957" width="34.149" height="34.097" transform="translate(0 0)"/>
    </clipPath>
  </defs>
  <g id="Group_149702" data-name="Group 149702" clip-path="url(#clip-path)">
    <path id="Path_5772" data-name="Path 5772" d="M10.16,5.044h2.18v4.991c0,.683-2.393,2.154-2.871,2.522-1.118.84-2.075,1.576-3.192,2.416L0,19.753H4.734V31.942H14.2V24.219c0-1.944,1.01-3.362,2.871-3.362L20,24.219v7.723h9.415V19.753h4.734l-10.9-8.248c-2.021-1.524-1.436-1.419-1.436-6.462H23.99l-.8-.63c-.373-.262-.532-.421-.852-.63L17.074,0c-.8.525-5.851,4.1-6.914,5.044m3.67,2.311a3.243,3.243,0,0,1,5.107-2.732c.851.578-.533-.472.212.158a9.07,9.07,0,0,1,1.223,2.942V10.77H13.83Zm.691,8.983a2.631,2.631,0,0,1,2.393-2.679,2.5,2.5,0,0,1,.32,4.991,2.806,2.806,0,0,1-1.809-.682,1.713,1.713,0,0,1-.532-.683c-.107-.158-.32-.841-.373-.947M7.287,23.695h4.362v3.572H7.287Zm15.266,0h4.362v3.572H22.553ZM7.287,28h4.362v1.419H7.287Zm15.266,0h4.362v1.419H22.553Z" transform="translate(0 0)"/>
    <rect id="Rectangle_65956" data-name="Rectangle 65956" width="27.607" height="1.419" transform="translate(3.298 32.678)"/>
    <path id="Path_5773" data-name="Path 5773" d="M12.4,7.931v.736H17.5V7.931c-1.384-.105-.373-1-.852-2.207-.105-.367-.637-.63-1.33-1.733h-.744c0,1.418-.852.525-1.331,1.733-.425,1.209.533,2.1-.851,2.207" transform="translate(2.126 0.685)"/>
    <path id="Path_5774" data-name="Path 5774" d="M14.412,13.76H13.349v.683h1.808v-2.47h-.744Z" transform="translate(2.29 2.054)"/>
    <path id="Path_5775" data-name="Path 5775" d="M14.675,8.979c.585,0,.638-.315.745-.683H13.984c.105.368.159.683.691.683" transform="translate(2.399 1.423)"/>
  </g>
</svg>
