<svg id="Group_149703" data-name="Group 149703" xmlns="http://www.w3.org/2000/svg" xmlns:xlink="http://www.w3.org/1999/xlink" width="36.655" height="27.087" viewBox="0 0 36.655 27.087">
  <defs>
    <clipPath id="clip-path">
      <rect id="Rectangle_65566" data-name="Rectangle 65566" width="36.655" height="27.087"/>
    </clipPath>
  </defs>
  <g id="Group_148602" data-name="Group 148602" transform="translate(0 0)" clip-path="url(#clip-path)">
    <path id="Path_164" data-name="Path 164" d="M19.178,5.363a1.675,1.675,0,0,0-1.223.338.805.805,0,0,0,.06,1.311,2.034,2.034,0,0,0,2.147-.005.809.809,0,0,0,.077-1.283,1.386,1.386,0,0,0-1.062-.361M2.2,13.384c0,1.976.006,3.953-.006,5.929a.732.732,0,0,0,.4.741,1.432,1.432,0,0,1,.449,2.184.751.751,0,0,0-.143.681c.254,1.146.489,2.3.721,3.444.112.548-.025.714-.579.718-.818.006-1.637.008-2.455,0-.526-.005-.668-.174-.559-.7q.363-1.722.76-3.436a.774.774,0,0,0-.126-.689,1.417,1.417,0,0,1,.375-2.164.836.836,0,0,0,.4-.8q-.013-6.161-.005-12.321c0-.877.019-.882.855-1.175q5.7-2,11.4-4.006C15.309,1.223,16.932.672,18.546.1a1.521,1.521,0,0,1,1.077,0q3.71,1.315,7.427,2.608c2.957,1.033,5.918,2.058,8.874,3.095.291.1.719.117.732.525.014.437-.432.416-.718.517q-5.5,1.948-11,3.882c-1.835.644-3.676,1.271-5.509,1.918a1.148,1.148,0,0,1-.807-.053Q12.651,10.5,6.684,8.419,4.7,7.723,2.705,7.03c-.5-.173-.5-.17-.5.378q0,2.988,0,5.975" transform="translate(0 0)"/>
    <path id="Path_165" data-name="Path 165" d="M26.3,18.078c.407-.057.831-.112,1.255-.178.151-.024.329-.067.282-.278-.036-.168-.2-.172-.339-.155-.425.049-.851.1-1.276.158-.159.023-.392.01-.378.24.017.261.262.194.456.214m4.541-4.208h0c0-.878,0-1.756,0-2.634,0-.178,0-.419-.257-.41-.217.007-.216.224-.224.394-.005.108,0,.216,0,.324,0,1.524-.009,3.049.007,4.574a.67.67,0,0,1-.445.72c-.3.118-.606.225-.91.333-.162.058-.359.1-.286.334.06.189.228.161.39.122a4.405,4.405,0,0,0,1.314-.55.84.84,0,0,0,.428-.8c-.022-.8-.006-1.6-.006-2.4m1.918-1.051c0,1.282-.021,2.564.008,3.845a1.944,1.944,0,0,1-.9,1.723,8.888,8.888,0,0,1-2.8,1.195,30.408,30.408,0,0,1-6.308.944,43.689,43.689,0,0,1-4.858.149A38.8,38.8,0,0,1,8.419,19.5a8.741,8.741,0,0,1-2.458-1.058,2.02,2.02,0,0,1-.984-1.818c.025-2.579.008-5.158.009-7.737,0-.684.011-.7.68-.469q6.208,2.1,12.413,4.209a2.313,2.313,0,0,0,1.576,0q6.136-2.1,12.282-4.163c.118-.04.237-.073.351-.118.339-.131.477-.032.473.343-.011,1.375,0,2.749,0,4.124" transform="translate(0.211 0.352)"/>
  </g>
</svg>
