<svg xmlns="http://www.w3.org/2000/svg" xmlns:xlink="http://www.w3.org/1999/xlink" width="36.938" height="37.761" viewBox="0 0 36.938 37.761">
  <defs>
    <clipPath id="clip-path">
      <rect id="Rectangle_65952" data-name="Rectangle 65952" width="36.938" height="37.761"/>
    </clipPath>
  </defs>
  <g id="Group_149698" data-name="Group 149698" clip-path="url(#clip-path)">
    <path id="Path_5760" data-name="Path 5760" d="M15.371,17.172a.457.457,0,0,0,.325-.155c.441-.441.886-.879,1.32-1.325a.4.4,0,0,0,0-.645q-1.158-1.172-2.329-2.33a.4.4,0,0,0-.645.006q-.659.644-1.306,1.3a.412.412,0,0,0,.005.684c.767.773,1.54,1.54,2.312,2.31a.432.432,0,0,0,.322.154m1.888-8.554a7.834,7.834,0,0,1-.327,2.343.489.489,0,0,0,.156.572c.649.631,1.28,1.281,1.929,1.914.176.171.194.278.008.463q-2.574,2.557-5.13,5.13c-.176.178-.282.154-.445-.012-.626-.641-1.271-1.265-1.894-1.91a.562.562,0,0,0-.625-.173A8.411,8.411,0,0,1,3.693,15.7,8.356,8.356,0,0,1,.07,9.67,8.508,8.508,0,0,1,.78,5.041c.119-.266.134-.274.348-.062Q3.25,7.091,5.367,9.207c.671.67,1.347,1.336,2.015,2.012.12.123.188.1.295-.005q1.74-1.748,3.49-3.488c.159-.158.144-.264,0-.411q-1.556-1.538-3.1-3.087t-3.094-3.1c-.207-.208-.2-.225.076-.352A8.64,8.64,0,0,1,17.259,8.617" transform="translate(0 0)"/>
    <path id="Path_5761" data-name="Path 5761" d="M30.188,7.067a.49.49,0,0,1-.163.216q-3.9,3.9-7.8,7.8Q15.763,21.547,9.3,28.012c-.379.378-.277.38-.676-.008-.182-.178-.37-.353-.538-.544-.154-.176-.269-.131-.367.038-.155.266-.3.538-.446.808-.756,1.4-1.505,2.8-2.273,4.2a.412.412,0,0,0,.091.587c.485.469.475.476,1.076.151q2.205-1.189,4.413-2.373c.595-.319.6-.318.115-.8-.155-.155-.3-.321-.469-.463s-.109-.234.019-.361c.85-.842,1.693-1.69,2.538-2.536L31.029,8.469c.359-.361.277-.318.6-.009.4.383.777.79,1.181,1.169.177.164.124.256-.019.4q-2.56,2.551-5.113,5.109-7.929,7.929-15.858,15.859a5.952,5.952,0,0,1-1.434.874c-2.472,1.363-4.953,2.709-7.432,4.059a3.254,3.254,0,0,1-.481.212c-.151.053-.228-.022-.18-.176a2.123,2.123,0,0,1,.166-.387q2.332-4.331,4.667-8.661a1.252,1.252,0,0,1,.221-.292L20.967,13.008q3.656-3.656,7.311-7.314c.3-.3.3-.3.588,0l1.174,1.175a.454.454,0,0,1,.147.2" transform="translate(0.668 1.603)"/>
    <path id="Path_5762" data-name="Path 5762" d="M27.547,25.507a2.01,2.01,0,0,0-2.041,2.035A2.037,2.037,0,0,0,27.534,29.6,2.082,2.082,0,0,0,29.6,27.568a2.039,2.039,0,0,0-2.056-2.061m4.514,2.784a3.936,3.936,0,0,1-6.4,2.89A21.1,21.1,0,0,1,23.832,29.4q-3.532-3.521-7.057-7.048c-.176-.175-.193-.274-.008-.459q2.576-2.555,5.131-5.13c.176-.177.274-.16.441.006q4.285,4.3,8.576,8.585a3.979,3.979,0,0,1,1.146,2.937" transform="translate(4.877 4.876)"/>
  </g>
</svg>
