<svg xmlns="http://www.w3.org/2000/svg" xmlns:xlink="http://www.w3.org/1999/xlink" width="36.876" height="36.443" viewBox="0 0 36.876 36.443">
  <defs>
    <clipPath id="clip-path">
      <rect id="Rectangle_65955" data-name="Rectangle 65955" width="36.876" height="36.443"/>
    </clipPath>
  </defs>
  <g id="Group_149701" data-name="Group 149701" clip-path="url(#clip-path)">
    <path id="Path_5767" data-name="Path 5767" d="M3.864,21.635v1.2H2.44L1.28,23.927v2.657H.595l-.581.572c0,2.344-.474,1.927,4.167,1.927,1.318,0,8.648-.052,9.333.052,1.477.261.844,1.615,1.477,2.084l.791.417H21.16a1.288,1.288,0,0,0,1.108-1.2c.106-.781.316-1.145,1.055-1.3.791-.156,12.815.053,12.919-.052l.634-.52V27.155l-.528-.572h-.738c0-.99.212-3.022-.369-3.386a3.431,3.431,0,0,0-2.162-.364v-1.2c0-1.927-2.056-2.865-3.691-3.334l-5.273-1.77c-.263.156-4.8,4.792-5.643,5.573a26.148,26.148,0,0,1-2.479-2.4c-.685-.834-2.373-2.344-3.164-3.177a12.862,12.862,0,0,1-2.479.989c-1.634.469-3.955.938-5.22,1.876a2.8,2.8,0,0,0-1.266,2.24M2.6,24.083H14.569a4.177,4.177,0,0,1,2.531.781L18.524,26.9a3.828,3.828,0,0,1,1.318-2.032l2.531-.781h11.97v2.5H23.217a3.823,3.823,0,0,0-2.742,1.51l-.527.989H16.942a3.541,3.541,0,0,0-1.159-1.667l-2.109-.833H2.6Z" transform="translate(0 4.808)"/>
    <path id="Path_5768" data-name="Path 5768" d="M14.183,1.288c-2.584,0-4.272.99-5.063,3.333C8.328,7.07,8.7,8.007,8.434,9.1c-.053.364-.263.364-.475.625l-.474,1.667A4.892,4.892,0,0,0,7.959,14a8.805,8.805,0,0,1-.9,3.177,6.9,6.9,0,0,1-2.109,1.979v.156a9.037,9.037,0,0,0,4.113.781,11.517,11.517,0,0,0,3.217-.573c.369-.052.528.261.738.417l3.692,1.406a6.779,6.779,0,0,0,3.005-.625c.316-.208.633-.364.949-.573,1.213-.728.475-.833,1.688-.469a10.091,10.091,0,0,0,5.959-.052l.79-.469a5.166,5.166,0,0,1-1.687-1.407A3.984,3.984,0,0,1,27,17.174L26.1,14c0-.053.263-.573.316-.782a4.373,4.373,0,0,0-.475-3.645c-.369-.417-.263-1.459-.369-2.187a11.133,11.133,0,0,0-1.106-3.855,2.627,2.627,0,0,0-.422-.729,6.375,6.375,0,0,0-2-1.771L18.032.039A5.864,5.864,0,0,0,15.237.4a1.979,1.979,0,0,0-1.055.886M9.173,11.809c0-1.876.791-1.093,2.215-2.135A3.01,3.01,0,0,0,12.126,9c1.318-1.614,1.108-1.614,1.793-3.853a2.663,2.663,0,0,1,.58.52c2.954,2.969,7.383,1.146,9.28,4.011.159.259.212.52.422.676.422.261.685.156.685,1.667,0,1.668-1,.834-1.581,2.293a10.507,10.507,0,0,1-3.376,4.322l-2.9,1.095c-2,0-4.061-1.823-4.9-3.021-1.636-2.136-1.108-2.813-2.479-3.491-.475-.208-.475-.884-.475-1.406" transform="translate(1.441 0)"/>
    <path id="Path_5769" data-name="Path 5769" d="M10.836,8.974v.261L12,10.328h.316L13.42,9.235V8.922L12.313,7.776c-.844,0-1.477.364-1.477,1.2" transform="translate(3.152 2.262)"/>
    <path id="Path_5770" data-name="Path 5770" d="M15.779,8.974v.261l1.108,1.093H17.2L18.31,9.235V8.922L17.2,7.776c-.791,0-1.424.364-1.424,1.2" transform="translate(4.59 2.262)"/>
    <path id="Path_5771" data-name="Path 5771" d="M12.593,12.571c.21.937,2.109,1.51,2.373,1.406l2.056-1.406c-.263-.208-.052-.156-.421-.1a6.384,6.384,0,0,1-3.006.1c-.422-.052-.738-.261-1,0" transform="translate(3.663 3.613)"/>
  </g>
</svg>
