<svg id="Group_149607" data-name="Group 149607" xmlns="http://www.w3.org/2000/svg" xmlns:xlink="http://www.w3.org/1999/xlink" width="91.596" height="64.012" viewBox="0 0 91.596 64.012">
  <defs>
    <clipPath id="clip-path">
      <rect id="Rectangle_65889" data-name="Rectangle 65889" width="91.596" height="64.012"/>
    </clipPath>
  </defs>
  <g id="Group_149517" data-name="Group 149517" transform="translate(0 0)" clip-path="url(#clip-path)">
    <path id="Path_5405" data-name="Path 5405" d="M60.593,8.683a2.389,2.389,0,0,1,.958-.588,1.387,1.387,0,0,0,.694-.59A2.531,2.531,0,0,1,63.72,6.372a.393.393,0,0,0,.318-.541c-.1-.417.127-.528.488-.481a2.178,2.178,0,0,0,1.309-.117.714.714,0,0,1,.677.157A7.771,7.771,0,0,0,68.1,6.11c.693.249.76.454.373,1.1-.041.071-.1.134-.062.233.231-.011.3-.224.452-.318.254-.155.484-.209.618.145.035.1.046.2.184.212.721.078.921.615,1.037,1.21a2.294,2.294,0,0,0,1.345,1.138c.189,0,.276-.129.35-.263.186-.336.412-.383.767-.219.475.223.553.15.571-.394.005-.122,0-.256.148-.288.117-.025.182.074.24.159a8.943,8.943,0,0,0,.532.938c.417.484.732.528,1.21.117a.586.586,0,0,1,.613-.11c.562.155.82-.035.857-.626.012-.187.092-.237.247-.249.452-.039.348-.269.173-.516-.118-.166-.309-.341-.148-.546s.419-.118.622-.035a3.112,3.112,0,0,1,1.334,1.1.689.689,0,0,1,.1.585c-.14.6.012.848.594,1.046a2.856,2.856,0,0,0,.3.087.676.676,0,0,1,.587.9,1.224,1.224,0,0,0,.961,1.318c.265.049.376-.021.256-.292-.048-.11-.124-.207-.177-.315-.1-.194-.279-.4-.1-.613s.415-.108.629-.049a5.328,5.328,0,0,1,.684.223,4.852,4.852,0,0,0,2.009.359c.237,0,.249-.1.249-.274,0-.3.15-.373.4-.223.327.2.541.062.742-.2.136-.177.311-.389.548-.325.581.152.44-.177.368-.489-.025-.108-.11-.249.037-.323s.214.064.3.14c.311.272.694.521.829.9.147.417.115.786.687,1.027.337.141.627.555,1.09.709.33.111.353.613.544.924.042.067.005.216.053.24.627.346.246.726.058,1.111a1.377,1.377,0,0,0-.136.493,1.315,1.315,0,0,1-.493.928,14.849,14.849,0,0,0-2.564,2.52,1.066,1.066,0,0,1-.444.345A6.458,6.458,0,0,0,85.208,22a1.788,1.788,0,0,0-.378.892.724.724,0,0,1-.6.684,2.6,2.6,0,0,0-1.394.82,1.326,1.326,0,0,1-.458.325,2.922,2.922,0,0,0-1.27,1.168,1.974,1.974,0,0,1-1.4.938,9.672,9.672,0,0,0-3.636,1.511,4.779,4.779,0,0,1-1.027.472,11.26,11.26,0,0,0-3.785,2.343c-.919.876-1.963,1.608-2.894,2.476a6.692,6.692,0,0,0-1.836,2.93c-.035.111-.125.233.011.323.41.272.26.634.145.968a3.968,3.968,0,0,1-.38.785c-1.548,2.495-3.115,4.979-4.656,7.48q-2.131,3.464-4.218,6.958c-.6,1-.581.993-1.689.567a9.612,9.612,0,0,1-2.961-2.186,9.581,9.581,0,0,1-1.141-1.113,2.572,2.572,0,0,0-2.659-.967c-.97.2-2.094.371-2.543,1.53a.909.909,0,0,0-.094.4c.08.654-.323.822-.85.91a18.84,18.84,0,0,0-4.234,1.272c-1.133.482-2.212,1.094-3.3,1.677a4.941,4.941,0,0,0-1.438,1.311,1.323,1.323,0,0,0-.27,1.018,13.437,13.437,0,0,0,.373,1.868,1.935,1.935,0,0,0,.944,1.292,2.437,2.437,0,0,1,.479.385c.131.125.33.279.164.474-.14.163-.316.014-.459-.076-.173-.11-.327-.29-.514-.336a2.708,2.708,0,0,1-1.8-1.267,1.046,1.046,0,0,0-.968-.385,1.5,1.5,0,0,1-.97-.288,2.629,2.629,0,0,0-1.544-.488,3.14,3.14,0,0,1-1.338-.336,1.75,1.75,0,0,0-1.152-.148,1.7,1.7,0,0,1-1.977-.712,1.18,1.18,0,0,0-.859-.415A7.406,7.406,0,0,0,24.223,57c-.578.078-1.15.212-1.732.262a3.028,3.028,0,0,0-2.767,2.1.736.736,0,0,1-.537.442c-.578.163-1.157.33-1.744.451-.35.069-.5.216-.5.576a6.691,6.691,0,0,1-.134,1.537c-.134.58-.306.7-.855.525s-.876.332-1.35.371a1.864,1.864,0,0,0-.032.339c-.037.4-.24.525-.521.265a1.323,1.323,0,0,0-1.341-.254,4.308,4.308,0,0,1-2.772-.247c-.339-.145-.606-.186-.864.14a.728.728,0,0,1-.811.166A10.187,10.187,0,0,1,6.782,63.1a4.034,4.034,0,0,0-1.076-.337.918.918,0,0,0-.769.208c-.527.466-.677.481-1.179-.009a14.916,14.916,0,0,1-2.034-2.385,12.192,12.192,0,0,1-1.705-4.5C-.057,55.7.1,55.695.368,55.8c.143.057.288.111.431.17.385.154.707.17.829-.339a.428.428,0,0,1,.17-.249,7.055,7.055,0,0,0,1.871-1.24c.071-.078.136-.03.216.027.368.26.641.191.894-.216A2.745,2.745,0,0,0,5.046,52.5a2.423,2.423,0,0,1,1.689-2.445c.178-.064.343-.163.521-.223a.46.46,0,0,0,.337-.548,11,11,0,0,1-.012-2.21c.053-.378.256-.505.636-.659a9.049,9.049,0,0,0,2.516-1.232,10.276,10.276,0,0,0,1.408-1.265,1.526,1.526,0,0,1,.8-.447,1.925,1.925,0,0,0,1.267-.8c.171-.267.528-.293.83-.362.373-.087.684-.21.436-.693a.492.492,0,0,1,.011-.4c.076-.223.482-.392.046-.709-.2-.147-.313-.346-.62-.368a1.25,1.25,0,0,1-.931-.585,1.96,1.96,0,0,0-.525-.615c-.267-.173-.166-.422.005-.622a2.967,2.967,0,0,1,.783-.578,5.063,5.063,0,0,0,2.119-2.182,1.049,1.049,0,0,1,.942-.694c.311-.007.477-.239.581-.512a2.236,2.236,0,0,0,.032-1.315c-.159-.7.313-1.1.995-.885.636.2.783.125,1.037-.509a7.631,7.631,0,0,0,.428-2.112.63.63,0,0,0-.442-.723c-.466-.175-.933-.346-1.4-.511a.78.78,0,0,0-.6.042c-.263.12-.542.207-.816.307-1.069.389-1.447-.2-1.624-1.166a1.617,1.617,0,0,0-.214-.719.892.892,0,0,1,.025-.843,10.463,10.463,0,0,0,.47-1.523c.044-.237.216-.355.41-.491a2.961,2.961,0,0,0,1.375-1.9c.062-.359.233-.532.6-.435a.8.8,0,0,0,.756-.219,5.172,5.172,0,0,1,1.348-.935.33.33,0,0,0,.12-.583,1.084,1.084,0,0,1-.23-.864,1.056,1.056,0,0,0-.523-1.138c-.03-.016-.069-.037-.078-.065-.24-.682-.88-1.025-1.311-1.544-.244-.292-.239-.514.118-.693.076-.039.145-.092.217-.136,1.265-.779,1.308-.781,2.578-.1.133-.078.048-.18.023-.265a2.414,2.414,0,0,1,.728-2.666c.27-.239.262-.387-.106-.461a1.194,1.194,0,0,0-.357-.046,2.938,2.938,0,0,1-2.371-1.117c-.2-.182-.352-.339-.657-.3a.446.446,0,0,1-.523-.392c-.03-.253.239-.256.406-.306.2-.057.438-.159.6-.092.463.2.818-.1,1.21-.194a.629.629,0,0,0,.375-.951A6.238,6.238,0,0,0,20,7.844c-.145-.194-.353-.412-.316-.633.1-.627-.32-.915-.691-1.263a3.675,3.675,0,0,1-1.129-1.809c-.087-.35-.057-.656.362-.777.242-.071.325-.288.44-.479a.466.466,0,0,1,.6-.256c.269.1.194.322.138.525-.087.315.049.426.362.454a12.087,12.087,0,0,0,3.113-.113c.7-.115,1.341.445.959,1.152A.7.7,0,0,0,24,5.453a2.849,2.849,0,0,0,1.184.885,2.855,2.855,0,0,1,1.339,1.08c.447.679.846.673,1.345,0A3.309,3.309,0,0,1,29.671,6.2c.721-.2,1.306.244,1.91.534a.352.352,0,0,1,.159.451,1,1,0,0,0,.131.883c.129.274.21.6.654.292.235-.163.528.053.763.193A2.053,2.053,0,0,0,34.4,8.89c.574-.005.834.458.928.945s.262.707.779.583c.382-.092.521.177.578.493.067.357.249.355.511.193a3.038,3.038,0,0,0,.825-.841A1.422,1.422,0,0,1,39.7,9.724a5.754,5.754,0,0,1,1.532.719c.442.274.866.408,1.288-.058a.835.835,0,0,1,.661-.247.951.951,0,0,0,1.074-.611,1.685,1.685,0,0,0-.115-1.672,2.553,2.553,0,0,0-.751-.617,2.766,2.766,0,0,1-.806-.714c-.159-.226-.253-.461-.62-.311-.177.072-.3-.133-.364-.3a.923.923,0,0,1,.193-.959c.223-.277.491-.2.8-.14a3.142,3.142,0,0,0,2.756-.61c.606-.512.6-.519.466-1.235A2.184,2.184,0,0,1,47.1.679.914.914,0,0,1,47.938.8c.293.178.583.364.862.565a.9.9,0,0,0,1.186-.039C50.4,1,50.793.636,51.2.3a1.8,1.8,0,0,1,2.288.258c.184.239.049.332-.173.389-.157.041-.4.03-.348.274.049.221.256.1.39.062.376-.1.406.062.341.378-.127.6.018.724.6.546.113-.035.224-.085.337-.127.714-.263.834-.182.816.578a1.732,1.732,0,0,0,.466,1.062,3.917,3.917,0,0,1,.845,1.742c.048.313.072.613-.4.564-.085-.009-.18,0-.221.092a.161.161,0,0,0,.09.214c.627.3.9.917,1.3,1.429.125.163.244.334.38.486a1.137,1.137,0,0,0,1.8.106c.6-.527.689-.5.883.332" transform="translate(0 -0.001)"/>
  </g>
</svg>
