<svg xmlns="http://www.w3.org/2000/svg" xmlns:xlink="http://www.w3.org/1999/xlink" width="38.614" height="31.575" viewBox="0 0 38.614 31.575">
  <defs>
    <clipPath id="clip-path">
      <rect id="Rectangle_65622" data-name="Rectangle 65622" width="38.614" height="31.575"/>
    </clipPath>
  </defs>
  <g id="Group_149636" data-name="Group 149636" transform="translate(0 0)">
    <g id="Group_148733" data-name="Group 148733" transform="translate(0 0)" clip-path="url(#clip-path)">
      <path id="Path_245" data-name="Path 245" d="M5.807,17.756c.869,0,1.738-.01,2.606.005.334.005.506-.083.577-.447a7.614,7.614,0,0,1,.719-2.2c.189-.349.042-.512-.238-.674A4.649,4.649,0,0,0,7.757,13.9a4.421,4.421,0,0,0-5,3.29c-.086.408-.034.593.441.577.867-.03,1.738-.009,2.605-.009m10.212,1.59c1.321,0,2.641,0,3.961,0,.2,0,.418.05.519-.222a.9.9,0,0,0-.483-1.292c-.18-.1-.363-.2-.539-.312a1.314,1.314,0,0,1-.485-2.022c.354-.624.7-1.252,1.071-1.865.236-.387.121-.539-.285-.68a6.966,6.966,0,0,0-2.63-.253,6.12,6.12,0,0,0-5.693,6.07c.008.443.163.592.6.586,1.32-.02,2.641-.008,3.961-.008m19.472-3.671c-.188-.288-.285-.718-.615-.937-.249-.165-.48.133-.7.255a1.317,1.317,0,0,1-1.847-.173,4.865,4.865,0,0,0-1.7-1,1.584,1.584,0,0,1-1.269-1.8c.011-.182.033-.384-.17-.5a.817.817,0,0,0-1.261.7,1.365,1.365,0,0,1-1.11,1.552,5.889,5.889,0,0,0-1.673.935c-.968.77-1.12.776-2.219.152-.145-.083-.316-.253-.459-.136a1.96,1.96,0,0,0-.608,1c-.094.332.29.387.5.509a1.41,1.41,0,0,1,.832,1.768,7.113,7.113,0,0,0-.013,1.978c.137,1.068.041,1.37-.92,1.872-.63.328-.339.641-.142,1.033.22.433.428.568.9.258.885-.578,1.242-.518,2.079.161a4.367,4.367,0,0,0,1.557.907,1.564,1.564,0,0,1,1.274,1.844c-.014.178-.067.433.152.5a1.708,1.708,0,0,0,1.111-.005c.274-.108.157-.433.164-.667A1.466,1.466,0,0,1,30.5,24.264a4.34,4.34,0,0,0,1.574-.876,1.637,1.637,0,0,1,2.376-.188c.13.1.315.245.457.09a2.012,2.012,0,0,0,.56-1.029c.044-.3-.334-.367-.554-.484a1.408,1.408,0,0,1-.819-1.631,5.292,5.292,0,0,0,.067-1.8c-.225-1.36-.147-1.506,1.039-2.247.14-.086.319-.147.286-.423M0,18.435a6.957,6.957,0,0,1,5.3-6.909,6.945,6.945,0,0,1,5.561.817.765.765,0,0,0,1.1-.1,8.943,8.943,0,0,1,11.474-.164.809.809,0,0,0,1.028.085,1.459,1.459,0,0,0,.92-1.642c-.066-1.217.39-1.613,1.621-1.608,1.171,0,2.342,0,3.513,0a1.282,1.282,0,0,1,1.448,1.372.582.582,0,0,1,0,.169c-.263,1.045.409,1.486,1.188,1.876a.539.539,0,0,0,.579-.038,10.611,10.611,0,0,1,1.086-.608,1.192,1.192,0,0,1,1.576.488c.7,1.167,1.379,2.343,2.028,3.537a1.244,1.244,0,0,1-.508,1.754.659.659,0,0,1-.146.086c-1.064.307-1.076,1.141-1.03,2.019a.663.663,0,0,0,.467.58c1.572.737,1.764,1.462.781,2.994-.509.794-.941,1.636-1.42,2.45a1.351,1.351,0,0,1-2.13.56l-.1-.058a1.531,1.531,0,0,0-2.185.2.612.612,0,0,0-.184.511c-.006.358.013.719-.02,1.076a1.286,1.286,0,0,1-1.335,1.269q-1.955.036-3.911,0a1.289,1.289,0,0,1-1.341-1.373.579.579,0,0,1,0-.169c.29-1.106-.472-1.522-1.255-1.932a.44.44,0,0,0-.476.033c-.292.175-.584.348-.883.509a1.289,1.289,0,0,1-1.927-.513c-.657-1.1-1.315-2.207-1.918-3.34a.762.762,0,0,0-.789-.466c-2.495.011-4.988.006-7.481.005-1.217,0-1.407-.123-1.779-1.279-.118-.367-.38-.31-.633-.311q-3.286-.006-6.573,0A1.632,1.632,0,0,1,.32,19.834,1.937,1.937,0,0,1,0,18.435" transform="translate(0 2.406)"/>
      <path id="Path_246" data-name="Path 246" d="M15.2,8.846a3.1,3.1,0,0,0,3.174-3.077,3.143,3.143,0,1,0-6.286-.05A3.08,3.08,0,0,0,15.2,8.846m.006,2.554A5.711,5.711,0,0,1,9.5,5.713a5.719,5.719,0,1,1,11.437.036A5.7,5.7,0,0,1,15.208,11.4" transform="translate(2.566 -0.001)"/>
      <path id="Path_247" data-name="Path 247" d="M8.335,7.372a1.926,1.926,0,0,0-1.923-1.95A1.876,1.876,0,0,0,4.5,7.358,1.865,1.865,0,0,0,6.4,9.3,1.913,1.913,0,0,0,8.335,7.372m-1.9,4.491a4.5,4.5,0,1,1-.029-9.006A4.586,4.586,0,0,1,10.93,7.375a4.581,4.581,0,0,1-4.492,4.489" transform="translate(0.515 0.771)"/>
      <path id="Path_248" data-name="Path 248" d="M24.942,17.763A1.461,1.461,0,0,0,23.5,16.206,1.51,1.51,0,0,0,21.912,17.7a1.467,1.467,0,0,0,1.518,1.544,1.436,1.436,0,0,0,1.513-1.481m-5.591-.042a4.09,4.09,0,0,1,4.13-4.076,4.131,4.131,0,0,1,4.059,4.108,4.2,4.2,0,0,1-4.092,4.1,4.148,4.148,0,0,1-4.1-4.133" transform="translate(5.227 3.685)"/>
    </g>
  </g>
</svg>
