<svg id="Group_148732" data-name="Group 148732" xmlns="http://www.w3.org/2000/svg" xmlns:xlink="http://www.w3.org/1999/xlink" width="41.686" height="41.748" viewBox="0 0 41.686 41.748">
  <defs>
    <clipPath id="clip-path">
      <rect id="Rectangle_65621" data-name="Rectangle 65621" width="41.686" height="41.747"/>
    </clipPath>
  </defs>
  <g id="Group_148731" data-name="Group 148731" transform="translate(0 0)" clip-path="url(#clip-path)">
    <path id="Path_233" data-name="Path 233" d="M5.016,40.3c.64,0,1.281-.022,1.918.008.431.019.565-.13.559-.561-.019-1.982-.017-3.963,0-5.944a2.48,2.48,0,0,1,2.034-2.512,3.542,3.542,0,0,1,.836-.087c.205,0,.329-.088.329-.3q0-1.917,0-3.837c0-.265-.143-.3-.373-.242-.331.087-.672.143-1,.222A12.662,12.662,0,0,0,3.38,29.968a5.774,5.774,0,0,0-1.8,3.157,14.146,14.146,0,0,0-.008,3.543,23.622,23.622,0,0,0,.254,2.51A1.2,1.2,0,0,0,3.191,40.3c.608.008,1.217,0,1.825,0m13.028-9.091c1.84,0,3.679-.006,5.519.005.35,0,.5-.088.5-.472-.017-1.606-.008-3.211-.006-4.818a.646.646,0,0,0-.153-.52,5.9,5.9,0,0,1-1.151-1.694c-.119-.238-.218-.3-.449-.112a4.75,4.75,0,0,1-1.179.659,7.865,7.865,0,0,1-6.774-.373c-.357-.178-.549-.2-.765.2a5.193,5.193,0,0,1-1.26,1.611.62.62,0,0,0-.189.549c0,1.481.014,2.962-.008,4.442-.006.414.13.536.536.533,1.793-.018,3.586-.008,5.379-.008m.586-7.823a5.317,5.317,0,0,0,4.207-2.247A15.328,15.328,0,0,0,25.674,15.6c.5-1.638.622-1.29-.968-1.624-1-.209-.831-.306-1.208.632-.059.145-.126.285-.2.426a1.06,1.06,0,0,1-1.351.707,26.13,26.13,0,0,0-7.828-.08,1.279,1.279,0,0,1-1.106-.37,2.766,2.766,0,0,1-.654-1.121c-.075-.21-.171-.361-.44-.293-.423.108-.851.2-1.277.293-.229.05-.293.168-.25.405a14.64,14.64,0,0,0,2.41,6.08,6.58,6.58,0,0,0,5.824,2.736m7.98-13.225a12.775,12.775,0,0,0-.716-4.5,4.889,4.889,0,0,0-2.126-2.7,11.174,11.174,0,0,0-10.419-.431,4.662,4.662,0,0,0-2.742,3.118,19.251,19.251,0,0,0-.636,6.708c.019.358.19.442.529.363.789-.186,1.587-.334,2.377-.515.31-.071.466.017.536.328.084.364.217.717.293,1.083.1.484.375.6.844.544a24.857,24.857,0,0,1,7.125.078.405.405,0,0,0,.53-.31c.139-.431.319-.85.419-1.29.09-.4.283-.5.661-.415.915.194,1.839.348,2.75.553.361.082.45-.009.488-.366.068-.654.08-1.306.087-2.245M13.846,41.742q-5.289,0-10.58,0A2.693,2.693,0,0,1,.384,39.257a43.222,43.222,0,0,1-.378-4.425,7.559,7.559,0,0,1,3.214-6.618A13.928,13.928,0,0,1,9,25.679a4.51,4.51,0,0,0,3.492-2.591.491.491,0,0,0-.047-.631A14.357,14.357,0,0,1,9.1,15.352a22.946,22.946,0,0,1-.612-3.373,22.883,22.883,0,0,1,.468-5.62c.079-.4.182-.791.3-1.179a5.769,5.769,0,0,1,3.053-3.727,12.523,12.523,0,0,1,11.946.126,7.024,7.024,0,0,1,3.408,4.975,14.433,14.433,0,0,1,.106,7.187c-.808,2.925-1.71,5.885-3.785,8.262a.6.6,0,0,0-.111.717,4.739,4.739,0,0,0,1.5,2.052.588.588,0,0,1,.2.835,11.882,11.882,0,0,0-.929,2.491,3.2,3.2,0,0,0,1.97,3.61c.195.079.45.116.378.431-.066.3-.189.533-.554.508-.155-.01-.312,0-.468,0H10.608a5.878,5.878,0,0,0-.654.019,1.091,1.091,0,0,0-1.027,1.083c-.018,2.044-.008,4.088-.014,6.132,0,.3.121.435.419.419.14-.008.282,0,.422,0,4.713,0,9.425.006,14.138-.01a.868.868,0,0,1,.985.609c.334.858.377.841-.544.841H13.846" transform="translate(0 0)"/>
    <path id="Path_234" data-name="Path 234" d="M21.575,35.872a.918.918,0,0,0,.507.954.928.928,0,0,0,1.037-.2,1.444,1.444,0,0,0,.424-.66c.8-2.045,1.621-4.086,2.415-6.135a2.12,2.12,0,0,1,1.706-1.483,3.376,3.376,0,0,1,1.747.429c.619.231.872.172,1.156-.435.27-.577.455-1.193.7-1.784.127-.313.061-.475-.268-.6-1.039-.385-2.066-.8-3.1-1.2q-2.418-.942-4.835-1.887c-.187-.073-.387-.187-.511.094-.28.642-.6,1.272-.832,1.931-.212.594-.051.853.525,1.086.217.088.433.175.649.265a2.048,2.048,0,0,1,1.221,2.925c-.763,1.945-1.541,3.884-2.309,5.825a2.107,2.107,0,0,0-.232.865m5.782-18.658a.7.7,0,0,1-.664-.975c.181-.514.4-1.016.612-1.518.125-.293.164-.519-.219-.66-.334-.124-.551-.168-.73.246-.971,2.247-1.966,4.482-2.964,6.716-.129.287-.064.413.218.522q3.945,1.527,7.884,3.074c.294.116.419.032.511-.251.189-.579.408-1.146.608-1.72.613-1.766,1.217-3.536,1.84-5.3.161-.454-.184-.472-.437-.593-.28-.135-.422-.031-.524.243-.2.54-.423,1.073-.651,1.6a.678.678,0,0,1-.884.468.7.7,0,0,1-.412-.956c.15-.459.324-.911.5-1.362.252-.658.25-.641-.413-.911-.308-.125-.437-.056-.552.247-.336.889-.7,1.766-1.055,2.651-.2.51-.543.721-.951.582s-.562-.561-.361-1.092q.445-1.181.906-2.356c.279-.714.277-.693-.433-.975-.325-.129-.45-.019-.549.266-.181.515-.373,1.025-.571,1.533a.723.723,0,0,1-.7.517M29.912,30.4a4,4,0,0,1-1.38-.414c-.858-.331-1.007-.256-1.344.619q-1.166,3.011-2.356,6.011a2.707,2.707,0,0,1-1.226,1.423,2.177,2.177,0,0,1-2.47-.1,2.3,2.3,0,0,1-.965-2.3,12.551,12.551,0,0,1,1-2.911c.54-1.4,1.1-2.786,1.645-4.18.195-.5.084-.735-.427-.948-.288-.12-.581-.228-.87-.344a1.985,1.985,0,0,1-1.267-2.2,8.239,8.239,0,0,1,.824-2.327Q23.1,18.1,25.15,13.48c.468-1.058.482-1.528,2.043-.893,2.746,1.114,5.527,2.138,8.292,3.2a.847.847,0,0,1,.581,1.249q-1.957,5.66-3.912,11.321A3.178,3.178,0,0,1,30.721,30.2a1.563,1.563,0,0,1-.809.2" transform="translate(5.527 3.374)"/>
    <path id="Path_235" data-name="Path 235" d="M25.8,34.264H24.494c-.294,0-.438-.082-.21-.375a.574.574,0,0,0,.107-.153c.282-.892.947-.983,1.757-.921,1.72.13,2.322-.359,2.419-2.244.046-.9.133-1.8.181-2.7.015-.282.115-.438.4-.463a2.274,2.274,0,0,0,.37-.057c.675-.166.7-.166.66.52-.075,1.29-.154,2.579-.28,3.865a3.011,3.011,0,0,1-2.79,2.523c-.435.018-.872,0-1.307,0Z" transform="translate(6.631 7.478)"/>
    <path id="Path_236" data-name="Path 236" d="M15.408,28.5c-1.092,0-2.183,0-3.275,0a3.172,3.172,0,0,1-.6-.048.7.7,0,0,1,.014-1.381,3.584,3.584,0,0,1,.651-.054q3.181-.006,6.361,0a4.552,4.552,0,0,1,.79.069.695.695,0,0,1,.031,1.35,2.689,2.689,0,0,1-.649.065c-1.106.006-2.214,0-3.321,0" transform="translate(2.999 7.411)"/>
    <path id="Path_237" data-name="Path 237" d="M15.421,30.487q-1.755,0-3.508,0a1.692,1.692,0,0,1-.463-.04.675.675,0,0,1,.1-1.329,1.023,1.023,0,0,1,.14-.006q3.718,0,7.437,0c.48,0,.748.237.766.635a.694.694,0,0,1-.733.735c-.124.008-.248,0-.373,0Z" transform="translate(2.999 7.986)"/>
    <path id="Path_238" data-name="Path 238" d="M32.747,23.97c0,.655.008,1.31,0,1.965-.008.5-.254.782-.668.793-.433.011-.7-.274-.706-.8-.01-.952-.02-1.9,0-2.853a5.3,5.3,0,0,1,.487-1.652c.09-.245.287-.263.5-.154a.7.7,0,0,1,.385.692c0,.672,0,1.342,0,2.012" transform="translate(8.603 5.817)"/>
    <path id="Path_239" data-name="Path 239" d="M32.745,30.585c0,.421.011.841,0,1.26a.685.685,0,0,1-.675.74.67.67,0,0,1-.692-.721c-.018-.855-.018-1.713,0-2.568a.694.694,0,0,1,.7-.723.7.7,0,0,1,.669.749c.013.421,0,.841,0,1.262" transform="translate(8.604 7.839)"/>
    <path id="Path_240" data-name="Path 240" d="M30.991,29.957c0,.217.014.436,0,.651a.7.7,0,0,1-1.386.11,4.125,4.125,0,0,1,0-1.571.7.7,0,0,1,1.384.113c.014.232,0,.465,0,.7" transform="translate(8.1 7.84)"/>
    <path id="Path_241" data-name="Path 241" d="M30.977,26.867a6.077,6.077,0,0,1-.006.747.66.66,0,0,1-.585.586.63.63,0,0,1-.721-.4.97.97,0,0,1,.1-1.1c.215-.265.4-.558.591-.84.069-.1.1-.252.256-.236a.413.413,0,0,1,.322.306,2.608,2.608,0,0,1,.046.928" transform="translate(8.104 7.032)"/>
    <path id="Path_242" data-name="Path 242" d="M32.752,26.839a2.679,2.679,0,0,1-.027.418.638.638,0,0,1-.65.556.615.615,0,0,1-.673-.522,3,3,0,0,1-.031-.742.672.672,0,0,1,.691-.72.682.682,0,0,1,.68.73c.006.093,0,.187,0,.28Z" transform="translate(8.604 7.086)"/>
    <path id="Path_243" data-name="Path 243" d="M30.978,32.094a.672.672,0,0,1-.737.666.711.711,0,0,1-.677-.695.718.718,0,0,1,.706-.669.672.672,0,0,1,.707.7" transform="translate(8.111 8.613)"/>
    <path id="Path_244" data-name="Path 244" d="M20.3,8.521a.737.737,0,0,1-1.03.668,16.325,16.325,0,0,0-2.746-.526,12.311,12.311,0,0,0-4.713.418c-.134.04-.265.092-.4.124a.723.723,0,0,1-.911-.442.7.7,0,0,1,.445-.906,8.743,8.743,0,0,1,2.122-.543,15.59,15.59,0,0,1,6.52.459c.48.139.71.391.715.749" transform="translate(2.87 1.964)"/>
  </g>
</svg>
