<svg id="Group_148730" data-name="Group 148730" xmlns="http://www.w3.org/2000/svg" xmlns:xlink="http://www.w3.org/1999/xlink" width="41.432" height="17.332" viewBox="0 0 41.432 17.332">
  <defs>
    <clipPath id="clip-path">
      <rect id="Rectangle_65620" data-name="Rectangle 65620" width="41.432" height="17.332"/>
    </clipPath>
  </defs>
  <g id="Group_148729" data-name="Group 148729" transform="translate(0 0)" clip-path="url(#clip-path)">
    <path id="Path_228" data-name="Path 228" d="M0,15.693v-.128c.026-.032.027-.078.066-.1a1.055,1.055,0,0,0,.118-.117.709.709,0,0,1,.554-.176.667.667,0,0,1,.165.011,7.664,7.664,0,0,1,.94.241,5.669,5.669,0,0,0,.843.139,2.7,2.7,0,0,0,.788-.041,2.889,2.889,0,0,0,.825-.327,3.756,3.756,0,0,0,.668-.489c.059-.037.1-.092.155-.133a1.236,1.236,0,0,0,.2-.22.21.21,0,0,1,.043-.056.818.818,0,0,0,.172-.21,3.009,3.009,0,0,0,.236-.388A1.894,1.894,0,0,0,6.03,12.9a2.683,2.683,0,0,0-.07-1.076,2.509,2.509,0,0,0-.074-.245c-.019-.045.026-.1-.03-.142a.061.061,0,0,1-.016-.029c0-.054,0-.111-.076-.122a.076.076,0,0,1-.037-.056.135.135,0,0,0-.107-.146,4.052,4.052,0,0,1-.271-.305.076.076,0,0,0-.073-.058.4.4,0,0,1-.181-.158c-.01-.07-.019-.14-.12-.092a1.864,1.864,0,0,1-.32-.2.857.857,0,0,0-.1-.056.138.138,0,0,1-.032-.016C4.22,10,3.9,9.819,3.586,9.625c-.051-.032-.1-.07-.15-.1s-.126-.091-.19-.135a3.764,3.764,0,0,0-.671-.459,2.18,2.18,0,0,0-.463-.187,1.1,1.1,0,0,1-.557-.389,1.923,1.923,0,0,1-.232-.51c.058-.095-.021-.157-.066-.217C1.086,7.4.87,7.215.676,7.008a1.411,1.411,0,0,1-.25-.382,1.85,1.85,0,0,0-.093-.162A2.716,2.716,0,0,1,.362,5.48c.008-.063.008-.128.021-.19A10.018,10.018,0,0,1,.709,4.149a1.175,1.175,0,0,0,.082-.186.16.16,0,0,1,.014-.036c.129-.228.253-.459.4-.678a.151.151,0,0,1,.019-.029c.121-.144.232-.3.359-.433a6.085,6.085,0,0,1,.8-.72c.15-.135.329-.232.488-.355.091-.045.17-.109.258-.159a.4.4,0,0,0,.18-.107c.158-.1.331-.166.492-.258Q4.313.944,4.845.755c.032-.011.062-.019.092-.032A3.052,3.052,0,0,1,5.35.594c.305-.087.613-.162.924-.232A10.623,10.623,0,0,1,7.689.2a2.765,2.765,0,0,1,.683.034A1.265,1.265,0,0,1,8.959.5a.463.463,0,0,1,.1.66.614.614,0,0,1-.3.278.856.856,0,0,0-.151.052,1.532,1.532,0,0,1-.691.065,1.628,1.628,0,0,0-.855-.048c-.135.019-.267.049-.4.074-.067-.015-.122.026-.183.043-.243.066-.488.126-.73.2h0a1.82,1.82,0,0,0-.451.294,1.672,1.672,0,0,0-.206.253,1.417,1.417,0,0,1-.548.432A2.263,2.263,0,0,1,4.2,3a.458.458,0,0,0-.115.077.748.748,0,0,0-.39.546,2.022,2.022,0,0,0-.036.807,1.651,1.651,0,0,0,.033.2h0c.06.124.1.257.161.378a3.005,3.005,0,0,0,.9.966c.076.056.15.113.221.172a1.354,1.354,0,0,1,.3.177,1.988,1.988,0,0,0,.224.11c.26.146.528.272.792.41a6.436,6.436,0,0,1,.909.515c.129.1.272.175.4.276a1.381,1.381,0,0,0,.1.095A1.228,1.228,0,0,1,8.031,8a.168.168,0,0,0,.078.1.066.066,0,0,1,.019.027c.058.143.209.2.3.311.038.051.08.114.155.122a.078.078,0,0,1,.038.037c.018.062.038.121.109.143a.1.1,0,0,1,.036.038.054.054,0,0,0,.049.052.116.116,0,0,1,.033.059.416.416,0,0,0,.082.172,2.825,2.825,0,0,1,.355.581c0,.011.018.018.029.023a.076.076,0,0,1,.023.023c.027.033,0,.085.04.115a.057.057,0,0,1,.016.027c.011.029-.015.085.052.074a1.006,1.006,0,0,1,.118.363.066.066,0,0,1-.01.04,1.916,1.916,0,0,0,.04.443,4.364,4.364,0,0,1-.044,1.1c-.029.241-.076.478-.087.722a1.471,1.471,0,0,1-.137.522.39.39,0,0,0-.115.238.073.073,0,0,1-.015.029c-.038.025-.019.07-.036.1a.049.049,0,0,1-.022.025c-.018.005-.032-.022-.033-.018a1.576,1.576,0,0,1-.466.5c-.047.041-.109.074-.1.151a.073.073,0,0,1-.03.043c-.091.04-.082.125-.091.2a.051.051,0,0,1-.022.026.5.5,0,0,0-.11.331.771.771,0,0,1-.133.253,1.224,1.224,0,0,1-.258.3,1.277,1.277,0,0,0-.485.394.063.063,0,0,1-.04.033c-.025,0-.054-.012-.076.007-.128.114-.3.151-.436.263a.977.977,0,0,1-.282.117.543.543,0,0,0-.241.162c-.049.037-.117.041-.166.081-.074.037-.164.033-.235.081-.2.048-.382.122-.577.166a8.469,8.469,0,0,1-.961.2,4.249,4.249,0,0,1-.722.081,3.485,3.485,0,0,1-.895-.019c-.136-.025-.272.015-.407-.016-.111-.085-.246-.037-.37-.059a1.052,1.052,0,0,0-.114,0,.091.091,0,0,1-.037-.016c-.018-.065.052-.029.066-.055a.539.539,0,0,1-.323-.012A5.358,5.358,0,0,1,.9,16.5a2.079,2.079,0,0,1-.634-.37.14.14,0,0,0-.091-.043C.111,16.07.1,16.009.082,15.96a.507.507,0,0,0-.048-.132c-.021-.043-.011-.092-.034-.135" transform="translate(0 0.074)"/>
    <path id="Path_229" data-name="Path 229" d="M31.257,5.2a.061.061,0,0,1-.038,0,1.714,1.714,0,0,1-.037.638.071.071,0,0,1,.052-.011,1.079,1.079,0,0,1-.07.485.751.751,0,0,0-.048.212c-.062.217-.17.416-.241.631-.107.242-.286.443-.4.682-.03.066-.113.093-.125.172l0,0a.8.8,0,0,1-.118.144c-.15.151-.282.316-.422.473h0a6.781,6.781,0,0,1-.955.734,3.631,3.631,0,0,1-.854.39,1.886,1.886,0,0,1-.616.17c-.173.01-.345.044-.52.038a.232.232,0,0,1-.194-.1.57.57,0,0,1-.069-.511c.034-.132.045-.267.084-.4a.647.647,0,0,0-.118-.482c-.043-.078-.093-.153-.137-.231a.545.545,0,0,1,.045-.407,2.078,2.078,0,0,0,.144-.436.937.937,0,0,0-.115-.412,1.027,1.027,0,0,1-.091-.393.253.253,0,0,1,.059-.165.775.775,0,0,0,.168-.7,4.274,4.274,0,0,0-.054-.455,1.354,1.354,0,0,1,.088-.561,1.673,1.673,0,0,1,.245-.517,2.643,2.643,0,0,1,.511-.581,1.561,1.561,0,0,0,.14-.129c.045-.065.142-.07.175-.15a2.125,2.125,0,0,1,1.7-.375,2.2,2.2,0,0,1,1.339.761c.059.142.169.254.224.4a3.738,3.738,0,0,1,.238.823.541.541,0,0,1,.006.261M26.33,15.939a.1.1,0,0,1,0,.044c0-.014,0-.029,0-.044M23.236.367A.2.2,0,0,1,23.3.374a.386.386,0,0,1-.067-.007M32.961,3.7a3.959,3.959,0,0,0-.184-.51c-.016-.021-.041.008-.044,0C32.69,3.084,32.6,3,32.59,2.88c-.01-.172-.041-.345-.067-.514a1.617,1.617,0,0,0-.452-.827c-.118-.129-.252-.247-.381-.366-.089-.081-.154-.212-.3-.219-.025,0-.021-.019-.023-.036a.22.22,0,0,0-.1-.129c-.01-.037-.12,0-.063-.085-.008-.058-.056-.081-.1-.11a3.853,3.853,0,0,0-.636-.366,2.611,2.611,0,0,0-.794-.2c-.092.008-.183-.014-.274-.012A.7.7,0,0,1,29.2,0h-.411A.552.552,0,0,1,28.6.014a1.6,1.6,0,0,1-.269.012,3.063,3.063,0,0,0-1.6.612.486.486,0,0,1-.113.092,3.943,3.943,0,0,0-.427.4c-.1.106-.2.213-.286.326-.036.043-.07.067-.1,0a.518.518,0,0,1-.052-.132.347.347,0,0,0-.2-.267,5.678,5.678,0,0,0-.821-.416c-.1-.048-.219-.06-.322-.106a2.5,2.5,0,0,0-.533-.12,1.315,1.315,0,0,1-.28-.06A.917.917,0,0,0,23.109.3a.1.1,0,0,0,.032.044L23.074.335a.869.869,0,0,0-.455.032.25.25,0,0,0-.148.388.726.726,0,0,1,.081.458,2.514,2.514,0,0,0,.041,1.023.566.566,0,0,1,.012.291.259.259,0,0,0,.016.125c.08.271.175.539.245.812.018.011.041.014.044.04a1.09,1.09,0,0,1,.018.456,1.807,1.807,0,0,0,.048,1.008c.052.177.122.353.181.531a.884.884,0,0,1,.062.4,2.213,2.213,0,0,1,0,.674,2.52,2.52,0,0,0-.126,1.02,1.311,1.311,0,0,1,.018.179c.071.363.172.72.249,1.082a1.681,1.681,0,0,1,.034.672c-.059.318-.107.636-.159.955a.643.643,0,0,1-.023.2c-.034.029-.025.07-.03.107a1.113,1.113,0,0,0,.036.363c.043.239.07.484.135.715a1.813,1.813,0,0,1-.011.871l-.087.474a2.177,2.177,0,0,0-.041.731c.054.07.032.166.08.236a2.1,2.1,0,0,1,.2.544.3.3,0,0,1,.011.15,4.067,4.067,0,0,1-.146.536.831.831,0,0,0-.067.411.892.892,0,0,0,.179.418,2.135,2.135,0,0,0,.581.562,4.394,4.394,0,0,0,.613.333c.041.022.092.018.135.041a1.916,1.916,0,0,1,.243.091c.114.007.217.095.34.051.023-.007,0-.044.015-.04a.6.6,0,0,0,.654-.261,1.7,1.7,0,0,0,.3-.981.064.064,0,0,1-.018-.025q.006.01.029.012c.076-.091.015-.188.015-.283-.008-.84-.01-1.681.01-2.521a5.337,5.337,0,0,1,.144-1.15c.036-.148.059-.3.1-.448a.908.908,0,0,1,.565-.554c.062-.027.113-.082.186-.082a2.84,2.84,0,0,0,.836-.217c.111-.033.2-.129.3-.155a1.1,1.1,0,0,0,.3-.1,1.962,1.962,0,0,0,.274-.162c-.01.019-.037.023-.036.049a.076.076,0,0,0,.07.029.711.711,0,0,0,.142-.058,5.8,5.8,0,0,0,.9-.608.645.645,0,0,1,.128-.109l.026-.021a.564.564,0,0,1,.1-.081l.026-.019a.555.555,0,0,1,.1-.081c.008-.007.018-.012.025-.019a.43.43,0,0,1,.074-.058l.027-.015a.206.206,0,0,0,.078-.082.219.219,0,0,1,.089-.091.287.287,0,0,0,.058-.058.21.21,0,0,1,.078-.077.4.4,0,0,0,.081-.085.555.555,0,0,1,.164-.166,1.881,1.881,0,0,0,.34-.377,6.25,6.25,0,0,0,.726-1.164,5.422,5.422,0,0,0,.254-.57A1.8,1.8,0,0,0,32.7,6.2c.008-.063.054-.111.067-.176.045-.21.091-.422.137-.632a4.448,4.448,0,0,0,.106-.8,2.314,2.314,0,0,0-.049-.9" transform="translate(8.4 0)"/>
    <path id="Path_230" data-name="Path 230" d="M9.323,2.612l-.482.212a4.583,4.583,0,0,1-.948.1.989.989,0,0,1-.74-.436,1.645,1.645,0,0,1-.246-.833A1,1,0,0,1,7.428.738C7.464.718,7.5.693,7.534.67A3.655,3.655,0,0,1,8.092.492a3.792,3.792,0,0,1,.826-.08c.005.011-.014.03.019.029.438-.01.88-.014,1.318,0,.528.014,1.056.037,1.583.06.143.007.287,0,.432.01.514.026,1.03.048,1.544.08a.407.407,0,0,0,.162-.022c.5.011,1,.051,1.505.084l.445.027c.074.076.164.047.254.052.26.018.52.012.778.043a5.2,5.2,0,0,0,.8.044,7.686,7.686,0,0,1,.834.058l.011.007c.5.14.6.536.243.911a1.934,1.934,0,0,1-.823.159c-.823.019-1.648.023-2.473.033-.016,0-.034,0-.051-.005A6.608,6.608,0,0,0,14.8,2a.927.927,0,0,1-.151.018.077.077,0,0,1-.04-.008c.01.015.041.01.033.04l-.067.007a.829.829,0,0,0-.381.08c-.056.026-.1.056-.115.124-.11.181-.107.239.021.366.043.1.146.146.2.232.019.03.056.049.059.092.022.118.106.21.129.331a2.183,2.183,0,0,1-.026.635c-.025.267-.019.537-.058.8a2.86,2.86,0,0,0,.11,1.008,2.867,2.867,0,0,1,.048.775,6.5,6.5,0,0,0-.052,1.021c.015.179-.022.359-.011.537.051.832.04,1.665.071,2.5.012.327.033.656.027.984,0,.078.054.158-.008.236-.005.015.022.01.005,0l0-.012c.012-.023.022-.047.051-.055q.035.412.069.825c.033.419.065.838.1,1.258.008.341.014.683.026,1.025a1.3,1.3,0,0,1-.077.528,2.6,2.6,0,0,1-1.032,1.019c-.033.019-.065.041-.1.062a4.739,4.739,0,0,1-.972.385,1.7,1.7,0,0,1-.72.051.882.882,0,0,1-.482-.738c.025,0,.037-.007.029-.038a4.677,4.677,0,0,1-.041-1.208c0-.39.087-.777.074-1.171-.01-.32-.062-.635-.074-.954a.706.706,0,0,1,0-.179.145.145,0,0,0-.043-.158c-.005-.016-.025.007-.01,0s.008,0,.01.007c.012.041.03.081-.012.115-.044-.121,0-.253-.044-.374-.015-.821.022-1.64.027-2.46a2.717,2.717,0,0,0,.01-.3c0-.038-.021-.085.025-.114.047.052.025.11.021.166,0-.062.023-.125-.023-.183a4.369,4.369,0,0,1,.021-.8c.015-.158-.014-.313-.011-.471a.356.356,0,0,1,0-.126c0-.03,0-.06.005-.092.056-.069.026-.154.029-.228.012-.326.069-.649.071-.976,0-.029-.015-.058,0-.088.037-.421.065-.841.111-1.26.049-.445.081-.892.125-1.337a9.988,9.988,0,0,0,.025-1.074.334.334,0,0,0-.021-.151c-.019-.274-.184-.285-.407-.287a1.484,1.484,0,0,0-.533.114,2.1,2.1,0,0,1-.972.092,3.783,3.783,0,0,0-.4-.014.181.181,0,0,0-.143.04" transform="translate(2.587 0.154)"/>
    <path id="Path_231" data-name="Path 231" d="M17.247,7.207a.614.614,0,0,0-.111-.007.214.214,0,0,0,.111.007" transform="translate(6.418 2.697)"/>
    <path id="Path_232" data-name="Path 232" d="M18.059,8.442c.091-.23.148-.47.26-.694a1.307,1.307,0,0,1,.421-.515,2.34,2.34,0,0,1,.438-.221c.038-.03.089.005.128-.025l.18-.052a1.227,1.227,0,0,1,.719.078c.016.016.034.033.051.051.194.066.225.258.316.4.055.089,0,.184-.012.272a.927.927,0,0,1-.5.634.194.194,0,0,0-.082.077.663.663,0,0,1-.231.051.126.126,0,0,1-.1.026h-.051c-.254,0-.509-.011-.76-.027q-.049,0-.1-.012a.129.129,0,0,1,.043.058.482.482,0,0,1-.37.027.192.192,0,0,0-.2.058c-.158.008-.2-.034-.143-.188m7.343.742a2.1,2.1,0,0,1-.048-.319,2.754,2.754,0,0,0-.077-.436,1.819,1.819,0,0,0-.114-.448.3.3,0,0,0-.037-.146c-.071-.147-.1-.311-.184-.455a4.866,4.866,0,0,0-.423-.786,4.349,4.349,0,0,0-.474-.634,4.127,4.127,0,0,0-.352-.359h0a.732.732,0,0,0-.228-.208l-.022-.007A2.425,2.425,0,0,0,22.9,4.96l-.436-.282c-.158-.1-.32-.188-.488-.271-.114-.056-.236-.088-.351-.144a.227.227,0,0,0-.113-.054c-.289-.087-.572-.184-.869-.243a8.34,8.34,0,0,0-1.06-.122,3.4,3.4,0,0,0-.826.048,5.074,5.074,0,0,0-.591.091,3.731,3.731,0,0,0-.856.25c-.286.118-.568.252-.841.4-.045.023-.082.059-.125.087a5.305,5.305,0,0,0-.608.412.088.088,0,0,0-.014.033c.016.055-.014.087-.054.118a4.679,4.679,0,0,0-.865.88.211.211,0,0,1-.131.093,2.572,2.572,0,0,0-.36.507,6.62,6.62,0,0,0-.488,1.032c-.015.044-.034.087-.048.129a.651.651,0,0,0-.055.307.054.054,0,0,0,.054-.027l0-.012c-.014-.011.016-.011.007,0a.816.816,0,0,0-.106.286,5.751,5.751,0,0,0-.154,1.548,3.44,3.44,0,0,0,.144,1.061c.012.04-.026-.019-.037,0s-.016.044-.011.07a4.8,4.8,0,0,0,.159.591c.023.051.033.106.059.157a.785.785,0,0,1,.062.122l.01.033c.022.059.047.118.065.177.062.12.109.247.175.366a7,7,0,0,0,.573.88c.065.041.087.115.133.172.155.187.334.351.5.524a2.363,2.363,0,0,0,.507.4l.026.021a2.079,2.079,0,0,0,.458.313c.073.043.126.132.231.113a.1.1,0,0,1,.085,0c.093.03.169.095.258.132A6.976,6.976,0,0,0,18,15.547a5.832,5.832,0,0,0,1.377.179,9.526,9.526,0,0,0,1.049-.029,8.091,8.091,0,0,0,.955-.172,1.778,1.778,0,0,1,.47-.1.844.844,0,0,0,.132-.016c.058-.034.118-.062.179-.092a1.951,1.951,0,0,0,.544-.329.268.268,0,0,1,.1-.143c.177-.129.324-.294.5-.423a2.728,2.728,0,0,0,.412-.432.119.119,0,0,1,.1-.044.115.115,0,0,0,.038-.073c0-.169-.044-.21-.21-.216a3.317,3.317,0,0,0-.738.056,1.04,1.04,0,0,0-.338.139c-.1.063-.186.146-.29.2a2.475,2.475,0,0,1-.23.144,4.365,4.365,0,0,1-1.014.447,4.825,4.825,0,0,1-1.156.212,5.657,5.657,0,0,1-1.012-.018,6.27,6.27,0,0,1-1.133-.263,2.4,2.4,0,0,1-.517-.216,3.9,3.9,0,0,1-.891-.566l-.026-.026a3.943,3.943,0,0,1-.529-.463c-.217-.252-.425-.511-.616-.782a.289.289,0,0,1-.074-.126,5.728,5.728,0,0,1-.526-1.273,5.438,5.438,0,0,1-.154-.891,4.32,4.32,0,0,1,.022-1.006,3.885,3.885,0,0,1,.118-.664,6.808,6.808,0,0,1,.337-.933A1.143,1.143,0,0,1,15,7.385a1.259,1.259,0,0,1,.1-.177l.019-.029c.106-.148.191-.311.309-.451l.019-.029a.333.333,0,0,1,.084-.106.458.458,0,0,0,.038-.034.988.988,0,0,0,.11-.131c.032-.034.066-.066.1-.1a3.988,3.988,0,0,1,.785-.664,3.326,3.326,0,0,1,.532-.323l.033-.018a4.624,4.624,0,0,1,1.248-.448,5.451,5.451,0,0,1,1.025-.117,6.046,6.046,0,0,1,1.1.113,4.793,4.793,0,0,1,1.365.507,4.717,4.717,0,0,1,1.691,1.571c.007.01.014.021.022.03a1.266,1.266,0,0,1,.131.23,5.252,5.252,0,0,1,.381.823.314.314,0,0,1,.029.07,5.929,5.929,0,0,1,.235,1.177,2.686,2.686,0,0,1-.381,1.828c-.052.052-.08.125-.136.175a.222.222,0,0,0-.025.026,2.19,2.19,0,0,1-.213.239,3.81,3.81,0,0,1-1.564.837,3.252,3.252,0,0,1-1.163.117,1.6,1.6,0,0,1-1.366-.836.648.648,0,0,0-.39-.326.484.484,0,0,1-.381-.308.539.539,0,0,0-.085-.142,1.844,1.844,0,0,1-.223-.263,1.74,1.74,0,0,1-.451-.966c-.014-.129,0-.143.132-.151.176-.01.348.043.522.026a3.988,3.988,0,0,1,.5-.026,1.11,1.11,0,0,0,.243-.008.349.349,0,0,1,.1-.016,5.769,5.769,0,0,0,1.387-.21,2.706,2.706,0,0,0,1.164-.592,1.359,1.359,0,0,0,.436-1.274,1.646,1.646,0,0,0-.081-.269,1.965,1.965,0,0,0-.8-.792,3.343,3.343,0,0,0-.752-.287,2.577,2.577,0,0,0-.6-.082,4.013,4.013,0,0,0-1.208.2,11.274,11.274,0,0,0-1.358.6,1.886,1.886,0,0,0-.353.213.852.852,0,0,1-.213.15,3.987,3.987,0,0,0-.653.592.219.219,0,0,0-.021.029,2.118,2.118,0,0,1-.158.208c-.034.049-.067.1-.1.147a4.119,4.119,0,0,0-.418.874,3.724,3.724,0,0,0-.148,1.435,3.066,3.066,0,0,0,.264.467,3.135,3.135,0,0,1,.126.389,1.058,1.058,0,0,0,.3.531c.132.129.3.209.436.335l.027.025a.42.42,0,0,1,.1.125.529.529,0,0,1,.037.067.834.834,0,0,0,.5.445,1.4,1.4,0,0,1,.374.158,4.561,4.561,0,0,0,.712.4,1.872,1.872,0,0,0,.495.126,9.238,9.238,0,0,1,1.3.17,2.5,2.5,0,0,0,.7.021,8.3,8.3,0,0,0,1-.191c.249-.078.5-.147.741-.243a3.149,3.149,0,0,0,.925-.536,6.592,6.592,0,0,0,.7-.7l.036-.041c.1-.107.175-.232.274-.34a4.675,4.675,0,0,0,.511-.855,2.437,2.437,0,0,0,.2-.7,6.945,6.945,0,0,0,.029-.895" transform="translate(5.065 1.437)"/>
  </g>
</svg>
