<svg id="Group_148736" data-name="Group 148736" xmlns="http://www.w3.org/2000/svg" xmlns:xlink="http://www.w3.org/1999/xlink" width="36.655" height="36.64" viewBox="0 0 36.655 36.64">
  <defs>
    <clipPath id="clip-path">
      <rect id="Rectangle_65623" data-name="Rectangle 65623" width="36.655" height="36.64"/>
    </clipPath>
  </defs>
  <g id="Group_148735" data-name="Group 148735" transform="translate(0 0)" clip-path="url(#clip-path)">
    <path id="Path_249" data-name="Path 249" d="M19.176,7.346a2.366,2.366,0,0,0-4.731.041,2.366,2.366,0,0,0,4.731-.041m-7.616,7.42a.435.435,0,0,0,.155.355,7.144,7.144,0,0,0,2.18,1.334c.272.108.373-.03.376-.282,0-.438,0-.876.007-1.314a2.533,2.533,0,1,1,5.056-.028c.007.4.017.8,0,1.2-.022.473.181.533.563.353A9.515,9.515,0,0,0,21.8,15.22a.624.624,0,0,0,.216-.768A5.446,5.446,0,0,0,18.8,10.877a.936.936,0,0,0-.739-.022,3.443,3.443,0,0,1-2.463.016,1.075,1.075,0,0,0-.843.026,5.364,5.364,0,0,0-2.978,3.043,2.177,2.177,0,0,0-.218.826m11.62-1.2c.178-.05.224-.178.289-.284a7.566,7.566,0,0,0,.838-6.364,7.829,7.829,0,1,0-14.206,6.3c.077.12.122.318.269.32.2,0,.2-.228.259-.367a6.839,6.839,0,0,1,2.433-2.894c.773-.531.755-.521.371-1.391a3.5,3.5,0,0,1,.474-3.807A3.457,3.457,0,0,1,17.5,3.727a3.682,3.682,0,0,1,2.439,5.615c-.205.343-.158.486.168.666a6.766,6.766,0,0,1,1.958,1.646,10.2,10.2,0,0,1,1.119,1.912M15.7,21.456h0q0,3.151,0,6.3a5.7,5.7,0,0,1-.064.928.662.662,0,0,1-1.141.421c-.113-.091-.211-.2-.316-.3-.892-.891-1.767-1.8-2.68-2.666a1.468,1.468,0,0,0-2.5.719,1.537,1.537,0,0,0,.574,1.508q2.789,2.791,5.579,5.579a1.343,1.343,0,0,1,.516.873c.018.39.252.459.592.457q5.725-.009,11.452,0c.415,0,.619-.113.579-.557a3.687,3.687,0,0,1,.52-2.414,1.3,1.3,0,0,0,.119-.747V23.832c0-.583.016-1.169-.008-1.752A1.162,1.162,0,0,0,27.9,20.856a1.127,1.127,0,0,0-1.291,1.215q-.04,1.478,0,2.959c.013.492-.146.678-.657.675-.492,0-.743-.109-.725-.666.031-1,.018-2.009,0-3.014a1.054,1.054,0,0,0-.822-1.143,1.124,1.124,0,0,0-1.42.991,5.03,5.03,0,0,0-.017.6c-.006,3.212-.006,3.212-.672,3.214-.693,0-.693,0-.7-3.241a4.563,4.563,0,0,0-.017-.6,1.111,1.111,0,0,0-1.335-.979,1.036,1.036,0,0,0-.9,1.126c-.019,1.042,0,2.082-.013,3.124,0,.211.03.447-.246.549-.715.263-1.173-.036-1.174-.786q0-4.876,0-9.753c0-.218,0-.438-.019-.657a.934.934,0,0,0-.621-.829,1.084,1.084,0,0,0-1.562,1.075c-.016,2.247,0,4.494,0,6.74M14.1,26.92a.717.717,0,0,0,.174-.627c0-2.521-.01-5.041.013-7.562a.824.824,0,0,0-.617-.924,9.006,9.006,0,0,1-5.932-7.154A9.184,9.184,0,0,1,25.5,6.232a8.946,8.946,0,0,1-1.737,8.93,8.571,8.571,0,0,1-3.82,2.655c-.489.175-.682.424-.613.916a2.056,2.056,0,0,1,0,.438c-.03.382.073.538.5.4a2.229,2.229,0,0,1,2.115.415c.239.185.386.226.651.018a2.358,2.358,0,0,1,2.943-.056.562.562,0,0,0,.8-.01,2.468,2.468,0,0,1,3.86,1.515,4.222,4.222,0,0,1,.077.87q.007,4.713,0,9.425a1.474,1.474,0,0,1-.116.858,4.411,4.411,0,0,0-.515,2.741c.01,1.146-.139,1.287-1.294,1.287q-6.436,0-12.875,0c-1,0-1.2-.182-1.193-1.176a1.235,1.235,0,0,0-.461-.939c-1.775-1.762-3.561-3.516-5.308-5.306a2.8,2.8,0,0,1,1.111-4.758,2.643,2.643,0,0,1,2.817.718c.573.551,1.1,1.153,1.654,1.743" transform="translate(1.522 0)"/>
    <path id="Path_250" data-name="Path 250" d="M27.648,9.395a1.731,1.731,0,0,0,1.761-1.709A1.755,1.755,0,0,0,27.69,5.922a1.82,1.82,0,0,0-1.809,1.756,1.748,1.748,0,0,0,1.767,1.716m.044,5.474c.583,0,1.168.01,1.751,0,1.282-.024,1.229.25,1.158-1.266a2.935,2.935,0,0,0-4.153-2.553c-1.234.525-1.8,1.618-1.731,3.286.016.406.178.545.565.538.8-.014,1.606,0,2.409,0M27.3,16.287c-.789-.028-2.012.062-3.232-.044-.4-.035-.7-.223-.725-.612a7.3,7.3,0,0,1,.419-3.76,3.733,3.733,0,0,1,1.283-1.536c.407-.269.422-.463.128-.852A3.066,3.066,0,0,1,26.2,4.93a3.128,3.128,0,0,1,3.756.653A2.975,2.975,0,0,1,30.18,9.41c-.332.443-.311.617.136.959a4.171,4.171,0,0,1,1.672,3.414q.009.738,0,1.478c-.007.741-.229,1-.972,1.019-1.095.026-2.189.007-3.717.007" transform="translate(4.663 0.916)"/>
    <path id="Path_251" data-name="Path 251" d="M4.37,6.447A1.737,1.737,0,0,0,2.583,8.133a1.763,1.763,0,0,0,3.526.056A1.75,1.75,0,0,0,4.37,6.447M4.323,15.4h1.64c1.436,0,1.436,0,1.294-1.463a2.926,2.926,0,0,0-4.118-2.4A3.242,3.242,0,0,0,1.376,15.1c.061.311.268.3.487.3.821,0,1.641,0,2.461,0M4.3,16.773c-1.078,0-2.154,0-3.232,0-.841,0-1.072-.229-1.06-1.084A9.015,9.015,0,0,1,.2,13.024a4.207,4.207,0,0,1,1.548-2.2c.367-.266.408-.439.127-.809a3.032,3.032,0,0,1,.406-4.153,3.114,3.114,0,0,1,4.11-.017,3.029,3.029,0,0,1,.367,4.233c-.241.3-.254.437.071.667A4.37,4.37,0,0,1,8.69,14.459c.008.438.008.877,0,1.316-.013.738-.259.99-.994,1-1.132.008-2.265,0-3.4,0" transform="translate(0 1.017)"/>
  </g>
</svg>
