<?xml version="1.0" encoding="utf-8"?>
<!-- Generator: Adobe Illustrator 28.3.0, SVG Export Plug-In . SVG Version: 6.00 Build 0)  -->
<svg version="1.1" id="dus" xmlns="http://www.w3.org/2000/svg" xmlns:xlink="http://www.w3.org/1999/xlink" x="0px" y="0px"
	 viewBox="0 0 777.4 785.3" style="enable-background:new 0 0 777.4 785.3;" xml:space="preserve">
<style type="text/css">
	
		#dus .st0{clip-path:url(#SVGID_00000079458415676741985950000010413093192631143808_);fill:url(#SVGID_00000058578403695171426900000002130291112465731742_);}
	
		#dus .st1{clip-path:url(#SVGID_00000150810833563166219030000007198847051792554142_);fill:url(#SVGID_00000014632527145263227960000002085793738336986757_);}
	
		#dus .st2{clip-path:url(#SVGID_00000057837893255031167080000017357463013798145210_);fill:url(#SVGID_00000038410452104570317680000005037622902548637586_);}
	
		#dus .st3{clip-path:url(#SVGID_00000083787681954619896430000003223061000244542626_);fill:url(#SVGID_00000157273486221795357260000009155556037628814525_);}
	
		#dus .st4{clip-path:url(#SVGID_00000067938560523828100160000002517258726804456870_);fill:url(#SVGID_00000146494072578640670760000016790687724891281571_);}
	
		#dus .st5{clip-path:url(#SVGID_00000062911348109437944310000009230562182763959723_);fill:url(#SVGID_00000079468639299274278020000008445385853291265682_);}
	
		#dus .st6{clip-path:url(#SVGID_00000063607088424042572820000016997998393249336242_);fill:url(#SVGID_00000012456623174068686910000013375596728404467879_);}
	
		#dus .st7{clip-path:url(#SVGID_00000163053778682630597840000002271648834224281771_);fill:url(#SVGID_00000067923228419705119310000002609829463754309810_);}
	#dus .st8{fill:#231F20;}
	#dus .st9{fill:#652D90;}
	#dus .st10{fill:none;stroke:#231F20;stroke-width:2;stroke-miterlimit:10;}
	#dus .st11{fill:#EB008B;}
	#dus .st12{fill:#F05A28;}
	#dus .st13{fill:#00A69C;}
</style>
<g class="wow pcbn">
	<g>
		<defs>
			<path id="SVGID_1_" d="M50.7,510.8l-21.5-39.1V583l0.1,0c1.4,65.2,56.7,123,141.4,159.1h0.1c57.7,24.6,129.1,39.2,206.4,39.2
				c189.5,0,343.5-87.5,347.7-196.3l0.1,0v-4.6v0v0v-97.7L706,515c-12.3-20.5-30.2-39.6-52.6-56.5L377,580.5L131.9,438
				C96.4,458.4,68.4,483.1,50.7,510.8"/>
		</defs>
		<clipPath id="SVGID_00000013172017274008915810000008724429385735697295_">
			<use xlink:href="#SVGID_1_"  style="overflow:visible;"/>
		</clipPath>
		
			<linearGradient id="SVGID_00000136371164655604063080000000281839631902629765_" gradientUnits="userSpaceOnUse" x1="-6452.4771" y1="3511.5967" x2="-6450.8125" y2="3511.5967" gradientTransform="matrix(417.9666 0 0 -417.9666 2696948.75 1468339.625)">
			<stop  offset="0" style="stop-color:#484099"/>
			<stop  offset="1" style="stop-color:#AE3893"/>
		</linearGradient>
		
			<rect x="29.2" y="438" style="clip-path:url(#SVGID_00000013172017274008915810000008724429385735697295_);fill:url(#SVGID_00000136371164655604063080000000281839631902629765_);" width="695.7" height="343.4"/>
	</g>
	<g>
		<defs>
			<path id="SVGID_00000144330594287003719860000012032685456952447934_" d="M29.2,482.5c0,111.1,155.7,201.1,347.9,201.1
				c192.1,0,347.9-90,347.9-201.1c0-49.8-31.4-95.4-83.3-130.6L377,482.8l-86.5-194.9v-0.3C140.3,309.9,29.2,388.7,29.2,482.5"/>
		</defs>
		<clipPath id="SVGID_00000157300173413641149850000008381359800406685570_">
			<use xlink:href="#SVGID_00000144330594287003719860000012032685456952447934_"  style="overflow:visible;"/>
		</clipPath>
		
			<linearGradient id="SVGID_00000133500004658536218790000017222163055279043502_" gradientUnits="userSpaceOnUse" x1="-6452.4771" y1="3511.7151" x2="-6450.8125" y2="3511.7151" gradientTransform="matrix(417.9665 0 0 -417.9665 2696948.5 1468265)">
			<stop  offset="0" style="stop-color:#7058A4"/>
			<stop  offset="1" style="stop-color:#DA3B94"/>
		</linearGradient>
		
			<rect x="29.2" y="287.7" style="clip-path:url(#SVGID_00000157300173413641149850000008381359800406685570_);fill:url(#SVGID_00000133500004658536218790000017222163055279043502_);" width="695.7" height="396"/>
	</g>
</g>
<g class="wow pcbn pcb1">
	<g>
		<defs>
			<polygon id="SVGID_00000069380888257501919440000014256261844674025916_" points="290.5,287.9 377,482.8 377,401.1 290.5,206.2 
							"/>
		</defs>
		<clipPath id="SVGID_00000047748400551937281840000005385555455608758452_">
			<use xlink:href="#SVGID_00000069380888257501919440000014256261844674025916_"  style="overflow:visible;"/>
		</clipPath>
		
			<linearGradient id="SVGID_00000164501991993532498100000006310032816717171337_" gradientUnits="userSpaceOnUse" x1="-6342.9312" y1="3557.9695" x2="-6341.2666" y2="3557.9695" gradientTransform="matrix(51.9751 0 0 -51.9751 329965.2188 185270.4688)">
			<stop  offset="0" style="stop-color:#AE3893"/>
			<stop  offset="1" style="stop-color:#ED3424"/>
		</linearGradient>
		
			<rect x="290.5" y="206.2" style="clip-path:url(#SVGID_00000047748400551937281840000005385555455608758452_);fill:url(#SVGID_00000164501991993532498100000006310032816717171337_);" width="86.5" height="276.6"/>
	</g>
	<g>
		<defs>
			<path id="SVGID_00000078018315503867900650000005521115249117543811_" d="M290.5,206.5L377,401.1l181.3-171.4l-0.1,0
				C505.5,211,443.5,200.3,377,200.3C347.2,200.3,318.2,202.5,290.5,206.5"/>
		</defs>
		<clipPath id="SVGID_00000111894190492832250940000008378589145119857029_">
			<use xlink:href="#SVGID_00000078018315503867900650000005521115249117543811_"  style="overflow:visible;"/>
		</clipPath>
		
			<linearGradient id="SVGID_00000125589923400365846980000017327684646305412024_" gradientUnits="userSpaceOnUse" x1="-6427.4297" y1="3522.4226" x2="-6425.7651" y2="3522.4226" gradientTransform="matrix(160.9012 0 0 -160.9012 1034471.9375 567062.875)">
			<stop  offset="0" style="stop-color:#DA3B94"/>
			<stop  offset="1" style="stop-color:#F05D32"/>
		</linearGradient>
		
			<rect x="290.5" y="200.3" style="clip-path:url(#SVGID_00000111894190492832250940000008378589145119857029_);fill:url(#SVGID_00000125589923400365846980000017327684646305412024_);" width="267.8" height="200.8"/>
	</g>
</g>
<g class="wow pcbn pcb2">
	<g>
		<defs>
			<polygon id="SVGID_00000166669120845908916210000007351815616373130930_" points="377,360.2 377,482.8 653.3,360.8 653.3,238.3 
							"/>
		</defs>
		<clipPath id="SVGID_00000134944508474988601010000007860848049846400670_">
			<use xlink:href="#SVGID_00000166669120845908916210000007351815616373130930_"  style="overflow:visible;"/>
		</clipPath>
		
			<linearGradient id="SVGID_00000092439241349512624170000001389075890716196275_" gradientUnits="userSpaceOnUse" x1="-6428.4585" y1="3521.7537" x2="-6426.7939" y2="3521.7537" gradientTransform="matrix(165.9925 0 0 -165.9925 1067452.75 584945.125)">
			<stop  offset="0" style="stop-color:#F68C1E"/>
			<stop  offset="1" style="stop-color:#FAAB18"/>
		</linearGradient>
		
			<rect x="377" y="238.3" style="clip-path:url(#SVGID_00000134944508474988601010000007860848049846400670_);fill:url(#SVGID_00000092439241349512624170000001389075890716196275_);" width="276.3" height="244.6"/>
	</g>
	<g>
		<defs>
			<path id="SVGID_00000062891261471708203250000003787051418315487917_" d="M377,360.2l276.3-122c-26.1-19.6-58.3-36.5-95-49.4
				L377,360.2z"/>
		</defs>
		<clipPath id="SVGID_00000163065792348154476600000003981044336786248622_">
			<use xlink:href="#SVGID_00000062891261471708203250000003787051418315487917_"  style="overflow:visible;"/>
		</clipPath>
		
			<linearGradient id="SVGID_00000059278131231032448160000001431268137015948170_" gradientUnits="userSpaceOnUse" x1="-6428.4585" y1="3521.9604" x2="-6426.7939" y2="3521.9604" gradientTransform="matrix(165.9925 0 0 -165.9925 1067452.75 584893.5)">
			<stop  offset="0" style="stop-color:#FFCA35"/>
			<stop  offset="1" style="stop-color:#FFD04F"/>
		</linearGradient>
		
			<rect x="377" y="188.9" style="clip-path:url(#SVGID_00000163065792348154476600000003981044336786248622_);fill:url(#SVGID_00000059278131231032448160000001431268137015948170_);" width="276.3" height="171.4"/>
	</g>
</g>
<g class="wow pcbn pcb3">
	<g>
		<defs>
			<polygon id="SVGID_00000103227973974355353860000017713908373209803445_" points="377,383.8 377,482.8 659.1,365.3 659.1,266.4 
				653.3,261.9 			"/>
		</defs>
		<clipPath id="SVGID_00000065060547487621787600000012614878920060340405_">
			<use xlink:href="#SVGID_00000103227973974355353860000017713908373209803445_"  style="overflow:visible;"/>
		</clipPath>
		
			<linearGradient id="SVGID_00000145760044233718613130000006790097979242614180_" gradientUnits="userSpaceOnUse" x1="-6429.2656" y1="3521.3877" x2="-6427.6011" y2="3521.3877" gradientTransform="matrix(169.4741 0 0 -169.4741 1089970.875 597156.25)">
			<stop  offset="0" style="stop-color:#07A8C3"/>
			<stop  offset="1" style="stop-color:#3ABEBC"/>
		</linearGradient>
		
			<rect x="377" y="261.9" style="clip-path:url(#SVGID_00000065060547487621787600000012614878920060340405_);fill:url(#SVGID_00000145760044233718613130000006790097979242614180_);" width="282.1" height="221"/>
	</g>
	<g>
		<defs>
			<path id="SVGID_00000000186576080122004070000016841174879951329666_" d="M377,383.8l282.1-117.5c-1.9-1.5-3.8-3-5.8-4.5
				L377,383.8z"/>
		</defs>
		<clipPath id="SVGID_00000009569781380389378080000016660213640822942392_">
			<use xlink:href="#SVGID_00000000186576080122004070000016841174879951329666_"  style="overflow:visible;"/>
		</clipPath>
		
			<linearGradient id="SVGID_00000090259555936173801820000015199296119267958929_" gradientUnits="userSpaceOnUse" x1="-6429.2656" y1="3521.5044" x2="-6427.6011" y2="3521.5044" gradientTransform="matrix(169.4741 0 0 -169.4741 1089970.875 597126.5625)">
			<stop  offset="0" style="stop-color:#3ABEBC"/>
			<stop  offset="1" style="stop-color:#8ED2CC"/>
		</linearGradient>
		
			<rect x="377" y="261.9" style="clip-path:url(#SVGID_00000009569781380389378080000016660213640822942392_);fill:url(#SVGID_00000090259555936173801820000015199296119267958929_);" width="282.1" height="122"/>
	</g>
</g>
<g class="wow pcbn pcb5">
	<g>
		<path class="st8" d="M8,271.4h2.4v17.2H8V271.4z M9.3,279.7h5.5c0.5,0,1-0.1,1.4-0.4c0.4-0.2,0.7-0.6,0.9-1c0.2-0.5,0.3-1,0.3-1.6
			c0-0.6-0.1-1.1-0.3-1.6c-0.2-0.5-0.5-0.8-0.9-1c-0.4-0.2-0.9-0.4-1.4-0.4H9.3v-2.3h5.4c1,0,1.9,0.2,2.7,0.7
			c0.8,0.4,1.4,1.1,1.8,1.9s0.6,1.7,0.6,2.8c0,1.1-0.2,2-0.6,2.8c-0.4,0.8-1,1.4-1.8,1.8c-0.8,0.4-1.7,0.7-2.7,0.7H9.3V279.7z"/>
		<path class="st8" d="M22.3,276.4h2.4v12.3h-2.4V276.4z M28.3,278.7c-0.3-0.1-0.7-0.2-1.1-0.2c-0.8,0-1.4,0.2-1.8,0.6
			s-0.6,1-0.6,1.8l-0.2-2.4c0.4-0.7,0.9-1.3,1.5-1.7c0.6-0.4,1.3-0.6,2-0.6c0.6,0,1.1,0.1,1.5,0.2c0.5,0.2,0.9,0.4,1.2,0.7l-1.6,2.1
			C28.9,279,28.6,278.8,28.3,278.7z"/>
		<path class="st8" d="M34.4,288.2c-0.8-0.4-1.3-1-1.7-1.8c-0.4-0.8-0.6-1.8-0.6-2.9v-2c0-1.1,0.2-2.1,0.6-2.9
			c0.4-0.8,1-1.4,1.7-1.8c0.8-0.4,1.7-0.6,2.7-0.6c1.1,0,2,0.2,2.7,0.6c0.8,0.4,1.3,1,1.7,1.8c0.4,0.8,0.6,1.7,0.6,2.9v2
			c0,1.1-0.2,2.1-0.6,2.9c-0.4,0.8-1,1.4-1.7,1.8c-0.8,0.4-1.7,0.6-2.7,0.6C36.1,288.8,35.2,288.6,34.4,288.2z M39.1,285.7
			c0.5-0.5,0.7-1.3,0.7-2.2v-2c0-1-0.2-1.7-0.7-2.2c-0.5-0.5-1.1-0.8-2-0.8c-0.8,0-1.5,0.3-2,0.8c-0.5,0.5-0.7,1.3-0.7,2.2v2
			c0,1,0.2,1.7,0.7,2.2c0.5,0.5,1.1,0.8,2,0.8C38,286.5,38.7,286.3,39.1,285.7z"/>
		<path class="st8" d="M44,291.4h1.4c0.2,0,0.4-0.1,0.5-0.2c0.1-0.2,0.2-0.4,0.2-0.7v-14.1h2.4v14c0,1-0.3,1.8-0.8,2.4
			c-0.5,0.6-1.2,0.9-2.1,0.9H44V291.4z M46,271.4h2.5v2.4H46V271.4z"/>
		<path class="st8" d="M54.3,288.2c-0.8-0.4-1.4-1.1-1.8-1.9c-0.4-0.8-0.6-1.8-0.6-3v-1.4c0-1.2,0.2-2.3,0.6-3.1
			c0.4-0.9,1-1.5,1.8-2c0.8-0.5,1.7-0.7,2.8-0.7c1,0,1.9,0.3,2.6,0.8c0.7,0.5,1.3,1.3,1.7,2.2c0.4,1,0.6,2.1,0.6,3.5v0.8h-8.3v-1.9
			h6c-0.1-1-0.3-1.8-0.8-2.3c-0.4-0.6-1-0.8-1.8-0.8c-0.9,0-1.6,0.3-2.1,0.9c-0.5,0.6-0.8,1.4-0.8,2.5v1.6c0,1,0.3,1.8,0.8,2.3
			c0.5,0.5,1.3,0.8,2.3,0.8c0.5,0,1-0.1,1.5-0.3c0.5-0.2,0.9-0.5,1.3-0.8l1.6,1.6c-0.6,0.6-1.3,1-2,1.4c-0.8,0.3-1.5,0.5-2.3,0.5
			C56.1,288.8,55.1,288.6,54.3,288.2z"/>
		<path class="st8" d="M67.3,288.2c-0.8-0.4-1.4-1-1.8-1.8c-0.4-0.8-0.6-1.8-0.6-2.9v-2c0-1.1,0.2-2.1,0.6-2.9
			c0.4-0.8,1-1.4,1.8-1.8c0.8-0.4,1.8-0.6,2.9-0.6c0.6,0,1.2,0.1,1.8,0.2c0.6,0.2,1.1,0.4,1.5,0.7c0.5,0.3,0.8,0.6,1.1,1.1l-1.7,1.6
			c-0.3-0.4-0.8-0.7-1.2-0.9c-0.5-0.2-1-0.3-1.5-0.3c-0.9,0-1.7,0.3-2.2,0.8s-0.8,1.3-0.8,2.2v2c0,1,0.3,1.7,0.8,2.3
			c0.5,0.5,1.2,0.8,2.2,0.8c0.5,0,1-0.1,1.5-0.3c0.5-0.2,0.9-0.6,1.2-1l1.7,1.7c-0.3,0.4-0.7,0.8-1.1,1c-0.5,0.3-1,0.5-1.5,0.7
			c-0.6,0.1-1.2,0.2-1.8,0.2C69,288.8,68.1,288.6,67.3,288.2z"/>
		<path class="st8" d="M76.3,276.4h5.5v2.2h-5.5V276.4z M78.3,287.9c-0.5-0.5-0.7-1.4-0.7-2.4v-12.7H80v12.7c0,0.3,0.1,0.5,0.2,0.7
			c0.1,0.2,0.3,0.2,0.5,0.2h1.2v2.3h-1.4C79.5,288.7,78.8,288.4,78.3,287.9z"/>
	</g>
	<g>
		<path class="st8" d="M8,296.9h2.4v17.2H8V296.9z M9.2,296.9h9.9v2.3H9.2V296.9z M9.2,304.4h8.6v2.3H9.2V304.4z M9.2,311.8h9.9v2.3
			H9.2V311.8z"/>
		<path class="st8" d="M25.8,307.3l1.2,2.2l-3.1,4.6h-2.7L25.8,307.3z M25.8,308.5l-4.5-6.7H24l3.5,5.5l4.7,6.8h-2.7L25.8,308.5z
			 M26.6,306.2l2.7-4.4H32l-4.4,6.6L26.6,306.2z"/>
		<path class="st8" d="M34.8,301.8h2.4v17.3h-2.4V301.8z M38.4,313.7c-0.6-0.4-1-0.9-1.3-1.6l0.2-2.6c0,0.5,0.1,1,0.3,1.4
			c0.2,0.4,0.5,0.7,0.8,0.9c0.4,0.2,0.8,0.3,1.3,0.3c0.8,0,1.4-0.2,1.9-0.7s0.7-1.2,0.7-2.1v-2.7c0-0.9-0.2-1.6-0.7-2.1
			c-0.4-0.5-1.1-0.7-1.9-0.7c-0.5,0-0.9,0.1-1.3,0.3c-0.4,0.2-0.6,0.5-0.8,0.8c-0.2,0.4-0.3,0.8-0.3,1.3l-0.2-2.4
			c0.4-0.7,0.9-1.3,1.5-1.7c0.6-0.4,1.3-0.6,2-0.6c0.9,0,1.6,0.2,2.2,0.6c0.6,0.4,1.1,1,1.4,1.7c0.3,0.8,0.5,1.7,0.5,2.7v2.7
			c0,1-0.2,1.9-0.5,2.7c-0.3,0.7-0.8,1.3-1.5,1.7c-0.6,0.4-1.4,0.6-2.3,0.6C39.6,314.3,38.9,314.1,38.4,313.7z"/>
		<path class="st8" d="M50.2,313.6c-0.8-0.4-1.4-1.1-1.8-1.9s-0.6-1.8-0.6-3v-1.4c0-1.2,0.2-2.3,0.6-3.1c0.4-0.9,1-1.5,1.8-2
			c0.8-0.5,1.7-0.7,2.8-0.7c1,0,1.9,0.3,2.6,0.8c0.7,0.5,1.3,1.3,1.7,2.2c0.4,1,0.6,2.1,0.6,3.5v0.8h-8.3V307h6
			c-0.1-1-0.3-1.8-0.8-2.3c-0.4-0.6-1-0.8-1.8-0.8c-0.9,0-1.6,0.3-2.1,0.9c-0.5,0.6-0.8,1.4-0.8,2.5v1.6c0,1,0.3,1.8,0.8,2.3
			c0.5,0.5,1.3,0.8,2.3,0.8c0.5,0,1-0.1,1.5-0.3c0.5-0.2,0.9-0.5,1.3-0.8l1.6,1.6c-0.6,0.6-1.3,1-2.1,1.4c-0.8,0.3-1.5,0.5-2.3,0.5
			C51.9,314.3,51,314.1,50.2,313.6z"/>
		<path class="st8" d="M61.1,301.8h2.4v12.3h-2.4V301.8z M68.5,306.6c0-0.9-0.2-1.5-0.7-2c-0.5-0.5-1.1-0.7-1.9-0.7
			c-0.8,0-1.4,0.2-1.8,0.6c-0.4,0.4-0.6,1-0.6,1.8l-0.2-2.4c0.4-0.7,0.9-1.3,1.5-1.7c0.6-0.4,1.3-0.6,2-0.6c1.3,0,2.4,0.4,3.1,1.3
			c0.7,0.9,1.1,2.1,1.1,3.7v7.5h-2.4V306.6z"/>
		<path class="st8" d="M76.9,314.1c-0.6-0.1-1.2-0.4-1.8-0.6c-0.6-0.3-1.1-0.6-1.5-1.1l1.4-1.8c0.7,0.5,1.3,0.9,2,1.1
			c0.7,0.3,1.3,0.4,1.9,0.4c1,0,1.7-0.1,2.2-0.4c0.5-0.3,0.7-0.7,0.7-1.3c0-0.4-0.1-0.7-0.4-0.9c-0.3-0.2-0.6-0.3-1-0.4
			c-0.4-0.1-0.9-0.1-1.6-0.2c-0.1,0-0.1,0-0.2,0c-0.1,0-0.1,0-0.2,0c0,0-0.1,0-0.1,0c0,0-0.1,0-0.1,0c-0.8-0.1-1.5-0.2-2-0.4
			c-0.6-0.2-1-0.5-1.4-1c-0.4-0.5-0.6-1.1-0.6-2c0-0.9,0.2-1.6,0.5-2.2c0.4-0.6,0.9-1,1.6-1.3c0.7-0.3,1.6-0.4,2.6-0.4
			c0.6,0,1.2,0.1,1.8,0.2s1.1,0.3,1.7,0.5c0.5,0.2,1,0.5,1.5,0.9l-1.5,1.8c-0.6-0.4-1.2-0.7-1.8-0.9c-0.6-0.2-1.2-0.3-1.7-0.3
			c-0.8,0-1.4,0.1-1.8,0.4c-0.4,0.3-0.6,0.7-0.6,1.3c0,0.3,0.1,0.6,0.3,0.7c0.2,0.2,0.5,0.3,0.9,0.3c0.4,0.1,0.9,0.1,1.5,0.1
			c0,0,0.1,0,0.1,0c0.1,0,0.1,0,0.2,0c0,0,0,0,0.1,0c0,0,0,0,0.1,0c0.9,0.1,1.6,0.2,2.2,0.3c0.6,0.2,1.1,0.5,1.5,1
			c0.4,0.5,0.6,1.3,0.6,2.2c0,0.9-0.2,1.6-0.6,2.2s-0.9,1-1.7,1.3c-0.8,0.3-1.7,0.4-2.9,0.4C78.2,314.3,77.6,314.2,76.9,314.1z"/>
		<path class="st8" d="M89.3,313.6c-0.8-0.4-1.4-1.1-1.8-1.9c-0.4-0.8-0.6-1.8-0.6-3v-1.4c0-1.2,0.2-2.3,0.6-3.1
			c0.4-0.9,1-1.5,1.8-2c0.8-0.5,1.7-0.7,2.8-0.7c1,0,1.9,0.3,2.6,0.8c0.7,0.5,1.3,1.3,1.7,2.2s0.6,2.1,0.6,3.5v0.8h-8.3V307h6
			c-0.1-1-0.3-1.8-0.8-2.3c-0.4-0.6-1-0.8-1.8-0.8c-0.9,0-1.6,0.3-2.1,0.9c-0.5,0.6-0.8,1.4-0.8,2.5v1.6c0,1,0.3,1.8,0.8,2.3
			c0.5,0.5,1.3,0.8,2.3,0.8c0.5,0,1-0.1,1.5-0.3c0.5-0.2,0.9-0.5,1.3-0.8l1.6,1.6c-0.6,0.6-1.3,1-2,1.4c-0.8,0.3-1.5,0.5-2.3,0.5
			C91.1,314.3,90.1,314.1,89.3,313.6z"/>
		<path class="st8" d="M102.5,314.1c-0.6-0.1-1.2-0.4-1.8-0.6s-1.1-0.6-1.5-1.1l1.4-1.8c0.7,0.5,1.3,0.9,2,1.1
			c0.7,0.3,1.3,0.4,1.9,0.4c1,0,1.7-0.1,2.2-0.4c0.5-0.3,0.7-0.7,0.7-1.3c0-0.4-0.1-0.7-0.4-0.9c-0.3-0.2-0.6-0.3-1-0.4
			c-0.4-0.1-0.9-0.1-1.6-0.2c-0.1,0-0.1,0-0.2,0c-0.1,0-0.1,0-0.2,0c0,0-0.1,0-0.1,0c0,0-0.1,0-0.1,0c-0.8-0.1-1.5-0.2-2-0.4
			c-0.6-0.2-1-0.5-1.4-1c-0.4-0.5-0.6-1.1-0.6-2c0-0.9,0.2-1.6,0.5-2.2c0.4-0.6,0.9-1,1.6-1.3c0.7-0.3,1.6-0.4,2.6-0.4
			c0.6,0,1.2,0.1,1.8,0.2c0.6,0.1,1.1,0.3,1.7,0.5c0.5,0.2,1,0.5,1.5,0.9l-1.5,1.8c-0.6-0.4-1.2-0.7-1.8-0.9
			c-0.6-0.2-1.2-0.3-1.7-0.3c-0.8,0-1.4,0.1-1.8,0.4c-0.4,0.3-0.6,0.7-0.6,1.3c0,0.3,0.1,0.6,0.3,0.7c0.2,0.2,0.5,0.3,0.9,0.3
			c0.4,0.1,0.9,0.1,1.5,0.1c0,0,0.1,0,0.1,0c0.1,0,0.1,0,0.2,0c0,0,0,0,0.1,0c0,0,0,0,0.1,0c0.9,0.1,1.6,0.2,2.2,0.3
			c0.6,0.2,1.1,0.5,1.5,1c0.4,0.5,0.6,1.3,0.6,2.2c0,0.9-0.2,1.6-0.6,2.2c-0.4,0.6-1,1-1.7,1.3c-0.8,0.3-1.7,0.4-2.9,0.4
			C103.8,314.3,103.2,314.2,102.5,314.1z"/>
	</g>
	<g>
		<path class="st9" d="M19.1,241.9l0,1c-0.5,0.9-1.2,1.5-2.1,1.9c-0.9,0.4-2.1,0.6-3.3,0.6c-1.9,0-3.6-0.5-5.1-1.5
			c-1.5-1-2.6-2.4-3.4-4.2c-0.8-1.8-1.2-3.9-1.2-6.2v0c0-2.6,0.4-4.9,1.3-6.7s2.2-3.3,3.9-4.2c1.7-1,3.7-1.5,6.1-1.5
			c2.4,0,4.4,0.5,6.1,1.5c1.7,1,3,2.4,3.9,4.3c0.9,1.9,1.3,4.1,1.3,6.8v0c0,1.5-0.2,3-0.6,4.7c-0.4,1.6-0.9,3.3-1.6,4.9
			c-0.1,0.2-0.2,0.5-0.3,0.7c-0.1,0.3-0.2,0.5-0.4,0.7L15,262.1H8.9L19.1,241.9z M19.4,238.4c1-1.2,1.5-2.9,1.5-5.1v0
			c0-2.1-0.5-3.8-1.5-5c-1-1.2-2.4-1.8-4.1-1.8c-1.8,0-3.2,0.6-4.2,1.8c-1,1.2-1.5,2.8-1.5,5v0c0,2.2,0.5,3.9,1.5,5.1
			c1,1.2,2.4,1.8,4.2,1.8C17,240.2,18.4,239.6,19.4,238.4z"/>
		<path class="st9" d="M37.1,259.5c-2-2-2.9-4.9-2.9-8.5v-18.5c0-3.7,1-6.5,3-8.5c2-2,4.9-3,8.6-3c3.8,0,6.7,1,8.6,3
			c2,2,2.9,4.9,2.9,8.5V251c0,3.7-1,6.5-3,8.5c-2,2-4.9,3-8.6,3C41.9,262.5,39,261.5,37.1,259.5z M50.2,255.5c1-1.1,1.4-2.6,1.4-4.5
			v-18.5c0-2-0.5-3.5-1.4-4.5c-0.9-1.1-2.4-1.6-4.5-1.6c-2,0-3.5,0.5-4.5,1.6c-1,1.1-1.4,2.6-1.4,4.5V251c0,2,0.5,3.5,1.4,4.5
			c1,1.1,2.4,1.6,4.5,1.6C47.7,257.1,49.2,256.6,50.2,255.5z"/>
		<path class="st9" d="M66,237c-1.2-1.3-1.8-3-1.8-5.3v-3.5c0-2.3,0.6-4,1.8-5.3c1.2-1.3,2.8-1.9,5-1.9c2.2,0,3.8,0.6,5,1.9
			c1.2,1.3,1.8,3,1.8,5.3v3.4c0,2.3-0.6,4-1.8,5.3c-1.2,1.2-2.8,1.9-5,1.9C68.9,238.9,67.2,238.3,66,237z M89.5,221.5h5l-22.1,40.6
			h-5L89.5,221.5z M72.6,233.8c0.4-0.4,0.6-1,0.6-1.8v-4.1c0-0.7-0.2-1.3-0.6-1.7c-0.4-0.4-0.9-0.6-1.5-0.6c-0.7,0-1.2,0.2-1.6,0.6
			c-0.4,0.4-0.5,1-0.5,1.8v4.1c0,0.8,0.2,1.4,0.5,1.8c0.4,0.4,0.9,0.6,1.6,0.6C71.7,234.4,72.2,234.2,72.6,233.8z M86.3,260.6
			c-1.2-1.3-1.8-3-1.8-5.3v-3.5c0-2.3,0.6-4,1.8-5.3c1.2-1.3,2.8-1.9,5-1.9c2.2,0,3.8,0.6,5,1.9c1.2,1.3,1.8,3,1.8,5.3v3.4
			c0,2.3-0.6,4-1.8,5.3s-2.8,1.9-5,1.9C89.1,262.5,87.4,261.9,86.3,260.6z M92.8,257.5c0.4-0.4,0.6-1,0.6-1.8v-4.1
			c0-0.7-0.2-1.3-0.6-1.7c-0.4-0.4-0.9-0.6-1.5-0.6c-0.7,0-1.2,0.2-1.6,0.6c-0.4,0.4-0.5,1-0.5,1.8v4.1c0,0.8,0.2,1.4,0.5,1.8
			c0.4,0.4,0.9,0.6,1.6,0.6C91.9,258.1,92.4,257.9,92.8,257.5z"/>
	</g>
	<path class="st10" d="M9.3,326.1v109.7c0,13.4,10.9,24.3,24.3,24.2l102.3-0.7"/>
</g>
<g class="wow pcbn pcb6">
	<g>
		<path class="st8" d="M206,54.3h2.1l6.4,17.2h-2.6l-4.8-13.9l-4.8,13.9h-2.6L206,54.3z M202.6,65.4h9.1v2.3h-9.1V65.4z"/>
		<path class="st8" d="M218.4,71.1c-0.6-0.4-1.1-1-1.5-1.7c-0.3-0.8-0.5-1.7-0.5-2.7V64c0-1.1,0.2-2,0.5-2.7
			c0.3-0.8,0.8-1.3,1.4-1.7c0.6-0.4,1.4-0.6,2.2-0.6c0.7,0,1.4,0.2,2,0.6c0.6,0.4,1.1,0.9,1.5,1.6l-0.2,2.5c0-0.5-0.1-1-0.3-1.3
			c-0.2-0.4-0.5-0.7-0.8-0.8c-0.4-0.2-0.8-0.3-1.3-0.3c-0.8,0-1.4,0.2-1.9,0.7c-0.4,0.5-0.7,1.2-0.7,2.1v2.7c0,0.9,0.2,1.6,0.7,2.1
			c0.4,0.5,1.1,0.7,1.9,0.7c0.5,0,1-0.1,1.3-0.3c0.4-0.2,0.6-0.5,0.8-0.9c0.2-0.4,0.3-0.8,0.3-1.4l0.2,2.6c-0.2,0.6-0.6,1.1-1.2,1.5
			c-0.6,0.4-1.2,0.6-2.1,0.6C219.8,71.7,219.1,71.5,218.4,71.1z M223.8,54.3h2.4v17.2h-2.4V54.3z"/>
		<path class="st8" d="M229.9,59.2h2.4v12.3h-2.4V59.2z M237.3,64.1c0-0.9-0.2-1.5-0.6-2c-0.4-0.5-1-0.7-1.8-0.7
			c-0.8,0-1.4,0.2-1.8,0.6c-0.4,0.4-0.6,1-0.6,1.8l-0.2-2.4c0.4-0.7,0.9-1.3,1.5-1.7c0.6-0.4,1.3-0.6,2-0.6c0.9,0,1.6,0.2,2.2,0.6
			c0.6,0.4,1.1,1,1.4,1.7c0.3,0.8,0.5,1.7,0.5,2.7v7.5h-2.4V64.1z M244.6,64.1c0-0.9-0.2-1.5-0.7-2c-0.5-0.5-1.1-0.7-1.9-0.7
			c-0.8,0-1.3,0.2-1.7,0.7c-0.4,0.5-0.6,1.1-0.6,1.9l-0.5-2.4c0.4-0.8,0.9-1.4,1.5-1.9c0.6-0.4,1.3-0.7,2.1-0.7
			c0.9,0,1.6,0.2,2.3,0.6c0.6,0.4,1.1,1,1.4,1.7c0.3,0.8,0.5,1.7,0.5,2.7v7.5h-2.4V64.1z"/>
		<path class="st8" d="M250.7,54.3h2.4v2.4h-2.4V54.3z M250.7,59.2h2.4v12.3h-2.4V59.2z"/>
		<path class="st8" d="M256.8,59.2h2.4v12.3h-2.4V59.2z M264.3,64.1c0-0.9-0.2-1.5-0.7-2c-0.5-0.5-1.1-0.7-1.9-0.7
			c-0.8,0-1.4,0.2-1.8,0.6c-0.4,0.4-0.6,1-0.6,1.8l-0.2-2.4c0.4-0.7,0.9-1.3,1.5-1.7c0.6-0.4,1.3-0.6,2-0.6c1.3,0,2.4,0.4,3.1,1.3
			c0.7,0.9,1.1,2.1,1.1,3.7v7.5h-2.4V64.1z"/>
		<path class="st8" d="M270.4,54.3h2.4v2.4h-2.4V54.3z M270.4,59.2h2.4v12.3h-2.4V59.2z"/>
		<path class="st8" d="M278.8,71.5c-0.6-0.1-1.2-0.4-1.8-0.6c-0.6-0.3-1.1-0.6-1.5-1.1l1.4-1.8c0.7,0.5,1.3,0.9,2,1.1
			c0.7,0.3,1.3,0.4,1.9,0.4c1,0,1.7-0.1,2.2-0.4c0.5-0.3,0.7-0.7,0.7-1.3c0-0.4-0.1-0.7-0.4-0.9c-0.3-0.2-0.6-0.3-1-0.4
			c-0.4-0.1-0.9-0.1-1.6-0.2c-0.1,0-0.1,0-0.2,0c-0.1,0-0.1,0-0.2,0c0,0-0.1,0-0.1,0c0,0-0.1,0-0.1,0c-0.8-0.1-1.5-0.2-2-0.4
			c-0.6-0.2-1-0.5-1.4-1c-0.4-0.5-0.6-1.1-0.6-2c0-0.9,0.2-1.6,0.5-2.2c0.4-0.6,0.9-1,1.6-1.3c0.7-0.3,1.6-0.4,2.6-0.4
			c0.6,0,1.3,0.1,1.8,0.2c0.6,0.1,1.1,0.3,1.7,0.5c0.5,0.2,1,0.5,1.5,0.9l-1.5,1.8c-0.6-0.4-1.2-0.7-1.8-0.9
			c-0.6-0.2-1.2-0.3-1.7-0.3c-0.8,0-1.4,0.1-1.8,0.4c-0.4,0.3-0.6,0.7-0.6,1.3c0,0.3,0.1,0.6,0.3,0.7c0.2,0.2,0.5,0.3,0.9,0.3
			c0.4,0.1,0.9,0.1,1.5,0.1c0,0,0.1,0,0.1,0c0.1,0,0.1,0,0.2,0c0,0,0,0,0.1,0c0,0,0,0,0.1,0c0.9,0.1,1.6,0.2,2.2,0.3
			c0.6,0.2,1.1,0.5,1.5,1c0.4,0.5,0.6,1.3,0.6,2.2c0,0.9-0.2,1.6-0.6,2.2c-0.4,0.6-1,1-1.7,1.3c-0.8,0.3-1.7,0.4-2.9,0.4
			C280.1,71.7,279.4,71.6,278.8,71.5z"/>
		<path class="st8" d="M288.1,59.2h5.5v2.2h-5.5V59.2z M290,70.7c-0.5-0.5-0.7-1.4-0.7-2.4V55.6h2.4v12.7c0,0.3,0.1,0.5,0.2,0.7
			c0.1,0.2,0.3,0.2,0.5,0.2h1.2v2.3h-1.4C291.2,71.6,290.5,71.3,290,70.7z"/>
		<path class="st8" d="M296.9,59.2h2.4v12.3h-2.4V59.2z M302.9,61.5c-0.3-0.1-0.7-0.2-1.1-0.2c-0.8,0-1.4,0.2-1.8,0.6
			c-0.4,0.4-0.6,1-0.6,1.8l-0.2-2.4c0.4-0.7,0.9-1.3,1.5-1.7c0.6-0.4,1.3-0.6,2-0.6c0.6,0,1.1,0.1,1.5,0.2c0.5,0.2,0.9,0.4,1.2,0.7
			l-1.6,2.1C303.5,61.9,303.2,61.7,302.9,61.5z"/>
		<path class="st8" d="M307.8,70.7c-0.7-0.6-1.1-1.6-1.1-2.9c0-1.2,0.3-2.1,1-2.7c0.7-0.6,1.7-0.9,3.1-0.9h3.5l0.2,1.9h-3.7
			c-0.6,0-1.1,0.1-1.4,0.4c-0.3,0.3-0.5,0.7-0.5,1.3c0,0.6,0.2,1.1,0.6,1.4c0.4,0.3,1,0.5,1.9,0.5c0.9,0,1.6-0.1,2.1-0.3
			c0.5-0.2,0.7-0.5,0.7-0.9l0.2,1.7c-0.2,0.3-0.5,0.6-0.8,0.8c-0.3,0.2-0.7,0.4-1.1,0.5c-0.4,0.1-0.9,0.2-1.4,0.2
			C309.7,71.7,308.6,71.4,307.8,70.7z M314.3,63.7c0-0.8-0.2-1.4-0.6-1.9c-0.4-0.4-1-0.7-1.8-0.7c-0.5,0-1,0.1-1.4,0.2
			c-0.5,0.2-0.9,0.4-1.2,0.6l-1.8-1.2c0.5-0.6,1.1-1,1.8-1.3c0.8-0.3,1.6-0.5,2.5-0.5c1,0,1.9,0.2,2.6,0.5c0.7,0.4,1.3,0.9,1.7,1.6
			c0.4,0.7,0.6,1.5,0.6,2.5v7.9h-2.3V63.7z"/>
		<path class="st8" d="M319.3,59.2h5.5v2.2h-5.5V59.2z M321.2,70.7c-0.5-0.5-0.7-1.4-0.7-2.4V55.6h2.4v12.7c0,0.3,0.1,0.5,0.2,0.7
			c0.1,0.2,0.3,0.2,0.5,0.2h1.2v2.3h-1.4C322.4,71.6,321.7,71.3,321.2,70.7z"/>
		<path class="st8" d="M328.1,54.3h2.4v2.4h-2.4V54.3z M328.1,59.2h2.4v12.3h-2.4V59.2z"/>
		<path class="st8" d="M341.5,59.2h2.5l-4.6,12.3h-1.8l-4.6-12.3h2.5l3,8.8L341.5,59.2z"/>
		<path class="st8" d="M348.3,71.1c-0.8-0.4-1.4-1.1-1.8-1.9c-0.4-0.8-0.6-1.8-0.6-3v-1.4c0-1.2,0.2-2.3,0.6-3.1
			c0.4-0.9,1-1.5,1.8-2c0.8-0.5,1.7-0.7,2.8-0.7c1,0,1.9,0.3,2.6,0.8c0.7,0.5,1.3,1.3,1.7,2.2c0.4,1,0.6,2.1,0.6,3.5v0.8h-8.3v-1.9
			h6c-0.1-1-0.3-1.8-0.8-2.3c-0.4-0.6-1-0.8-1.8-0.8c-0.9,0-1.6,0.3-2.1,0.9c-0.5,0.6-0.8,1.4-0.8,2.5v1.6c0,1,0.3,1.8,0.8,2.3
			c0.5,0.5,1.3,0.8,2.3,0.8c0.5,0,1-0.1,1.5-0.3c0.5-0.2,0.9-0.5,1.3-0.8l1.6,1.6c-0.6,0.6-1.3,1-2,1.4c-0.8,0.3-1.5,0.5-2.3,0.5
			C350,71.7,349.1,71.5,348.3,71.1z"/>
	</g>
	<g>
		<path class="st8" d="M203.8,96.3c-0.9-0.5-1.6-1.3-2.1-2.3c-0.5-1-0.7-2.1-0.7-3.4V86c0-1.3,0.2-2.4,0.7-3.4
			c0.5-1,1.2-1.7,2.1-2.3c0.9-0.5,2-0.8,3.1-0.8c1,0,1.9,0.2,2.7,0.6c0.8,0.4,1.5,1,2.1,1.8c0.6,0.8,0.9,1.7,1.1,2.7h-2.5
			c-0.1-0.5-0.4-1-0.8-1.4c-0.4-0.4-0.8-0.7-1.2-1c-0.5-0.2-1-0.3-1.5-0.3c-0.7,0-1.3,0.2-1.8,0.5c-0.5,0.3-0.9,0.8-1.2,1.4
			c-0.3,0.6-0.4,1.3-0.4,2.1v4.7c0,0.8,0.1,1.5,0.4,2.1c0.3,0.6,0.7,1.1,1.2,1.4c0.5,0.3,1.1,0.5,1.8,0.5c0.5,0,1-0.1,1.5-0.3
			c0.5-0.2,0.9-0.5,1.2-0.9c0.4-0.4,0.6-0.9,0.8-1.5h2.5c-0.2,1-0.6,1.9-1.1,2.7c-0.6,0.8-1.3,1.4-2.1,1.8c-0.8,0.4-1.7,0.6-2.7,0.6
			C205.8,97.1,204.8,96.9,203.8,96.3z"/>
		<path class="st8" d="M218.1,96.5c-0.8-0.4-1.3-1-1.7-1.8c-0.4-0.8-0.6-1.8-0.6-2.9v-2c0-1.1,0.2-2.1,0.6-2.9
			c0.4-0.8,1-1.4,1.7-1.8c0.8-0.4,1.7-0.6,2.7-0.6c1.1,0,2,0.2,2.7,0.6c0.8,0.4,1.3,1,1.7,1.8c0.4,0.8,0.6,1.7,0.6,2.9v2
			c0,1.1-0.2,2.1-0.6,2.9c-0.4,0.8-1,1.4-1.7,1.8c-0.8,0.4-1.7,0.6-2.7,0.6C219.8,97.1,218.9,96.9,218.1,96.5z M222.8,94
			c0.5-0.5,0.7-1.3,0.7-2.2v-2c0-1-0.2-1.7-0.7-2.2c-0.5-0.5-1.1-0.8-2-0.8c-0.8,0-1.5,0.3-2,0.8s-0.7,1.3-0.7,2.2v2
			c0,1,0.2,1.7,0.7,2.2c0.5,0.5,1.1,0.8,2,0.8C221.7,94.8,222.3,94.6,222.8,94z"/>
		<path class="st8" d="M231.7,96.9c-0.6-0.1-1.2-0.4-1.8-0.6c-0.6-0.3-1.1-0.6-1.5-1.1l1.4-1.8c0.7,0.5,1.3,0.9,2,1.1
			c0.7,0.3,1.3,0.4,1.9,0.4c1,0,1.7-0.1,2.2-0.4c0.5-0.3,0.7-0.7,0.7-1.3c0-0.4-0.1-0.7-0.4-0.9c-0.3-0.2-0.6-0.3-1-0.4
			c-0.4-0.1-0.9-0.1-1.6-0.2c-0.1,0-0.1,0-0.2,0c-0.1,0-0.1,0-0.2,0c0,0-0.1,0-0.1,0c0,0-0.1,0-0.1,0c-0.8-0.1-1.5-0.2-2-0.4
			c-0.6-0.2-1-0.5-1.4-1c-0.4-0.5-0.6-1.1-0.6-2c0-0.9,0.2-1.6,0.5-2.2c0.4-0.6,0.9-1,1.6-1.3c0.7-0.3,1.6-0.4,2.6-0.4
			c0.6,0,1.3,0.1,1.8,0.2c0.6,0.1,1.1,0.3,1.7,0.5c0.5,0.2,1,0.5,1.5,0.9l-1.5,1.8c-0.6-0.4-1.2-0.7-1.8-0.9
			c-0.6-0.2-1.2-0.3-1.7-0.3c-0.8,0-1.4,0.1-1.8,0.4c-0.4,0.3-0.6,0.7-0.6,1.3c0,0.3,0.1,0.6,0.3,0.7c0.2,0.2,0.5,0.3,0.9,0.3
			c0.4,0.1,0.9,0.1,1.5,0.1c0,0,0.1,0,0.1,0c0.1,0,0.1,0,0.2,0c0,0,0,0,0.1,0c0,0,0,0,0.1,0c0.9,0.1,1.6,0.2,2.2,0.3
			c0.6,0.2,1.1,0.5,1.5,1c0.4,0.5,0.6,1.3,0.6,2.2c0,0.9-0.2,1.6-0.6,2.2s-0.9,1-1.7,1.3c-0.8,0.3-1.7,0.4-2.9,0.4
			C233,97.1,232.3,97.1,231.7,96.9z"/>
		<path class="st8" d="M241,84.6h5.5v2.2H241V84.6z M243,96.2c-0.5-0.5-0.7-1.4-0.7-2.4V81.1h2.4v12.7c0,0.3,0.1,0.5,0.2,0.7
			c0.1,0.2,0.3,0.2,0.5,0.2h1.2V97h-1.4C244.2,97,243.4,96.7,243,96.2z"/>
		<path class="st8" d="M257.7,95.5c-0.7-1.9-1-4-1-6.3c0-2.3,0.3-4.4,1-6.3c0.7-1.9,1.8-3.6,3.2-5.1l1.7,1.5
			c-1.2,1.3-2.1,2.8-2.7,4.5c-0.6,1.6-0.9,3.5-0.9,5.4c0,2,0.3,3.8,0.9,5.4c0.6,1.6,1.5,3.1,2.7,4.5l-1.7,1.5
			C259.4,99.1,258.4,97.4,257.7,95.5z"/>
		<path class="st8" d="M264.9,79.7h2.2l8.4,13.3l-0.3,0.3V79.7h2.4v17.2h-2.2L267,83.8l0.3-0.3v13.4h-2.4V79.7z"/>
		<path class="st8" d="M283.7,96.5c-0.8-0.4-1.4-1.1-1.8-1.9c-0.4-0.8-0.6-1.8-0.6-3v-1.4c0-1.2,0.2-2.3,0.6-3.1
			c0.4-0.9,1-1.5,1.8-2c0.8-0.5,1.7-0.7,2.8-0.7c1,0,1.9,0.3,2.6,0.8c0.7,0.5,1.3,1.3,1.7,2.2c0.4,1,0.6,2.1,0.6,3.5v0.8H283v-1.9h6
			c-0.1-1-0.3-1.8-0.8-2.3c-0.4-0.6-1-0.8-1.8-0.8c-0.9,0-1.6,0.3-2.1,0.9c-0.5,0.6-0.8,1.4-0.8,2.5v1.6c0,1,0.3,1.8,0.8,2.3
			c0.5,0.5,1.3,0.8,2.3,0.8c0.5,0,1-0.1,1.5-0.3c0.5-0.2,0.9-0.5,1.3-0.8l1.6,1.6c-0.6,0.6-1.3,1-2.1,1.4c-0.8,0.3-1.5,0.5-2.3,0.5
			C285.5,97.1,284.5,96.9,283.7,96.5z"/>
		<path class="st8" d="M293.7,84.6h5.5v2.2h-5.5V84.6z M295.6,96.2c-0.5-0.5-0.7-1.4-0.7-2.4V81.1h2.4v12.7c0,0.3,0.1,0.5,0.2,0.7
			c0.1,0.2,0.3,0.2,0.5,0.2h1.2V97h-1.4C296.8,97,296.1,96.7,295.6,96.2z"/>
		<path class="st8" d="M300.9,99.2c1.2-1.3,2.1-2.8,2.7-4.5c0.6-1.6,0.9-3.5,0.9-5.4c0-2-0.3-3.8-0.9-5.4c-0.6-1.6-1.5-3.1-2.7-4.5
			l1.7-1.5c1.4,1.5,2.5,3.2,3.2,5.1c0.7,1.9,1.1,4,1.1,6.3c0,2.3-0.3,4.4-1.1,6.3c-0.7,1.9-1.8,3.6-3.2,5.1L300.9,99.2z"/>
	</g>
	<g>
		<path class="st11" d="M219.1,9.4L208.5,45h-6.1L213,9.8h-10.3v5.8h-5.7V4.3h22.1V9.4z"/>
		<path class="st11" d="M227.2,19.9c-1.2-1.3-1.8-3-1.8-5.3v-3.5c0-2.3,0.6-4,1.8-5.3c1.2-1.3,2.8-1.9,5-1.9c2.2,0,3.8,0.6,5,1.9
			c1.2,1.3,1.8,3,1.8,5.3v3.4c0,2.3-0.6,4-1.8,5.3c-1.2,1.2-2.8,1.9-5,1.9C230.1,21.7,228.4,21.1,227.2,19.9z M250.7,4.3h5L233.6,45
			h-5L250.7,4.3z M233.8,16.7c0.4-0.4,0.6-1,0.6-1.8v-4.1c0-0.7-0.2-1.3-0.6-1.7s-0.9-0.6-1.5-0.6c-0.7,0-1.2,0.2-1.6,0.6
			c-0.4,0.4-0.5,1-0.5,1.8v4.1c0,0.8,0.2,1.4,0.5,1.8c0.4,0.4,0.9,0.6,1.6,0.6C232.9,17.3,233.4,17.1,233.8,16.7z M247.4,43.5
			c-1.2-1.3-1.8-3-1.8-5.3v-3.5c0-2.3,0.6-4,1.8-5.3c1.2-1.3,2.8-1.9,5-1.9c2.2,0,3.8,0.6,5,1.9c1.2,1.3,1.8,3,1.8,5.3v3.4
			c0,2.3-0.6,4-1.8,5.3c-1.2,1.2-2.8,1.9-5,1.9C250.3,45.4,248.6,44.8,247.4,43.5z M254,40.3c0.4-0.4,0.6-1,0.6-1.8v-4.1
			c0-0.7-0.2-1.3-0.6-1.7c-0.4-0.4-0.9-0.6-1.5-0.6c-0.7,0-1.2,0.2-1.6,0.6c-0.4,0.4-0.5,1-0.5,1.8v4.1c0,0.8,0.2,1.4,0.5,1.8
			c0.4,0.4,0.9,0.6,1.6,0.6C253.1,40.9,253.6,40.7,254,40.3z"/>
	</g>
	<path class="st10" d="M203.3,108.5v109.7c0,13.4,10.9,24.3,24.3,24.2l102.3-0.7"/>
</g>
<g class="wow pcbn pcb7">
	<g>
		<path class="st8" d="M450.3,90.5h2.1l6.4,17.2h-2.6l-4.8-13.9l-4.8,13.9h-2.6L450.3,90.5z M446.9,101.6h9.1v2.3h-9.1V101.6z"/>
		<path class="st8" d="M463.2,107.2c-0.8-0.4-1.4-1-1.8-1.8c-0.4-0.8-0.6-1.8-0.6-2.9v-2c0-1.1,0.2-2.1,0.6-2.9
			c0.4-0.8,1-1.4,1.8-1.8c0.8-0.4,1.8-0.6,2.9-0.6c0.6,0,1.2,0.1,1.8,0.2c0.6,0.2,1.1,0.4,1.5,0.7c0.5,0.3,0.8,0.6,1.1,1.1l-1.7,1.6
			c-0.3-0.4-0.8-0.7-1.2-0.9c-0.5-0.2-1-0.3-1.5-0.3c-0.9,0-1.7,0.3-2.2,0.8c-0.5,0.5-0.8,1.3-0.8,2.2v2c0,1,0.3,1.7,0.8,2.3
			c0.5,0.5,1.2,0.8,2.2,0.8c0.5,0,1-0.1,1.5-0.3c0.5-0.2,0.9-0.6,1.2-1l1.7,1.7c-0.3,0.4-0.7,0.8-1.1,1c-0.5,0.3-1,0.5-1.5,0.7
			c-0.6,0.1-1.2,0.2-1.8,0.2C464.9,107.9,464,107.7,463.2,107.2z"/>
		<path class="st8" d="M475.3,107.2c-0.8-0.4-1.4-1-1.8-1.8c-0.4-0.8-0.6-1.8-0.6-2.9v-2c0-1.1,0.2-2.1,0.6-2.9
			c0.4-0.8,1-1.4,1.8-1.8c0.8-0.4,1.8-0.6,2.9-0.6c0.6,0,1.2,0.1,1.8,0.2c0.6,0.2,1.1,0.4,1.5,0.7c0.5,0.3,0.8,0.6,1.1,1.1l-1.7,1.6
			c-0.3-0.4-0.8-0.7-1.2-0.9c-0.5-0.2-1-0.3-1.5-0.3c-0.9,0-1.7,0.3-2.2,0.8s-0.8,1.3-0.8,2.2v2c0,1,0.3,1.7,0.8,2.3
			c0.5,0.5,1.2,0.8,2.2,0.8c0.5,0,1-0.1,1.5-0.3c0.5-0.2,0.9-0.6,1.2-1l1.7,1.7c-0.3,0.4-0.7,0.8-1.1,1c-0.5,0.3-1,0.5-1.5,0.7
			c-0.6,0.1-1.2,0.2-1.8,0.2C477,107.9,476,107.7,475.3,107.2z"/>
		<path class="st8" d="M487.4,102.9c0,0.9,0.2,1.5,0.7,2c0.4,0.5,1.1,0.7,1.9,0.7c0.8,0,1.4-0.2,1.8-0.6c0.4-0.4,0.7-1,0.7-1.8
			l0.2,2.6c-0.3,0.6-0.7,1.1-1.2,1.5c-0.6,0.4-1.3,0.6-2.1,0.6c-1.4,0-2.4-0.4-3.1-1.3c-0.7-0.9-1.1-2.1-1.1-3.7v-7.5h2.4V102.9z
			 M492.4,95.4h2.4v12.3h-2.4V95.4z"/>
		<path class="st8" d="M498.5,95.4h2.4v12.3h-2.4V95.4z M505.8,100.2c0-0.9-0.2-1.5-0.6-2c-0.4-0.5-1-0.7-1.8-0.7
			c-0.8,0-1.4,0.2-1.8,0.6c-0.4,0.4-0.6,1-0.6,1.8l-0.2-2.4c0.4-0.7,0.9-1.3,1.5-1.7c0.6-0.4,1.3-0.6,2-0.6c0.9,0,1.6,0.2,2.2,0.6
			c0.6,0.4,1.1,1,1.4,1.7s0.5,1.7,0.5,2.7v7.5h-2.4V100.2z M513.2,100.2c0-0.9-0.2-1.5-0.7-2c-0.5-0.5-1.1-0.7-1.9-0.7
			c-0.8,0-1.3,0.2-1.7,0.7c-0.4,0.5-0.6,1.1-0.6,1.9l-0.5-2.4c0.4-0.8,0.9-1.4,1.5-1.9c0.6-0.4,1.3-0.7,2.1-0.7
			c0.9,0,1.6,0.2,2.3,0.6c0.6,0.4,1.1,1,1.4,1.7c0.3,0.8,0.5,1.7,0.5,2.7v7.5h-2.4V100.2z"/>
		<path class="st8" d="M521.7,102.9c0,0.9,0.2,1.5,0.7,2c0.4,0.5,1.1,0.7,1.9,0.7c0.8,0,1.4-0.2,1.8-0.6c0.4-0.4,0.7-1,0.7-1.8
			l0.2,2.6c-0.3,0.6-0.7,1.1-1.2,1.5c-0.6,0.4-1.3,0.6-2.1,0.6c-1.4,0-2.4-0.4-3.1-1.3c-0.7-0.9-1.1-2.1-1.1-3.7v-7.5h2.4V102.9z
			 M526.7,95.4h2.4v12.3h-2.4V95.4z"/>
		<path class="st8" d="M535.2,104.5c0,0.3,0.1,0.5,0.2,0.7c0.1,0.2,0.3,0.2,0.6,0.2h1.1v2.3h-1.4c-0.9,0-1.6-0.3-2.1-0.9
			c-0.5-0.6-0.8-1.4-0.8-2.4v-14h2.4V104.5z"/>
		<path class="st8" d="M540.2,106.9c-0.8-0.6-1.1-1.6-1.1-2.9c0-1.2,0.3-2.1,1-2.7c0.7-0.6,1.7-0.9,3.1-0.9h3.5l0.2,1.9h-3.7
			c-0.6,0-1.1,0.1-1.4,0.4c-0.3,0.3-0.5,0.7-0.5,1.3c0,0.6,0.2,1.1,0.6,1.4c0.4,0.3,1,0.5,1.9,0.5c0.9,0,1.6-0.1,2.1-0.3
			c0.5-0.2,0.7-0.5,0.7-0.9l0.2,1.7c-0.2,0.3-0.5,0.6-0.8,0.8c-0.3,0.2-0.7,0.4-1.1,0.5s-0.9,0.2-1.4,0.2
			C542.1,107.9,541,107.5,540.2,106.9z M546.6,99.9c0-0.8-0.2-1.4-0.6-1.9c-0.4-0.4-1-0.7-1.8-0.7c-0.5,0-1,0.1-1.4,0.2
			c-0.5,0.2-0.9,0.4-1.2,0.6l-1.8-1.2c0.5-0.6,1.1-1,1.8-1.3c0.8-0.3,1.6-0.5,2.5-0.5c1,0,1.9,0.2,2.6,0.5c0.7,0.4,1.3,0.9,1.7,1.6
			c0.4,0.7,0.6,1.5,0.6,2.5v7.9h-2.3V99.9z"/>
		<path class="st8" d="M551.6,95.4h5.5v2.2h-5.5V95.4z M553.6,106.9c-0.5-0.5-0.7-1.4-0.7-2.4V91.8h2.4v12.7c0,0.3,0.1,0.5,0.2,0.7
			c0.1,0.2,0.3,0.2,0.5,0.2h1.2v2.3h-1.4C554.8,107.7,554.1,107.5,553.6,106.9z"/>
		<path class="st8" d="M560.5,90.5h2.4v2.4h-2.4V90.5z M560.5,95.4h2.4v12.3h-2.4V95.4z"/>
		<path class="st8" d="M568.6,107.2c-0.8-0.4-1.3-1-1.7-1.8c-0.4-0.8-0.6-1.8-0.6-2.9v-2c0-1.1,0.2-2.1,0.6-2.9
			c0.4-0.8,1-1.4,1.7-1.8c0.8-0.4,1.7-0.6,2.7-0.6c1.1,0,2,0.2,2.7,0.6c0.8,0.4,1.3,1,1.7,1.8c0.4,0.8,0.6,1.7,0.6,2.9v2
			c0,1.1-0.2,2.1-0.6,2.9c-0.4,0.8-1,1.4-1.7,1.8c-0.8,0.4-1.7,0.6-2.7,0.6C570.3,107.9,569.3,107.7,568.6,107.2z M573.3,104.8
			c0.5-0.5,0.7-1.3,0.7-2.2v-2c0-1-0.2-1.7-0.7-2.2c-0.5-0.5-1.1-0.8-2-0.8s-1.5,0.3-2,0.8c-0.5,0.5-0.7,1.3-0.7,2.2v2
			c0,1,0.2,1.7,0.7,2.2c0.5,0.5,1.1,0.8,2,0.8S572.8,105.3,573.3,104.8z"/>
		<path class="st8" d="M579.8,95.4h2.4v12.3h-2.4V95.4z M587.3,100.2c0-0.9-0.2-1.5-0.7-2c-0.5-0.5-1.1-0.7-1.9-0.7
			c-0.8,0-1.4,0.2-1.8,0.6c-0.4,0.4-0.6,1-0.6,1.8l-0.2-2.4c0.4-0.7,0.9-1.3,1.5-1.7c0.6-0.4,1.3-0.6,2-0.6c1.3,0,2.4,0.4,3.1,1.3
			c0.7,0.9,1.1,2.1,1.1,3.7v7.5h-2.4V100.2z"/>
	</g>
	<g>
		<path class="st8" d="M445.6,115.9h2.4v17.2h-2.4V115.9z M446.8,115.9h9.7v2.3h-9.7V115.9z M446.8,123.6h8.4v2.3h-8.4V123.6z"/>
		<path class="st8" d="M460.9,132.7c-0.8-0.4-1.3-1-1.7-1.8c-0.4-0.8-0.6-1.8-0.6-2.9v-2c0-1.1,0.2-2.1,0.6-2.9
			c0.4-0.8,1-1.4,1.7-1.8c0.8-0.4,1.7-0.6,2.7-0.6c1.1,0,2,0.2,2.7,0.6c0.8,0.4,1.3,1,1.7,1.8c0.4,0.8,0.6,1.7,0.6,2.9v2
			c0,1.1-0.2,2.1-0.6,2.9c-0.4,0.8-1,1.4-1.7,1.8c-0.8,0.4-1.7,0.6-2.7,0.6C462.6,133.3,461.7,133.1,460.9,132.7z M465.6,130.2
			c0.5-0.5,0.7-1.3,0.7-2.2v-2c0-1-0.2-1.7-0.7-2.2c-0.5-0.5-1.1-0.8-2-0.8c-0.8,0-1.5,0.3-2,0.8c-0.5,0.5-0.7,1.3-0.7,2.2v2
			c0,1,0.2,1.7,0.7,2.2c0.5,0.5,1.1,0.8,2,0.8C464.5,131,465.1,130.7,465.6,130.2z"/>
		<path class="st8" d="M472.2,120.8h2.4v12.3h-2.4V120.8z M478.1,123.1c-0.3-0.1-0.7-0.2-1.1-0.2c-0.8,0-1.4,0.2-1.8,0.6
			c-0.4,0.4-0.6,1-0.6,1.8l-0.2-2.4c0.4-0.7,0.9-1.3,1.5-1.7c0.6-0.4,1.3-0.6,2-0.6c0.6,0,1.1,0.1,1.5,0.2c0.5,0.2,0.9,0.4,1.2,0.7
			l-1.6,2.1C478.7,123.5,478.4,123.3,478.1,123.1z"/>
		<path class="st8" d="M489.3,115.9h2.2l8.4,13.3l-0.3,0.3v-13.6h2.4v17.2h-2.2l-8.4-13.1l0.3-0.3v13.4h-2.4V115.9z"/>
		<path class="st8" d="M508.1,132.7c-0.8-0.4-1.4-1.1-1.8-1.9s-0.6-1.8-0.6-3v-1.4c0-1.2,0.2-2.3,0.6-3.1c0.4-0.9,1-1.5,1.8-2
			c0.8-0.5,1.7-0.7,2.8-0.7c1,0,1.9,0.3,2.6,0.8c0.7,0.5,1.3,1.3,1.7,2.2c0.4,1,0.6,2.1,0.6,3.5v0.8h-8.3V126h6
			c-0.1-1-0.3-1.8-0.8-2.3c-0.4-0.6-1-0.8-1.8-0.8c-0.9,0-1.6,0.3-2.1,0.9c-0.5,0.6-0.8,1.4-0.8,2.5v1.6c0,1,0.3,1.8,0.8,2.3
			c0.5,0.5,1.3,0.8,2.3,0.8c0.5,0,1-0.1,1.5-0.3c0.5-0.2,0.9-0.5,1.3-0.8l1.6,1.6c-0.6,0.6-1.3,1-2.1,1.4c-0.8,0.3-1.5,0.5-2.3,0.5
			C509.9,133.3,509,133.1,508.1,132.7z"/>
		<path class="st8" d="M522.2,126.3l1.2,2.2l-3.1,4.6h-2.7L522.2,126.3z M522.2,127.5l-4.5-6.7h2.7l3.5,5.5l4.7,6.8h-2.7
			L522.2,127.5z M523,125.2l2.7-4.4h2.7l-4.4,6.6L523,125.2z"/>
		<path class="st8" d="M530.3,120.8h5.5v2.2h-5.5V120.8z M532.3,132.4c-0.5-0.5-0.7-1.4-0.7-2.4v-12.7h2.4v12.7
			c0,0.3,0.1,0.5,0.2,0.7c0.1,0.2,0.3,0.2,0.5,0.2h1.2v2.3h-1.4C533.5,133.2,532.7,132.9,532.3,132.4z"/>
		<path class="st8" d="M551.1,126.1v7h-2.4v-7l-5.3-10.2h2.7l3.8,7.8l3.8-7.8h2.7L551.1,126.1z"/>
		<path class="st8" d="M559,132.7c-0.8-0.4-1.4-1.1-1.8-1.9c-0.4-0.8-0.6-1.8-0.6-3v-1.4c0-1.2,0.2-2.3,0.6-3.1c0.4-0.9,1-1.5,1.8-2
			c0.8-0.5,1.7-0.7,2.8-0.7c1,0,1.9,0.3,2.6,0.8c0.7,0.5,1.3,1.3,1.7,2.2c0.4,1,0.6,2.1,0.6,3.5v0.8h-8.3V126h6
			c-0.1-1-0.3-1.8-0.8-2.3c-0.4-0.6-1-0.8-1.8-0.8c-0.9,0-1.6,0.3-2.1,0.9c-0.5,0.6-0.8,1.4-0.8,2.5v1.6c0,1,0.3,1.8,0.8,2.3
			c0.5,0.5,1.3,0.8,2.3,0.8c0.5,0,1-0.1,1.5-0.3c0.5-0.2,0.9-0.5,1.3-0.8l1.6,1.6c-0.6,0.6-1.3,1-2.1,1.4c-0.8,0.3-1.5,0.5-2.3,0.5
			C560.7,133.3,559.8,133.1,559,132.7z"/>
		<path class="st8" d="M570.4,132.4c-0.8-0.6-1.1-1.6-1.1-2.9c0-1.2,0.3-2.1,1-2.7c0.7-0.6,1.7-0.9,3.1-0.9h3.5l0.2,1.9h-3.7
			c-0.6,0-1.1,0.1-1.4,0.4c-0.3,0.3-0.5,0.7-0.5,1.3c0,0.6,0.2,1.1,0.6,1.4c0.4,0.3,1,0.5,1.9,0.5c0.9,0,1.6-0.1,2.1-0.3
			c0.5-0.2,0.7-0.5,0.7-0.9l0.3,1.7c-0.2,0.3-0.5,0.6-0.8,0.8c-0.3,0.2-0.7,0.4-1.1,0.5c-0.4,0.1-0.9,0.2-1.4,0.2
			C572.3,133.3,571.1,133,570.4,132.4z M576.8,125.3c0-0.8-0.2-1.4-0.6-1.9c-0.4-0.4-1-0.7-1.8-0.7c-0.5,0-1,0.1-1.4,0.2
			c-0.5,0.2-0.9,0.4-1.2,0.6l-1.8-1.2c0.5-0.6,1.1-1,1.8-1.3c0.8-0.3,1.6-0.5,2.5-0.5c1,0,1.9,0.2,2.6,0.5c0.7,0.4,1.3,0.9,1.7,1.6
			c0.4,0.7,0.6,1.5,0.6,2.5v7.9h-2.3V125.3z"/>
		<path class="st8" d="M582.8,120.8h2.4v12.3h-2.4V120.8z M588.7,123.1c-0.3-0.1-0.7-0.2-1.1-0.2c-0.8,0-1.4,0.2-1.8,0.6
			c-0.4,0.4-0.6,1-0.6,1.8l-0.2-2.4c0.4-0.7,0.9-1.3,1.5-1.7c0.6-0.4,1.3-0.6,2-0.6c0.6,0,1.1,0.1,1.5,0.2c0.5,0.2,0.9,0.4,1.2,0.7
			l-1.6,2.1C589.3,123.5,589.1,123.3,588.7,123.1z"/>
	</g>
	<g>
		<path class="st12" d="M443.6,76.2l14.2-18.9c0.8-1.1,1.5-2.2,1.9-3.4c0.5-1.2,0.7-2.2,0.7-3.3v-0.1c0-1.6-0.5-2.9-1.4-3.8
			c-1-0.9-2.3-1.3-4.1-1.3c-1.7,0-3,0.5-4,1.5c-1,1-1.6,2.4-1.9,4.1v0h-5.9v0c0.3-2.3,1-4.3,2.1-6c1-1.6,2.4-2.9,4-3.8
			c1.6-0.9,3.5-1.3,5.7-1.3c2.4,0,4.5,0.4,6.2,1.2c1.7,0.8,3,2,3.9,3.6s1.3,3.5,1.3,5.7v0c0,1.4-0.3,2.9-0.9,4.5
			c-0.6,1.6-1.4,3.1-2.5,4.5l-11.8,16h15.4v5.4h-22.9V76.2z"/>
		<path class="st12" d="M473.1,75.2h6v6h-6V75.2z"/>
		<path class="st12" d="M507.7,45.6l-10.5,35.5h-6.1l10.5-35.2h-10.3v5.8h-5.7V40.5h22.1V45.6z"/>
		<path class="st12" d="M529.9,61l0,1c-0.5,0.9-1.2,1.5-2.1,1.9c-0.9,0.4-2.1,0.6-3.3,0.6c-1.9,0-3.6-0.5-5.1-1.5
			c-1.5-1-2.6-2.4-3.4-4.2c-0.8-1.8-1.2-3.9-1.2-6.2v0c0-2.6,0.4-4.9,1.3-6.7c0.9-1.9,2.2-3.3,3.9-4.2c1.7-1,3.8-1.5,6.1-1.5
			s4.4,0.5,6.1,1.5c1.7,1,3,2.4,3.9,4.3c0.9,1.9,1.3,4.1,1.3,6.8v0c0,1.5-0.2,3-0.6,4.7c-0.4,1.6-0.9,3.3-1.6,4.9
			c-0.1,0.2-0.2,0.5-0.3,0.7c-0.1,0.3-0.2,0.5-0.4,0.7l-8.7,17.4h-6.1L529.9,61z M530.2,57.4c1-1.2,1.5-2.9,1.5-5.1v0
			c0-2.1-0.5-3.8-1.5-5c-1-1.2-2.4-1.8-4.1-1.8c-1.8,0-3.2,0.6-4.2,1.8c-1,1.2-1.5,2.8-1.5,5v0c0,2.2,0.5,3.9,1.5,5.1
			c1,1.2,2.4,1.8,4.2,1.8C527.8,59.3,529.2,58.6,530.2,57.4z"/>
		<path class="st12" d="M545.3,56c-1.2-1.3-1.8-3-1.8-5.3v-3.5c0-2.3,0.6-4,1.8-5.3c1.2-1.3,2.8-1.9,5-1.9c2.2,0,3.8,0.6,5,1.9
			c1.2,1.3,1.8,3,1.8,5.3v3.4c0,2.3-0.6,4-1.8,5.3c-1.2,1.2-2.8,1.9-5,1.9C548.1,57.9,546.5,57.3,545.3,56z M568.8,40.5h5
			l-22.1,40.6h-5L568.8,40.5z M551.8,52.8c0.4-0.4,0.6-1,0.6-1.8v-4.1c0-0.7-0.2-1.3-0.6-1.7c-0.4-0.4-0.9-0.6-1.5-0.6
			c-0.7,0-1.2,0.2-1.6,0.6c-0.4,0.4-0.5,1-0.5,1.8V51c0,0.8,0.2,1.4,0.5,1.8c0.4,0.4,0.9,0.6,1.6,0.6
			C550.9,53.5,551.4,53.3,551.8,52.8z M565.5,79.7c-1.2-1.3-1.8-3-1.8-5.3v-3.5c0-2.3,0.6-4,1.8-5.3c1.2-1.3,2.8-1.9,5-1.9
			c2.2,0,3.8,0.6,5,1.9c1.2,1.3,1.8,3,1.8,5.3v3.4c0,2.3-0.6,4-1.8,5.3s-2.8,1.9-5,1.9C568.3,81.6,566.7,80.9,565.5,79.7z M572,76.5
			c0.4-0.4,0.6-1,0.6-1.8v-4.1c0-0.7-0.2-1.3-0.6-1.7c-0.4-0.4-0.9-0.6-1.5-0.6c-0.7,0-1.2,0.2-1.6,0.6c-0.4,0.4-0.5,1-0.5,1.8v4.1
			c0,0.8,0.2,1.4,0.5,1.8c0.4,0.4,0.9,0.6,1.6,0.6C571.1,77.1,571.7,76.9,572,76.5z"/>
	</g>
	<line class="st10" x1="450.4" y1="143.7" x2="450.4" y2="303.8"/>
</g>
<g class="wow pcbn pcb8">
	<g>
		<path class="st8" d="M640.2,129.8h2.4V147h-2.4V129.8z M641.9,144.7h3.9c1.3,0,2.3-0.3,3-1c0.7-0.7,1-1.6,1-2.8v-5.1
			c0-1.2-0.3-2.1-1-2.8c-0.7-0.7-1.7-1-3-1h-3.9v-2.3h3.8c1.4,0,2.6,0.2,3.5,0.7c1,0.5,1.7,1.2,2.2,2.1c0.5,0.9,0.8,2,0.8,3.3v4.9
			c0,1.3-0.3,2.4-0.8,3.3c-0.5,0.9-1.3,1.6-2.2,2.1c-1,0.5-2.2,0.7-3.5,0.7h-3.8V144.7z"/>
		<path class="st8" d="M658,146.5c-0.8-0.4-1.4-1.1-1.8-1.9c-0.4-0.8-0.6-1.8-0.6-3v-1.4c0-1.2,0.2-2.3,0.6-3.1c0.4-0.9,1-1.5,1.8-2
			s1.7-0.7,2.8-0.7c1,0,1.9,0.3,2.6,0.8c0.7,0.5,1.3,1.3,1.7,2.2c0.4,1,0.6,2.1,0.6,3.5v0.8h-8.3v-1.9h6c-0.1-1-0.3-1.8-0.8-2.3
			s-1-0.8-1.8-0.8c-0.9,0-1.6,0.3-2.1,0.9c-0.5,0.6-0.8,1.4-0.8,2.5v1.6c0,1,0.3,1.8,0.8,2.3c0.5,0.5,1.3,0.8,2.3,0.8
			c0.5,0,1-0.1,1.5-0.3c0.5-0.2,0.9-0.5,1.3-0.8l1.6,1.6c-0.6,0.6-1.3,1-2,1.4c-0.8,0.3-1.5,0.5-2.3,0.5
			C659.8,147.2,658.8,147,658,146.5z"/>
		<path class="st8" d="M668.9,134.7h2.4V152h-2.4V134.7z M672.4,146.6c-0.6-0.4-1-0.9-1.3-1.6l0.2-2.6c0,0.5,0.1,1,0.3,1.4
			c0.2,0.4,0.5,0.7,0.8,0.9c0.4,0.2,0.8,0.3,1.3,0.3c0.8,0,1.4-0.2,1.9-0.7c0.4-0.5,0.7-1.2,0.7-2.1v-2.7c0-0.9-0.2-1.6-0.7-2.1
			c-0.4-0.5-1.1-0.7-1.9-0.7c-0.5,0-0.9,0.1-1.3,0.3c-0.4,0.2-0.6,0.5-0.8,0.8c-0.2,0.4-0.3,0.8-0.3,1.3l-0.2-2.4
			c0.4-0.7,0.9-1.3,1.5-1.7c0.6-0.4,1.3-0.6,2-0.6c0.9,0,1.6,0.2,2.2,0.6c0.6,0.4,1.1,1,1.4,1.7c0.3,0.8,0.5,1.7,0.5,2.7v2.7
			c0,1-0.2,1.9-0.5,2.7s-0.8,1.3-1.5,1.7c-0.6,0.4-1.4,0.6-2.3,0.6C673.7,147.2,673,147,672.4,146.6z"/>
		<path class="st8" d="M682.1,134.7h2.4V147h-2.4V134.7z M688.1,137c-0.3-0.1-0.7-0.2-1.1-0.2c-0.8,0-1.4,0.2-1.8,0.6
			c-0.4,0.4-0.6,1-0.6,1.8l-0.2-2.4c0.4-0.7,0.9-1.3,1.5-1.7s1.3-0.6,2-0.6c0.6,0,1.1,0.1,1.5,0.2c0.5,0.2,0.9,0.4,1.2,0.7l-1.6,2.1
			C688.7,137.4,688.4,137.2,688.1,137z"/>
		<path class="st8" d="M694.4,146.5c-0.8-0.4-1.4-1.1-1.8-1.9s-0.6-1.8-0.6-3v-1.4c0-1.2,0.2-2.3,0.6-3.1c0.4-0.9,1-1.5,1.8-2
			c0.8-0.5,1.7-0.7,2.8-0.7c1,0,1.9,0.3,2.6,0.8c0.7,0.5,1.3,1.3,1.7,2.2c0.4,1,0.6,2.1,0.6,3.5v0.8h-8.3v-1.9h6
			c-0.1-1-0.3-1.8-0.8-2.3c-0.4-0.6-1-0.8-1.8-0.8c-0.9,0-1.6,0.3-2.1,0.9c-0.5,0.6-0.8,1.4-0.8,2.5v1.6c0,1,0.3,1.8,0.8,2.3
			c0.5,0.5,1.3,0.8,2.3,0.8c0.5,0,1-0.1,1.5-0.3c0.5-0.2,0.9-0.5,1.3-0.8l1.6,1.6c-0.6,0.6-1.3,1-2,1.4c-0.8,0.3-1.5,0.5-2.3,0.5
			C696.2,147.2,695.2,147,694.4,146.5z"/>
		<path class="st8" d="M707.4,146.6c-0.8-0.4-1.4-1-1.8-1.8c-0.4-0.8-0.6-1.8-0.6-2.9v-2c0-1.1,0.2-2.1,0.6-2.9
			c0.4-0.8,1-1.4,1.8-1.8c0.8-0.4,1.8-0.6,2.9-0.6c0.6,0,1.2,0.1,1.8,0.2c0.6,0.2,1.1,0.4,1.5,0.7s0.8,0.6,1.1,1.1l-1.7,1.6
			c-0.3-0.4-0.8-0.7-1.2-0.9c-0.5-0.2-1-0.3-1.5-0.3c-0.9,0-1.7,0.3-2.2,0.8c-0.5,0.5-0.8,1.3-0.8,2.2v2c0,1,0.3,1.7,0.8,2.3
			c0.5,0.5,1.2,0.8,2.2,0.8c0.5,0,1-0.1,1.5-0.3c0.5-0.2,0.9-0.6,1.2-1l1.7,1.7c-0.3,0.4-0.7,0.8-1.1,1c-0.5,0.3-1,0.5-1.5,0.7
			c-0.6,0.1-1.2,0.2-1.8,0.2C709.1,147.2,708.2,147,707.4,146.6z"/>
		<path class="st8" d="M717.4,129.8h2.4v2.4h-2.4V129.8z M717.4,134.7h2.4V147h-2.4V134.7z"/>
		<path class="st8" d="M724,146.2c-0.8-0.6-1.1-1.6-1.1-2.9c0-1.2,0.3-2.1,1-2.7c0.7-0.6,1.7-0.9,3.1-0.9h3.5l0.2,1.9H727
			c-0.6,0-1.1,0.1-1.4,0.4c-0.3,0.3-0.5,0.7-0.5,1.3c0,0.6,0.2,1.1,0.6,1.4c0.4,0.3,1,0.5,1.9,0.5c0.9,0,1.6-0.1,2.1-0.3
			c0.5-0.2,0.7-0.5,0.7-0.9l0.2,1.7c-0.2,0.3-0.5,0.6-0.8,0.8c-0.3,0.2-0.7,0.4-1.1,0.5c-0.4,0.1-0.9,0.2-1.4,0.2
			C725.9,147.2,724.7,146.9,724,146.2z M730.4,139.2c0-0.8-0.2-1.4-0.6-1.9c-0.4-0.4-1-0.7-1.8-0.7c-0.5,0-1,0.1-1.4,0.2
			c-0.5,0.2-0.9,0.4-1.3,0.6l-1.8-1.2c0.5-0.6,1.1-1,1.8-1.3c0.8-0.3,1.6-0.5,2.5-0.5c1,0,1.9,0.2,2.6,0.5c0.7,0.4,1.3,0.9,1.7,1.6
			c0.4,0.7,0.6,1.5,0.6,2.5v7.9h-2.3V139.2z"/>
		<path class="st8" d="M735.4,134.7h5.5v2.2h-5.5V134.7z M737.4,146.2c-0.5-0.5-0.7-1.4-0.7-2.4v-12.7h2.4v12.7
			c0,0.3,0.1,0.5,0.2,0.7c0.1,0.2,0.3,0.2,0.5,0.2h1.2v2.3h-1.4C738.6,147.1,737.9,146.8,737.4,146.2z"/>
		<path class="st8" d="M744.3,129.8h2.4v2.4h-2.4V129.8z M744.3,134.7h2.4V147h-2.4V134.7z"/>
		<path class="st8" d="M752.4,146.6c-0.8-0.4-1.3-1-1.7-1.8c-0.4-0.8-0.6-1.8-0.6-2.9v-2c0-1.1,0.2-2.1,0.6-2.9
			c0.4-0.8,1-1.4,1.7-1.8c0.8-0.4,1.7-0.6,2.7-0.6c1.1,0,2,0.2,2.7,0.6c0.8,0.4,1.3,1,1.7,1.8c0.4,0.8,0.6,1.7,0.6,2.9v2
			c0,1.1-0.2,2.1-0.6,2.9c-0.4,0.8-1,1.4-1.7,1.8c-0.8,0.4-1.7,0.6-2.7,0.6C754,147.2,753.1,147,752.4,146.6z M757.1,144.1
			c0.5-0.5,0.7-1.3,0.7-2.2v-2c0-1-0.2-1.7-0.7-2.2c-0.5-0.5-1.1-0.8-2-0.8c-0.8,0-1.5,0.3-2,0.8c-0.5,0.5-0.7,1.3-0.7,2.2v2
			c0,1,0.2,1.7,0.7,2.2c0.5,0.5,1.1,0.8,2,0.8C756,144.9,756.6,144.6,757.1,144.1z"/>
		<path class="st8" d="M763.6,134.7h2.4V147h-2.4V134.7z M771.1,139.6c0-0.9-0.2-1.5-0.7-2c-0.5-0.5-1.1-0.7-1.9-0.7
			c-0.8,0-1.4,0.2-1.8,0.6c-0.4,0.4-0.6,1-0.6,1.8l-0.2-2.4c0.4-0.7,0.9-1.3,1.5-1.7c0.6-0.4,1.3-0.6,2-0.6c1.3,0,2.4,0.4,3.1,1.3
			c0.7,0.9,1.1,2.1,1.1,3.7v7.5h-2.4V139.6z"/>
	</g>
	<g>
		<path class="st13" d="M641.8,116.6c-2-2-2.9-4.9-2.9-8.5V89.6c0-3.7,1-6.5,3-8.5c2-2,4.9-3,8.6-3c3.8,0,6.7,1,8.6,3
			c2,2,2.9,4.9,2.9,8.5v18.5c0,3.7-1,6.5-3,8.5c-2,2-4.9,3-8.6,3C646.6,119.7,643.7,118.6,641.8,116.6z M654.9,112.7
			c1-1.1,1.4-2.6,1.4-4.5V89.6c0-2-0.5-3.5-1.4-4.5c-1-1.1-2.4-1.6-4.5-1.6c-2,0-3.5,0.5-4.5,1.6c-1,1.1-1.4,2.6-1.4,4.5v18.5
			c0,2,0.5,3.5,1.4,4.5c1,1.1,2.4,1.6,4.5,1.6C652.4,114.2,653.9,113.7,654.9,112.7z"/>
		<path class="st13" d="M668.1,113.3h6v6h-6V113.3z"/>
		<path class="st13" d="M681.1,114.3l14.2-18.9c0.8-1.1,1.5-2.2,1.9-3.4c0.5-1.2,0.7-2.2,0.7-3.3v-0.1c0-1.6-0.5-2.9-1.4-3.8
			c-0.9-0.9-2.3-1.3-4.1-1.3c-1.7,0-3,0.5-4,1.5c-1,1-1.6,2.4-1.9,4.1v0h-5.9v0c0.3-2.3,1-4.3,2.1-6c1-1.6,2.4-2.9,4-3.8
			c1.6-0.9,3.5-1.3,5.7-1.3c2.4,0,4.5,0.4,6.2,1.2c1.7,0.8,3,2,3.9,3.6c0.9,1.6,1.3,3.5,1.3,5.7v0c0,1.4-0.3,2.9-0.9,4.5
			c-0.6,1.6-1.4,3.1-2.5,4.5l-11.8,16H704v5.4h-22.9V114.3z"/>
		<path class="st13" d="M710.7,114.3l14.2-18.9c0.8-1.1,1.5-2.2,1.9-3.4c0.5-1.2,0.7-2.2,0.7-3.3v-0.1c0-1.6-0.5-2.9-1.4-3.8
			s-2.3-1.3-4.1-1.3c-1.7,0-3,0.5-4,1.5c-1,1-1.6,2.4-1.9,4.1v0h-5.9v0c0.3-2.3,1-4.3,2.1-6c1-1.6,2.4-2.9,4-3.8
			c1.6-0.9,3.5-1.3,5.7-1.3c2.4,0,4.5,0.4,6.2,1.2c1.7,0.8,3,2,3.9,3.6c0.9,1.6,1.3,3.5,1.3,5.7v0c0,1.4-0.3,2.9-0.9,4.5
			c-0.6,1.6-1.4,3.1-2.5,4.5l-11.8,16h15.4v5.4h-22.9V114.3z"/>
		<path class="st13" d="M741.2,94.1c-1.2-1.3-1.8-3-1.8-5.3v-3.5c0-2.3,0.6-4,1.8-5.3c1.2-1.3,2.8-1.9,5-1.9c2.2,0,3.8,0.6,5,1.9
			c1.2,1.3,1.8,3,1.8,5.3v3.4c0,2.3-0.6,4-1.8,5.3s-2.8,1.9-5,1.9C744.1,96,742.4,95.4,741.2,94.1z M764.7,78.6h5l-22.1,40.6h-5
			L764.7,78.6z M747.8,90.9c0.4-0.4,0.6-1,0.6-1.8V85c0-0.7-0.2-1.3-0.6-1.7c-0.4-0.4-0.9-0.6-1.5-0.6c-0.7,0-1.2,0.2-1.6,0.6
			s-0.5,1-0.5,1.8v4.1c0,0.8,0.2,1.4,0.5,1.8s0.9,0.6,1.6,0.6C746.9,91.6,747.4,91.4,747.8,90.9z M761.4,117.8
			c-1.2-1.3-1.8-3-1.8-5.3V109c0-2.3,0.6-4,1.8-5.3c1.2-1.3,2.8-1.9,5-1.9c2.2,0,3.8,0.6,5,1.9c1.2,1.3,1.8,3,1.8,5.3v3.4
			c0,2.3-0.6,4-1.8,5.3s-2.8,1.9-5,1.9C764.3,119.7,762.6,119,761.4,117.8z M768,114.6c0.4-0.4,0.6-1,0.6-1.8v-4.1
			c0-0.7-0.2-1.3-0.6-1.7c-0.4-0.4-0.9-0.6-1.5-0.6c-0.7,0-1.2,0.2-1.6,0.6c-0.4,0.4-0.5,1-0.5,1.8v4.1c0,0.8,0.2,1.4,0.5,1.8
			c0.4,0.4,0.9,0.6,1.6,0.6C767.1,115.2,767.6,115,768,114.6z"/>
	</g>
	<line class="st10" x1="643.1" y1="158.9" x2="643.1" y2="268.6"/>
</g>
</svg>
