<svg xmlns="http://www.w3.org/2000/svg" xmlns:xlink="http://www.w3.org/1999/xlink" width="57.541" height="41.064" viewBox="0 0 57.541 41.064">
  <defs>
    <clipPath id="clip-path">
      <rect id="Rectangle_65856" data-name="Rectangle 65856" width="57.541" height="41.064" fill="none"/>
    </clipPath>
  </defs>
  <g id="Group_149408" data-name="Group 149408" transform="translate(0 0)">
    <g id="Group_149407" data-name="Group 149407" transform="translate(0 0)" clip-path="url(#clip-path)">
      <path id="Path_431" data-name="Path 431" d="M46.69,11.25c2.7,0,5.394,0,8.092-.007.211,0,.573.139.594-.21a.685.685,0,0,0-.506-.72,3,3,0,0,0-.724-.041q-7.619,0-15.236,0a5.972,5.972,0,0,0-.655.025c-.234.026-.318.194-.324.412-.006.234.032.456.306.5a3.906,3.906,0,0,0,.654.037q3.9,0,7.8,0m-35.953,0q3.754,0,7.508,0c.34,0,.681,0,1.02-.027.273-.021.351-.224.352-.465s-.076-.436-.354-.463a5.031,5.031,0,0,0-.509-.021q-7.763,0-15.527,0c-.145,0-.292,0-.437.014a.681.681,0,0,0-.617.7c-.013.416.395.251.618.252,2.647.014,5.3.009,7.945.009M30.719,31.026c0-1-.014-1.994.006-2.991.009-.482-.152-.721-.668-.708-.851.021-1.7.018-2.553,0-.492-.01-.7.18-.7.684q.019,3.027,0,6.054c0,.454.157.667.639.655.875-.022,1.752-.027,2.626,0,.533.018.666-.23.657-.706-.018-1-.006-1.993-.006-2.99m-2.011,8.529H52.572c.2,0,.39.009.584,0s.454.07.5-.172a.568.568,0,0,0-.365-.581,2.021,2.021,0,0,0-.934-.089H5.067c-.145,0-.292.008-.437,0-.465-.021-.83.235-.808.647.021.365.478.188.731.188q12.078.017,24.155.009M28.7,37.2H52.643c.219,0,.438,0,.657,0,.144,0,.336.014.363-.159a.626.626,0,0,0-.139-.4c-.3-.419-.752-.269-1.146-.269q-23.613-.01-47.228-.006c-.194,0-.389.006-.583,0-.435,0-.778.256-.752.629s.476.189.724.19q12.081.017,24.162.009m0-32.647h.73c2.749,0,5.5-.014,8.246.009.655,0,.714-.179.379-.688a8.174,8.174,0,0,1-.835-1.453,1.416,1.416,0,0,0-1.584-.931q-6.822.053-13.645,0c-.824-.007-1.388.157-1.7.991a9.072,9.072,0,0,1-.756,1.329c-.416.717-.407.739.4.739q4.378.005,8.756,0M4.478,23.771c0,3.382.019,6.764-.016,10.146-.007.737.208.956.949.95q6.642-.048,13.285,0c.743.006.951-.216.948-.951q-.038-10.109,0-20.219c0-.733-.205-.958-.949-.952q-6.642.048-13.284,0c-.745-.006-.956.22-.948.954.034,3.357.015,6.715.015,10.073m48.567.049c0-3.382-.016-6.764.013-10.146.006-.674-.155-.934-.886-.93q-6.678.046-13.357,0c-.687,0-.931.187-.929.9q.033,10.144,0,20.291c0,.684.184.931.9.926q6.678-.043,13.357,0c.695,0,.921-.189.914-.9-.033-3.381-.015-6.763-.015-10.145M36.387,20.453c0-4.5-.015-9,.014-13.5,0-.7-.2-.913-.9-.908q-6.712.043-13.427,0c-.738-.006-.951.2-.947.944.029,5.545.016,11.091.016,16.637,0,3.478.01,6.957-.01,10.435,0,.593.171.832.787.8a24.122,24.122,0,0,1,2.553,0c.642.035.841-.186.832-.829-.033-2.31-.015-4.621-.013-6.932,0-1.135.16-1.289,1.322-1.29q2.152-.005,4.3,0c1.1,0,1.314.211,1.316,1.328,0,2.31.017,4.621-.009,6.932-.007.608.2.818.8.789a21.159,21.159,0,0,1,2.48,0c.719.049.9-.221.9-.913-.027-4.5-.014-9-.014-13.5M28.763,41.062H3.43c-.268,0-.536.01-.8-.009-.87-.059-1.176-.57-.764-1.34.269-.5.64-.944-.05-1.413-.172-.117-.167-.4-.091-.618a1.344,1.344,0,0,1,.17-.4C3,35.85,2.984,34.2,2.973,32.5c-.042-6.254-.016-12.509-.017-18.763,0-.97,0-.968-.959-.973a11.518,11.518,0,0,1-1.24-.023.732.732,0,0,1-.646-1.142c.283-.618.649-1.2.911-1.828A1.538,1.538,0,0,1,2.668,8.751c5.256.029,10.512.015,15.77.015.218,0,.437-.007.656-.006a.469.469,0,0,0,.53-.542c0-.121,0-.243.006-.365.017-1.7.017-1.7-1.682-1.8-.8-.047-1.1-.506-.7-1.23.776-1.433,1.6-2.841,2.4-4.26A1.087,1.087,0,0,1,20.669,0q8.1,0,16.208,0A1.087,1.087,0,0,1,37.9.568c.8,1.419,1.624,2.827,2.4,4.26.4.747.09,1.2-.778,1.231-1.637.062-1.637.062-1.627,1.712.006.981.016.994,1.045.994,5.305,0,10.61.015,15.915-.014a1.539,1.539,0,0,1,1.657,1c.252.606.6,1.168.882,1.762.341.722.066,1.186-.736,1.238a13.53,13.53,0,0,1-1.459.007c-.479-.021-.64.194-.64.652q.012,10.8.011,21.61c0,.777.584,1.32.887,1.974.274.592.63,1.144-.115,1.659-.213.147-.087.348,0,.522.123.237.267.467.366.714a.759.759,0,0,1-.672,1.15,6.572,6.572,0,0,1-.875.023H28.763" transform="translate(0 0)" fill="#39455b"/>
      <path id="Path_432" data-name="Path 432" d="M25.818,16.3a3.551,3.551,0,1,0-3.52-3.591,3.525,3.525,0,0,0,3.52,3.591m.032,1.507a5.058,5.058,0,1,1,5.057-5.039,5.027,5.027,0,0,1-5.057,5.039" transform="translate(2.924 1.081)" fill="#39455b"/>
      <path id="Path_433" data-name="Path 433" d="M42.989,17.81c-1.946,0-1.97-.024-1.97-1.937,0-2.005.031-2.036,2.041-2.035,1.863,0,1.933.07,1.933,1.923v.073c0,1.976,0,1.976-2,1.976" transform="translate(5.77 1.946)" fill="#39455b"/>
      <path id="Path_434" data-name="Path 434" d="M43.022,28.3c-2,0-2,0-2-2.024,0-1.855,0-1.855,1.864-1.855,2.11,0,2.11,0,2.11,2.117,0,.121,0,.242,0,.364-.006,1.21-.185,1.39-1.388,1.4-.2,0-.389,0-.583,0" transform="translate(5.77 3.434)" fill="#39455b"/>
      <path id="Path_435" data-name="Path 435" d="M39.114,15.877c0,1.933,0,1.933-1.933,1.933-1.953,0-1.953,0-1.953-1.982s0-1.99,1.961-1.99c1.925,0,1.925,0,1.925,2.04" transform="translate(4.955 1.946)" fill="#39455b"/>
      <path id="Path_436" data-name="Path 436" d="M43.007,19.165c1.987,0,1.987,0,1.987,1.963,0,1.892-.029,1.92-1.914,1.921-2.061,0-2.061,0-2.06-2.067,0-1.817,0-1.817,1.987-1.817" transform="translate(5.77 2.695)" fill="#39455b"/>
      <path id="Path_437" data-name="Path 437" d="M37.142,28.3c-1.915,0-1.915,0-1.915-1.933s0-1.945,1.967-1.945c1.921,0,1.921,0,1.921,1.925,0,1.953,0,1.953-1.972,1.953" transform="translate(4.955 3.434)" fill="#39455b"/>
      <path id="Path_438" data-name="Path 438" d="M39.114,21.063c0,1.986,0,1.986-2.024,1.986-1.863,0-1.863,0-1.864-1.842,0-2.042,0-2.042,2.014-2.042,1.874,0,1.874,0,1.873,1.9" transform="translate(4.955 2.695)" fill="#39455b"/>
      <path id="Path_439" data-name="Path 439" d="M15.694,15.958c0,1.973,0,1.973-1.988,1.973-1.941,0-1.989-.048-1.989-2,0-1.913.062-1.974,1.941-1.974,2.036,0,2.036,0,2.036,2" transform="translate(1.648 1.963)" fill="#39455b"/>
      <path id="Path_440" data-name="Path 440" d="M15.694,21.226c0,1.93-.01,1.94-1.951,1.94-2,0-2.026-.025-2.026-2.036,0-1.852.059-1.911,1.933-1.911,2.038,0,2.043,0,2.043,2.006" transform="translate(1.648 2.703)" fill="#39455b"/>
      <path id="Path_441" data-name="Path 441" d="M9.812,15.928c0,2,0,2-2.011,2-1.856,0-1.874-.018-1.874-1.863,0-2.113,0-2.113,2.135-2.111.17,0,.34,0,.51,0,1.031.016,1.232.217,1.24,1.242,0,.242,0,.485,0,.728" transform="translate(0.834 1.963)" fill="#39455b"/>
      <path id="Path_442" data-name="Path 442" d="M13.75,24.541c1.945,0,1.945,0,1.945,1.971,0,1.9,0,1.9-1.9,1.9-2.077,0-2.077,0-2.076-2.116,0-.146,0-.292,0-.437.013-1.133.193-1.315,1.3-1.32.243,0,.485,0,.728,0" transform="translate(1.648 3.452)" fill="#39455b"/>
      <path id="Path_443" data-name="Path 443" d="M9.813,21.191c0,1.976,0,1.976-1.964,1.976-1.921,0-1.921,0-1.921-1.948,0-1.989.009-2,1.978-2,1.907,0,1.907,0,1.907,1.971" transform="translate(0.834 2.703)" fill="#39455b"/>
      <path id="Path_444" data-name="Path 444" d="M9.812,26.464c0,1.948,0,1.948-1.972,1.948-1.913,0-1.913,0-1.913-1.937s0-1.936,1.906-1.936H7.9c1.907,0,1.907,0,1.907,1.924" transform="translate(0.834 3.451)" fill="#39455b"/>
      <path id="Path_445" data-name="Path 445" d="M26.361,11.526c.021,2.12.021,2.122-2.1,2.119-.315,0-.632.01-.946-.016a.655.655,0,0,1-.665-.644.7.7,0,0,1,.542-.764,2.3,2.3,0,0,1,.574-.081c1.021-.051,1.02-.049,1.027-1.1,0-.267-.006-.535.019-.8.044-.47.212-.892.759-.9s.748.4.781.874c.031.435.007.873.007,1.309" transform="translate(3.186 1.314)" fill="#39455b"/>
    </g>
  </g>
</svg>
