<svg xmlns="http://www.w3.org/2000/svg" xmlns:xlink="http://www.w3.org/1999/xlink" width="43.177" height="54.291" viewBox="0 0 43.177 54.291">
  <defs>
    <clipPath id="clip-path">
      <rect id="Rectangle_65855" data-name="Rectangle 65855" width="43.177" height="54.291" fill="none"/>
    </clipPath>
  </defs>
  <g id="Group_149406" data-name="Group 149406" transform="translate(0 0)">
    <g id="Group_149405" data-name="Group 149405" transform="translate(0 0)" clip-path="url(#clip-path)">
      <path id="Path_419" data-name="Path 419" d="M32.839,14.189c.777,0,1.015-.2,1.034-.769.013-.381-.153-.435-.491-.413-.591.038-1.175.49-1.111.953.054.385.4.154.568.229m-11.223-.007c.158-.1.545.206.6-.2.062-.447-.621-.934-1.185-.978-.36-.027-.481.07-.475.43.008.707.461.78,1.06.749M34.747,33.736c-.354.108-.929-.226-.951.518-.015.533.331.549.719.553.5.005,1.031-.042,1.058-.664.026-.584-.522-.307-.827-.408M19.882,34.805c.622,0,.82-.144.828-.625.011-.632-.482-.374-.788-.423a3.05,3.05,0,0,0-.607,0c-.2.008-.43-.011-.486.256a.6.6,0,0,0,.269.645,1.339,1.339,0,0,0,.784.149m7.344-16.83v-.009c.335,0,.672.018,1.006,0,.308-.02.417-.237.381-.518-.04-.314-.28-.238-.467-.194a4.151,4.151,0,0,1-1.8,0c-.2-.04-.475-.164-.518.2a.412.412,0,0,0,.456.517c.312,0,.626,0,.94,0M22.732,52.891c.675,0,1.348,0,2.022,0,.347,0,.623-.048.63-.5.007-.486-.285-.521-.664-.531a19.092,19.092,0,0,1-3.292-.118,1.035,1.035,0,0,0-1.1.5c-.233.365-.234.645.316.644.7,0,1.392,0,2.088,0m8.849,0c.675,0,1.349.008,2.024-.005.229-.005.545.1.633-.224.081-.3-.132-.506-.355-.673a1,1,0,0,0-.75-.252,21.827,21.827,0,0,1-3.632.127c-.36.005-.533.148-.547.521-.012.392.18.512.536.506.7-.008,1.394,0,2.091,0M27.321,1.428a7.574,7.574,0,0,0-2.642.252c-3.07,1.027-4.516,3.322-4.145,6.7.018.158.023.347.225.364.254.02.249-.2.289-.374.25-1.1.249-1.118,1.31-1.252a6.173,6.173,0,0,0,3.955-1.977c.627-.689,1.193-.675,1.837.031a5.609,5.609,0,0,0,3.766,1.9c.9.075,1.457.374,1.48,1.348,0,.154.036.341.252.33s.23-.194.233-.35c.008-.607.046-1.219,0-1.823a5.112,5.112,0,0,0-1.773-3.591,6.45,6.45,0,0,0-4.787-1.553m-4.9,8.3A7.144,7.144,0,0,0,24.9,15.013a3.319,3.319,0,0,0,4.5.109,7.187,7.187,0,0,0,2.61-6.038c-.009-.409-.182-.58-.6-.648a7.384,7.384,0,0,1-3.8-1.8c-.291-.259-.493-.306-.794-.026a7.355,7.355,0,0,1-3.916,1.846.5.5,0,0,0-.49.531c-.007.248,0,.5,0,.743m10.013,32.1v-4.19c0-1.373.008-2.748-.1-4.12-.04-.516-.232-.735-.793-.73q-4.326.036-8.651,0c-.557,0-.714.19-.759.737-.19,2.274-.1,4.548-.113,6.823-.016,3.086.008,6.174-.012,9.26,0,.636.206.921.86.866.4-.034.811,0,1.216-.007.945,0,.979-.038,1.006-.991q.149-5.132.3-10.264a3.217,3.217,0,0,1,.136-.862,1.8,1.8,0,0,1,1.827-1.224,1.761,1.761,0,0,1,1.6,1.5,7.336,7.336,0,0,1,.1.94c.063,2.138.113,4.278.176,6.416.035,1.237.1,2.475.125,3.712.012.574.253.82.829.781.4-.027.811,0,1.216-.005,1.033,0,1.035,0,1.035-1.068q0-3.785,0-7.571M27.26,31.389v0c1.623,0,3.245,0,4.866,0,.308,0,.673.061.626-.455-.066-.718-.128-1.434-.175-2.153-.073-1.077-.141-2.156-.193-3.234-.02-.42.129-.792.6-.832.5-.043.706.315.777.757a4.59,4.59,0,0,1,.031.473c.133,1.952.273,3.906.4,5.86.05.8.648.5,1.06.543.529.051.477-.295.434-.668-.347-2.995-.629-6-1.038-8.987a4.815,4.815,0,0,0-2.873-3.835,1.306,1.306,0,0,0-1.045-.036,10.562,10.562,0,0,1-7.021,0,1.305,1.305,0,0,0-1.045.03,4.6,4.6,0,0,0-2.778,3.514c-.461,3.116-.808,6.249-1.2,9.374-.047.373.055.675.485.6.38-.07,1.017.384,1.079-.455q.115-1.549.233-3.1.129-1.682.261-3.364c.035-.443.241-.751.716-.71.459.04.636.382.656.808a3.418,3.418,0,0,1-.038.4c-.106,1.55-.2,3.1-.323,4.647-.048.606.133.847.78.831,1.577-.039,3.153-.012,4.73-.012m4.369,22.9c-.947,0-1.893.015-2.84,0-.885-.018-1.209-.357-1.235-1.251A3.318,3.318,0,0,1,27.939,51a.641.641,0,0,0,.1-.382c-.225-2.491-.18-4.994-.314-7.489-.057-1.057-.046-2.118-.074-3.176a8.258,8.258,0,0,0-.077-.874c-.032-.246-.07-.535-.419-.494-.31.036-.36.291-.369.556-.042,1.171-.108,2.34-.127,3.512-.044,2.635-.121,5.269-.257,7.9a.828.828,0,0,0,.086.452,4.323,4.323,0,0,1,.279,2.447.809.809,0,0,1-.908.809q-3.11.026-6.219,0a.867.867,0,0,1-.9-.763,2.646,2.646,0,0,1,1.33-2.859.842.842,0,0,0,.545-.879q-.024-6.423,0-12.847c0-.509-.127-.716-.679-.722-1.783-.016-2.246-.6-2.583-2.324-.357-1.838.193-3.568.333-5.342.16-2.04.454-4.073.759-6.1A6.315,6.315,0,0,1,22.23,17.5a2.029,2.029,0,0,1,1.443-.186c.218.058.51.333.664.059A.939.939,0,0,0,24.3,16.4a1.606,1.606,0,0,0-1.328-.809c-.586.012-1.171.013-1.757-.005a1.953,1.953,0,0,1-2.049-2.048,18.994,18.994,0,0,1-.158-2.472c.209-1.865-.121-3.751.263-5.585A7.173,7.173,0,0,1,25.859.065a10.911,10.911,0,0,1,5.126.567,6.9,6.9,0,0,1,4.326,6.448c.009,1.212.075,2.426.117,3.633a13.91,13.91,0,0,1-.271,3.408,1.841,1.841,0,0,1-1.876,1.46c-.63.024-1.263-.011-1.892.019a1.292,1.292,0,0,0-1.271,1.43c.031.218.083.444.36.361,1.526-.455,2.56.466,3.543,1.341a6.918,6.918,0,0,1,2.169,4.734c.3,3.07.722,6.128,1,9.2a5.039,5.039,0,0,1-.459,2.467,1.852,1.852,0,0,1-1.808,1.075c-1.015.022-1.015.03-1.017,1.062-.005,4.237,0,8.475-.027,12.711a.567.567,0,0,0,.388.609,2.633,2.633,0,0,1,1.507,2.521,1.007,1.007,0,0,1-1.1,1.165c-1.013.028-2.028.007-3.042.007Z" transform="translate(5.973 0)" fill="#39455b"/>
      <path id="Path_420" data-name="Path 420" d="M2.471,34.8c.5.009.858.018.868-.525.013-.567-.365-.521-.731-.524-.18,0-.361,0-.54,0-.2.008-.434-.011-.506.237a.6.6,0,0,0,.259.65.939.939,0,0,0,.65.158m14.848.008a3.616,3.616,0,0,0,.409-.034.624.624,0,0,0,.582-.7c-.032-.4-.376-.306-.627-.32s-.5.009-.742,0c-.485-.028-.566.2-.471.63.105.477.458.412.85.428M9.874,17.974c.335,0,.671.007,1.006,0a.4.4,0,0,0,.43-.481c-.016-.366-.279-.287-.49-.245a4.1,4.1,0,0,1-1.8.011c-.206-.048-.475-.147-.506.219a.405.405,0,0,0,.417.493c.312.015.626,0,.94.005m4.5,34.916v0c.652,0,1.3.007,1.955,0,.211,0,.5.088.6-.179s-.093-.475-.272-.65a.984.984,0,0,0-.856-.318,20.606,20.606,0,0,1-3.493.125c-.354.007-.549.121-.553.5s.178.524.536.521c.7-.005,1.392,0,2.088,0m-8.916,0c.675,0,1.349,0,2.024,0,.335,0,.7.055.7-.478s-.329-.54-.722-.548a19.233,19.233,0,0,1-3.362-.121,1.107,1.107,0,0,0-1.025.409A.522.522,0,0,0,2.9,52.7c.081.206.291.183.467.184.7.005,1.394,0,2.091,0M9.941,1.435c-.345,0-.707-.018-1.066,0a5.755,5.755,0,0,0-5.539,4.43,11.235,11.235,0,0,0-.088,2.425c0,.174-.019.413.207.444.306.042.281-.245.295-.427.062-.815.483-1.15,1.3-1.216a5.647,5.647,0,0,0,3.815-1.81c.769-.827,1.318-.829,2.1,0a5.532,5.532,0,0,0,3.548,1.772c.9.094,1.6.289,1.586,1.387,0,.159.067.33.28.3.162-.023.2-.172.206-.308A6.274,6.274,0,0,0,15.567,3.8,6.289,6.289,0,0,0,9.941,1.435m-4.814,8.71A7.1,7.1,0,0,0,7.61,15.032a3.263,3.263,0,0,0,4,.415,7.217,7.217,0,0,0,3.1-6.513.509.509,0,0,0-.475-.474A7.385,7.385,0,0,1,10.32,6.619c-.291-.269-.494-.264-.794.007A7.431,7.431,0,0,1,6.131,8.358c-1.031.232-1.031.236-1,1.788M4.75,41.767H4.7q0,3.888,0,7.775c0,.887.044.928.9.933q.642,0,1.285,0c.8-.008.871-.081.893-.9.055-2.049.057-4.1.187-6.145.1-1.6-.02-3.2.213-4.789a1.748,1.748,0,0,1,1.59-1.505,1.832,1.832,0,0,1,1.841,1.21,3.635,3.635,0,0,1,.141,1.135c.1,3.4.2,6.8.289,10.2.015.561.2.838.8.8a12.443,12.443,0,0,1,1.487,0c.586.035.8-.211.794-.792-.083-5.36.139-10.723-.118-16.084-.032-.679-.283-.816-.893-.811-2.7.026-5.409.011-8.113.011-1.182,0-1.182,0-1.241,1.189-.007.112-.009.225-.009.338v7.435M9.785,31.389v0c1.6,0,3.2-.023,4.8.012.623.013.848-.189.8-.816-.136-1.616-.234-3.234-.351-4.851-.036-.5.069-.948.634-1.017s.706.347.741.827c.156,2.11.323,4.22.481,6.331.062.843.695.392,1.075.461.425.079.537-.214.49-.591-.4-3.128-.741-6.263-1.205-9.381a4.6,4.6,0,0,0-2.721-3.487,1.437,1.437,0,0,0-1.171-.03,10.568,10.568,0,0,1-6.9-.009,1.374,1.374,0,0,0-1.108.023A4.837,4.837,0,0,0,2.482,22.71c-.4,2.968-.685,5.952-1.029,8.927-.044.385-.129.753.458.711.455-.034,1.007.194,1.045-.644.09-2,.254-4,.389-6,.035-.5.148-1.011.77-.987.6.023.664.526.634,1-.1,1.641-.168,3.285-.341,4.919-.07.661.139.769.71.759,1.555-.027,3.11-.009,4.667-.009m-4.36,22.9c-.947,0-1.893.015-2.84,0-.922-.019-1.294-.46-1.213-1.384a2.609,2.609,0,0,1,1.5-2.316.523.523,0,0,0,.382-.543c-.022-4.3-.023-8.61-.031-12.914,0-.9,0-.9-.89-.918a2.177,2.177,0,0,1-2.249-2.18C-.276,31.19.6,28.466.715,25.676c.039-.92.211-1.834.319-2.751a6.582,6.582,0,0,1,3.8-5.379,2.1,2.1,0,0,1,1.434-.254c.219.047.516.289.668-.015a.971.971,0,0,0-.077-1.029,3.08,3.08,0,0,0-.489-.465A6.961,6.961,0,0,1,4.66,13.462a.7.7,0,0,0-.718-.454A2.17,2.17,0,0,1,1.858,9.93,1.889,1.889,0,0,0,1.9,9.007C1.69,6.953,1.728,4.928,3,3.17A7.152,7.152,0,0,1,8.4.085c2.1-.166,4.208-.2,6.1.975a6.64,6.64,0,0,1,3.506,6.063,11.171,11.171,0,0,1-.12,2.223,1.044,1.044,0,0,0,.093.59A2.169,2.169,0,0,1,16.017,13a.953.953,0,0,0-.916.594,7.385,7.385,0,0,1-2.008,2.518.843.843,0,0,0-.365.684c-.032.691,0,.739.679.539a2.088,2.088,0,0,1,1.567.2,6.645,6.645,0,0,1,3.842,5.642c.342,3.112.763,6.214,1.1,9.324a5.087,5.087,0,0,1-.461,2.61A1.9,1.9,0,0,1,17.387,36.2c-.681-.062-.885.172-.879.866.031,4.215.022,8.429.008,12.644a.881.881,0,0,0,.552.944,2.632,2.632,0,0,1,1.32,2.861.874.874,0,0,1-.906.755c-2.074.012-4.147.019-6.219,0a.846.846,0,0,1-.912-.952,4.175,4.175,0,0,1,.329-2.371.517.517,0,0,0,.057-.326c-.164-1.346-.085-2.7-.132-4.052l-.254-7.158c0-.135,0-.271-.015-.405a.4.4,0,0,0-.368-.416c-.261-.028-.354.159-.386.374a6.763,6.763,0,0,0-.093.805c-.1,3.241-.191,6.483-.295,9.726a3.926,3.926,0,0,0,.256,2.153,2.926,2.926,0,0,1,.1,1.733,1.008,1.008,0,0,1-1.149.906c-.991.007-1.983,0-2.974,0" transform="translate(0 0)" fill="#39455b"/>
      <path id="Path_421" data-name="Path 421" d="M24.961,15.289a1.116,1.116,0,0,1,.008,2.231,1.148,1.148,0,0,1-1.159-1.143,1.183,1.183,0,0,1,1.151-1.088" transform="translate(8.25 5.297)" fill="#39455b"/>
      <path id="Path_422" data-name="Path 422" d="M24.953,19.717a1.113,1.113,0,0,1-1.143-1.093,1.2,1.2,0,0,1,1.132-1.131,1.164,1.164,0,0,1,1.132,1.118,1.1,1.1,0,0,1-1.122,1.107" transform="translate(8.25 6.061)" fill="#39455b"/>
      <path id="Path_423" data-name="Path 423" d="M24.957,11.083a1.853,1.853,0,0,1-1.423-.7c-.224-.307-.333-.673.005-.968s.6-.11.867.163c.5.5.906.479,1.412-.063.214-.23.432-.425.749-.221a.661.661,0,0,1,.215.84,1.782,1.782,0,0,1-1.826.945" transform="translate(8.082 3.191)" fill="#39455b"/>
      <path id="Path_424" data-name="Path 424" d="M23.786,7.83c0,.564-.366,1.009-.789.961-.514-.057-.711-.42-.73-.893a.767.767,0,1,1,1.519-.069" transform="translate(7.715 2.422)" fill="#39455b"/>
      <path id="Path_425" data-name="Path 425" d="M27.407,8.015c-.048.405-.257.8-.773.762-.551-.038-.715-.494-.689-.979A.742.742,0,0,1,26.68,7c.428-.019.757.431.727,1.017" transform="translate(8.989 2.424)" fill="#39455b"/>
      <path id="Path_426" data-name="Path 426" d="M8.3,17.965H5.531c-.517,0-1.01-.117-1.009-.731,0-.588.483-.672.975-.669q2.872.008,5.743,0c.456,0,.917.061.944.626.03.588-.425.751-.912.761-.99.02-1.981.007-2.972.007Z" transform="translate(1.567 5.739)" fill="#39455b"/>
      <path id="Path_427" data-name="Path 427" d="M8.283,19.7H5.448c-.469,0-.912-.121-.926-.661-.015-.578.432-.731.932-.732q2.9,0,5.8,0c.5,0,.939.166.925.742s-.478.645-.93.648c-.991.007-1.981,0-2.97,0" transform="translate(1.567 6.343)" fill="#39455b"/>
      <path id="Path_428" data-name="Path 428" d="M7.649,11.082a1.694,1.694,0,0,1-1.435-.788c-.174-.31-.244-.661.092-.91.319-.238.568-.05.813.2A.841.841,0,0,0,8.539,9.53c.21-.241.419-.432.742-.238a.634.634,0,0,1,.23.882,1.893,1.893,0,0,1-1.862.909" transform="translate(2.103 3.192)" fill="#39455b"/>
      <path id="Path_429" data-name="Path 429" d="M8.619,7.811c.054-.411.234-.782.757-.817a.818.818,0,0,1,.759.929c-.028.471-.237.831-.753.871-.42.032-.778-.428-.763-.983" transform="translate(2.986 2.422)" fill="#39455b"/>
      <path id="Path_430" data-name="Path 430" d="M6.463,7.85c-.047.473-.191.868-.711.934-.421.054-.785-.392-.769-.912C5,7.395,5.2,7.01,5.716,7s.695.4.747.847" transform="translate(1.726 2.426)" fill="#39455b"/>
    </g>
  </g>
</svg>
