<svg xmlns="http://www.w3.org/2000/svg" xmlns:xlink="http://www.w3.org/1999/xlink" width="255" height="37.253" viewBox="0 0 255 37.253">
  <defs>
    <clipPath id="clip-path">
      <rect id="Rectangle_65844" data-name="Rectangle 65844" width="255" height="37.253" fill="none"/>
    </clipPath>
  </defs>
  <g id="Group_149362" data-name="Group 149362" transform="translate(0 0)">
    <g id="Group_149361" data-name="Group 149361" transform="translate(0 0)" clip-path="url(#clip-path)">
      <path id="Path_386" data-name="Path 386" d="M104.748,16.519c.7-.251,1.343-.543,2.039-.835.648-.334,1.293-.668,1.941-.961a3.909,3.909,0,0,0,.695-.459c.349-.209.648-.418,1-.626a5.862,5.862,0,0,1,.946-.376c.347-.084.6-.042.746.167a.509.509,0,0,1,.149.5,2.027,2.027,0,0,1-.4.585,5.506,5.506,0,0,1-.546.5,3.3,3.3,0,0,0-.449.418,13.231,13.231,0,0,0-1.044,1.211,1.919,1.919,0,0,0-.448,1.378,4.676,4.676,0,0,0,1.543-.459q.745-.376,1.343-.626c1.293-.585,2.488-1.295,3.731-2q.971-.689,1.792-1.253a.677.677,0,0,1,.746-.084.584.584,0,0,1,.4.585,1.822,1.822,0,0,1-.3.626,4.466,4.466,0,0,0-.4.668,2.238,2.238,0,0,0-.3.794,1.191,1.191,0,0,0,.049.835,1.561,1.561,0,0,0,1.144-.042c.4-.125.746-.251,1-.334a29.564,29.564,0,0,0,3.183-1.42c.149-.084.4-.209.648-.334.3-.167.5-.125.646.084.2.209.2.334,0,.459a3.08,3.08,0,0,1-.5.292L121.513,17.1q-.821.376-1.792.877a3.905,3.905,0,0,1-2.039.334,1.134,1.134,0,0,1-.946-.626,1.884,1.884,0,0,1,0-1.044l.5-1.295c-.7.334-1.344.71-1.99,1.044s-1.293.668-1.99,1c-.249.167-.6.334-1,.585l-1.193.626a10.659,10.659,0,0,1-1.293.5,2.345,2.345,0,0,1-1.193.042.68.68,0,0,1-.548-.5,2.054,2.054,0,0,1,.1-.919,8.208,8.208,0,0,1,.6-1.169c.247-.418.546-.794.795-1.211l-.944.459a23.1,23.1,0,0,0-2.288,1,9.879,9.879,0,0,1-1.144.418.5.5,0,0,1-.349,0,.554.554,0,0,1-.249-.209.7.7,0,0,1-.049-.292.38.38,0,0,1,.249-.209m-18.655,1.5c.3-.167.795-.418,1.492-.835.7-.376,1.393-.752,2.139-1.128a13.723,13.723,0,0,1,2.09-.794c.646-.167,1.044-.084,1.242.209a.554.554,0,0,1,0,.668,3.986,3.986,0,0,0-.347.626l-.347,1a7.279,7.279,0,0,1,.993-.585c.349-.167.7-.334,1-.5.846-.459,1.692-.919,2.587-1.42a15.568,15.568,0,0,1,2.687-1.253,2.593,2.593,0,0,1,.946-.084,1.648,1.648,0,0,1,.7.251,1.167,1.167,0,0,1,.3.585,1.791,1.791,0,0,1-.249.794,4.959,4.959,0,0,1-.7.919,7.489,7.489,0,0,0-.795.919,2.83,2.83,0,0,0-.249.292,3.85,3.85,0,0,0-.4.418c-.149.167-.249.334-.347.459a1.283,1.283,0,0,0-.2.418,1.561,1.561,0,0,0,.746-.042c.249-.084.548-.167.8-.251.3-.125.548-.209.8-.334a3.518,3.518,0,0,1,.6-.251l1.592-.752a1.668,1.668,0,0,0,.4-.251c.2-.084.347-.209.546-.292.149-.084.349-.167.5-.251.2-.084.347-.125.448-.167.249,0,.347.084.4.292a.571.571,0,0,1-.3.5,5.08,5.08,0,0,1-.748.418c-.247.125-.5.251-.795.376-.349.209-.7.418-1.044.585l-1.046.5c-.247.125-.546.292-1.044.5a8.76,8.76,0,0,1-1.343.5,3.428,3.428,0,0,1-1.293.042.788.788,0,0,1-.6-.794.9.9,0,0,1,.1-.626c.149-.209.3-.376.448-.585a4.831,4.831,0,0,1,.5-.543,4.753,4.753,0,0,0,.5-.5,9.944,9.944,0,0,0,.746-.752,2.531,2.531,0,0,0,.6-1.086,10.359,10.359,0,0,0-2.139.626c-.746.334-1.393.626-1.99.961-.746.376-1.543.835-2.338,1.295a8.882,8.882,0,0,0-2.041,1.587.916.916,0,0,1-.4.209,1.646,1.646,0,0,1-.449-.042.652.652,0,0,1-.347-.251.4.4,0,0,1-.049-.418c.049-.251.247-.418.548-.626.1-.167.2-.418.347-.668a4,4,0,0,1,.2-.459,1.753,1.753,0,0,0,.1-.5,1.825,1.825,0,0,0,.1-.543,7.93,7.93,0,0,0-.9.334,2.908,2.908,0,0,0-.646.251c-.4.167-.746.334-1.1.5a6.873,6.873,0,0,0-1.144.5c-.2.125-.347.209-.546.334a5.539,5.539,0,0,1-.548.292.952.952,0,0,1-.5.084,2.612,2.612,0,0,1-.347-.125.341.341,0,0,1-.149-.251c0-.125.1-.209.3-.292m-17.958,1.42q.447-.251,1.193-.626c.448-.251,1-.5,1.543-.752s1.1-.5,1.592-.71c.5-.251.946-.418,1.293-.585a9.869,9.869,0,0,1,.946-.376c.5-.167.993-.334,1.541-.5a13.935,13.935,0,0,1,1.493-.376,1.983,1.983,0,0,1,1.044.042c.347.209.448.459.3.668a1.288,1.288,0,0,1-.746.418l-1.792.334a3.624,3.624,0,0,0-.944.418c-.249.125-.5.292-.846.5-.1.125-.347.334-.648.626-.3.334-.6.668-.9,1.044a3.793,3.793,0,0,0-.646,1c-.149.334-.149.543.049.668a.876.876,0,0,0,.8,0,4.709,4.709,0,0,0,1.093-.376,5.554,5.554,0,0,0,1.044-.543,4.433,4.433,0,0,0,.6-.376,8.06,8.06,0,0,0,1.79-1.462.587.587,0,0,1,.8-.125.563.563,0,0,1,.347.668,1.42,1.42,0,0,1-.249.459,2.274,2.274,0,0,0-.347.334,1.087,1.087,0,0,0-.249.459.367.367,0,0,0-.049.376.318.318,0,0,0,.3.125,6.853,6.853,0,0,0,1.443-.167c.548-.167,1.144-.334,1.692-.543.6-.209,1.193-.459,1.79-.71.548-.251,1.046-.5,1.493-.71a1.665,1.665,0,0,0,.4-.251c.2-.084.4-.209.6-.292a4.228,4.228,0,0,1,.546-.167.454.454,0,0,1,.448.209.239.239,0,0,1,.051.376,4.229,4.229,0,0,1-.5.334c-.2.084-.448.167-.646.251s-.349.167-.448.209c-.448.251-.9.459-1.344.668s-.9.418-1.392.626c-.3.167-.648.334-1,.5a5.463,5.463,0,0,1-1.144.5,5.939,5.939,0,0,1-1.244.334,2.641,2.641,0,0,1-1.144,0,1.208,1.208,0,0,1-.9-.585,1.434,1.434,0,0,1-.049-.919l-1.046.626c-.448.251-.9.543-1.392.835a5.159,5.159,0,0,1-1.543.543,2.9,2.9,0,0,1-1.343-.167,1.112,1.112,0,0,1-.7-.919,1.819,1.819,0,0,1,.2-.919,10.351,10.351,0,0,1,.746-1.169c.3-.376.648-.752,1-1.128a7.839,7.839,0,0,1,1.044-.794,5.177,5.177,0,0,0-.844.376,15.4,15.4,0,0,0-1.393.71c-.5.251-1.044.543-1.592.835s-1.1.543-1.543.794a.69.69,0,0,1-.4.084.85.85,0,0,1-.347-.167.4.4,0,0,1-.1-.251c0-.125.1-.209.249-.292m-1.941-7.434a5.866,5.866,0,0,0,.3-.541,3.605,3.605,0,0,1,.349-.585,9.37,9.37,0,0,0-.7.75,4.248,4.248,0,0,1-.548.585c-.4.5-.846,1-1.244,1.5A12.251,12.251,0,0,0,63.26,15.35a24.586,24.586,0,0,0,2.934-3.341m-7.064,3.842c.5,0,1-.042,1.493-.084s.944-.125,1.443-.209c.646-1.044,1.392-2.13,2.139-3.258a11.859,11.859,0,0,1,2.685-2.922,5.642,5.642,0,0,1,.648-.418,1.924,1.924,0,0,1,.7-.251.713.713,0,0,1,.646.209.637.637,0,0,1,.149.585,3.155,3.155,0,0,1-.746,1.378,8.8,8.8,0,0,0-1.044,1.251c-.4.5-.748.961-1.144,1.462-.4.459-.846.919-1.244,1.378l2.388-.668,3.929-1.378c.149-.084.347-.125.548-.209a.71.71,0,0,1,.6.209.494.494,0,0,1,.2.543.678.678,0,0,1-.448.418,22.005,22.005,0,0,1-3.829,1.169c-1.344.334-2.638.626-3.931.835l-.548.167c-.3.292-.646.543-.944.835-.349.292-.7.543-1.046.835a5.356,5.356,0,0,0-.4.752,5.146,5.146,0,0,1-.349.752c0,.084-.1.251-.149.543-.1.292-.149.585-.247.877a5.3,5.3,0,0,0-.1.794c-.049.251,0,.376.049.376a3.787,3.787,0,0,0,1.89-.251c.648-.209,1.2-.418,1.692-.543.6-.251,1.193-.459,1.792-.71s1.242-.5,1.839-.752a1.91,1.91,0,0,1,.6-.167c.247-.042.4.084.4.376,0,.209-.149.376-.448.459-.3.125-.548.209-.746.292L64.8,21.656c-.349.125-.748.334-1.344.585-.548.251-1.144.459-1.692.668a4.345,4.345,0,0,1-1.592.166,1.128,1.128,0,0,1-1-.876,2.572,2.572,0,0,1,.2-1.587c.2-.543.5-1.128.795-1.754a28.466,28.466,0,0,1-3.731,2.213.5.5,0,0,1-.4.084.556.556,0,0,1-.249-.209c-.1-.084-.1-.167-.049-.292a.344.344,0,0,1,.2-.251c.946-.459,1.79-.919,2.636-1.42.846-.543,1.643-1.086,2.438-1.671l.5-.877c-.4.084-.846.125-1.344.251a1.913,1.913,0,0,1-1.193,0,.372.372,0,0,1-.3-.459.491.491,0,0,1,.448-.376M37.292,21.906c.3-.167.8-.418,1.492-.835.7-.376,1.444-.752,2.19-1.128a13.282,13.282,0,0,1,2.039-.794c.646-.167,1.093-.084,1.293.209a.653.653,0,0,1-.049.668,1.8,1.8,0,0,0-.3.626l-.4,1c.347-.209.646-.418,1-.585l1.044-.5c.795-.459,1.692-.919,2.538-1.42A14.34,14.34,0,0,1,50.874,17.9a2.5,2.5,0,0,1,.944-.084,1.425,1.425,0,0,1,.648.251,1.167,1.167,0,0,1,.3.585,1.328,1.328,0,0,1-.249.794,4.884,4.884,0,0,1-.7.919c-.247.292-.5.585-.795.919a2.244,2.244,0,0,1-.249.292c-.1.125-.249.251-.4.418-.1.167-.249.334-.347.5a2.515,2.515,0,0,0-.2.374,1.547,1.547,0,0,0,.748-.04c.3-.085.546-.169.844-.251.249-.125.548-.209.8-.334a3.442,3.442,0,0,1,.548-.251l1.592-.752a3.529,3.529,0,0,0,.448-.251,4.433,4.433,0,0,1,.5-.292c.2-.084.349-.167.548-.251a3.155,3.155,0,0,1,.4-.167c.249,0,.4.084.4.292a.451.451,0,0,1-.249.5c-.249.125-.5.292-.746.418s-.548.251-.846.376c-.349.209-.7.418-1.044.585s-.7.334-1.046.5a10.547,10.547,0,0,1-.993.5,9.544,9.544,0,0,1-1.393.5,3.175,3.175,0,0,1-1.244.042.781.781,0,0,1-.646-.794,1.432,1.432,0,0,1,.149-.625,3.955,3.955,0,0,1,.4-.585,5.941,5.941,0,0,1,.548-.543c.149-.167.349-.334.5-.5a5.626,5.626,0,0,0,.7-.752,3.539,3.539,0,0,0,.646-1.086,10.782,10.782,0,0,0-2.188.626c-.7.334-1.393.626-1.99.961-.746.376-1.492.835-2.338,1.295a10.021,10.021,0,0,0-2.039,1.587.713.713,0,0,1-.4.207,1.627,1.627,0,0,1-.448-.042.653.653,0,0,1-.349-.249.557.557,0,0,1-.049-.419c.049-.249.249-.418.548-.625a5.092,5.092,0,0,0,.347-.668,2.356,2.356,0,0,1,.249-.459,1.753,1.753,0,0,1,.1-.5,1.885,1.885,0,0,0,.049-.543,4.854,4.854,0,0,0-.846.334c-.3.084-.548.209-.7.251-.347.167-.746.334-1.093.5a6.316,6.316,0,0,0-1.1.5,5.165,5.165,0,0,0-.548.334c-.2.084-.4.209-.6.292a.856.856,0,0,1-.448.084,3.918,3.918,0,0,1-.4-.125.539.539,0,0,1-.1-.251c0-.125.1-.209.249-.292M19.334,23.325c.347-.166.7-.376,1.193-.625s1-.5,1.543-.752,1.1-.5,1.592-.71c.5-.251.946-.418,1.293-.585.2-.084.5-.209,1-.376.448-.167.946-.334,1.492-.5a13.936,13.936,0,0,1,1.493-.376,2.234,2.234,0,0,1,1.093.042c.349.209.449.459.249.668a1.166,1.166,0,0,1-.7.418l-1.839.334a3.611,3.611,0,0,0-.946.418,7.647,7.647,0,0,0-.8.543,4.422,4.422,0,0,0-.646.585,5.943,5.943,0,0,0-.9,1.044,4.033,4.033,0,0,0-.7,1c-.149.334-.1.543.1.668a.861.861,0,0,0,.795,0,6.793,6.793,0,0,0,2.09-.919,6.449,6.449,0,0,0,.646-.376,7.7,7.7,0,0,0,1.741-1.46.6.6,0,0,1,.8-.125.519.519,0,0,1,.347.668.87.87,0,0,1-.249.459c-.1.125-.247.209-.347.334a1.091,1.091,0,0,0-.249.458.367.367,0,0,0-.049.376.318.318,0,0,0,.3.125,6.526,6.526,0,0,0,1.443-.167c.548-.167,1.144-.334,1.741-.543s1.2-.458,1.741-.708c.6-.252,1.1-.5,1.493-.71a3.656,3.656,0,0,0,.448-.251,5.347,5.347,0,0,1,.548-.292,3.153,3.153,0,0,1,.6-.167.385.385,0,0,1,.4.209.24.24,0,0,1,.049.376,2.143,2.143,0,0,1-.5.333c-.2.085-.4.169-.6.251a5.355,5.355,0,0,0-.5.209c-.448.252-.9.459-1.343.668l-1.344.626c-.347.167-.646.334-1.044.5a5.423,5.423,0,0,1-1.144.5,6.416,6.416,0,0,1-1.193.334,2.878,2.878,0,0,1-1.2,0,1.208,1.208,0,0,1-.9-.585,1.434,1.434,0,0,1-.049-.919l-1.046.626c-.448.251-.9.543-1.392.835a4.437,4.437,0,0,1-1.493.543,2.818,2.818,0,0,1-1.343-.167,1.267,1.267,0,0,1-.746-.919,2,2,0,0,1,.249-.919,5.6,5.6,0,0,1,.695-1.128,12.365,12.365,0,0,1,1-1.168,5.714,5.714,0,0,1,1.1-.794,3.934,3.934,0,0,0-.9.376c-.4.209-.846.418-1.344.71-.546.251-1.044.541-1.641.835-.548.292-1.044.543-1.543.792a.617.617,0,0,1-.4.084c-.1-.042-.247-.084-.3-.167a.286.286,0,0,1-.149-.251.5.5,0,0,1,.249-.292M16.9,16.937a9.813,9.813,0,0,0,1.293-1.378,6.95,6.95,0,0,0,.946-1.629,4,4,0,0,0,.247-1.712,3.188,3.188,0,0,0-.646-1.669,4.292,4.292,0,0,0-1.293-1.086,3.608,3.608,0,0,0-1.741-.5,2.776,2.776,0,0,0-1.592.459,5.228,5.228,0,0,0-1.144,1.128,3.432,3.432,0,0,0-.8,1.711,4.419,4.419,0,0,0,.1,1.8,8.587,8.587,0,0,0,.7,1.754,13.974,13.974,0,0,0,1,1.629q.595.752,1.193,1.5c.347.5.7,1.044,1.044,1.545a6.84,6.84,0,0,1,.7,1.629,5.736,5.736,0,0,1,.3,1.836,6.952,6.952,0,0,1-1,3.466,11.127,11.127,0,0,1-2.538,3.007A11.475,11.475,0,0,1,10.131,32.6a11.068,11.068,0,0,1-4.178.835,6.482,6.482,0,0,1-3.234-.71A5.3,5.3,0,0,1,.53,30.55a5.238,5.238,0,0,1-.5-1.712,6.459,6.459,0,0,1,.049-1.712A9.995,9.995,0,0,1,.63,25.413a9.223,9.223,0,0,1,.944-1.629,7.8,7.8,0,0,1,1.144-1.418,9.969,9.969,0,0,1,1.543-1.211,12.122,12.122,0,0,1,1.79-.919,6.787,6.787,0,0,1,2.041-.418,6.143,6.143,0,0,1,2.139.292,4.137,4.137,0,0,1,1.69.919,3,3,0,0,1,1,1.42,2.91,2.91,0,0,1-.049,1.836,1.246,1.246,0,0,1-.5.334,1.01,1.01,0,0,1-.5.042.851.851,0,0,1-.4-.251.457.457,0,0,1,0-.5,1.668,1.668,0,0,0,0-1.669,2.3,2.3,0,0,0-1.392-1.211,5.065,5.065,0,0,0-2.041-.292A5.892,5.892,0,0,0,6.1,21.2a6.946,6.946,0,0,0-1.741,1,8.964,8.964,0,0,0-1.393,1.253,9.855,9.855,0,0,0-1.1,1.627,7.887,7.887,0,0,0-.646,1.8,5.411,5.411,0,0,0,0,1.8,3.846,3.846,0,0,0,.746,1.712,3.872,3.872,0,0,0,1.443,1.253,5.147,5.147,0,0,0,1.792.543A7.971,7.971,0,0,0,7.2,32.137a8.081,8.081,0,0,0,1.99-.5,12.824,12.824,0,0,0,3.731-2.046A9.654,9.654,0,0,0,15.4,26.666a7.007,7.007,0,0,0,.746-3.466,6.343,6.343,0,0,0-1.493-3.548c-.4-.543-.844-1.086-1.242-1.629a18.043,18.043,0,0,1-1.2-1.712,8.414,8.414,0,0,1-.795-1.8,5.338,5.338,0,0,1-.3-2,3.86,3.86,0,0,1,.347-1.8,4.909,4.909,0,0,1,1.044-1.627A4.691,4.691,0,0,1,14.21,8a4.231,4.231,0,0,1,2.19-.167,4.259,4.259,0,0,1,1.988.794,4.066,4.066,0,0,1,1.293,1.42,4.344,4.344,0,0,1,.6,1.794,5.625,5.625,0,0,1-.1,1.838,6.221,6.221,0,0,1-.7,1.8,12.916,12.916,0,0,1-1.1,1.712,2.393,2.393,0,0,1-.448.626.719.719,0,0,1-.746.167.54.54,0,0,1-.5-.418.6.6,0,0,1,.2-.626" transform="translate(0 3.816)" fill="#111212"/>
      <path id="Path_387" data-name="Path 387" d="M177.273,9.9q.447-.251,1.2-.626c.448-.251,1-.543,1.541-.794s1.1-.459,1.593-.71c.5-.209.944-.418,1.292-.541.151-.084.5-.209.946-.376a9.284,9.284,0,0,1,1.543-.5,13.912,13.912,0,0,1,1.492-.376,1.623,1.623,0,0,1,1.044.042c.4.209.449.418.3.668a1.583,1.583,0,0,1-.748.418l-1.79.333a6.216,6.216,0,0,0-.946.376c-.247.169-.5.334-.846.543a4.741,4.741,0,0,1-.646.626l-.9,1a4.8,4.8,0,0,0-.648,1.044c-.149.334-.149.543.051.668a1.411,1.411,0,0,0,.844,0,5.462,5.462,0,0,0,1.046-.418,10.485,10.485,0,0,0,1.044-.5,4.5,4.5,0,0,0,.6-.376,8.114,8.114,0,0,0,1.792-1.462.639.639,0,0,1,.795-.167.614.614,0,0,1,.349.71,1.281,1.281,0,0,1-.249.418c-.1.125-.249.251-.349.376a1.105,1.105,0,0,0-.247.459c-.1.167-.1.292-.051.334a.469.469,0,0,0,.3.167,5.132,5.132,0,0,0,1.443-.209,16.551,16.551,0,0,0,1.743-.5c.6-.209,1.144-.459,1.741-.71.548-.292,1.044-.5,1.492-.752a.76.76,0,0,0,.4-.209,3.929,3.929,0,0,1,.6-.292,1.657,1.657,0,0,1,.548-.166.526.526,0,0,1,.448.166.24.24,0,0,1,.049.376,1.935,1.935,0,0,1-.5.334,2.9,2.9,0,0,1-.648.292c-.2.084-.347.167-.448.209l-1.343.626c-.447.209-.9.459-1.393.668a7.986,7.986,0,0,0-1,.5c-.347.167-.746.334-1.144.5-.4.125-.795.251-1.193.334a2.862,2.862,0,0,1-1.193,0q-.748-.188-.9-.626a1.427,1.427,0,0,1-.049-.919l-1.044.668c-.448.251-.9.543-1.393.794a5.239,5.239,0,0,1-1.543.585,2.982,2.982,0,0,1-1.343-.167,1.171,1.171,0,0,1-.7-.919,1.464,1.464,0,0,1,.249-.919,5.784,5.784,0,0,1,.7-1.169,8.084,8.084,0,0,1,1-1.128,6.186,6.186,0,0,1,1.093-.835c-.2.085-.5.21-.9.419-.4.166-.9.416-1.393.667a17.777,17.777,0,0,1-1.592.835c-.548.292-1.044.585-1.541.835a1.088,1.088,0,0,1-.4.084.857.857,0,0,1-.349-.167.535.535,0,0,1-.1-.251c0-.125.1-.209.247-.292m-15.421,1.169c.548-.292,1.044-.585,1.592-.877s1.1-.626,1.741-1a1.492,1.492,0,0,1,.3-1.251,1.736,1.736,0,0,1,1.393-.668.832.832,0,0,1,.795.416.774.774,0,0,1-.1.794,2.48,2.48,0,0,1-.8.752,1.4,1.4,0,0,0,.746.084,4.559,4.559,0,0,0,1.743-.376,15.741,15.741,0,0,0,1.592-.876c.5-.169.795-.125,1,.082.149.209.1.5-.1.835-.1.209-.249.459-.4.752a5.169,5.169,0,0,0-.347.919,2.632,2.632,0,0,0-.1.877.765.765,0,0,0,.4.626c.149.125.5.084,1.093-.084q.821-.313,2.239-.877c.347-.167.646-.334,1-.5.3-.167.646-.334,1-.5a1.68,1.68,0,0,1,.347-.167,1.085,1.085,0,0,1,.448-.209.452.452,0,0,1,.4-.042c.1,0,.2.125.2.334.049.125,0,.209-.149.334a2.49,2.49,0,0,1-.8.459l-.4.167-1.641.752c-.249.167-.6.376-1.046.626a9.075,9.075,0,0,1-1.293.626,3.884,3.884,0,0,1-1.343.292,1.407,1.407,0,0,1-1.093-.334,1.21,1.21,0,0,1-.3-.543,2.192,2.192,0,0,1-.049-.585c.049-.167.049-.376.1-.585s.1-.376.149-.585l.2-1.169c-.149.042-.447.125-.846.251a10.122,10.122,0,0,1-1.343.292,5.341,5.341,0,0,1-1.393.084,1.629,1.629,0,0,1-1.093-.334,2.312,2.312,0,0,0-.3.167,6.708,6.708,0,0,0-.748.418,10.232,10.232,0,0,0-.9.543c-.3.167-.548.334-.7.418s-.347.167-.548.292a.549.549,0,0,1-.6.125.429.429,0,0,1-.249-.376.322.322,0,0,1,.2-.376m-6.716-7.307c.349-.334.648-.668,1-1.044a6.686,6.686,0,0,0,.8-1.211,5.1,5.1,0,0,0-1.592,1.169c-.4.5-.8.961-1.144,1.462l-.7,1.295c.247-.292.548-.585.795-.835.3-.292.6-.585.846-.835m-12.088,8.811a44.67,44.67,0,0,0,4.726-2.631,19.847,19.847,0,0,0,3.88-2.964L152.9,4.636c.4-.71.795-1.42,1.293-2.172A6.261,6.261,0,0,1,155.933.585c.2-.084.448-.209.795-.334a5.118,5.118,0,0,1,1-.251,1.372,1.372,0,0,1,.746.167c.2.125.249.418.149.835a3.628,3.628,0,0,1-.5.961,7.5,7.5,0,0,1-.8.919,7.075,7.075,0,0,1-.846.835,10.192,10.192,0,0,0-.795.794c-.5.5-1.044,1-1.592,1.5s-1.144,1-1.692,1.46a4.264,4.264,0,0,0-.4.8,5.049,5.049,0,0,0-.347.75c-.2.418-.4.835-.6,1.211-.2.418-.447.835-.7,1.253.795-.5,1.641-.919,2.487-1.378.846-.418,1.692-.835,2.488-1.211a5.551,5.551,0,0,1,1.044-.418,2.108,2.108,0,0,1,1.144-.082,1,1,0,0,1,.846.583.953.953,0,0,1-.051.961,4.273,4.273,0,0,1-.546.877c-.2.292-.449.585-.7.919a4.066,4.066,0,0,0-.6.961,2.046,2.046,0,0,0-.2.919,8.916,8.916,0,0,0,2.188-.71c.748-.334,1.443-.71,1.99-1,.249-.125.447-.251.746-.418a2.694,2.694,0,0,1,.7-.418.614.614,0,0,1,.7.125.352.352,0,0,1,.149.292c0,.084-.1.209-.249.292-.546.334-1.144.668-1.741.961a13.361,13.361,0,0,0-1.741.919c-.249.167-.548.292-.846.5a6.232,6.232,0,0,1-.944.459,2.961,2.961,0,0,1-1,.167,1.3,1.3,0,0,1-.946-.334,1.01,1.01,0,0,1-.347-.626,1.484,1.484,0,0,1,.149-.668,4.727,4.727,0,0,1,.347-.71c.149-.209.3-.418.4-.585a9.412,9.412,0,0,0,.8-1.086,2.738,2.738,0,0,0,.4-1.169,2.282,2.282,0,0,0-.746.084l-.746.251c-.3.125-.548.209-.8.334-.247.084-.447.209-.646.251-.548.292-1.144.585-1.643.877-.546.292-1.044.626-1.592.961-.795.626-1.343,1.044-1.69,1.336-.3.292-.548.5-.7.626a1.37,1.37,0,0,1-.448.292.766.766,0,0,1-.6-.084c-.247-.167-.347-.292-.347-.459a.7.7,0,0,1,.2-.459,19.641,19.641,0,0,0,1.941-2.339c.548-.835,1.1-1.712,1.543-2.548q-1.045.814-2.09,1.5c-.7.459-1.393.919-2.139,1.378-.447.292-.846.543-1.293.794-.4.251-.846.5-1.293.752a1.621,1.621,0,0,0-.4.167.473.473,0,0,1-.695-.376.384.384,0,0,1,.2-.376m-13.083,1.086c.2-.084.5-.292,1-.585a15.263,15.263,0,0,1,1.592-.877c.6-.292,1.193-.585,1.79-.835a5.509,5.509,0,0,1,1.592-.5,1,1,0,0,1,.5,0c.2.042.347.084.4.167.2.209.247.418.1.543a1.408,1.408,0,0,1-.5.376,2.843,2.843,0,0,1-.648.251c-.247.084-.448.167-.5.292-.149.125-.1.251.149.376a2.849,2.849,0,0,0,.795.209,6.535,6.535,0,0,0,.9.084,2.876,2.876,0,0,1,.6.125c.6.209.946.459,1.044.752a.829.829,0,0,1-.1.877l1.093-.585,3.085-1.671a.563.563,0,0,1,.5-.084.486.486,0,0,1,.3.376.419.419,0,0,1-.3.418c-.249.125-.448.209-.646.292-.6.292-1.244.626-1.892.961-.6.334-1.242.668-1.89,1.044-.746.376-1.443.71-2.139,1.044a7.94,7.94,0,0,1-2.188.543,2.562,2.562,0,0,1-1.543-.376,1.455,1.455,0,0,1-.746-1.044.563.563,0,0,1,.1-.5,1.161,1.161,0,0,1,.5-.292.691.691,0,0,1,.5.042.779.779,0,0,1,.347.418.839.839,0,0,0,.8.752,4.036,4.036,0,0,0,1.492-.167,4.262,4.262,0,0,0,1-.5,2.055,2.055,0,0,0,.6-.543c.349-.376.4-.626.2-.794a2.052,2.052,0,0,0-.9-.376c-.4-.084-.846-.125-1.242-.209a2.072,2.072,0,0,1-.946-.209.94.94,0,0,1-.5-.5,1.014,1.014,0,0,1-.051-.543c-.4.167-.795.334-1.144.5-.4.209-.746.334-1.044.5a6.477,6.477,0,0,0-.846.543,1.8,1.8,0,0,1-.846.418.431.431,0,0,1-.4-.042c-.1-.042-.151-.084-.151-.167a.305.305,0,0,1,0-.292.445.445,0,0,1,.2-.209M125.488,5.3a1.837,1.837,0,0,1,.548-.794,4.441,4.441,0,0,1,.944-.626,7.4,7.4,0,0,1,1.044-.418c.4-.125.8-.209,1.144-.292a16.7,16.7,0,0,1,2.885-.125,3.1,3.1,0,0,1,.6.042c.2.042.3.125.3.334a.806.806,0,0,1-.2.334.5.5,0,0,1-.347.125,9.95,9.95,0,0,0-2.487.042,5,5,0,0,0-2.239.794,1.13,1.13,0,0,0-.5.585,1.528,1.528,0,0,1-.447.626.773.773,0,0,1-.846.042.568.568,0,0,1-.4-.668m-3.98,7.349a4.493,4.493,0,0,1,.746-.334,3.93,3.93,0,0,1,1.1-.418,2.856,2.856,0,0,1,1-.084c.3,0,.4.209.347.585a1.366,1.366,0,0,1-.249.668,1.967,1.967,0,0,0-.347.626c-.1.334-.249.71-.347,1.169a1,1,0,0,0,.3,1.044,5.155,5.155,0,0,0,1.492-.251c.548-.209,1.044-.376,1.492-.543.149-.084.4-.209.748-.418s.746-.418,1.144-.626a6.021,6.021,0,0,1,1.093-.459c.349-.125.6-.125.7.042.1.125.049.292-.149.5a3.916,3.916,0,0,1-.846.585c-.4.167-.746.334-1.093.5a3.344,3.344,0,0,0-.7.334c-.6.292-1.2.585-1.741.877a7.3,7.3,0,0,1-1.841.626,1.289,1.289,0,0,1-1.244-.209,1.645,1.645,0,0,1-.447-1,6.967,6.967,0,0,1,.049-1.42,9.885,9.885,0,0,1,.349-1.378c-.6.251-1.2.5-1.792.71a11.883,11.883,0,0,0-1.692.752c-.448.209-.944.459-1.392.71a.615.615,0,0,1-.746-.125c-.2-.167-.149-.334.149-.5ZM82.159,13.989a4.084,4.084,0,0,1,.5,1.671c.9-1.086,1.792-2.13,2.736-3.174s1.941-2.046,2.985-3.049c1.046-.961,2.09-1.879,3.134-2.8a38.737,38.737,0,0,1,3.433-2.589A28.284,28.284,0,0,1,98.475,2a11.2,11.2,0,0,1,3.98-1.253,3.728,3.728,0,0,1,1.792.084,1.746,1.746,0,0,1,1.193,1.128,2.359,2.359,0,0,1-.049,1.545,7.386,7.386,0,0,1-.7,1.5,19.86,19.86,0,0,1-2.288,3.34,37.688,37.688,0,0,0-2.438,3.216c-.3.459-.648.877-.9,1.295-.3.459-.6.877-.846,1.295,1.144-1.169,2.288-2.3,3.531-3.383,1.2-1.128,2.438-2.172,3.731-3.256,1.046-.835,2.19-1.671,3.383-2.548A14.09,14.09,0,0,1,112.7,2.923c.149-.042.4-.125.7-.209a2.623,2.623,0,0,1,.795-.125,1.159,1.159,0,0,1,.7.084.513.513,0,0,1,.249.585,1.447,1.447,0,0,1-.6,1.086c-.347.376-.646.668-.9.919-.795.835-1.592,1.671-2.438,2.5-.9.877-1.692,1.754-2.438,2.631a19.459,19.459,0,0,0-2.039,2.84,10.406,10.406,0,0,0-1.144,3.049,1.952,1.952,0,0,0-.1.752,2.785,2.785,0,0,0,.1.668,1.191,1.191,0,0,0,.448.5,1.692,1.692,0,0,0,.9.209,10.356,10.356,0,0,0,2.239-.334c.746-.209,1.492-.459,2.188-.668.7-.251,1.344-.543,2.041-.835.695-.334,1.343-.626,1.988-.919l1.99-.919c.1-.084.249-.125.349-.209a.449.449,0,0,1,.4.042.29.29,0,0,1,.249.334c.049.125-.049.251-.2.334-.648.334-1.244.626-1.89.919-.648.251-1.244.543-1.841.835-.7.334-1.393.626-2.09.919s-1.343.585-2.039.877c-.4.167-.8.292-1.193.418a7.638,7.638,0,0,1-1.393.334,4.9,4.9,0,0,1-1.343.084,3.526,3.526,0,0,1-1.293-.377,1.743,1.743,0,0,1-.748-.792,2.147,2.147,0,0,1-.247-.961,6.942,6.942,0,0,1,.1-1.044,8.082,8.082,0,0,1,.349-.961,11.048,11.048,0,0,1,1.193-2.381c.5-.71,1-1.42,1.543-2.172.1-.084.4-.459.846-1,.5-.543,1-1.211,1.641-1.921.6-.708,1.2-1.418,1.841-2.17.6-.71,1.1-1.336,1.492-1.838a10.413,10.413,0,0,0-1.242.459,9.129,9.129,0,0,0-1.144.585,19.592,19.592,0,0,0-1.941,1.169q-.969.626-1.79,1.251c-1.2.92-2.288,1.838-3.334,2.8q-1.64,1.441-3.133,3.007a73.774,73.774,0,0,0-5.77,6.557,1.626,1.626,0,0,0-.349.541,4.755,4.755,0,0,1-.5.5.807.807,0,0,1-.7.042.836.836,0,0,1-.448-.5c-.051-.249.1-.5.347-.792.249-.334.448-.543.6-.752l1.443-2.046c.9-1.253,1.741-2.464,2.587-3.675.846-1.253,1.692-2.464,2.587-3.675l1.493-2.13a20.62,20.62,0,0,0,1.392-2.17c.051-.125.2-.376.349-.668A7.888,7.888,0,0,0,104,3.592a3.2,3.2,0,0,0,.149-.961A.718.718,0,0,0,103.8,2a2.6,2.6,0,0,0-1-.167,6.1,6.1,0,0,0-1.2.251,5.153,5.153,0,0,0-1.144.376c-.4.167-.695.292-.944.376a24.117,24.117,0,0,0-4.08,2.088A30.321,30.321,0,0,0,91.76,7.6,52.435,52.435,0,0,0,84.5,14.992c-.347.418-.7.835-1,1.253-.3.376-.6.794-.944,1.211a10.313,10.313,0,0,1-1.1,2.8,9.621,9.621,0,0,1-1.79,2.381,1.715,1.715,0,0,1-.648.5.956.956,0,0,1-.646.125.457.457,0,0,1-.4-.209.912.912,0,0,1,.1-.585,15.66,15.66,0,0,1,1.293-2.339c.546-.708,1.044-1.418,1.541-2.128a5.033,5.033,0,0,0,.3-2.422.821.821,0,0,0-.149-.418,2.126,2.126,0,0,1-.2-.5,1.491,1.491,0,0,1-.1-.459.554.554,0,0,1,.249-.418.613.613,0,0,1,.646-.125.674.674,0,0,1,.5.334" transform="translate(58.855 -0.001)" fill="#111212"/>
    </g>
  </g>
</svg>
