<svg xmlns="http://www.w3.org/2000/svg" width="39.86" height="12.808" viewBox="0 0 39.86 12.808">
  <g id="Group_149768" data-name="Group 149768" transform="translate(-283 -1258.876)">
    <path id="Path_5794" data-name="Path 5794" d="M15.51,0,13.429,4.215l-4.652.677,3.367,3.282-.8,4.634,4.162-2.189,4.162,2.189-.8-4.634,3.365-3.282-4.651-.677Z" transform="translate(287.42 1258.876)" fill="#8a7165"/>
    <path id="Path_5796" data-name="Path 5796" d="M3.6,4.226,0,4.749l2.607,2.54-.616,3.586L5.211,9.182l3.221,1.693L7.817,7.289l2.6-2.54-3.6-.523L5.211.963Z" transform="translate(283 1259.361)" fill="#8a7165"/>
    <path id="Path_5797" data-name="Path 5797" d="M23.179,4.226l-3.6.523,2.6,2.54-.615,3.586,3.221-1.693,3.221,1.693L27.4,7.289,30,4.749l-3.6-.523L24.789.963Z" transform="translate(292.86 1259.361)" fill="#8a7165"/>
  </g>
</svg>
