<svg xmlns="http://www.w3.org/2000/svg" xmlns:xlink="http://www.w3.org/1999/xlink" width="64.405" height="51.209" viewBox="0 0 64.405 51.209">
  <defs>
    <clipPath id="clip-path">
      <rect id="Rectangle_65884" data-name="Rectangle 65884" width="64.405" height="51.209" fill="none"/>
    </clipPath>
  </defs>
  <g id="Group_149504" data-name="Group 149504" transform="translate(0 0)">
    <g id="Group_149503" data-name="Group 149503" transform="translate(0 0)" clip-path="url(#clip-path)">
      <path id="Path_5386" data-name="Path 5386" d="M6.324,28.974c6.792-.517,12.878,2.519,19.315,3.854a23.781,23.781,0,0,1,4.831,1.323c3.471,1.541,6.437.805,9.606-1.063,6.172-3.64,12.538-6.948,18.823-10.4.42-.229.845-.45,1.247-.708.872-.562,1.564-1.3.9-2.353-.611-.977-1.515-.609-2.325-.169q-4.722,2.57-9.44,5.15c-1.26.685-2.521,1.366-3.795,2.022-.9.463-1.874.8-2.507-.314-.67-1.178.256-1.741,1.115-2.215,3.416-1.887,6.844-3.752,10.269-5.624.978-.535,1.952-1.081,2.941-1.595,2.735-1.42,5.363-.8,6.584,1.55,1.186,2.278.283,4.728-2.348,6.175-5.163,2.842-10.345,5.651-15.522,8.471-2.658,1.447-5.368,2.807-7.963,4.359a5.622,5.622,0,0,1-4.763.541C27.627,36.385,21.9,35,16.259,33.3a33.267,33.267,0,0,0-11.3-1.418,28.6,28.6,0,0,1-3.58-.077A1.347,1.347,0,0,1,0,30.43,1.308,1.308,0,0,1,1.315,29c1.665-.094,3.339-.029,5.009-.029" transform="translate(0 12.938)" fill="#39455b"/>
      <path id="Path_5387" data-name="Path 5387" d="M29.338,22.68a23.248,23.248,0,0,1-13.87-2.555C11.788,18.2,7.824,19.1,3.973,18.816c-1.409-.1-3.89.924-3.881-1.373s2.521-1.436,4.035-1.586a27.958,27.958,0,0,1,16.165,3.069,8.192,8.192,0,0,0,3.952.737c3.9-.016,7.806-.034,11.709.029,1.959.032,3.827.405,4.885,2.382a4.19,4.19,0,0,1-3.191,6.291c-3.653.222-7.325.074-10.988.065-.861,0-1.676-.261-1.672-1.287,0-1.142.887-1.4,1.834-1.4,2.631-.02,5.26.05,7.887-.049,1.3-.047,3.373.667,3.442-1.442.07-2.193-2.029-1.467-3.317-1.544-1.825-.108-3.663-.027-5.494-.027" transform="translate(0.074 12.592)" fill="#39455b"/>
      <path id="Path_5388" data-name="Path 5388" d="M23.42,11.154a4.167,4.167,0,0,0,4.245-4.162A4.323,4.323,0,0,0,23.62,2.779a4.312,4.312,0,0,0-4.3,4.162,3.9,3.9,0,0,0,4.1,4.213M23.335,0a7.006,7.006,0,0,1,7.292,6.963,7.19,7.19,0,0,1-14.378.186A7.011,7.011,0,0,1,23.335,0" transform="translate(13.03 0)" fill="#39455b"/>
      <path id="Path_5389" data-name="Path 5389" d="M18.157,8.675a2.924,2.924,0,0,0-3.011-3.153c-1.771.182-3,1.166-2.962,3.047a2.711,2.711,0,0,0,3.029,2.892,2.743,2.743,0,0,0,2.944-2.786m3.043.014a5.917,5.917,0,0,1-6,5.84,6.061,6.061,0,0,1-6.018-6.11,6.01,6.01,0,0,1,12.017.27" transform="translate(7.361 2.065)" fill="#39455b"/>
      <path id="Path_5390" data-name="Path 5390" d="M33.606,8.734a3.1,3.1,0,0,0-2.989-3.2,3.017,3.017,0,0,0-3.1,2.964,3.051,3.051,0,0,0,6.087.234m-8.923-.166a5.892,5.892,0,0,1,6.029-6.017,5.972,5.972,0,0,1,5.82,6.022,5.925,5.925,0,1,1-11.85-.005" transform="translate(19.794 2.046)" fill="#39455b"/>
      <path id="Path_5391" data-name="Path 5391" d="M14.647,14.256a5.437,5.437,0,0,1,4.581-4.827A37.982,37.982,0,0,1,30.149,9.5a5.472,5.472,0,0,1,4.341,4.777c.04.852-.106,1.643-1.056,1.892a1.353,1.353,0,0,1-1.746-1.187c-.539-2.362-2.17-2.874-4.3-2.795-1.984.074-3.977.1-5.959-.007-2.114-.108-3.559.589-4.078,2.759-.209.878-.7,1.494-1.676,1.233-.944-.25-1.054-1.078-1.027-1.917" transform="translate(11.743 7.275)" fill="#39455b"/>
      <path id="Path_5392" data-name="Path 5392" d="M36.71,15.821a1.41,1.41,0,0,1-.9,1.557c-.694.241-1.451.047-1.611-.6-.71-2.872-2.9-2.692-5.076-2.645a3.671,3.671,0,0,1-1.636-.2c-1.24-.611-1.366-1.577-.274-2.4,2.647-2.006,8.529.171,9.329,3.4.076.308.119.623.169.89" transform="translate(21.226 8.632)" fill="#39455b"/>
      <path id="Path_5393" data-name="Path 5393" d="M15.076,10.969c.478,0,.957-.032,1.429.007,1.011.085,2,.332,1.919,1.609-.07,1.108-1,1.321-1.917,1.377-.872.052-1.748.043-2.622.059a2.511,2.511,0,0,0-2.665,1.921c-.268.914-.825,1.674-1.9,1.243s-1.126-1.4-.86-2.418c.681-2.595,2.833-3.845,6.62-3.8" transform="translate(6.67 8.787)" fill="#39455b"/>
    </g>
  </g>
</svg>
