<svg xmlns="http://www.w3.org/2000/svg" xmlns:xlink="http://www.w3.org/1999/xlink" width="41.163" height="49.691" viewBox="0 0 41.163 49.691">
  <defs>
    <clipPath id="clip-path">
      <rect id="Rectangle_65870" data-name="Rectangle 65870" width="41.163" height="49.691" fill="#4d576e"/>
    </clipPath>
  </defs>
  <g id="Group_149481" data-name="Group 149481" transform="translate(0 0)">
    <g id="Group_149480" data-name="Group 149480" transform="translate(0 0)" clip-path="url(#clip-path)">
      <path id="Path_5318" data-name="Path 5318" d="M16.368,3.194c.038-.34.083-.578.086-.818,0-.31.149-.706-.179-.887s-.6.133-.852.308a5.937,5.937,0,0,0-1.871,2.457.447.447,0,0,0,.2.69,1.626,1.626,0,0,0,2.615-1.371c0-.16,0-.321,0-.38M17.8,19.246c.3.366-.605,1.3.246,1.51.7.177,1.2-.674,1.679-1.209a.464.464,0,0,0,.073-.1c.307-.634,1.168-1.227.816-1.879-.284-.527-1.252-.312-1.919-.409-.8-.117-1.117.275-1,1.056.042.28.061.561.107,1.027m-1.294-.1c0-2.1,0-2.1-1.761-1.884-1.554.192-1.578.241-.759,1.591a5.2,5.2,0,0,0,.543.789c.451.5.923,1.284,1.594,1.1.773-.214.2-1.121.382-1.6M17.616,3.173c.265.695-.585,2.029,1.12,1.951.637-.03,1.511.169,1.82-.364.369-.634-.4-1.206-.709-1.794a2.044,2.044,0,0,0-.371-.476c-.447-.457-.933-1.157-1.57-.911-.572.219-.147,1.024-.289,1.594M9.063,10.5c1.6-.011,1.93.23,1.944-1.714A8.637,8.637,0,0,1,11.314,7c.128-.566.173-1.121-.548-1.222s-1.511-.911-2.155.149a10.532,10.532,0,0,0-1.372,3.6c-.125.684.184.986.855.971.323-.006.647,0,.97,0m16.048,0c2.007,0,2.077-.1,1.55-2.042A10.356,10.356,0,0,0,25.6,6.034c-.176-.308-.345-.617-.8-.641-1.526-.077-2.136.607-1.86,2.125a6.287,6.287,0,0,1,.192,1.189c-.027,2.059.385,1.773,1.975,1.791m.078,1.28c-1.805,0-1.8,0-2.053,1.847-.088.641-.24,1.27-.355,1.906-.075.417-.086.76.417.989,1.586.719,2.123.554,2.842-1.029a12.645,12.645,0,0,0,.623-1.7c.542-1.88.439-2.008-1.475-2.008M9.16,11.79c-.321,0-.644.018-.965,0-.805-.053-1.114.3-.936,1.088A12.851,12.851,0,0,0,8.494,16.26c.655,1.2,1.524.449,2.312.3.847-.157.6-.78.494-1.334a9.688,9.688,0,0,1-.3-1.781C11,11.494,10.611,11.814,9.16,11.79M19.818,10.5c.634-.326,2.1.738,2.093-1.129,0-2.155-.449-3.251-1.395-3.126-3.037.406-2.863-.292-2.868,2.1,0,2.16,0,2.16,2.169,2.16m-5.547,0c2.225,0,2.225,0,2.227-1.856,0-2.337-.181-2.487-2.922-2.42-.914.022-1.28.938-1.342,3.082-.054,1.872,1.379.919,2.037,1.195m2.224,3.305c.026-2.011,0-2.177-1.395-1.967-.963.145-2.67-1.088-2.834,1.011-.174,2.245.393,3.2,1.54,3.2,2.6,0,2.662-.043,2.689-2.246m3.46-2.029c-2.3,0-2.3,0-2.305,1.487,0,2.745.006,2.754,2.641,2.783,1.241.013,1.6-.733,1.631-3.133.026-1.772-1.313-.895-1.967-1.137M17.063,0A11.116,11.116,0,0,1,28.281,11.116a11.312,11.312,0,0,1-11.258,11.29A11.313,11.313,0,0,1,5.866,11.14,11.122,11.122,0,0,1,17.063,0" transform="translate(3.505 0)" fill="#4d576e"/>
      <path id="Path_5319" data-name="Path 5319" d="M22.373,28.684c0-.725.026-1.454,0-2.179A3.253,3.253,0,0,0,19.061,23.2q-3.209-.081-6.419,0a3.27,3.27,0,0,0-3.377,3.364c-.029.727-.014,1.454-.011,2.181.014,3.908-.324,3.015,2.793,4.857,4.206,2.484,3.518,2.174,7.513.083,2.146-1.125,3.483-2.42,2.813-5M15.89,21.9c1.01,0,2.021-.022,3.031,0a4.69,4.69,0,0,1,4.729,4.686c.037,1.454-.013,2.909.014,4.363a2.746,2.746,0,0,1-1.471,2.594c-1.468.852-2.93,1.714-4.416,2.532a3.876,3.876,0,0,1-3.938-.01c-1.484-.821-2.949-1.681-4.414-2.535A2.688,2.688,0,0,1,7.974,31.05c.014-1.5-.029-2.991.013-4.484a4.7,4.7,0,0,1,4.631-4.66c1.09-.035,2.181,0,3.272-.006" transform="translate(4.762 13.08)" fill="#4d576e"/>
      <path id="Path_5320" data-name="Path 5320" d="M7.887,19.3c1.171,0,2.344-.011,3.515,0a4.34,4.34,0,0,1,3.016,1.366c.3.289.564.674.241,1.066-.358.435-.719.142-1.035-.137-.091-.08-.179-.166-.273-.24-1.638-1.27-9.013-1.369-10.669-.145a3.482,3.482,0,0,0,.348,5.855Q6.393,29,9.753,30.937c.176.1.35.2.514.321.348.248.671.546.356.994-.265.377-.649.24-.981.053q-1.74-.982-3.475-1.979c-1.3-.746-2.583-1.5-3.88-2.248A4.267,4.267,0,0,1,.144,23.035a4.6,4.6,0,0,1,4.107-3.713c1.208-.072,2.424-.013,3.636-.013Z" transform="translate(0 11.525)" fill="#4d576e"/>
      <path id="Path_5321" data-name="Path 5321" d="M23.409,19.3c1.131,0,2.264-.035,3.393.006a4.621,4.621,0,0,1,4.329,3.606,4.335,4.335,0,0,1-2.217,5.222c-2.283,1.3-4.548,2.626-6.833,3.92-.451.256-1.034.845-1.441.088-.345-.639.375-.888.8-1.136,2.265-1.326,4.545-2.628,6.823-3.933a3,3,0,0,0,1.749-3.385,3.307,3.307,0,0,0-2.7-3.051,28.466,28.466,0,0,0-7.962.019,3.156,3.156,0,0,0-1.668.935c-.308.286-.674.578-1.035.147-.329-.39-.07-.775.23-1.066a4.354,4.354,0,0,1,3.015-1.368c1.171-.014,2.344,0,3.515,0" transform="translate(9.857 11.525)" fill="#4d576e"/>
      <path id="Path_5322" data-name="Path 5322" d="M22.7,13.733a3.754,3.754,0,1,0,.056,7.505,3.736,3.736,0,0,0,3.732-3.8,3.616,3.616,0,0,0-3.788-3.7m.058-1.276a5,5,0,0,1,5.015,5.005,5.141,5.141,0,0,1-5.127,5.063,5.034,5.034,0,1,1,.112-10.068" transform="translate(10.545 7.444)" fill="#4d576e"/>
      <path id="Path_5323" data-name="Path 5323" d="M6.889,21.239a3.788,3.788,0,0,0,3.794-3.871,3.873,3.873,0,0,0-3.874-3.69,3.781,3.781,0,1,0,.08,7.561m.013-8.78A5.034,5.034,0,1,1,6.8,22.525a5.145,5.145,0,0,1-5.021-5.05A5,5,0,0,1,6.9,12.459" transform="translate(1.061 7.445)" fill="#4d576e"/>
      <path id="Path_5324" data-name="Path 5324" d="M18.588,20.185a3.809,3.809,0,0,0-7.619-.054,3.876,3.876,0,0,0,3.786,3.8,3.837,3.837,0,0,0,3.833-3.748M14.815,25.13a5.033,5.033,0,1,1,5.042-4.988,5.1,5.1,0,0,1-5.042,4.988" transform="translate(5.798 9.002)" fill="#4d576e"/>
    </g>
  </g>
</svg>
