<svg xmlns="http://www.w3.org/2000/svg" xmlns:xlink="http://www.w3.org/1999/xlink" width="40.824" height="40.791" viewBox="0 0 40.824 40.791">
  <defs>
    <clipPath id="clip-path">
      <rect id="Rectangle_65875" data-name="Rectangle 65875" width="40.824" height="40.791" fill="#4d576e"/>
    </clipPath>
  </defs>
  <g id="Group_149491" data-name="Group 149491" transform="translate(0 0)">
    <g id="Group_149490" data-name="Group 149490" transform="translate(0 0)" clip-path="url(#clip-path)">
      <path id="Path_5363" data-name="Path 5363" d="M26.073,17.966c1-1.3,1.3-1.39,2.682-.681a5.426,5.426,0,0,1,3.152,5.041c.033,1.836.013,3.673.007,5.509-.005,1.166-.519,1.685-1.682,1.687q-7.59.005-15.183,0a1.487,1.487,0,0,1-1.712-1.674c-.018-1.859-.067-3.721.013-5.579a5.62,5.62,0,0,1,3.61-5.2c.626-.275,1.2-.375,1.685.282a3.983,3.983,0,0,0,.688.579,1.764,1.764,0,0,1-.906.234A4.227,4.227,0,0,0,14.8,22.382c-.02,1.67.013,3.343-.017,5.013-.012.587.194.768.774.766q7.1-.028,14.195,0c.562,0,.808-.15.794-.756-.032-1.6.012-3.2-.017-4.8a4.351,4.351,0,0,0-3.8-4.467c-.219-.042-.476.027-.659-.167" transform="translate(8.899 11.265)" fill="#4d576e"/>
      <path id="Path_5364" data-name="Path 5364" d="M12.664,18.018c.925-1.3,1.322-1.439,2.625-.8a5.529,5.529,0,0,1,3.288,4.975c.085,1.854.033,3.716.017,5.575-.012,1.232-.556,1.749-1.784,1.749q-7.517.005-15.034,0c-1.255,0-1.756-.5-1.759-1.747C.011,25.936,0,24.1.018,22.267a5.653,5.653,0,0,1,4.057-5.352,2.292,2.292,0,0,1,1.782.946c.042.224-.142.2-.267.222a10.546,10.546,0,0,0-1.242.249A4.3,4.3,0,0,0,1.4,22.405c-.038,1.692.005,3.388-.018,5.082-.007.552.252.666.738.666q7.164-.018,14.328,0c.527,0,.7-.189.691-.7-.022-1.694.008-3.389-.013-5.083a4.19,4.19,0,0,0-3.626-4.2c-.274-.047-.546-.1-.836-.149" transform="translate(0.007 11.268)" fill="#4d576e"/>
      <path id="Path_5365" data-name="Path 5365" d="M24.229,4.845a3.419,3.419,0,0,0-3.3-3.451A3.492,3.492,0,0,0,17.4,4.861a3.42,3.42,0,0,0,3.4,3.353,3.372,3.372,0,0,0,3.424-3.369m-8.216,0A4.76,4.76,0,0,1,20.821,0,4.814,4.814,0,0,1,25.7,4.8a4.918,4.918,0,0,1-4.843,4.878,4.821,4.821,0,0,1-4.84-4.841" transform="translate(10.71 0)" fill="#4d576e"/>
      <path id="Path_5366" data-name="Path 5366" d="M20.767,19.828a3.382,3.382,0,0,0,.2-6.76,3.383,3.383,0,1,0-.2,6.76m-4.754-3.356a4.788,4.788,0,0,1,4.8-4.868,4.844,4.844,0,1,1,.047,9.687,4.781,4.781,0,0,1-4.845-4.82" transform="translate(10.71 7.761)" fill="#4d576e"/>
      <path id="Path_5367" data-name="Path 5367" d="M4.12,4.77A3.37,3.37,0,0,0,7.473,8.213a3.424,3.424,0,0,0,3.476-3.351A3.51,3.51,0,0,0,7.49,1.388,3.438,3.438,0,0,0,4.12,4.77m8.216.1A4.834,4.834,0,0,1,7.541,9.683,4.925,4.925,0,0,1,2.655,4.777,4.809,4.809,0,0,1,7.555,0a4.742,4.742,0,0,1,4.781,4.865" transform="translate(1.776 0.001)" fill="#4d576e"/>
      <path id="Path_5368" data-name="Path 5368" d="M10.793,9.084a3.382,3.382,0,1,0,6.764.077,3.382,3.382,0,1,0-6.764-.077m3.3,4.878A4.853,4.853,0,1,1,19.021,9.2a4.841,4.841,0,0,1-4.928,4.758" transform="translate(6.242 2.848)" fill="#4d576e"/>
      <path id="Path_5369" data-name="Path 5369" d="M7.53,13.067a3.382,3.382,0,1,0,.052,6.764,3.382,3.382,0,1,0-.052-6.764m4.808,3.364a4.787,4.787,0,0,1-4.8,4.863A4.845,4.845,0,1,1,7.5,11.6a4.785,4.785,0,0,1,4.838,4.828" transform="translate(1.776 7.76)" fill="#4d576e"/>
      <path id="Path_5370" data-name="Path 5370" d="M.025,12.965A16.936,16.936,0,0,1,.187,9.307a5.6,5.6,0,0,1,3.885-4.03,2.194,2.194,0,0,1,1.777.935c.087.282-.144.245-.289.252a4.178,4.178,0,0,0-1.7.431,4.26,4.26,0,0,0-2.456,3.978c-.043,1.644,0,3.291-.02,4.938-.007.509.219.656.681.646.753-.017,1.505,0,2.258,0,.494,0,.559.155.292.587a1.543,1.543,0,0,1-1.66.881c-.484-.07-.986,0-1.479-.022A1.4,1.4,0,0,1,.03,16.415C.01,15.357.025,14.3.025,12.965" transform="translate(0 3.516)" fill="#4d576e"/>
      <path id="Path_5371" data-name="Path 5371" d="M20.865,6.4c.452-.417.8-.728,1.135-1.048.229-.219.477-.137.729-.072a5.631,5.631,0,0,1,4.122,5.232c.023,1.929.013,3.86,0,5.791a1.452,1.452,0,0,1-1.6,1.632,11.105,11.105,0,0,0-1.27.012,1.579,1.579,0,0,1-1.719-.9c-.3-.494-.12-.564.312-.567.778-.007,1.554-.005,2.331-.007.312,0,.574-.07.569-.459a48.066,48.066,0,0,0-.09-5.782A4.141,4.141,0,0,0,21.346,6.5c-.112-.012-.22-.042-.481-.093" transform="translate(13.955 3.486)" fill="#4d576e"/>
      <path id="Path_5372" data-name="Path 5372" d="M9.49,16.5a73.052,73.052,0,0,1,9.187,0c-1.018.537-1.665,1.482-2.954,1.34a24.251,24.251,0,0,0-3.448-.015,2.135,2.135,0,0,1-1.724-.594A7.346,7.346,0,0,0,9.49,16.5" transform="translate(6.347 10.94)" fill="#4d576e"/>
      <path id="Path_5373" data-name="Path 5373" d="M14.11,10.745c1.066-1.268,1.632-1.41,3.029-.7A5.635,5.635,0,0,1,19.317,12c.2.3.1.5-.189.609-.307.11-.592.713-.94.224A4.6,4.6,0,0,0,14.2,10.84c-.032,0-.062-.062-.092-.1" transform="translate(9.437 6.433)" fill="#4d576e"/>
      <path id="Path_5374" data-name="Path 5374" d="M11.058,9.583a4.973,4.973,0,0,1,1.373,1.083c.212.224-.24.234-.4.232a4.177,4.177,0,0,0-2.73.971,3.856,3.856,0,0,0-.592.6c-.487.617-.893.632-1.42.05a.361.361,0,0,1-.048-.444,5.707,5.707,0,0,1,3.82-2.49" transform="translate(4.805 6.409)" fill="#4d576e"/>
      <path id="Path_5375" data-name="Path 5375" d="M18,6.426a17.65,17.65,0,0,0-1.824.305c-.607.135-.484-.506-.678-.8-.205-.309.032-.451.3-.566a.977.977,0,0,1,1.318.237A8.955,8.955,0,0,0,18,6.426" transform="translate(10.315 3.49)" fill="#4d576e"/>
      <path id="Path_5376" data-name="Path 5376" d="M7.528,6.41A11.471,11.471,0,0,1,8.72,5.327a1.025,1.025,0,0,1,1.22.225c.324.259-.075.586-.159.878-.137.474-.481.3-.8.232-.444-.093-.894-.157-1.454-.252" transform="translate(5.035 3.477)" fill="#4d576e"/>
    </g>
  </g>
</svg>
