<svg xmlns="http://www.w3.org/2000/svg" xmlns:xlink="http://www.w3.org/1999/xlink" width="40.769" height="47.373" viewBox="0 0 40.769 47.373">
  <defs>
    <clipPath id="clip-path">
      <rect id="Rectangle_65872" data-name="Rectangle 65872" width="40.769" height="47.373" fill="#4d576e"/>
    </clipPath>
  </defs>
  <g id="Group_149485" data-name="Group 149485" transform="translate(0 0)">
    <g id="Group_149484" data-name="Group 149484" transform="translate(0 0)" clip-path="url(#clip-path)">
      <path id="Path_5326" data-name="Path 5326" d="M20.894,17.32A4.518,4.518,0,1,0,25.4,21.846a4.49,4.49,0,0,0-4.507-4.526M16.2,30.826a12.118,12.118,0,0,1,.24-1.766.582.582,0,0,0-.271-.717,1.21,1.21,0,0,1-.393-.305c-.574-.82-1.245-.727-2.1-.429-1.6.555-1.3.551-2.172-.858a.769.769,0,0,1,.143-1.156,7.139,7.139,0,0,1,.782-.708c.7-.41.666-.94.587-1.671a1.636,1.636,0,0,0-1.255-1.528c-1.745-.7-1.518-.359-1.146-2.348a.572.572,0,0,1,.6-.517,13.53,13.53,0,0,1,1.388-.086c.168,0,.336.01.5,0,.54-.032,1.465-1.741,1.213-2.214-.288-.54-.553-1.091-.83-1.638a.528.528,0,0,1,.151-.73c1.589-1.325,1.161-1.331,2.66-.147a1.683,1.683,0,0,0,1.907.336c.74-.278,1.181-.589,1.184-1.394a1.4,1.4,0,0,1,.067-.271c.318-1.388.9-1.722,2.29-1.333a.551.551,0,0,1,.418.462c.128.54.252,1.083.376,1.627.015.071.013.147.031.219a2.557,2.557,0,0,0,2.359.864c.521-.387,1.045-.772,1.564-1.163a.45.45,0,0,1,.648.025l.044.034c1.653,1.392,1.434.914.58,2.7a3.971,3.971,0,0,1-.343.574.434.434,0,0,0,.011.6c.013.013.019.032.031.046.418.456.425,1.285,1.064,1.474a11,11,0,0,0,1.88.124.731.731,0,0,1,.769.687c.322,1.835.429,1.552-1.156,2.168-.818.317-1.354.668-1.318,1.606a1.341,1.341,0,0,1-.109.486.612.612,0,0,0,.242.765c.471.389.9.833,1.346,1.251a.526.526,0,0,1,.1.694c-.709,1.579-.862,1.7-2.443,1.087A1.656,1.656,0,0,0,25.907,28a1.683,1.683,0,0,0-.635,1.77c.175,1.768.58,1.5-1.324,2.182a.688.688,0,0,1-.967-.334c-.28-.481-.608-.934-.885-1.417a.734.734,0,0,0-.62-.37,2.241,2.241,0,0,0-2.622,1.325c-.587,1.118-.433,1.011-1.737.559-.193-.067-.378-.16-.568-.233a.517.517,0,0,1-.347-.658" transform="translate(9.392 10.155)" fill="#4d576e"/>
      <path id="Path_5327" data-name="Path 5327" d="M0,23.788V3.994a7.176,7.176,0,0,1,.021-.835,1.088,1.088,0,0,1,1.1-1.045C3.019,2.1,4.915,2.11,6.81,2.1c.33,0,.479.139.475.465,0,.446-.01.893,0,1.339.011.389-.175.515-.545.511-1.209-.011-2.416,0-3.624,0-.746,0-.75,0-.75.732V24.162q0,9.088,0,18.177c0,.82,0,.82.83.82h25.09c.82,0,.82,0,.83-.82.008-.736.017-.746.75-.751,1.617-.01,1.617-.01,1.617,1.61v.725c-.006,1.167-.372,1.543-1.526,1.543q-12.49,0-24.98,0H1.692C.317,45.467,0,45.15,0,43.748V23.788Z" transform="translate(0 1.907)" fill="#4d576e"/>
      <path id="Path_5328" data-name="Path 5328" d="M11.53,1.846A1.058,1.058,0,0,0,10.4,2.941a1.111,1.111,0,1,0,2.22.04A1.064,1.064,0,0,0,11.53,1.846m-.036,5.92c-1.32,0-2.639.008-3.959,0A2.728,2.728,0,0,1,4.67,4.886c0-.206-.006-.41,0-.614A1.3,1.3,0,0,1,6.034,2.9c.65-.011,1.3-.017,1.953,0,.364.011.521-.126.593-.49A2.9,2.9,0,0,1,11.492,0a2.879,2.879,0,0,1,2.941,2.378c.084.431.282.542.679.528.648-.021,1.3-.017,1.951,0a1.238,1.238,0,0,1,1.249,1.06,4.277,4.277,0,0,1-.137,2.039,2.752,2.752,0,0,1-2.609,1.755c-1.358.013-2.716,0-4.072,0" transform="translate(4.234 0.001)" fill="#4d576e"/>
      <path id="Path_5329" data-name="Path 5329" d="M19.974,10.516c0,2.3-.011,4.608.01,6.91.006.53-.164.711-.7.708-1.673-.01-1.673.01-1.673-1.682,0-3.772-.011-7.543.01-11.313,0-.547-.132-.757-.713-.736-1.207.042-2.414,0-3.622.019-.427.006-.62-.135-.6-.578.021-.406.015-.816,0-1.224-.013-.383.16-.521.538-.519,1.858.011,3.715,0,5.571.011.77.006,1.167.486,1.171,1.383.006,2.342,0,4.682,0,7.022" transform="translate(11.509 1.906)" fill="#4d576e"/>
      <path id="Path_5330" data-name="Path 5330" d="M13.864,9.841c-1.987,0-3.973-.015-5.96.01-.557.008-.8-.174-.715-.738A3.613,3.613,0,0,0,7.2,8.556c-.006-.278.132-.408.406-.406.13,0,.259-.006.389-.006q5.933,0,11.862.006c.259,0,.637-.134.73.219a1.95,1.95,0,0,1-.038,1.308c-.109.235-.433.16-.667.16q-3.007.009-6.015,0" transform="translate(6.508 7.371)" fill="#4d576e"/>
      <path id="Path_5331" data-name="Path 5331" d="M9.9,15.465a.525.525,0,0,1-.261.41c-1.438,1.263-2.884,2.517-4.31,3.793-.3.267-.473.231-.721-.055-.73-.841-1.482-1.667-2.233-2.489-.227-.252-.271-.45.017-.694,1.091-.923.791-.9,1.629.04.061.069.128.134.191.2.889.963.893.967,1.905.093.746-.643,1.48-1.3,2.218-1.951.585-.519.585-.521,1.108.09.168.2.326.4.458.561" transform="translate(1.983 13.095)" fill="#4d576e"/>
      <path id="Path_5332" data-name="Path 5332" d="M9.939,11.581a3.019,3.019,0,0,1-.254.286C8.22,13.15,6.748,14.426,5.293,15.719c-.273.244-.435.175-.639-.057C3.9,14.8,3.136,13.934,2.362,13.085c-.238-.261-.189-.429.059-.637.988-.826.734-1,1.655.08,1.011,1.184,1.007,1.182,2.157.166.778-.688,1.573-1.358,2.342-2.056.277-.252.471-.225.681.053s.547.5.683.889" transform="translate(2.002 9.494)" fill="#4d576e"/>
      <path id="Path_5333" data-name="Path 5333" d="M9.854,19.464c.006.185-.128.275-.235.368C8.157,21.117,6.686,22.4,5.227,23.684c-.231.2-.393.21-.6-.029-.757-.866-1.516-1.73-2.294-2.577-.252-.275-.221-.452.042-.685,1.024-.9.778-.881,1.627.063,1.053,1.173,1.039,1.184,2.218.151.767-.673,1.543-1.337,2.3-2.02.273-.244.475-.231.683.063a5.5,5.5,0,0,1,.65.812" transform="translate(1.961 16.708)" fill="#4d576e"/>
      <path id="Path_5334" data-name="Path 5334" d="M5.032,11.908c-.153-.008-.225-.126-.309-.219-.784-.866-1.558-1.741-2.35-2.6-.219-.24-.189-.416.048-.6a.379.379,0,0,0,.04-.038c.839-.809.83-.8,1.625.042.351.37.585,1.018,1.089,1.034.463.011.78-.57,1.161-.891C7.075,8.021,7.8,7.388,8.509,6.732c.326-.305.538-.339.847.032.687.826.708.816-.111,1.537q-1.9,1.676-3.8,3.337c-.124.107-.231.246-.408.269" transform="translate(2.019 5.892)" fill="#4d576e"/>
      <path id="Path_5335" data-name="Path 5335" d="M11.094,12.12c1.078,0,2.155.015,3.231-.008.452-.008.664.151.627.61-.015.185,0,.372-.01.557a.419.419,0,0,1-.486.463q-3.4-.009-6.8,0c-.355,0-.515-.143-.507-.492,0-.168.006-.336,0-.5-.031-.475.177-.654.66-.643,1.1.027,2.191.01,3.288.01Z" transform="translate(6.48 10.984)" fill="#4d576e"/>
      <path id="Path_5336" data-name="Path 5336" d="M10.57,21.694c-.965,0-1.928-.011-2.893.006-.4.01-.549-.133-.555-.545-.013-1.083-.031-1.083,1.024-1.083,1.745,0,3.488.013,5.229-.008.484-.006.692.156.635.643a2.753,2.753,0,0,0,0,.5c.025.357-.133.494-.49.49-.982-.013-1.966,0-2.948,0" transform="translate(6.457 18.2)" fill="#4d576e"/>
      <path id="Path_5337" data-name="Path 5337" d="M9.507,17.716c-.612,0-1.224-.011-1.837,0-.372.01-.565-.124-.534-.513a.535.535,0,0,0,0-.055c-.038-1.057-.038-1.058,1-1.058s2.077.015,3.116-.006c.448-.008.667.143.622.608a2.039,2.039,0,0,0,0,.389c.055.486-.156.666-.641.639-.572-.032-1.15-.008-1.724-.008" transform="translate(6.463 14.594)" fill="#4d576e"/>
    </g>
  </g>
</svg>
