<svg id="Group_149489" data-name="Group 149489" xmlns="http://www.w3.org/2000/svg" xmlns:xlink="http://www.w3.org/1999/xlink" width="49.921" height="50.319" viewBox="0 0 49.921 50.319">
  <defs>
    <clipPath id="clip-path">
      <rect id="Rectangle_65874" data-name="Rectangle 65874" width="49.921" height="50.319" fill="#4d576e"/>
    </clipPath>
  </defs>
  <g id="Group_149488" data-name="Group 149488" transform="translate(0 0)" clip-path="url(#clip-path)">
    <path id="Path_5349" data-name="Path 5349" d="M20.649,30.135a.727.727,0,0,0-.217-.32q-3.917-3.909-7.83-7.821c-.168-.169-.295-.2-.462-.031-.28.284-.562.564-.843.845-.155.155-.133.278.026.435.781.77,1.551,1.554,2.326,2.33l5.5,5.5a.594.594,0,0,0,.357.232,3.913,3.913,0,0,0,1.147-1.166M0,33.9c.6-.726,1.311-1.35,1.97-2.02.939-.954,1.9-1.889,2.836-2.849.267-.274.471-.289.716.007A2.841,2.841,0,0,0,6,29.522c.348.256.234.446-.02.691-.742.72-1.468,1.46-2.2,2.193-.09.09-.173.188-.263.289a.567.567,0,0,0,.409.064q6.13.006,12.259,0a1.949,1.949,0,0,0,1.254-.847c.079-.2-.087-.3-.19-.4-.818-.829-1.646-1.65-2.471-2.475q-1.729-1.726-3.457-3.457c-.354-.355-.359-.365-.715-.009-1.013,1.013-2.033,2.018-3.033,3.044-.245.25-.418.269-.645,0a4.918,4.918,0,0,0-.562-.564c-.238-.2-.225-.387-.011-.6q1.061-1.044,2.112-2.1c.357-.357.7-.722,1.061-1.074.179-.177.182-.3,0-.494-.8-.814-.79-.819.017-1.622s1.641-1.622,2.444-2.453c.258-.267.425-.293.7-.013,2.411,2.429,4.84,4.841,7.25,7.272a1.19,1.19,0,0,0,1.1.425c1.131-.129,2.278-.1,3.411-.221,1.475-.158,2.956-.228,4.434-.348,1.571-.125,3.144-.228,4.714-.346s3.116-.247,4.674-.368c.49-.039.978-.083,1.468-.1a.9.9,0,0,0,.656-.311c.847-.86,1.713-1.7,2.556-2.567.243-.249.424-.256.65.006a6.377,6.377,0,0,0,.591.589c.214.188.18.331-.011.521q-1.572,1.552-3.125,3.123a1.061,1.061,0,0,1-.753.3c-1.6.066-3.2.19-4.8.335-1.939.175-3.886.234-5.823.451-1.011.114-2.035.122-3.053.2-1.492.112-2.98.271-4.475.331-.02,0-.041.029-.169.134.291.249.569.488.847.727.238.2.21.392,0,.6q-1.539,1.53-3.066,3.07c-.182.182-.315.168-.5-.006-.558-.523-.565-.516-1.1.026-.112.112-.215.232-.324.35Z" transform="translate(0 16.414)" fill="#4d576e"/>
    <path id="Path_5350" data-name="Path 5350" d="M30.67,23.079c.02.046.039.092.059.138a7.356,7.356,0,0,1,.781.006,1.228,1.228,0,0,0,1.083-.438c1.25-1.282,2.525-2.54,3.79-3.807.083-.085.166-.171.243-.263.157-.184.179-.3-.123-.359a1.768,1.768,0,0,0-1.621.562c-.678.654-1.331,1.331-2,1.993-.735.727-1.475,1.446-2.212,2.169m12.355-2.8a.539.539,0,0,0-.162.311,3.24,3.24,0,0,1-.818,1.348c-1.081,1.094-2.179,2.175-3.256,3.272-.236.241-.4.236-.611-.013a4.433,4.433,0,0,0-.536-.532c-.262-.223-.267-.4-.009-.646.95-.924,1.884-1.867,2.818-2.81a3.786,3.786,0,0,0,.838-1.147,1.212,1.212,0,0,0-.317-1.447,1.293,1.293,0,0,0-1.482-.18,3.245,3.245,0,0,0-.8.578c-1.834,1.842-3.678,3.676-5.508,5.521a1.136,1.136,0,0,1-.873.37q-7.345-.014-14.688-.007c-.608,0-.628-.018-.624-.622,0-1.179-.12-1.048,1.035-1.05,2.363,0,4.724,0,7.084,0a2.179,2.179,0,0,0,2.236-1.563,3.45,3.45,0,0,0,.055-1.109c-.006-.184-.122-.238-.289-.254-1.7-.16-3.405-.291-5.1-.5-1.8-.223-3.615-.319-5.412-.573-.786-.11-1.584-.138-2.374-.214a.9.9,0,0,0-.773.311c-1.239,1.256-2.49,2.5-3.737,3.748-.453.453-.453.451-.919-.017-.092-.094-.186-.188-.28-.282-.42-.416-.433-.429-.028-.838,1.249-1.258,2.508-2.5,3.762-3.755.039-.037.081-.07.116-.109.792-.823.794-.842,1.906-.738,1.792.164,3.582.357,5.374.536,1.727.171,3.457.306,5.178.517,1.249.153,2.506.217,3.755.37.319.041.425.168.444.475a9.078,9.078,0,0,1-.138,3.191l.12.074c.431-.455.853-.919,1.3-1.361,1.177-1.177,2.344-2.368,3.554-3.51a3.259,3.259,0,0,1,3.825-.608.975.975,0,0,0,.95-.015,2.914,2.914,0,0,1,3.475.383,2.482,2.482,0,0,1,.718,1.033,1.166,1.166,0,0,0,.2.431Z" transform="translate(6.896 13.963)" fill="#4d576e"/>
    <path id="Path_5351" data-name="Path 5351" d="M26.475,0c.589.28,1.238.379,1.849.606a15.141,15.141,0,0,1,6.9,5.11,14.98,14.98,0,0,1,2.921,6.836,14.623,14.623,0,0,1,.1,4.155,15.323,15.323,0,0,1-3.53,8.123c-.319.383-.407.381-.762.046l-.258-.249c-.567-.547-.569-.547-.061-1.162A13.233,13.233,0,0,0,36.06,18.94a13.036,13.036,0,0,0,.558-5.3A13.411,13.411,0,0,0,34.1,6.991a13.78,13.78,0,0,0-4.62-4.051,13.591,13.591,0,0,0-5.07-1.523,14,14,0,0,0-4.3.263,12.612,12.612,0,0,0-4.241,1.744A11.624,11.624,0,0,0,14.21,4.659c-.193.175-.363.2-.541-.018-.2-.234-.4-.464-.611-.68s-.188-.365.033-.558a15.673,15.673,0,0,1,3.517-2.291A27.017,27.017,0,0,1,19.707,0Z" transform="translate(10.866 0)" fill="#4d576e"/>
    <path id="Path_5352" data-name="Path 5352" d="M25.6,28.011a15.023,15.023,0,0,1-7.742-1.993,14.8,14.8,0,0,1-5.355-5.107,14.941,14.941,0,0,1-2.217-6.16,14.945,14.945,0,0,1-.1-3.2A15.385,15.385,0,0,1,11.443,6.6a17.184,17.184,0,0,1,2.149-3.519c.49-.626.49-.626,1.075-.131.726.615.72.611.129,1.346A13.676,13.676,0,0,0,11.9,11.249a13.044,13.044,0,0,0,.306,4.733,12.693,12.693,0,0,0,2.506,5.14,14.04,14.04,0,0,0,2.67,2.6A13.574,13.574,0,0,0,31.5,24.9a12.191,12.191,0,0,0,2.766-1.847c.208-.188.372-.225.564.011.166.206.346.4.523.6.339.376.341.414-.059.742a15.419,15.419,0,0,1-5.484,2.963,13.757,13.757,0,0,1-4.2.646" transform="translate(8.535 2.183)" fill="#4d576e"/>
    <path id="Path_5353" data-name="Path 5353" d="M13.434,13.607a10.673,10.673,0,0,0,2.372,6.788c.3.37.289.446-.064.742-.2.171-.413.335-.6.517s-.346.136-.5-.048a12.231,12.231,0,0,1-2.867-7.545A12.347,12.347,0,0,1,15.975,4.48a11.815,11.815,0,0,1,3.283-2.064A12.28,12.28,0,0,1,31.9,4.283c.249.206.26.361.041.578-.151.149-.278.32-.414.482-.385.451-.418.455-.889.081a10.629,10.629,0,0,0-12.92-.2,10.452,10.452,0,0,0-3.9,5.7,12.349,12.349,0,0,0-.383,2.683" transform="translate(9.899 1.212)" fill="#4d576e"/>
    <path id="Path_5354" data-name="Path 5354" d="M22.242,24.034a12.172,12.172,0,0,1-7.768-2.611l-.031-.024c-.492-.392-.492-.392-.1-.884.659-.819.641-.792,1.492-.18a10.27,10.27,0,0,0,5.479,2.009,10.9,10.9,0,0,0,4.151-.492,10.585,10.585,0,0,0,6.528-6.208,9.06,9.06,0,0,0,.672-3.051A11.957,11.957,0,0,0,32.5,9.581a10.485,10.485,0,0,0-1.764-3.965,3.124,3.124,0,0,0-.324-.451c-.291-.273-.33-.486.006-.773,1.035-.888.8-.9,1.6.164a11.453,11.453,0,0,1,2.21,5.219,12.287,12.287,0,0,1-5.064,12.06,11.421,11.421,0,0,1-6.919,2.2" transform="translate(11.833 3.147)" fill="#4d576e"/>
    <path id="Path_5355" data-name="Path 5355" d="M20.05,13.157c.9.578,1.711,1.125,2.547,1.633.309.188.389.366.184.665-.18.263-.35.532-.519.8a.251.251,0,0,1-.4.076c-1.221-.8-2.438-1.6-3.668-2.381a3.246,3.246,0,0,0-1.575-.788c-.145-.006-.227-.125-.252-.269a.924.924,0,0,1-.017-.158c.006-1.486-.169-1.214,1.158-1.236.622-.011,1.247.006,1.871-.006a2.185,2.185,0,0,0,1.807-.919c.072-.1.236-.2.149-.335s-.245-.064-.374-.064c-1.326,0-2.652,0-3.98,0-.606,0-.635-.026-.633-.622,0-1.193-.11-1.059,1.066-1.063,1.2-.006,2.388,0,3.584,0,.112,0,.262.053.33-.068S21.263,8.2,21.2,8.1a1.917,1.917,0,0,0-1.608-.88c-.888-.009-1.777,0-2.667-.006-.5,0-.582-.083-.58-.582.006-1.291-.138-1.1,1.088-1.109,2.017-.007,4.033,0,6.05,0,.49,0,.516.029.521.519v.12c0,1,0,1-1,1.048-.28.013-.324.1-.193.333a2.236,2.236,0,0,1,.234.5.492.492,0,0,0,.591.438c.273-.029.379.123.372.387-.009.291-.013.584,0,.875.015.311-.123.447-.425.42-.282-.026-.414.1-.514.37a3.685,3.685,0,0,1-2.648,2.464,2.849,2.849,0,0,0-.368.151" transform="translate(13.752 4.646)" fill="#4d576e"/>
    <path id="Path_5356" data-name="Path 5356" d="M18.765,3.991c0-.107,0-.212,0-.319.015-.457.1-.527.549-.49a8.569,8.569,0,0,1,7.029,4.843c.453.814.514.707-.449,1.164-.12.055-.252.083-.374.136-.247.107-.381.022-.5-.217A7.566,7.566,0,0,0,21.579,5.5a6.285,6.285,0,0,0-2.23-.668c-.582-.059-.582-.07-.584-.643Z" transform="translate(15.791 2.671)" fill="#4d576e"/>
    <path id="Path_5357" data-name="Path 5357" d="M21.653,15.076c.011.969-.05.819-.788.764a7.746,7.746,0,0,1-4.324-1.823A9.336,9.336,0,0,1,13.9,10.584c-.116-.25-.1-.389.166-.492s.536-.225.8-.344.451-.064.595.234a7.79,7.79,0,0,0,2.425,2.948A6.491,6.491,0,0,0,21.058,14.2c.6.066.593.094.595.678Z" transform="translate(11.637 8.152)" fill="#4d576e"/>
    <path id="Path_5358" data-name="Path 5358" d="M18.847,4.017c0,.821,0,.821-.812.821-.873,0-.873,0-.873-.854,0-.831,0-.831.821-.831.864,0,.864,0,.864.864" transform="translate(14.443 2.653)" fill="#4d576e"/>
    <path id="Path_5359" data-name="Path 5359" d="M19.639,13.828c-.873,0-.873,0-.873-.858,0-.12.006-.239,0-.357-.018-.319.133-.466.447-.462s.608,0,.912,0a.3.3,0,0,1,.333.346c0,.263,0,.529,0,.794,0,.508-.028.53-.543.536Z" transform="translate(15.791 10.225)" fill="#4d576e"/>
    <path id="Path_5360" data-name="Path 5360" d="M12.191,20.684a.339.339,0,0,1-.28-.118c-.234-.232-.466-.47-.7-.7a.294.294,0,0,1,0-.479c.245-.241.494-.481.729-.729.169-.18.313-.151.468.015.136.144.28.28.42.422.506.506.519.521.015,1.018-.21.2-.366.494-.648.571" transform="translate(9.328 15.598)" fill="#4d576e"/>
    <path id="Path_5361" data-name="Path 5361" d="M11,19.685a.325.325,0,0,1,.239.122c.236.23.468.464.7.7a.3.3,0,0,1,0,.479c-.19.184-.372.374-.558.56-.383.383-.411.383-.779,0-.164-.169-.32-.35-.5-.506-.214-.188-.234-.348-.009-.549s.451-.444.676-.665a.378.378,0,0,1,.232-.14" transform="translate(8.362 16.566)" fill="#4d576e"/>
    <path id="Path_5362" data-name="Path 5362" d="M7.476,24.893a.746.746,0,0,1-.278.389c-.928.9-.628.884-1.58-.009-.285-.267-.331-.481-.011-.74a5.335,5.335,0,0,0,.424-.418c.387-.389.387-.39.775-.026.164.153.324.311.477.475a.614.614,0,0,1,.193.33" transform="translate(4.531 20.045)" fill="#4d576e"/>
  </g>
</svg>
