<svg id="Group_149552" data-name="Group 149552" xmlns="http://www.w3.org/2000/svg" xmlns:xlink="http://www.w3.org/1999/xlink" width="41.691" height="42.309" viewBox="0 0 41.691 42.309">
  <defs>
    <clipPath id="clip-path">
      <rect id="Rectangle_65892" data-name="Rectangle 65892" width="41.691" height="42.309" fill="none"/>
    </clipPath>
  </defs>
  <g id="Group_149551" data-name="Group 149551" transform="translate(0 0)" clip-path="url(#clip-path)">
    <path id="Path_5412" data-name="Path 5412" d="M33.934,27.332c-.9.005-1.134.281-1.023,1.168a2.167,2.167,0,0,0,.373,1.117c.744.927,1.515,1.834,2.277,2.749.179.216.331.209.531-.005a3.1,3.1,0,0,0,.542-3.275,3.048,3.048,0,0,0-2.7-1.754m-2.186,1.176a1.48,1.48,0,0,0-.527.748,2.916,2.916,0,0,0,.529,3.009q3.241,3.881,6.483,7.759c.733.874.728.85,1.59.145.408-.333.459-.573.092-1-1.712-1.979-3.424-3.959-5.073-5.991-1.16-1.43-2.689-2.623-3.093-4.673M20.631,1.1a19.67,19.67,0,0,0-9.208,37,19.061,19.061,0,0,0,10.186,2.353,18.268,18.268,0,0,0,11.076-4.562.47.47,0,0,0,.06-.789c-.633-.739-1.26-1.481-1.862-2.244a3.953,3.953,0,0,1,.426-5.572,4.078,4.078,0,0,1,5.432.038,4.013,4.013,0,0,1,.38,5.587.84.84,0,0,0,.022,1.328c1.464,1.673,2.858,3.4,4.3,5.092.327.384.354.611-.069.946-.716.564-1.391,1.183-2.056,1.807-.342.319-.552.308-.857-.068-1.4-1.724-2.841-3.417-4.242-5.141-.324-.4-.525-.435-.934-.083A19.022,19.022,0,0,1,22.01,41.5,20.781,20.781,0,0,1,2.324,30.268,19.915,19.915,0,0,1,.043,19.814a20.385,20.385,0,0,1,11.2-17.5A18.872,18.872,0,0,1,20.863.007a20.4,20.4,0,0,1,17.72,10.255,19.575,19.575,0,0,1,2.909,10.951,20.9,20.9,0,0,1-1.476,7.251,2.909,2.909,0,0,1-.152.323.532.532,0,0,1-.7.285.491.491,0,0,1-.286-.686c.1-.342.245-.67.366-1.006a19.583,19.583,0,0,0-6.331-22A19.321,19.321,0,0,0,20.631,1.1" transform="translate(0 0)" fill="#1a1818"/>
    <path id="Path_5413" data-name="Path 5413" d="M19.948,22.823c.572,0,1.145-.012,1.719,0,.485.015.683-.222.682-.682,0-.573-.005-1.147,0-1.72,0-.392-.122-.522-.541-.408-1.182.323-2.368.632-3.565.889-.511.11-.716.339-.652.844a4.253,4.253,0,0,1,.007.474c0,.416.209.609.629.6.573-.009,1.147,0,1.72,0m10.959-7.064H30.9c0-.873,0-1.746,0-2.619,0-.264-.1-.481-.405-.484s-.392.222-.4.484c-.015.4,0,.794-.043,1.187a.51.51,0,0,1-.556.506c-.332-.015-.473-.239-.518-.549-.119-.835-.122-.835-.945-.687a4.451,4.451,0,0,1-.527.087c-.377.022-.506.213-.5.58.016.873,0,1.747.005,2.62.005.754-.136.908.838.983,1.03.079,1.031.122,1.124-.914.03-.332.149-.6.508-.622.392-.02.567.253.587.61.024.415.009.832.023,1.248.008.276-.012.623.365.642.4.02.449-.319.45-.632,0-.813,0-1.628,0-2.441m-12.1,12.4c0,1.248.011,2.5-.007,3.746-.005.4.119.588.542.562a9.4,9.4,0,0,1,1.189,0c.443.03.584-.148.581-.586q-.022-3.655,0-7.312c0-.45-.123-.667-.6-.633a8.718,8.718,0,0,1-1.129,0c-.443-.026-.588.163-.58.6.02,1.208.007,2.417.007,3.626m-11.79-12.4c0,2.143-.008,4.284,0,6.427a1.337,1.337,0,0,0,1.568,1.487c.684-.1,1.08-.618,1.084-1.476.011-1.824,0-3.649.005-5.473,0-.3-.007-.6.011-.893a.524.524,0,0,1,.507-.557c.366-.023.535.214.576.548a5.114,5.114,0,0,1,.02.6c0,1.526,0,3.054,0,4.581,0,.656.054.682.687.52,2.074-.529,4.15-1.046,6.224-1.576,2.5-.637,4.989-1.289,7.487-1.915.522-.13.767-.363.735-.941a24.085,24.085,0,0,1,0-2.617c.033-.6-.211-.839-.764-.977C20.8,12.4,16.444,11.285,12.084,10.176c-1.2-.306-1.208-.3-1.292.949-.026.386-.126.759-.579.754s-.531-.4-.533-.778c0-.636.022-1.271-.012-1.9A1.3,1.3,0,0,0,7.883,7.969,1.39,1.39,0,0,0,7.021,9.4q0,3.184,0,6.366m-1.038,0q0-3.186,0-6.37A2.381,2.381,0,0,1,10.6,8.368a.817.817,0,0,0,.619.484Q16.9,10.281,22.582,11.72a28.614,28.614,0,0,0,3.523.846,4.2,4.2,0,0,0,3.458-.718,1.5,1.5,0,0,1,2.463.848,8.519,8.519,0,0,1,.08,1.839c.005,1.231.028,2.461-.012,3.691-.043,1.305-.972,2.022-2.074,1.66a1.192,1.192,0,0,1-.373-.182,4.387,4.387,0,0,0-3.917-.664c-.542.121-1.071.316-1.617.4s-.71.358-.674.885c.042.613,0,1.229.011,1.845a1.576,1.576,0,0,1-.9,1.606c-.359.165-.321.461-.321.755q0,3.871,0,7.74a5.852,5.852,0,0,1-.027.653.588.588,0,0,1-.636.575c-1.052,0-2.1.007-3.155,0-.534,0-.633-.359-.632-.811.005-2.639-.008-5.278.011-7.918a1.062,1.062,0,0,0-.579-1.145,1.577,1.577,0,0,1-.721-1.651c.038-.468-.107-.591-.575-.465-1.571.42-3.15.813-4.729,1.2a.767.767,0,0,0-.587.507,2.351,2.351,0,0,1-2.688,1.556,2.424,2.424,0,0,1-1.922-2.46c-.005-2.183,0-4.366,0-6.549" transform="translate(2.125 2.403)" fill="#1a1818"/>
  </g>
</svg>
