<svg xmlns="http://www.w3.org/2000/svg" xmlns:xlink="http://www.w3.org/1999/xlink" width="43.177" height="46.796" viewBox="0 0 43.177 46.796">
  <defs>
    <clipPath id="clip-path">
      <rect id="Rectangle_65890" data-name="Rectangle 65890" width="43.177" height="46.796" fill="none"/>
    </clipPath>
  </defs>
  <g id="Group_149548" data-name="Group 149548" transform="translate(0 0)">
    <g id="Group_149547" data-name="Group 149547" transform="translate(0 0)" clip-path="url(#clip-path)">
      <path id="Path_5406" data-name="Path 5406" d="M21.568,3.231c.726,0,1.451,0,2.178,0,.482,0,.5-.178.259-.538-.93-1.384-3.931-1.369-4.843.022-.276.42-.11.518.3.516.7,0,1.4,0,2.1,0M16.078,32.8c-.5.148-.241.442-.1.682,1.738,2.86,3.487,5.711,5.219,8.573.288.477.5.483.786.01q2.62-4.325,5.249-8.641c.11-.182.307-.407,0-.577-.247-.14-.43.032-.579.216-.126.156-.238.325-.354.488-1.269,1.783-2.532,3.571-3.81,5.346-.657.912-1.149.914-1.8.006-1.337-1.859-2.656-3.729-3.985-5.592-.159-.223-.3-.479-.633-.511m9.685-1.893c0-1.012,0-1.025-.9-.743a10.78,10.78,0,0,1-6.673-.04c-.256-.084-.639-.306-.673.229a2.6,2.6,0,0,0,.37,1.868c1.124,1.514,2.206,3.06,3.28,4.609.326.471.521.477.852,0q1.65-2.39,3.361-4.735a1.6,1.6,0,0,0,.382-1.185m5.382-15.367a3.746,3.746,0,0,0,.217-1.248,10.381,10.381,0,0,0-1.1-4.887c-1.489-2.873-3.716-4.644-7.119-4.577-1.207.025-2.416,0-3.625,0a5.91,5.91,0,0,0-3.967,1.425,10.2,10.2,0,0,0-3.481,9.347c.059.546.275.6.74.424a8.056,8.056,0,0,0,3.444-2.616,14.126,14.126,0,0,0,1.767-3.067c.207-.46.5-.773,1.034-.686a23.729,23.729,0,0,1,8.274,2.7,15.878,15.878,0,0,1,3.817,3.181m-.385,3.465a2.442,2.442,0,0,0-.64-2.15c-.332-.3-.589-.687-.906-1.009-2.606-2.65-5.925-3.778-9.468-4.44-.463-.085-.56.229-.7.517A10.339,10.339,0,0,1,12.9,17.684a.631.631,0,0,0-.479.671,13.5,13.5,0,0,0,.564,4.537,9.148,9.148,0,0,0,11.439,5.721c3.914-1.332,6.328-4.876,6.335-9.607M21.606,45.133q5.924,0,11.852,0c.927,0,.969-.047.974-.991,0-1.056,0-2.114.006-3.17,0-.6.053-1.215.83-1.3.551-.062.825.377.831,1.265.009,1.131.022,2.265,0,3.4-.013.577.2.82.79.809q1.923-.037,3.85,0c.589.01.8-.225.786-.808a10.717,10.717,0,0,0-4.735-8.82c-1.981-1.409-4.32-1.691-6.607-2.174a1.157,1.157,0,0,0-1.441.674c-2.07,3.453-4.176,6.883-6.276,10.317-.567.927-1.169.918-1.748-.015-.438-.706-.865-1.417-1.3-2.127L14.312,33.81c-.2-.325-.38-.651-.874-.539-1.519.347-3.076.507-4.565,1A10.862,10.862,0,0,0,1.658,44.275c0,.67.242.886.886.867,1.081-.034,2.164-.009,3.245-.009,1.3,0,1.294,0,1.3-1.273,0-1.107.006-2.215.029-3.321a.806.806,0,0,1,.533-.831.729.729,0,0,1,.77.167,1.216,1.216,0,0,1,.323.972c.009.981.006,1.962.007,2.943,0,1.341,0,1.342,1.306,1.342H21.606m-.043,1.661H1.628c-1.372,0-1.642-.253-1.627-1.633.056-5.405,2.324-9.48,7.232-11.949a14.184,14.184,0,0,1,3.825-1.119c1.359-.257,2.714-.532,4.074-.776.514-.093.68-.347.711-.868a2.352,2.352,0,0,0-1.012-2.3,9.973,9.973,0,0,1-3.682-5.981,1.863,1.863,0,0,0-.927-1.342,3.483,3.483,0,0,1-.454-5.161,1.864,1.864,0,0,0,.607-1.508,11.915,11.915,0,0,1,3.342-8.41,7.729,7.729,0,0,1,2.723-1.861,1.2,1.2,0,0,0,.776-.825A4.282,4.282,0,0,1,21.527,0a4.347,4.347,0,0,1,4.412,2.929,1.278,1.278,0,0,0,.7.9,10.161,10.161,0,0,1,5.831,6.814,10.785,10.785,0,0,1,.488,3.875,1.158,1.158,0,0,0,.405,1.068c1.41,1.168,1.389,4.555-.7,5.43a.909.909,0,0,0-.527.765,11.137,11.137,0,0,1-4.38,6.914c-.745.563-.355,1.4-.357,2.115,0,.545.582.464.944.541,1.723.358,3.458.658,5.176,1.036A12.336,12.336,0,0,1,43.1,43.644c.035.6.09,1.206.079,1.808-.018,1.052-.319,1.338-1.373,1.34q-6.268.009-12.536,0h-7.7" transform="translate(0 0.001)" fill="#1a1818"/>
    </g>
  </g>
</svg>
