<svg id="Group_149550" data-name="Group 149550" xmlns="http://www.w3.org/2000/svg" xmlns:xlink="http://www.w3.org/1999/xlink" width="41.945" height="41.26" viewBox="0 0 41.945 41.26">
  <defs>
    <clipPath id="clip-path">
      <rect id="Rectangle_65891" data-name="Rectangle 65891" width="41.945" height="41.26" fill="none"/>
    </clipPath>
  </defs>
  <g id="Group_149549" data-name="Group 149549" transform="translate(0 0)" clip-path="url(#clip-path)">
    <path id="Path_5407" data-name="Path 5407" d="M20.951,16.163c-6.036,0-12.073.009-18.109-.013a.955.955,0,0,0-1.086.777,9.048,9.048,0,0,0,.04,5.093A24.5,24.5,0,0,0,8.439,32.878a7.2,7.2,0,0,0,5.3,2.187q7.232.014,14.463,0a6.727,6.727,0,0,0,4.709-1.653,23.879,23.879,0,0,0,7.3-11.61,8.84,8.84,0,0,0-.015-4.86.986.986,0,0,0-1.136-.795c-6.036.025-12.073.015-18.109.015m.086-1.5c6.218,0,12.436.012,18.654-.015a1.459,1.459,0,0,1,1.539.983,9.94,9.94,0,0,1,.5,5.842,21.581,21.581,0,0,1-4.523,9.5,33.978,33.978,0,0,1-2.473,2.757,9.038,9.038,0,0,1-6.749,2.834q-7.019.018-14.037,0A9.165,9.165,0,0,1,7.2,33.728a25.5,25.5,0,0,1-6.4-9.91A12.55,12.55,0,0,1,.255,17,9.149,9.149,0,0,1,.8,15.462a1.264,1.264,0,0,1,1.338-.809c4.577.018,9.155.009,13.732.009Z" transform="translate(0 4.686)" fill="#1a1818"/>
    <path id="Path_5408" data-name="Path 5408" d="M3.529,9.722a3.337,3.337,0,0,0,1.41,2.928c.74.566.781.711.309,1.494a2.78,2.78,0,0,0-.358,1.573c.017.638-.246,1-.7,1.015s-.744-.352-.8-.965a3.363,3.363,0,0,1,.251-1.608.774.774,0,0,0-.2-.952,5.06,5.06,0,0,1-.018-6.944,5,5,0,0,1,7.1-.232.951.951,0,0,0,1.122.23,3.75,3.75,0,0,1,3.936.892,1.235,1.235,0,0,0,1.053.381,3.91,3.91,0,0,1,4.328,4.985c-.091.4.053.539.358.693a3.836,3.836,0,0,1,2.009,2.4c.144.476.057.876-.434,1.044s-.818-.119-.973-.575a2.48,2.48,0,0,0-2.174-1.77c-.934-.135-1.123-.575-.627-1.379A2.5,2.5,0,0,0,17.329,8.98a2.226,2.226,0,0,0-1.184.186.889.889,0,0,1-1.2-.376,2.536,2.536,0,0,0-3.6-.81c-.627.364-.854.31-1.375-.327a3.6,3.6,0,0,0-5.934.218,3.039,3.039,0,0,0-.508,1.852" transform="translate(0.656 1.492)" fill="#1a1818"/>
    <path id="Path_5409" data-name="Path 5409" d="M14.9,2.555a7.885,7.885,0,0,0,1.684,4.489C18.1,8.762,20.148,9.155,22.3,9.261c.364.017.45-.19.42-.5-.04-.4-.05-.81-.117-1.208a6.755,6.755,0,0,0-2.25-4.5A7.98,7.98,0,0,0,15.7,1.5c-.858-.048-.857-.07-.806,1.057M15.165,0a10.444,10.444,0,0,1,5.6,1.554A7.809,7.809,0,0,1,24,7.1a11.332,11.332,0,0,1,.22,2.534c-.046.862-.31,1.114-1.159,1.134a10.977,10.977,0,0,1-5.9-1.362,7.672,7.672,0,0,1-3.549-5.545,12.353,12.353,0,0,1-.228-2.656C13.4.225,13.625.009,14.619,0c.182,0,.364,0,.546,0" transform="translate(4.281 0)" fill="#1a1818"/>
    <path id="Path_5410" data-name="Path 5410" d="M32.825,14.481a4.152,4.152,0,0,1,.018.424.686.686,0,0,1-.668.729.677.677,0,0,1-.758-.7,6.494,6.494,0,0,0-.313-1.783,5.477,5.477,0,0,0-10.572.758c-.057.318-.1.64-.125.961-.042.454-.285.74-.734.723a.68.68,0,0,1-.681-.773,6.64,6.64,0,0,1,3.157-5.757,6.9,6.9,0,0,1,10.675,5.418" transform="translate(6.075 2.532)" fill="#1a1818"/>
    <path id="Path_5411" data-name="Path 5411" d="M11.573,13.163a5.514,5.514,0,0,1,.139-2.124,3.406,3.406,0,0,1,.832-1.392.68.68,0,0,1,1.027-.057.654.654,0,0,1,.071.979,2.867,2.867,0,0,0-.319,3.135c.091.247.213.482.294.731a.685.685,0,0,1-.366.867,2.454,2.454,0,0,1-1.876-.235Q8.9,12.607,6.443,10.13c-.429-.433-.45-.855-.092-1.164.438-.377.814-.189,1.165.164q1.734,1.742,3.474,3.478c.15.152.309.3.583.556" transform="translate(1.951 2.802)" fill="#1a1818"/>
  </g>
</svg>
