<svg xmlns="http://www.w3.org/2000/svg" xmlns:xlink="http://www.w3.org/1999/xlink" width="28.9" height="41.156" viewBox="0 0 28.9 41.156">
  <defs>
    <clipPath id="clip-path">
      <rect id="Rectangle_65893" data-name="Rectangle 65893" width="28.9" height="41.156" fill="none"/>
    </clipPath>
  </defs>
  <g id="Group_149554" data-name="Group 149554" transform="translate(0 0)">
    <g id="Group_149553" data-name="Group 149553" transform="translate(0 0)" clip-path="url(#clip-path)">
      <path id="Path_5414" data-name="Path 5414" d="M23.613,18.7c.057-.721.178-1.415.226-2.119.01-.156-.081-.39.16-.434.184-.035.307.132.418.266a.817.817,0,0,1,.171.48,1.981,1.981,0,0,1-.976,1.807M4.3,17.2a1.674,1.674,0,0,1,.164-.86.369.369,0,0,1,.379-.231c.217.031.2.207.214.365a11.783,11.783,0,0,0,.314,2.2c.026.1.1.238-.006.309s-.241-.032-.339-.1A1.892,1.892,0,0,1,4.3,17.2M19.771,29.7c0,.051-.006.1-.01.153a20.107,20.107,0,0,1-10.628-.081,10.679,10.679,0,0,1,1.785-.432.74.74,0,0,0,.716-.833c0-.556,0-1.111,0-1.667,0-.267.108-.338.355-.243a7.179,7.179,0,0,0,4.894.109c.335-.109.384.032.379.31-.007.492,0,.984,0,1.476a.74.74,0,0,0,.7.845c.606.094,1.2.24,1.8.362m-1.66-17.917c-.151.1-.246.006-.344-.029a6.925,6.925,0,0,1-3.091-2.213c-.2-.237-.41-.489-.758-.3s-.269.511-.178.8c.134.422.3.833.448,1.251.048.139.226.276.083.428-.107.113-.273.047-.41.016a3.566,3.566,0,0,1-2.2-1.308c-.4-.535-.73-.5-1.1.066a8.648,8.648,0,0,1-1.256,1.547,7.694,7.694,0,0,1-2.954,1.766c-.164.055-.41.19-.407-.156a6.86,6.86,0,0,1,.19-2.355A6.067,6.067,0,0,1,8.313,8.416a10.494,10.494,0,0,1,12.238-.021,5.331,5.331,0,0,1,2.391,3.94c.042.534-.021.6-.489.37a14,14,0,0,1-3.379-2.2c-.329-.3-.652-.6-.979-.9a.481.481,0,0,0-.524-.129.472.472,0,0,0-.31.39.88.88,0,0,0,.138.5,15.833,15.833,0,0,1,.714,1.421m1.316.288a18.274,18.274,0,0,0,2.818,1.616.6.6,0,0,1,.359.516,9.6,9.6,0,0,1,.181,2.881,10.59,10.59,0,0,1-4.853,8.019,6,6,0,0,1-6.542.122,10.772,10.772,0,0,1-4.6-5.349,8.491,8.491,0,0,1-.658-4.51.567.567,0,0,1,.406-.567A8.617,8.617,0,0,0,10.931,11.7c.175-.233.3-.247.528-.052a5.781,5.781,0,0,0,4.186,1.216.5.5,0,0,0,.523-.339c.081-.312.23-.261.449-.158a8.389,8.389,0,0,0,1.982.655c.818.16,1.072-.113.829-.946m-16.86,19.3a2.4,2.4,0,0,1,.015-.9,6.956,6.956,0,0,1,.546-1.519,6.4,6.4,0,0,0-.5-6.476,8.742,8.742,0,0,1-.588-1.086c-1.162-2.618-.688-5.15.447-7.63A3.357,3.357,0,0,0,2.823,12.4a19.912,19.912,0,0,1,.762-5.449c.9-2.9,2.648-5,5.724-5.735a12.4,12.4,0,0,1,3.742-.127,10.272,10.272,0,0,0,2.576.34,8.243,8.243,0,0,1,2.793.017,7.967,7.967,0,0,1,5.853,3.9A14.244,14.244,0,0,1,26,11.666a6.172,6.172,0,0,0,.536,2.381,9.778,9.778,0,0,1,.971,3.949,7.871,7.871,0,0,1-1.295,4.6,6.252,6.252,0,0,0-.5,6.216,8.089,8.089,0,0,1,.6,1.651,2.18,2.18,0,0,1,.019.884c-.151-.133-.246-.215-.338-.3a7.818,7.818,0,0,0-4.208-2.074c-1.007-.129-2-.305-3-.463-.33-.052-.505-.195-.488-.564.025-.506.011-1.015,0-1.523a.6.6,0,0,1,.279-.561,12.088,12.088,0,0,0,4.335-5.369.879.879,0,0,1,.529-.5,3.529,3.529,0,0,0,2.025-2.154A2,2,0,0,0,24.2,15.134c-.41-.1-.811-.838-.554-1.167a2.325,2.325,0,0,0,.243-1.867c-.072-.756-.242-1.5-.3-2.259a5.58,5.58,0,0,0-.513-2.063,7.937,7.937,0,0,0-4.64-4,10.88,10.88,0,0,0-8.866.4A7.249,7.249,0,0,0,5.325,9.341a13.008,13.008,0,0,0-.338,2.2,12.014,12.014,0,0,0,.1,3.268c.07.3-.119.278-.294.278a1.385,1.385,0,0,0-1.27.921,2.527,2.527,0,0,0-.232,1.014A2.738,2.738,0,0,0,5.575,20.1c.264.025.331.2.421.387a12.751,12.751,0,0,0,4.28,5.187.617.617,0,0,1,.319.544c0,.6,0,1.207,0,1.809,0,.21-.048.38-.287.425a22.467,22.467,0,0,1-2.525.448,7.215,7.215,0,0,0-2.346.55,8.593,8.593,0,0,0-2.871,1.926M14.5,40.17H1.836c-.159,0-.318,0-.477,0-.258,0-.371-.127-.367-.382a18.224,18.224,0,0,1,.217-3.7,7.578,7.578,0,0,1,5.676-6.095.7.7,0,0,1,.668.093,5.891,5.891,0,0,0,2.313.961,21.778,21.778,0,0,0,7.614.274,8.291,8.291,0,0,0,3.981-1.308c.18-.134.361-.067.545-.016a7.577,7.577,0,0,1,5.58,5.625A14.629,14.629,0,0,1,27.9,39.45c.009.717.01.72-.7.72H14.5m-.014.986H27.668c1,0,1.246-.247,1.23-1.234a25.4,25.4,0,0,0-.185-3.75,9.458,9.458,0,0,0-1.22-3.279,1.05,1.05,0,0,1-.2-.757,5.4,5.4,0,0,0-.49-3.286,6.606,6.606,0,0,1-.691-2.36,5.684,5.684,0,0,1,.977-3.467c2.017-3.163,1.715-6.388.235-9.621A5.257,5.257,0,0,1,27,11.6a16.469,16.469,0,0,0-1.528-6.1A9.076,9.076,0,0,0,17.148.355a8.075,8.075,0,0,0-1.614.076A2.594,2.594,0,0,1,14.5.359,12.031,12.031,0,0,0,9.3.22,8.357,8.357,0,0,0,3,5.666a16.925,16.925,0,0,0-1.09,5.144c-.05.616-.065,1.234-.087,1.852a1.318,1.318,0,0,1-.154.542A11.462,11.462,0,0,0,.391,18.517,8.371,8.371,0,0,0,1.5,22.508,17.4,17.4,0,0,1,2.366,24.1a5.32,5.32,0,0,1-.178,4.558,4.991,4.991,0,0,0-.638,2.793,3.057,3.057,0,0,1-.443,2.011A9.376,9.376,0,0,0,.024,37.945Q0,39.015,0,40.086c0,.771.29,1.068,1.063,1.069q6.71,0,13.422,0" transform="translate(0 -0.001)" fill="#1a1818"/>
      <path id="Path_5415" data-name="Path 5415" d="M12.233,19.311a2.615,2.615,0,0,0,2.02-.917c.211-.252.338-.536.051-.8s-.54-.089-.773.146a2,2,0,0,1-2.854,0c-.233-.236-.478-.422-.773-.154s-.15.575.074.833a2.763,2.763,0,0,0,2.255.886" transform="translate(2.348 4.212)" fill="#1a1818"/>
      <path id="Path_5416" data-name="Path 5416" d="M15.265,11.065a2.664,2.664,0,0,0-1.673.736c-.236.212-.36.47-.143.752s.489.195.751.011a1.848,1.848,0,0,1,2.485-.057c.272.175.551.335.791,0,.258-.36.05-.628-.254-.834a3.247,3.247,0,0,0-1.956-.611" transform="translate(3.218 2.669)" fill="#1a1818"/>
      <path id="Path_5417" data-name="Path 5417" d="M8.762,11.063a3.227,3.227,0,0,0-1.936.66c-.273.2-.422.457-.2.772s.484.232.746.042a1.9,1.9,0,0,1,2.566.045.455.455,0,0,0,.712-.019.491.491,0,0,0-.093-.72,2.624,2.624,0,0,0-1.8-.781" transform="translate(1.573 2.669)" fill="#1a1818"/>
      <path id="Path_5418" data-name="Path 5418" d="M11.619,16.879a1.248,1.248,0,0,0,.9-.223.8.8,0,0,0,.29-.889c-.14-.436-.289-.87-.451-1.3a.443.443,0,0,0-.593-.323.485.485,0,0,0-.312.652c.068.243.154.482.242.719s.038.361-.228.389a1.014,1.014,0,0,0-.361.1.457.457,0,0,0,.138.869,2.566,2.566,0,0,0,.379,0" transform="translate(2.614 3.405)" fill="#1a1818"/>
      <path id="Path_5419" data-name="Path 5419" d="M7.589,13.032a.889.889,0,0,0,.9.946.909.909,0,0,0,.962-.9.957.957,0,0,0-.933-.988.938.938,0,0,0-.93.938" transform="translate(1.831 2.918)" fill="#1a1818"/>
      <path id="Path_5420" data-name="Path 5420" d="M16.055,13.052a.938.938,0,0,0-.907-.958.954.954,0,0,0-.956.966.92.92,0,0,0,.942.919.886.886,0,0,0,.921-.926" transform="translate(3.424 2.918)" fill="#1a1818"/>
    </g>
  </g>
</svg>
