<svg id="Group_149510" data-name="Group 149510" xmlns="http://www.w3.org/2000/svg" xmlns:xlink="http://www.w3.org/1999/xlink" width="71.979" height="71.98" viewBox="0 0 71.979 71.98">
  <defs>
    <clipPath id="clip-path">
      <rect id="Rectangle_65886" data-name="Rectangle 65886" width="71.979" height="71.98" fill="#9f2063"/>
    </clipPath>
  </defs>
  <g id="Group_149509" data-name="Group 149509" transform="translate(0 0)" clip-path="url(#clip-path)">
    <path id="Path_5394" data-name="Path 5394" d="M6.869,42.467a.947.947,0,0,1-.75-.366,35.652,35.652,0,0,1-2.494-3.624.95.95,0,1,1,1.627-.98A34.343,34.343,0,0,0,7.616,40.93a.95.95,0,0,1-.747,1.537" transform="translate(1.512 16.051)" fill="#9f2063"/>
    <path id="Path_5395" data-name="Path 5395" d="M10.65,45.894a.948.948,0,0,1-.595-.209c-.671-.54-1.327-1.109-1.954-1.691A.951.951,0,0,1,9.4,42.6c.592.552,1.214,1.089,1.849,1.6a.95.95,0,0,1-.6,1.691" transform="translate(3.38 18.353)" fill="#9f2063"/>
    <path id="Path_5396" data-name="Path 5396" d="M35.99,71.98a36.062,36.062,0,0,1-16.97-4.244.951.951,0,0,1,.9-1.677A34.03,34.03,0,1,0,3.275,45.606a.951.951,0,0,1-1.825.535A36,36,0,1,1,35.99,71.98" transform="translate(0 0)" fill="#9f2063"/>
    <path id="Path_5397" data-name="Path 5397" d="M39.008,19.564c0,.269,0,.54,0,.81,0,.178-.05.4.2.453a.475.475,0,0,0,.575-.268,3.641,3.641,0,0,0,.01-1.925.465.465,0,0,0-.568-.277c-.287.049-.212.294-.219.482-.01.241,0,.483,0,.725m-14.58.034h0v-.939c0-.274-.165-.35-.4-.3a.543.543,0,0,0-.479.566c-.006.3,0,.6,0,.9a3.58,3.58,0,0,0,.011.512.541.541,0,0,0,.588.5c.36,0,.271-.3.28-.507.011-.241,0-.483,0-.725m7.282,10.749c1.068,0,2.136,0,3.2,0,.149,0,.457.086.311-.257a8.2,8.2,0,0,1-.393-1.915c-.087-.527-.1-.542-.575-.3a4.989,4.989,0,0,1-4.75.145c-.115-.057-.232-.108-.348-.162-.453-.216-.464-.214-.549.3a7.168,7.168,0,0,1-.354,1.793c-.163.364-.02.407.294.4,1.054-.01,2.107,0,3.161,0M27.557,10.011a.232.232,0,0,0-.265.024,7.02,7.02,0,0,0-3.744,6.638c.006.118.017.229.138.29a1.174,1.174,0,0,0,.955-.28,2.059,2.059,0,0,1,1.789-1.051,1.586,1.586,0,0,0,1.463-2.048,6.683,6.683,0,0,1-.335-3.573M23.546,26.243c0,1.208.009,2.418,0,3.626,0,.348.125.466.472.486a6.964,6.964,0,0,0,2.381-.42.968.968,0,0,0,.675-.856,10.635,10.635,0,0,1,.176-1.092,1.552,1.552,0,0,0-.652-1.967.2.2,0,0,1-.03-.03,7.407,7.407,0,0,1-1.947-3.4.7.7,0,0,0-.826-.394c-.32.054-.241.308-.242.506-.006,1.18,0,2.361,0,3.542m8.222,20.029H19.262c-.128,0-.255,0-.384,0-.345-.009-.407.168-.33.469a.693.693,0,0,0,.785.591q10.307-.022,20.615-.01,2.154,0,4.31,0a.7.7,0,0,0,.656-.774c-.037-.414-.378-.267-.6-.267q-6.274-.013-12.548-.007M49.037,43.71a2.764,2.764,0,0,0-.122-.99c-.778-2.408-1.548-4.819-2.354-7.219a3.561,3.561,0,0,0-2.213-2.226c-.611-.237-.652-.208-.652.444q0,5.25,0,10.5c0,.628,0,.629.608.634,1.714.009,2.124.457,1.958,2.15-.014.151-.044.3.171.311.424.017.851.077,1.137-.378.181-.287.436-.525.645-.794a3.687,3.687,0,0,0,.823-2.434m-17.321,5H12.628a5.812,5.812,0,0,0-.724.032.7.7,0,0,0-.645.641.738.738,0,0,0,.467.826,1.447,1.447,0,0,0,.626.1q19.366,0,38.732,0a1.5,1.5,0,0,0,.586-.09.737.737,0,0,0,.509-.8.7.7,0,0,0-.651-.679,5.528,5.528,0,0,0-.724-.032H31.716m4.838-31.772c1.087,0,1.969-.007,2.851,0,.334,0,.482-.1.492-.464a7,7,0,0,0-5.341-7.038,13.566,13.566,0,0,0-4.077-.2A1.667,1.667,0,0,0,28.84,11.1a5.932,5.932,0,0,0,4.766,5.734,20.007,20.007,0,0,0,2.948.1M25.834,19.6h.013c0,.513,0,1.025,0,1.538a4.859,4.859,0,0,0,.7,2.56,7.525,7.525,0,0,0,4.532,3.4,2.455,2.455,0,0,0,1.264.01,6.934,6.934,0,0,0,2.488-1.188,6.1,6.1,0,0,0,2.7-4.087,21.328,21.328,0,0,0,.054-2.857c.01-.624,0-.618-.609-.631a29.3,29.3,0,0,1-3.113-.057,7.212,7.212,0,0,1-4.636-2.477c-.185-.209-.29-.254-.473,0a3.027,3.027,0,0,1-2.288,1.243c-.513.053-.632.179-.638.707-.007.612,0,1.224,0,1.836m5.881,25.261h9.946c.618,0,.619,0,.619-.619q0-5.442,0-10.887a1.4,1.4,0,0,0-1.594-1.6q-8.966,0-17.93,0a1.4,1.4,0,0,0-1.6,1.588c0,1.154,0,2.306-.007,3.459a.683.683,0,0,1-.645.758c-.417.024-.692-.228-.75-.7a3.511,3.511,0,0,1-.013-.426c0-.953,0-1.906,0-2.86,0-.454-.077-.5-.512-.35a3.891,3.891,0,0,0-2.5,2.658c-.664,2.087-1.3,4.185-2.034,6.247s-.02,3.631,1.4,5.048a1.428,1.428,0,0,0,1.016.115c.192-.182.037-.4.006-.595a1.473,1.473,0,0,1,1.532-1.836c.156,0,.314,0,.47,0,.622,0,.629-.007.629-.613q0-1.985,0-3.97a1.6,1.6,0,0,1,.08-.631.682.682,0,0,1,1.261-.013,1.217,1.217,0,0,1,.072.545q0,2.028,0,4.055c0,.625,0,.626.612.626h9.948M29.411,7.89h4.613c.069.017.136.04.206.053a8.31,8.31,0,0,1,6.144,4.487,7.942,7.942,0,0,1,.92,3.692c.029,2.775.011,5.552.009,8.327,0,.588-.277.942-.7.947s-.7-.341-.708-.93,0-1.2,0-1.793c0-.189.057-.472-.229-.463s-.71-.125-.823.325A7.758,7.758,0,0,1,36.226,26.6a.437.437,0,0,0-.156.45c.112.688.195,1.379.3,2.067a.936.936,0,0,0,.664.818,7.342,7.342,0,0,0,2.338.423c.384-.016.533-.135.52-.526-.022-.7-.014-1.4,0-2.093a.705.705,0,0,1,.648-.724.727.727,0,0,1,.732.642,2.343,2.343,0,0,1,.024.426c0,.626.013,1.253,0,1.879a.444.444,0,0,0,.38.517,1.982,1.982,0,0,1,1.069.591,2.1,2.1,0,0,0,1.216.635,5.31,5.31,0,0,1,4.1,3.819c.667,2.1,1.339,4.2,2.041,6.29a5.322,5.322,0,0,1-.793,5.2c-.05.064-.122.155-.108.216.027.126.161.086.254.086.7,0,1.4-.01,2.093.009a2.152,2.152,0,0,1,2,2.541,2.126,2.126,0,0,1-2.255,1.787q-19.493,0-38.987,0A2.2,2.2,0,0,1,9.85,49.831v-.682a2.209,2.209,0,0,1,2.46-1.826c.542,0,1.082,0,1.623,0,.106,0,.251.054.3-.08.042-.1-.072-.173-.129-.252a5.234,5.234,0,0,1-.81-5.04c.681-2.066,1.372-4.128,2-6.209a5.452,5.452,0,0,1,4.36-4.078,1.611,1.611,0,0,0,.947-.519,1.85,1.85,0,0,1,1.006-.615c.449-.095.529-.343.527-.755-.014-4.283-.01-8.564-.01-12.846a14.833,14.833,0,0,1,.063-1.491,8.262,8.262,0,0,1,3.119-5.765,8.62,8.62,0,0,1,4.1-1.779" transform="translate(4.269 3.419)" fill="#9f2063"/>
    <path id="Path_5398" data-name="Path 5398" d="M27.6,30.107a1.591,1.591,0,1,0-1.647,1.555A1.608,1.608,0,0,0,27.6,30.107m1.408-.036a3,3,0,1,1-3-3,3.049,3.049,0,0,1,3,3" transform="translate(9.974 11.734)" fill="#9f2063"/>
  </g>
</svg>
