<svg id="Group_149515" data-name="Group 149515" xmlns="http://www.w3.org/2000/svg" xmlns:xlink="http://www.w3.org/1999/xlink" width="66.11" height="89.62" viewBox="0 0 66.11 89.62">
  <defs>
    <clipPath id="clip-path">
      <rect id="Rectangle_65888" data-name="Rectangle 65888" width="66.11" height="89.62" fill="none"/>
    </clipPath>
  </defs>
  <g id="Group_149514" data-name="Group 149514" transform="translate(0 0)" clip-path="url(#clip-path)">
    <path id="Path_5399" data-name="Path 5399" d="M50.629,30.811h0c0,.6-.006,1.208,0,1.812,0,.286.02.56.335.716a2.257,2.257,0,0,0,3.2-1.932c.015-.355.012-.712,0-1.067-.04-1.534-.6-2.017-2.312-2-1.22.011-1.222.014-1.224,1.829ZM15.5,30.941h-.008c0-.6,0-1.208,0-1.812a.68.68,0,0,0-.46-.742,2.123,2.123,0,0,0-3.068,2.146c0,.355-.012.712.012,1.067.1,1.347.816,1.8,2.545,1.817,1.448.014.868-1.034.973-1.728a5.045,5.045,0,0,0,.006-.747M37.142,57.8c0-1.314-.018-2.628.006-3.943.014-.689-.224-.867-.881-.681a11.436,11.436,0,0,1-6.41,0c-.675-.2-.873.02-.868.692q.028,3.89,0,7.779a1.334,1.334,0,0,0,.736,1.3,6.487,6.487,0,0,0,6.691,0,1.341,1.341,0,0,0,.729-1.3c-.02-1.279-.006-2.558,0-3.837M22.793,61c-.908,0-1.817-.012-2.725.006-.372.008-.884-.177-1.081.175-.237.427.258.752.469,1.094.406.662.882,1.28,1.291,1.94,2.152,3.468,2.074,2.5-.166,5.626a7.892,7.892,0,0,0-.443,9.253c.555.945,1.087,1.9,1.64,2.851.912,1.557,1.855,3.1,2.739,4.668.369.658.875.976,1.543.713s.266-.862.184-1.3c-.4-2.164-.835-4.321-1.254-6.481a20.276,20.276,0,0,1-.1-7.83q.908-4.651,1.792-9.306c.247-1.3.16-1.4-1.165-1.408-.908-.006-1.815,0-2.724,0m20.634,0c-.978,0-1.957-.008-2.934,0-1.174.012-1.284.137-1.059,1.319.546,2.861,1.122,5.713,1.663,8.574a20.248,20.248,0,0,1,.374,6.242c-.378,3.108-1.119,6.144-1.663,9.217-.06.337-.24.767.181.945a1.057,1.057,0,0,0,1.265-.186,4.183,4.183,0,0,0,.466-.706c1.483-2.533,3.008-5.043,4.435-7.609a7.7,7.7,0,0,0-.369-8.626c-.478-.7-.985-1.382-1.508-2.047a1.556,1.556,0,0,1-.071-2.041c.948-1.406,1.846-2.847,2.782-4.261.381-.575.274-.829-.418-.822-1.047.008-2.1,0-3.143,0M19.755,56.95a8.121,8.121,0,0,0,6.425-2.587,1.767,1.767,0,0,0-.315-3A23.513,23.513,0,0,1,16.922,40.1c-.443-1.156-.553-1.188-1.662-.584a9.4,9.4,0,0,0-4.362,10.4,8.917,8.917,0,0,0,8.857,7.037M33.038,87.4c1.117,0,2.238-.034,3.354.011.736.031,1.064-.264,1.2-.995.463-2.55.99-5.088,1.456-7.636a16.869,16.869,0,0,0,.343-4.026,87.834,87.834,0,0,0-1.52-9.244c-.094-.556-.3-.673-.845-.4a8.369,8.369,0,0,1-7.865.018c-.719-.363-.824-.015-.928.54-.415,2.2-.884,4.388-1.237,6.6a15.4,15.4,0,0,0-.244,3.926c.343,3.509,1.182,6.926,1.834,10.379.128.675.495.85,1.1.838,1.117-.025,2.237-.008,3.354-.006m20.693,0c2.9,0,5.8-.038,8.7.022,1.024.022,1.417-.246,1.406-1.362-.051-5.3,0-10.594-.034-15.891a9.15,9.15,0,0,0-8.938-9.149c-1.293-.028-2.587.009-3.88-.02a1.451,1.451,0,0,0-1.385.756c-.776,1.224-1.628,2.4-2.395,3.629-1.22,1.957-1.187,1.4.092,3.18a10.1,10.1,0,0,1,.509,11.759c-1.216,2.035-2.389,4.1-3.611,6.127-.423.7-.383.971.515.961,3.005-.032,6.012-.012,9.017-.012m-41.386,0c3.007,0,6.013-.025,9.018.015.953.012,1-.269.555-1.013-1.3-2.152-2.565-4.321-3.829-6.493a10.074,10.074,0,0,1-1.313-6.45,9.862,9.862,0,0,1,2.358-5.26,1.692,1.692,0,0,0,.071-2.429c-.961-1.31-1.828-2.69-2.707-4.06A1.384,1.384,0,0,0,15.2,61c-1.327.025-2.656-.011-3.984.02a9.145,9.145,0,0,0-8.885,9.091c-.038,5.332.011,10.666-.034,16-.009,1.058.374,1.327,1.348,1.308,2.9-.052,5.8-.018,8.7-.018M14.079,20.41c0,1.577-.015,2.893.008,4.207.008.469-.2,1.114.42,1.3a1.792,1.792,0,0,0,1.881-.272c.5-.495.956-1.036,1.43-1.559a45.51,45.51,0,0,1,12.214-9.939,18.958,18.958,0,0,1,8.811-2.449,2.042,2.042,0,0,1,2.229,1.46,37.167,37.167,0,0,0,3.947,7.506,23.911,23.911,0,0,0,4.126,4.8,2.448,2.448,0,0,0,2.467.44c.767-.257.417-1.111.427-1.7.037-2.169.032-4.338.006-6.505a15.246,15.246,0,0,0-12.1-14.887,35.529,35.529,0,0,0-14.361.407c-6.11,1.34-9.624,5.4-11.163,11.407a25.485,25.485,0,0,0-.34,5.787m3.611,9.816c-.283,9.118,3.6,15.526,9.447,19.334a9.82,9.82,0,0,0,9.993.958c5.607-2.645,9.031-7.24,10.649-13.245a32.387,32.387,0,0,0,.678-8.794,1.673,1.673,0,0,0-.695-1.356,18.88,18.88,0,0,1-2.335-2.29,38.324,38.324,0,0,1-5.955-9.865,1.406,1.406,0,0,0-1.665-1.008,17.07,17.07,0,0,0-6.193,1.857,42.632,42.632,0,0,0-11.341,8.837c-1.623,1.665-3.372,3.234-2.584,5.574M15.965,58.795a24.319,24.319,0,0,1-3.334-2.2A11.654,11.654,0,0,1,13.9,37.787a13.564,13.564,0,0,1,1.6-.779.608.608,0,0,0,.435-.733c-.068-.421-.266-.639-.686-.646-.56-.006-1.121.008-1.679-.025A3.926,3.926,0,0,1,9.8,31.987c-.226-2.014-.148-3.934,1.712-5.254.438-.31.383-.805.383-1.265,0-2.49-.023-4.98.008-7.469C12,10.577,15.963,3.286,24.465,1.217A35.238,35.238,0,0,1,40.882.773,17.419,17.419,0,0,1,54.23,17.987c.017,2.453.023,4.908-.006,7.361A1.967,1.967,0,0,0,55,27.079c1.374,1.116,1.851,3.918,1.1,5.932a3.982,3.982,0,0,1-4.056,2.6c-2.034.018-1.639-.114-2.054,1.706a22.612,22.612,0,0,1-9.649,13.96,2.051,2.051,0,0,0-1.045,2c.068,1.348.014,2.7.017,4.053,0,1.446.006,1.45,1.482,1.451,4.3,0,8.606.151,12.9-.035,6.567-.284,12.465,4.642,12.408,12.428-.038,5.441,0,10.883-.011,16.323,0,1.794-.34,2.118-2.089,2.118q-30.945,0-61.886,0c-1.7,0-2.086-.311-2.077-1.908.037-6.079-.191-12.162.117-18.238A11.476,11.476,0,0,1,11.072,58.8c1.631-.029,3.262,0,4.893,0" transform="translate(0 0)" fill="#fff"/>
    <path id="Path_5400" data-name="Path 5400" d="M23.064,30.853a8.351,8.351,0,0,1-3.681-1.107c-.618-.386-1.05-.916-.612-1.669.41-.706,1.054-.6,1.648-.257a5.011,5.011,0,0,0,5.358-.017c.6-.349,1.244-.407,1.632.309s0,1.231-.583,1.6a8.224,8.224,0,0,1-3.763,1.139" transform="translate(9.986 14.799)" fill="#fff"/>
    <path id="Path_5401" data-name="Path 5401" d="M18.328,20.195c-.767,0-1.533.02-2.295-.006-.678-.023-1.148-.35-1.148-1.1a1,1,0,0,1,1.09-1.045c1.6-.035,3.2-.037,4.794.008a1.065,1.065,0,1,1-.043,2.129c-.8.034-1.6.008-2.4.008Z" transform="translate(7.995 9.679)" fill="#fff"/>
    <path id="Path_5402" data-name="Path 5402" d="M27.039,20.2c-.73,0-1.462.014-2.19,0-.658-.015-1.194-.269-1.219-1.024a1.035,1.035,0,0,1,1.125-1.128q2.345-.055,4.693,0a1.011,1.011,0,0,1,1.111,1.128c-.043.747-.563,1.01-1.225,1.024-.764.015-1.529,0-2.295,0" transform="translate(12.691 9.677)" fill="#fff"/>
    <path id="Path_5403" data-name="Path 5403" d="M16.481,22.081c-.011-.778.006-1.629,1.027-1.626.951,0,1.125.8,1.134,1.6.012,1.047-.458,1.734-1.162,1.717-.679-.015-1-.56-1-1.689" transform="translate(8.851 10.986)" fill="#fff"/>
    <path id="Path_5404" data-name="Path 5404" d="M27.3,22.1a2.061,2.061,0,0,1-.218,1.233.89.89,0,0,1-1.094.39c-.755-.289-.852-.962-.85-1.663,0-.672.118-1.3.833-1.56a.91.91,0,0,1,1.107.369A2.033,2.033,0,0,1,27.3,22.1" transform="translate(13.502 10.975)" fill="#fff"/>
  </g>
</svg>
