<svg xmlns="http://www.w3.org/2000/svg" width="314" height="52" viewBox="0 0 314 52" fill="none"><path d="M205.455 5.52007C205.04 4.22123 204.763 2.82962 204.67 1.48439C204.486 -0.185549 203.193 0.0463872 203.193 0.0463872C202.131 0.231936 202.177 1.57716 202.177 1.57716L201.992 14.0089L200.376 11.5504C199.638 10.4371 198.714 9.41659 197.652 8.53524C196.36 7.74665 194.836 7.37556 193.312 7.51472H158.685C157.3 7.60749 155.961 6.91169 155.269 5.70562C154.761 4.26762 154.438 2.82962 154.299 1.29884C154.068 0.834969 154.161 0 153.053 0C151.944 0 151.944 1.48439 151.944 1.48439L151.714 13.777L150.698 12.1998C149.867 10.9474 148.943 9.83408 147.881 8.81356C146.773 7.9322 145.434 7.42194 144.003 7.42194H120.364H55.4498C53.603 7.60749 51.9871 6.26227 51.8024 4.40678C51.5715 3.47904 51.4792 2.50491 51.4792 1.57716C51.2483 0.278323 50.3711 0.139161 50.3711 0.139161C48.9399 -0.231936 48.9399 1.39161 48.9399 1.39161L48.5705 13.6842C47.6471 12.1534 46.5852 10.7154 45.3848 9.37021C43.4918 7.9322 41.1372 7.2364 38.7364 7.42194H0V13.3595H18.7449C19.6221 13.6378 19.3913 14.0553 19.3913 14.0553C17.8677 14.1481 16.3902 14.7047 15.1437 15.5861C12.6043 17.3488 11.6809 20.6887 12.8352 23.5183C13.6201 25.9304 15.8362 27.554 18.3755 27.6467C19.8068 27.8323 21.2381 27.322 22.2076 26.3015C25.8089 23.7502 24.1006 18.7404 24.1006 18.7404C24.7931 18.8332 25.4395 19.0651 25.9935 19.4826C27.471 20.7351 28.302 22.5442 28.3482 24.4924C28.3482 26.7654 27.3325 28.9456 25.6703 30.4764C22.2538 33.3524 17.2675 33.2596 13.9894 30.2444C8.6799 25.9768 3.83208 16.2819 3.83208 16.2819C3.09337 14.0553 2.26231 14.38 2.26231 14.38C0.230848 14.612 1.33892 16.7458 1.33892 16.7458L2.72401 19.5754C7.80268 31.3577 12.8352 35.8109 12.8352 35.8109C23.5927 45.9233 30.3797 35.0223 30.3797 35.0223C32.5958 36.9706 34.3502 39.3827 35.5968 42.0268C36.5664 43.975 37.2589 46.0161 37.6283 48.1499C37.7668 51.165 39.3827 50.7012 39.3827 50.7012C40.6293 50.6548 40.4908 48.1499 40.4908 48.1499V13.4059C42.4299 13.2203 44.3229 13.8234 45.8003 15.0294C47.3701 16.5138 48.2935 18.6012 48.2935 20.7814L47.7856 45.8305L53.6953 52L53.4645 13.4987H73.8715L73.5483 27.1365C72.5326 25.1418 71.2398 23.2864 69.8086 21.57C68.0079 19.2507 65.0531 18.1374 62.1906 18.6476C58.2661 19.8073 55.5883 23.4719 55.7268 27.554C55.7268 36.9706 62.6523 36.785 62.6523 36.785C70.1317 36.3675 68.839 28.5281 68.839 28.5281C71.7939 30.198 74.2409 35.7181 74.2409 35.7181C75.8106 40.0321 76.6417 44.6244 76.6878 49.2168C76.7802 51.0723 78.0729 50.8867 78.0729 50.8867C79.3657 50.9795 79.181 49.0312 79.181 49.0312L79.0887 13.4523H96.587V22.6369L95.0172 19.9001C93.6321 17.0241 90.5849 15.3541 87.3992 15.7252C84.629 16.3283 82.4591 18.5549 82.0435 21.3845C81.1201 28.6673 86.1065 29.8733 86.1065 29.8733C88.7381 30.8011 91.6468 29.4095 92.5702 26.7654C92.5702 26.6262 92.6626 26.5335 92.6626 26.3943C93.0319 25.2346 93.0781 23.9822 92.8011 22.7761C93.3089 23.1008 93.8168 23.5183 94.1862 23.9822C95.2942 25.6057 96.0329 27.4612 96.31 29.4095C96.587 31.8216 95.9868 34.2337 94.6479 36.2284C94.0938 37.0633 94.8787 37.388 94.8787 37.388C96.31 38.7797 97.9259 39.9857 99.6803 40.9599C101.158 41.7484 101.204 40.5888 101.204 40.5888L101.389 40.0785C103.005 36.5995 105.359 33.5379 108.176 30.9866C105.267 43.5112 112.377 50.1445 112.377 50.1445C113.208 51.2114 113.993 50.9331 113.993 50.9331C114.593 50.6548 114.824 49.9126 114.547 49.3559C114.501 49.2632 114.408 49.1704 114.362 49.0776C112.793 46.6191 111.777 43.7895 111.407 40.8671C111.223 37.8519 111.823 34.8368 113.116 32.0999C114.408 29.9661 115.932 27.9715 117.64 26.116C118.01 25.7449 118.056 25.1882 117.825 24.7707C116.578 22.5442 115.009 20.5031 113.116 18.7404C112.977 18.6012 112.839 18.5549 112.654 18.6012C108.73 20.5495 105.128 23.1008 101.989 26.1624V13.4059H120.272H138.047V14.1017C123.458 21.1062 119.533 25.2346 119.533 25.2346L124.335 33.1204C139.802 33.7235 141.048 49.3559 141.048 49.3559C141.233 51.0723 142.387 50.9331 142.387 50.9331C143.634 50.9795 143.495 49.0312 143.495 49.0312V13.3595C147.512 13.174 150.883 16.0963 151.298 20.0856L150.836 46.3872L156.515 51.9536V13.3595H169.674C167.642 15.8644 166.488 18.926 166.349 22.1731C166.996 25.9768 167.273 28.992 171.151 31.5433C174.106 33.8626 178.4 33.306 180.708 30.3372C180.847 30.1517 180.985 29.9197 181.124 29.7342C180.939 35.1151 178.861 37.6664 175.352 37.7128C171.844 37.8055 170.366 36.9242 167.457 33.074C164.595 29.2239 162.148 18.926 161.963 16.5602C161.779 14.1945 160.116 14.4264 160.116 14.4264C159.008 14.6583 159.147 16.3283 159.147 16.3283C160.07 21.8484 161.455 27.2756 163.256 32.5638C167.227 44.5781 171.797 45.7841 173.967 46.1552C178.954 46.9902 182.001 44.3461 183.894 39.3363C185.971 34.1873 185.464 28.3889 182.509 23.7038C179.831 20.0392 177.569 20.6887 177.569 20.6887L176.599 21.7556C176.276 25.884 173.46 25.5593 173.46 25.5593C169.766 25.6985 171.844 20.7814 171.844 20.7814C173.321 18.4157 175.445 16.4674 177.984 15.215C178.815 17.5343 180.339 19.529 182.324 20.9206C183.94 22.4978 185.925 23.5647 188.095 24.0285C183.663 34.8831 189.85 48.8921 189.85 48.8921C190.727 51.2114 192.112 50.8403 192.112 50.8403C193.636 50.2373 192.158 47.4541 192.158 47.4541C185.14 30.3372 197.606 22.3586 197.606 22.3586C196.498 19.5754 194.651 17.1632 192.297 15.3541C191.466 14.8439 190.311 15.0758 189.804 15.9572C189.757 16.05 189.665 16.1891 189.619 16.3283C188.557 19.4362 185.002 18.1374 185.002 18.1374C180.246 16.7458 179.969 13.4059 179.969 13.4059H194.005C197.883 13.4059 201.115 16.3283 201.577 20.1784L201.069 46.3408L206.748 51.9536V13.3595H227.478V14.0553C212.888 21.0598 208.964 25.1882 208.964 25.1882L213.766 33.074C229.279 33.6771 230.479 49.3559 230.479 49.3559C230.664 51.0259 231.818 50.9331 231.818 50.9331C233.111 50.9331 232.926 49.0312 232.926 49.0312V13.3595H237.451V7.51472H208.918C205.686 7.51472 205.27 5.47368 205.27 5.47368M34.8581 34.8831C33.9347 33.3988 32.919 31.9144 31.8571 30.5227C32.919 26.6726 32.1803 22.5442 29.8256 19.2971C28.3482 17.1169 26.2244 15.5397 23.7774 14.6583C23.6389 14.1945 23.4542 13.777 23.2234 13.4059H35.2736L34.8119 34.8368L34.8581 34.8831ZM138.232 34.0946C136.339 31.9607 134.215 30.0589 131.907 28.3426L129.691 26.719C132.415 24.9099 135.277 23.24 138.186 21.7556V34.1409L138.232 34.0946ZM227.293 34.0946C225.354 31.9607 223.277 30.0589 220.968 28.3426L218.798 26.719C221.522 24.9099 224.385 23.24 227.293 21.7556V34.1409V34.0946Z" fill="#EE303B"></path><path d="M237.774 39.893V39.8003C237.774 34.0947 242.114 29.3632 248.254 29.3632C254.395 29.3632 254.349 30.6156 256.242 32.7494L252.779 36.5068C251.532 35.1616 250.24 34.2802 248.254 34.2802C246.269 34.2802 243.407 36.7851 243.407 39.7539V39.8467C243.407 42.9082 245.392 45.3667 248.485 45.3667C251.579 45.3667 251.671 44.5318 253.056 43.2329L256.38 46.6192C254.441 48.753 252.225 50.2838 248.208 50.2838C242.206 50.2838 237.82 45.645 237.82 39.9394" fill="#5B5B5B"></path><path d="M258.504 39.893V39.8003C258.504 34.0483 263.121 29.3632 269.354 29.3632C275.587 29.3632 280.112 33.9555 280.112 39.7075V39.8003C280.112 45.5523 275.495 50.2374 269.262 50.2374C263.029 50.2374 258.504 45.6451 258.504 39.893ZM274.525 39.893V39.8003C274.525 36.8315 272.401 34.2802 269.262 34.2802C266.122 34.2802 264.091 36.7851 264.091 39.7539V39.8467C264.091 42.8154 266.214 45.3667 269.354 45.3667C272.494 45.3667 274.525 42.8618 274.525 39.893Z" fill="#5B5B5B"></path><path d="M283.482 29.7806H289.161V32.6103C290.454 30.9403 292.162 29.4095 295.071 29.4095C297.979 29.4095 299.641 30.5692 300.703 32.6103C302.458 30.5692 304.535 29.4095 307.259 29.4095C311.461 29.4095 314 31.9608 314 36.7851V49.8199H308.321V38.6406C308.321 35.9501 307.121 34.5585 304.997 34.5585C302.873 34.5585 301.58 35.9501 301.58 38.6406V49.8199H295.902V38.6406C295.902 35.9501 294.701 34.5585 292.577 34.5585C290.454 34.5585 289.161 35.9501 289.161 38.6406V49.8199H283.482V29.7806Z" fill="#5B5B5B"></path><path d="M225.077 42.9082C225.077 45.3203 223.138 47.2685 220.737 47.2685C218.336 47.2685 216.397 45.3203 216.397 42.9082C216.397 40.496 218.336 38.5478 220.737 38.5478C223.138 38.5478 225.077 40.496 225.077 42.9082Z" fill="#5B5B5B"></path></svg>